<svg width="93" height="75" viewBox="0 0 93 75" fill="none" xmlns="http://www.w3.org/2000/svg">
<g clip-path="url(#clip0_598_854)">
<path d="M56.7719 0.453721C54.3148 -0.254482 51.7566 1.17638 51.0484 3.63341L32.5484 68.3834C31.8402 70.8404 33.2711 73.3986 35.7281 74.1068C38.1851 74.815 40.7433 73.3842 41.4515 70.9272L59.9515 6.17716C60.6598 3.72013 59.2289 1.16192 56.7719 0.453721ZM68.4211 17.8119C66.6144 19.6186 66.6144 22.5525 68.4211 24.3592L81.3277 37.2803L68.4066 50.2014C66.6 52.008 66.6 54.942 68.4066 56.7486C70.2133 58.5553 73.1472 58.5553 74.9539 56.7486L91.1414 40.5611C92.948 38.7545 92.948 35.8205 91.1414 34.0139L74.9539 17.8264C73.1472 16.0197 70.2133 16.0197 68.4066 17.8264L68.4211 17.8119ZM24.0933 17.8119C22.2867 16.0053 19.3527 16.0053 17.5461 17.8119L1.35858 33.9994C-0.448059 35.8061 -0.448059 38.74 1.35858 40.5467L17.5461 56.7342C19.3527 58.5408 22.2867 58.5408 24.0933 56.7342C25.9 54.9275 25.9 51.9936 24.0933 50.1869L11.1723 37.2803L24.0933 24.3592C25.9 22.5525 25.9 19.6186 24.0933 17.8119Z" fill="#188EF8"/>
</g>
<defs>
<clipPath id="clip0_598_854">
<rect width="92.5" height="74" fill="white" transform="translate(0 0.280273)"/>
</clipPath>
</defs>
</svg>
