<svg width="88" height="89" viewBox="0 0 88 89" fill="none" xmlns="http://www.w3.org/2000/svg">
<path fill-rule="evenodd" clip-rule="evenodd" d="M66 22.2803V66.2803H22V22.2803H66ZM40.5195 33.2803H36.2343L28.0988 55.2803H31.9648L33.5007 50.9794H43.2395L44.7425 55.2803H48.8412L40.5195 33.2803ZM55.7037 33.2803H51.8533V55.2803H55.7037V33.2803ZM38.3443 36.9713L42.1797 47.9469H34.5701L38.3443 36.9713ZM69.667 55.2803H77V62.6137H69.6666L69.667 55.2803ZM25.667 69.9469H33V77.2803H25.6666L25.667 69.9469ZM40.3336 69.9469H47.6668V77.2803H40.3336V69.9469ZM25.6666 11.2803H33V18.6137H25.6666V11.2803ZM55 69.9469H62.3334V77.2803H55V69.9469ZM40.3334 11.2803H47.6666V18.6137H40.3334V11.2803ZM55 11.2803H62.3334V18.6137H55V11.2803ZM69.6666 40.6137H77V47.9469H69.6666V40.6137ZM11 55.2803H18.3334V62.6137H11V55.2803ZM69.6666 25.9469H77V33.2803H69.6666V25.9469ZM11 40.6137H18.3334V47.9469H11V40.6137ZM11 25.9469H18.3334V33.2803H11V25.9469Z" fill="#188EF8"/>
</svg>
