<svg width="93" height="75" viewBox="0 0 93 75" fill="none" xmlns="http://www.w3.org/2000/svg">
<g clip-path="url(#clip0_598_859)">
<path d="M36.8598 38.0969C37.7631 39.0002 39.2272 39.0002 40.1305 38.0969L41.7652 36.4622C42.6685 35.5589 42.6685 34.0948 41.7652 33.1915L36.6025 28.0303L41.7637 22.8676C42.6671 21.9643 42.6671 20.5002 41.7637 19.5969L40.1291 17.9622C39.2258 17.0589 37.7617 17.0589 36.8584 17.9622L28.4264 26.3942C27.5231 27.2975 27.5231 28.7616 28.4264 29.6649L36.8598 38.0969ZM50.7363 36.4637L52.3709 38.0983C53.2742 39.0016 54.7383 39.0016 55.6416 38.0983L64.0736 29.6664C64.9769 28.763 64.9769 27.2989 64.0736 26.3956L55.6416 17.9637C54.7383 17.0604 53.2742 17.0604 52.3709 17.9637L50.7363 19.5983C49.8329 20.5016 49.8329 21.9657 50.7363 22.8691L55.8975 28.0303L50.7363 33.1929C49.8329 34.0962 49.8329 35.5604 50.7363 36.4637ZM90.1875 60.4053H55.1445C55.0375 63.2684 53.0184 65.0303 50.4125 65.0303H41.625C38.9237 65.0303 36.8526 62.5053 36.8887 60.4053H2.3125C1.04062 60.4053 0 61.4459 0 62.7178V65.0303C0 70.1178 4.1625 74.2803 9.25 74.2803H83.25C88.3375 74.2803 92.5 70.1178 92.5 65.0303V62.7178C92.5 61.4459 91.4594 60.4053 90.1875 60.4053ZM83.25 7.21777C83.25 3.40215 80.1281 0.280273 76.3125 0.280273H16.1875C12.3719 0.280273 9.25 3.40215 9.25 7.21777V55.7803H83.25V7.21777ZM74 46.5303H18.5V9.53027H74V46.5303Z" fill="#188EF8"/>
</g>
<defs>
<clipPath id="clip0_598_859">
<rect width="92.5" height="74" fill="white" transform="translate(0 0.280273)"/>
</clipPath>
</defs>
</svg>
