<svg width="85" height="89" viewBox="0 0 85 89" fill="none" xmlns="http://www.w3.org/2000/svg">
<path d="M16.1839 29.8159C16.2213 19.9206 16.5881 14.625 20.0162 11.1968C23.8523 7.36072 30.0275 7.36072 42.3779 7.36072C54.7282 7.36072 60.9034 7.36072 64.7395 11.1968C68.1676 14.625 68.5306 19.9169 68.5681 29.8159M16.1839 59.7561C16.2213 69.6514 16.5881 74.947 20.0162 78.3752C23.8523 82.2113 30.0275 82.2113 42.3779 82.2113C54.7282 82.2113 60.9034 82.2113 64.7395 78.3752C68.1676 74.947 68.5306 69.6551 68.5681 59.7561M38.6391 70.9837H46.1241M57.3517 37.3009L61.9438 41.2568C63.8712 42.9222 64.8368 43.7531 64.8368 44.786C64.8368 45.8189 63.8712 46.6498 61.9438 48.3152L57.3517 52.2711M27.4115 37.3009L22.8194 41.2568C20.892 42.9222 19.9264 43.7531 19.9264 44.786C19.9264 45.8189 20.892 46.6498 22.8194 48.3152L27.4115 52.2711M46.1241 33.5584L38.6391 56.0136" stroke="#188EF8" stroke-width="4.8" stroke-linecap="round" stroke-linejoin="round"/>
</svg>
