<svg width="88" height="89" viewBox="0 0 88 89" fill="none" xmlns="http://www.w3.org/2000/svg">
<path d="M73.6377 38.7803L78.045 41.424C78.3169 41.5867 78.542 41.8172 78.6982 42.0929C78.8545 42.3686 78.9366 42.6801 78.9366 42.997C78.9366 43.3139 78.8545 43.6253 78.6982 43.901C78.542 44.1767 78.3169 44.4072 78.045 44.57L44 64.9933L9.955 44.57C9.6831 44.4072 9.45804 44.1767 9.30177 43.901C9.1455 43.6253 9.06335 43.3139 9.06335 42.997C9.06335 42.6801 9.1455 42.3686 9.30177 42.0929C9.45804 41.8172 9.6831 41.5867 9.955 41.424L14.3623 38.7803L44 56.5636L73.6377 38.7803ZM73.6377 56.0136L78.045 58.6573C78.3169 58.8201 78.542 59.0505 78.6982 59.3262C78.8545 59.6019 78.9366 59.9134 78.9366 60.2303C78.9366 60.5472 78.8545 60.8587 78.6982 61.1344C78.542 61.4101 78.3169 61.6405 78.045 61.8033L45.8883 81.0973C45.3181 81.4399 44.6653 81.6209 44 81.6209C43.3347 81.6209 42.6819 81.4399 42.1117 81.0973L9.955 61.8033C9.6831 61.6405 9.45804 61.4101 9.30177 61.1344C9.1455 60.8587 9.06335 60.5472 9.06335 60.2303C9.06335 59.9134 9.1455 59.6019 9.30177 59.3262C9.45804 59.0505 9.6831 58.8201 9.955 58.6573L14.3623 56.0136L44 73.797L73.6377 56.0136ZM45.8847 5.07997L78.045 24.374C78.3169 24.5367 78.542 24.7672 78.6982 25.0429C78.8545 25.3186 78.9366 25.6301 78.9366 25.947C78.9366 26.2639 78.8545 26.5753 78.6982 26.851C78.542 27.1267 78.3169 27.3572 78.045 27.52L44 47.9433L9.955 27.5236C9.6831 27.3609 9.45804 27.1304 9.30177 26.8547C9.1455 26.579 9.06335 26.2675 9.06335 25.9506C9.06335 25.6337 9.1455 25.3223 9.30177 25.0466C9.45804 24.7709 9.6831 24.5404 9.955 24.3776L42.1117 5.08363C42.6819 4.74101 43.3347 4.56 44 4.56C44.6653 4.56 45.3181 4.74101 45.8883 5.08363" fill="#188EF8"/>
</svg>
