<svg width="17" height="17" viewBox="0 0 17 17" fill="none" xmlns="http://www.w3.org/2000/svg">
<g clip-path="url(#clip0_598_3463)">
<path d="M14.9616 0.747314H1.75008C1.11721 0.747314 0.605469 1.24695 0.605469 1.86468V15.1307C0.605469 15.7484 1.11721 16.2511 1.75008 16.2511H14.9616C15.5945 16.2511 16.1092 15.7484 16.1092 15.1337V1.86468C16.1092 1.24695 15.5945 0.747314 14.9616 0.747314ZM5.20512 13.9588H2.90378V6.5582H5.20512V13.9588ZM4.05445 5.54985C3.3156 5.54985 2.71907 4.95332 2.71907 4.21749C2.71907 3.48167 3.3156 2.88514 4.05445 2.88514C4.79027 2.88514 5.3868 3.48167 5.3868 4.21749C5.3868 4.95029 4.79027 5.54985 4.05445 5.54985ZM13.817 13.9588H11.5187V10.3615C11.5187 9.50452 11.5035 8.39927 10.3226 8.39927C9.12648 8.39927 8.9448 9.33494 8.9448 10.3009V13.9588H6.64951V6.5582H8.85395V7.56958H8.88423C9.19007 6.98818 9.94104 6.37348 11.0584 6.37348C13.387 6.37348 13.817 7.90569 13.817 9.89817V13.9588Z" fill="white"/>
</g>
<defs>
<clipPath id="clip0_598_3463">
<rect width="15.5038" height="15.5038" fill="white" transform="translate(0.605469 0.747314)"/>
</clipPath>
</defs>
</svg>
