<svg width="16" height="17" viewBox="0 0 16 17" fill="none" xmlns="http://www.w3.org/2000/svg">
<path fill-rule="evenodd" clip-rule="evenodd" d="M7.60992 15.1858C7.62943 15.1971 7.64477 15.2058 7.65563 15.2119L7.67367 15.222C7.81764 15.301 7.99623 15.3004 8.14034 15.2222L8.15885 15.2119C8.16971 15.2058 8.18504 15.1971 8.20456 15.1858C8.24358 15.1632 8.29934 15.1302 8.36944 15.087C8.5096 15.0007 8.70746 14.8734 8.9438 14.7065C9.41568 14.3731 10.0453 13.8785 10.6763 13.2325C11.9322 11.9466 13.2367 10.0147 13.2367 7.5301C13.2367 4.58675 10.8506 2.20068 7.90724 2.20068C4.96388 2.20068 2.57782 4.58675 2.57782 7.5301C2.57782 10.0147 3.88228 11.9466 5.13817 13.2325C5.76917 13.8785 6.39879 14.3731 6.87068 14.7065C7.10702 14.8734 7.30488 15.0007 7.44503 15.087C7.51514 15.1302 7.5709 15.1632 7.60992 15.1858ZM7.90724 9.46807C8.97755 9.46807 9.84521 8.60041 9.84521 7.5301C9.84521 6.45979 8.97755 5.59213 7.90724 5.59213C6.83693 5.59213 5.96927 6.45979 5.96927 7.5301C5.96927 8.60041 6.83693 9.46807 7.90724 9.46807Z" fill="white"/>
</svg>
