<svg width="16" height="17" viewBox="0 0 16 17" fill="none" xmlns="http://www.w3.org/2000/svg">
<path fill-rule="evenodd" clip-rule="evenodd" d="M1.30981 3.65428C1.30981 2.58397 2.17747 1.71631 3.24778 1.71631H4.13384C4.68964 1.71631 5.17411 2.09457 5.30891 2.63377L6.02324 5.49111C6.14144 5.96389 5.96478 6.46146 5.57491 6.75386L4.73925 7.38061C4.65247 7.44569 4.63361 7.54099 4.65798 7.60754C5.39151 9.60998 6.98194 11.2004 8.98438 11.9339C9.05092 11.9583 9.14623 11.9394 9.21131 11.8527L9.83806 11.017C10.1305 10.6271 10.628 10.4505 11.1008 10.5687L13.9581 11.283C14.4973 11.4178 14.8756 11.9023 14.8756 12.4581V13.3441C14.8756 14.4144 14.0079 15.2821 12.9376 15.2821H11.4842C5.86502 15.2821 1.30981 10.7269 1.30981 5.10776V3.65428Z" fill="white"/>
</svg>
