<svg width="17" height="17" viewBox="0 0 17 17" fill="none" xmlns="http://www.w3.org/2000/svg">
<g clip-path="url(#clip0_598_3460)">
<path d="M5.84742 14.7972C11.6965 14.7972 14.8965 9.95018 14.8965 5.74811C14.8965 5.61185 14.8935 5.47256 14.8874 5.33629C15.51 4.8861 16.0472 4.32848 16.4739 3.68962C15.8941 3.94757 15.2785 4.11603 14.6482 4.18926C15.3119 3.79144 15.8088 3.16648 16.0469 2.43025C15.4225 2.80026 14.7397 3.06128 14.0278 3.2021C13.5481 2.69239 12.9138 2.35489 12.223 2.2418C11.5323 2.12871 10.8235 2.24632 10.2063 2.57645C9.58908 2.90658 9.09781 3.43085 8.80844 4.06818C8.51906 4.70552 8.4477 5.42044 8.60539 6.1024C7.34117 6.03896 6.10438 5.71054 4.97522 5.13845C3.84606 4.56636 2.84973 3.76336 2.05081 2.7815C1.64476 3.48158 1.52051 4.31 1.70331 5.09839C1.88611 5.88679 2.36224 6.576 3.03494 7.02596C2.52992 7.00993 2.03596 6.87396 1.59388 6.62928V6.66865C1.59342 7.40333 1.84741 8.11549 2.31266 8.68408C2.77791 9.25267 3.42571 9.64259 4.14594 9.78757C3.67812 9.91557 3.18712 9.93422 2.71094 9.84207C2.91417 10.4739 3.30959 11.0265 3.84202 11.4228C4.37444 11.8191 5.0173 12.0392 5.68087 12.0526C4.55432 12.9375 3.1627 13.4175 1.73014 13.4152C1.47609 13.4148 1.22229 13.3992 0.970093 13.3686C2.42542 14.3022 4.11835 14.7981 5.84742 14.7972Z" fill="white"/>
</g>
<defs>
<clipPath id="clip0_598_3460">
<rect width="15.5038" height="15.5038" fill="white" transform="translate(0.970093 0.747314)"/>
</clipPath>
</defs>
</svg>
