<svg width="24" height="24" viewBox="0 0 24 24" fill="none" xmlns="http://www.w3.org/2000/svg">
<path d="M17.5814 12.0001C17.5814 13.4804 16.9934 14.9 15.9467 15.9467C14.9 16.9935 13.4803 17.5815 12 17.5815C10.5198 17.5815 9.10011 16.9935 8.05339 15.9467C7.00668 14.9 6.41864 13.4804 6.41864 12.0001C6.41864 10.5198 7.00668 9.10017 8.05339 8.05345C9.10011 7.00674 10.5198 6.4187 12 6.4187C13.4803 6.4187 14.9 7.00674 15.9467 8.05345C16.9934 9.10017 17.5814 10.5198 17.5814 12.0001Z" fill="black"/>
<path d="M5.55556 18.7234L5.5618 18.7171L5.92716 18.3518C5.96417 18.3147 5.98497 18.2645 5.98497 18.2121C5.98497 18.1598 5.96422 18.1096 5.92727 18.0725L5.55556 18.7234ZM5.55556 18.7234L5.54954 18.7298M5.55556 18.7234L5.54954 18.7298M5.54954 18.7298C5.53145 18.7493 5.50963 18.7648 5.48537 18.7756C5.46113 18.7864 5.43495 18.7923 5.40841 18.7927C5.38187 18.7932 5.35551 18.7883 5.33089 18.7784C5.30627 18.7684 5.28391 18.7536 5.26515 18.7349C5.24638 18.7161 5.23158 18.6937 5.22163 18.6691C5.21169 18.6445 5.20681 18.6181 5.20728 18.5916C5.20775 18.565 5.21356 18.5389 5.22436 18.5146C5.23517 18.4904 5.25074 18.4686 5.27016 18.4505L5.27685 18.4442M5.54954 18.7298L5.27685 18.4442M5.27685 18.4442L5.28331 18.4378M5.27685 18.4442L5.28331 18.4378M5.28331 18.4378L5.64762 18.0725M5.28331 18.4378L5.64762 18.0725M5.64762 18.0725C5.64766 18.0725 5.64771 18.0724 5.64775 18.0724M5.64762 18.0725L5.64775 18.0724M5.64775 18.0724C5.66608 18.0541 5.68784 18.0395 5.71177 18.0296C5.73576 18.0197 5.76147 18.0146 5.78744 18.0146C5.81341 18.0146 5.83913 18.0197 5.86312 18.0296C5.88706 18.0395 5.90882 18.0541 5.92716 18.0724L5.64775 18.0724ZM5.56202 5.28308L5.56225 5.28331L5.92363 5.64376C5.95828 5.68077 5.97742 5.72972 5.977 5.7805C5.97658 5.83233 5.95581 5.88192 5.91918 5.91859C5.88254 5.95525 5.83297 5.97607 5.78114 5.97654C5.73035 5.97701 5.68136 5.9579 5.64432 5.92326L5.28308 5.56202C5.24606 5.52495 5.22527 5.47471 5.22527 5.42233C5.22527 5.37005 5.24598 5.3199 5.28286 5.28286C5.3199 5.24598 5.37005 5.22527 5.42233 5.22527C5.47471 5.22527 5.52495 5.24606 5.56202 5.28308ZM18.7171 18.4382L18.7234 18.4444L18.7298 18.4505C18.7493 18.4686 18.7648 18.4904 18.7756 18.5146C18.7864 18.5389 18.7923 18.5651 18.7927 18.5916C18.7932 18.6181 18.7883 18.6445 18.7784 18.6691C18.7684 18.6937 18.7536 18.7161 18.7349 18.7349C18.7161 18.7536 18.6937 18.7684 18.6691 18.7784C18.6445 18.7883 18.6181 18.7932 18.5916 18.7927C18.5651 18.7923 18.5389 18.7864 18.5146 18.7756C18.4904 18.7648 18.4686 18.7493 18.4505 18.7298L18.4444 18.7234L18.4382 18.7171L18.0728 18.3518C18.0358 18.3147 18.015 18.2645 18.015 18.2121C18.015 18.1598 18.0357 18.1097 18.0726 18.0726C18.1097 18.0357 18.1598 18.015 18.2121 18.015C18.2645 18.015 18.3147 18.0358 18.3518 18.0728L18.7171 18.4382ZM12 2.5C12.0524 2.5 12.1027 2.52083 12.1398 2.5579C12.1768 2.59497 12.1977 2.64525 12.1977 2.69767V3.62791C12.1977 3.68033 12.1768 3.73061 12.1398 3.76768C12.1027 3.80476 12.0524 3.82558 12 3.82558C11.9476 3.82558 11.8973 3.80476 11.8602 3.76768C11.8232 3.73061 11.8023 3.68033 11.8023 3.62791V2.69767C11.8023 2.64525 11.8232 2.59497 11.8602 2.5579C11.8973 2.52083 11.9476 2.5 12 2.5ZM18.0808 5.6403L18.438 5.28308L18.7169 5.56202L18.3597 5.91923C18.3228 5.95153 18.2752 5.96902 18.226 5.96815C18.1748 5.96724 18.1259 5.9465 18.0897 5.91028C18.0535 5.87406 18.0328 5.8252 18.0319 5.77399C18.031 5.72483 18.0485 5.67718 18.0808 5.6403ZM2.5 12C2.5 11.9476 2.52083 11.8973 2.5579 11.8602C2.59497 11.8232 2.64525 11.8023 2.69767 11.8023H3.62791C3.68033 11.8023 3.73061 11.8232 3.76768 11.8602C3.80476 11.8973 3.82558 11.9476 3.82558 12C3.82558 12.0524 3.80476 12.1027 3.76768 12.1398C3.73061 12.1768 3.68033 12.1977 3.62791 12.1977H2.69767C2.64525 12.1977 2.59497 12.1768 2.5579 12.1398C2.52083 12.1027 2.5 12.0524 2.5 12ZM20.1744 12C20.1744 11.9476 20.1952 11.8973 20.2323 11.8602C20.2694 11.8232 20.3197 11.8023 20.3721 11.8023H21.3023C21.3548 11.8023 21.405 11.8232 21.4421 11.8602C21.4792 11.8973 21.5 11.9476 21.5 12C21.5 12.0524 21.4792 12.1027 21.4421 12.1398C21.405 12.1768 21.3548 12.1977 21.3023 12.1977H20.3721C20.3197 12.1977 20.2694 12.1768 20.2323 12.1398C20.1952 12.1027 20.1744 12.0524 20.1744 12ZM12 20.1744C12.0524 20.1744 12.1027 20.1952 12.1398 20.2323C12.1768 20.2694 12.1977 20.3197 12.1977 20.3721V21.3023C12.1977 21.3548 12.1768 21.405 12.1398 21.4421C12.1027 21.4792 12.0524 21.5 12 21.5C11.9476 21.5 11.8973 21.4792 11.8602 21.4421C11.8232 21.405 11.8023 21.3548 11.8023 21.3023V20.3721C11.8023 20.3197 11.8232 20.2694 11.8602 20.2323C11.8973 20.1952 11.9476 20.1744 12 20.1744Z" fill="black" stroke="black"/>
</svg>
