<svg width="476" height="453" viewBox="0 0 476 453" fill="none" xmlns="http://www.w3.org/2000/svg">
<g filter="url(#filter0_di_598_612)">
<path fill-rule="evenodd" clip-rule="evenodd" d="M206.891 10.3941C267.04 17.1633 302.091 74.3772 346.177 115.885C392.716 159.701 467.199 191.34 467 255.288C466.801 319.207 399.944 360.72 345.311 393.824C303.893 418.921 255.057 407.957 206.891 412.899C148.115 418.93 76.3785 469.424 36.8479 425.474C-3.11673 381.042 65.9124 315.066 65.1264 255.288C64.3164 193.686 1.45467 133.868 32.3127 80.5619C64.9939 24.1066 142.108 3.10328 206.891 10.3941Z" fill="#148BE7"/>
</g>
<path d="M225.483 396.679C344.168 396.679 440.382 391.046 440.382 384.096C440.382 377.147 344.168 371.513 225.483 371.513C106.798 371.513 10.5849 377.147 10.5849 384.096C10.5849 391.046 106.798 396.679 225.483 396.679Z" fill="#F5F5F5"/>
<path d="M313.74 364.105H282.784V364.383H313.74V364.105Z" fill="#E0E0E0"/>
<path d="M451.786 232.089H0V237.79H451.786V232.089Z" fill="#188EF8"/>
<path opacity="0.7" d="M451.786 232.089H0V237.79H451.786V232.089Z" fill="white"/>
<path d="M26.9114 236.182V372.171H30.436L34.8701 236.182H26.9114Z" fill="#188EF8"/>
<path opacity="0.7" d="M26.9114 236.182V372.171H30.436L34.8701 236.182H26.9114Z" fill="white"/>
<path d="M68.5189 240.404V366.389H72.0431L76.4766 240.404H68.5189Z" fill="#188EF8"/>
<path opacity="0.5" d="M68.5189 240.404V366.389H72.0431L76.4766 240.404H68.5189Z" fill="#0B0639"/>
<path d="M426.484 235.96V371.949H422.971L418.527 235.96H426.484Z" fill="#188EF8"/>
<path opacity="0.7" d="M426.484 235.96V371.949H422.971L418.527 235.96H426.484Z" fill="white"/>
<path d="M384.876 240.404V366.389H381.351L376.918 240.404H384.876Z" fill="#188EF8"/>
<path opacity="0.5" d="M384.876 240.404V366.389H381.351L376.918 240.404H384.876Z" fill="#0B0639"/>
<path d="M434.518 243.674H18.5984L9.39905 237.571H443.718L434.518 243.674Z" fill="#188EF8"/>
<path opacity="0.5" d="M434.518 243.674H18.5984L9.39905 237.571H443.718L434.518 243.674Z" fill="#0B0639"/>
<path d="M29.7452 213.889V218.335C29.745 219.073 30.0359 219.781 30.5541 220.302L34.0667 223.825C34.3784 224.136 34.7594 224.368 35.175 224.505C35.9002 226.068 37.0562 227.392 38.5044 228.319C39.9526 229.246 41.6368 229.739 43.3556 229.739H44.674C45.8667 229.748 47.0487 229.518 48.1527 229.062C49.2567 228.608 50.259 227.939 51.1011 227.093C51.9453 226.248 52.6121 225.243 53.0667 224.136C53.5191 223.029 53.7486 221.843 53.7399 220.647V210.276H34.3676V211.121H32.5167C31.7829 211.121 31.0793 211.411 30.5606 211.93C30.0413 212.449 29.748 213.155 29.7452 213.889ZM31.9625 213.889C31.9625 213.817 31.9755 213.745 32.0037 213.678C32.0318 213.611 32.0729 213.55 32.1249 213.5C32.1768 213.45 32.2374 213.409 32.3046 213.383C32.3717 213.357 32.4431 213.344 32.5167 213.344H34.3676V220.647C34.3676 220.747 34.3676 220.847 34.3676 220.947L32.1509 218.723C32.0967 218.676 32.0556 218.615 32.0253 218.548C31.9972 218.48 31.982 218.409 31.9842 218.335L31.9625 213.889Z" fill="#188EF8"/>
<path opacity="0.5" d="M29.7452 213.889V218.335C29.745 219.073 30.036 219.781 30.5542 220.302L34.0667 223.825C34.3785 224.136 34.7595 224.368 35.1751 224.505C35.9003 226.068 37.0562 227.392 38.5045 228.319C39.9527 229.246 41.6369 229.739 43.3557 229.739H44.674C45.8668 229.748 47.0487 229.518 48.1528 229.062C49.2568 228.608 50.2591 227.939 51.1011 227.093C51.9454 226.248 52.6122 225.243 53.0668 224.136C53.5192 223.029 53.7486 221.843 53.74 220.647V210.276H34.3676V211.121H32.5168C31.7829 211.121 31.0794 211.411 30.5607 211.93C30.0414 212.449 29.7481 213.155 29.7452 213.889ZM31.9626 213.889C31.9626 213.817 31.9756 213.745 32.0037 213.678C32.0319 213.611 32.073 213.55 32.1249 213.5C32.1769 213.45 32.2375 213.409 32.3046 213.383C32.3717 213.357 32.4432 213.344 32.5168 213.344H34.3676V220.647C34.3676 220.747 34.3676 220.847 34.3676 220.947L32.1509 218.723C32.0968 218.676 32.0557 218.615 32.0254 218.548C31.9972 218.48 31.9821 218.409 31.9842 218.335L31.9626 213.889Z" fill="white"/>
<path d="M58.2775 231.735H30.4139C29.14 231.623 27.9541 231.036 27.0889 230.092H61.5593C60.7064 231.028 59.5374 231.616 58.2775 231.735Z" fill="#188EF8"/>
<path opacity="0.5" d="M58.2775 231.735H30.4139C29.14 231.623 27.9541 231.036 27.0889 230.092H61.5593C60.7064 231.028 59.5374 231.616 58.2775 231.735Z" fill="white"/>
<path d="M433.145 218.127C433 213.681 429.654 212.637 425.285 212.138V210.525C425.281 210.338 425.201 210.162 425.067 210.032C424.932 209.904 424.753 209.832 424.566 209.836H409.47C409.376 209.832 409.283 209.847 409.197 209.882C409.11 209.914 409.03 209.964 408.961 210.027C408.894 210.092 408.84 210.168 408.801 210.253C408.762 210.34 408.742 210.431 408.738 210.525V231.544H425.298V229.243C429.664 228.755 433.011 222.552 433.145 218.127ZM425.285 226.532V214.86C428.5 215.327 430.717 215.772 430.24 218.996C429.864 221.573 427.846 226.175 425.285 226.532Z" fill="#188EF8"/>
<g opacity="0.5">
<path opacity="0.7" d="M433.148 218.127C433.003 213.681 429.656 212.637 425.287 212.138V210.525C425.283 210.338 425.203 210.162 425.069 210.032C424.934 209.904 424.755 209.832 424.569 209.836H409.472C409.379 209.832 409.286 209.847 409.199 209.882C409.112 209.914 409.032 209.964 408.963 210.027C408.896 210.092 408.842 210.168 408.803 210.253C408.764 210.34 408.744 210.431 408.74 210.525V231.544H425.3V229.243C429.667 228.755 433.013 222.552 433.148 218.127ZM425.287 226.532V214.86C428.502 215.327 430.719 215.772 430.242 218.996C429.866 221.573 427.848 226.175 425.287 226.532Z" fill="white"/>
</g>
<path d="M232.012 204.76H218.943V231.382H232.012V204.76Z" fill="#188EF8"/>
<path opacity="0.5" d="M232.012 204.76H218.943V231.382H232.012V204.76Z" fill="white"/>
<path d="M237.919 231.857H213.159L219.199 226.534H231.878L237.919 231.857Z" fill="#188EF8"/>
<path opacity="0.5" d="M237.919 231.857H213.159L219.199 226.534H231.878L237.919 231.857Z" fill="white"/>
<path d="M292.35 223.242H230.46L241.643 231.892H303.522L292.35 223.242Z" fill="#188EF8"/>
<path opacity="0.4" d="M292.35 223.242H230.46L241.643 231.892H303.522L292.35 223.242Z" fill="white"/>
<path d="M231.888 231.892L230.46 223.242L241.643 231.892H231.888Z" fill="#188EF8"/>
<path opacity="0.5" d="M231.888 231.892L230.46 223.242L241.643 231.892H231.888Z" fill="#0B0639"/>
<path d="M281.487 141.745H168.847C167.665 141.745 166.708 142.705 166.708 143.89V213.162C166.708 214.348 167.665 215.307 168.847 215.307H281.487C282.669 215.307 283.628 214.348 283.628 213.162V143.89C283.628 142.705 282.669 141.745 281.487 141.745Z" fill="#479DE0"/>
<path opacity="0.5" d="M279.26 146.345H170.953V210.448H279.26V146.345Z" fill="#0B0639"/>
<path opacity="0.4" d="M275.813 159.529H221.16V197.266H275.813V159.529Z" fill="#0B0639"/>
<path d="M275.813 159.529H221.16V162.985H275.813V159.529Z" fill="#188EF8"/>
<path d="M231.18 180.404L240.114 185.36C240.454 185.525 240.759 185.755 241.013 186.04C241.164 186.261 241.242 186.526 241.234 186.795C241.234 186.982 241.197 187.169 241.125 187.342C241.052 187.516 240.946 187.674 240.811 187.807C240.688 187.939 240.539 188.043 240.374 188.117C240.207 188.189 240.03 188.228 239.848 188.228C239.452 188.182 239.071 188.041 238.74 187.818L227.212 181.391C227.028 181.3 226.873 181.159 226.764 180.983C226.656 180.807 226.6 180.603 226.6 180.397C226.6 180.191 226.656 179.989 226.764 179.813C226.873 179.637 227.028 179.494 227.212 179.403L238.74 172.979C239.073 172.762 239.454 172.629 239.848 172.588C240.03 172.586 240.212 172.62 240.378 172.692C240.547 172.762 240.699 172.868 240.824 173C240.959 173.129 241.065 173.285 241.138 173.456C241.21 173.628 241.247 173.815 241.244 174.001C241.255 174.27 241.177 174.535 241.024 174.757C240.77 175.039 240.465 175.269 240.125 175.434L231.18 180.404Z" fill="white"/>
<path d="M254.168 171.144L245.301 190.251C245.158 190.599 244.953 190.916 244.691 191.187C244.45 191.374 244.154 191.474 243.849 191.465C243.667 191.467 243.487 191.432 243.32 191.365C243.152 191.296 243 191.194 242.872 191.063C242.742 190.948 242.639 190.805 242.565 190.647C242.494 190.488 242.455 190.317 242.452 190.141C242.485 189.752 242.597 189.372 242.784 189.029L251.65 169.933C251.791 169.592 251.988 169.279 252.239 169.01C252.482 168.819 252.783 168.717 253.092 168.721C253.272 168.719 253.449 168.754 253.616 168.821C253.781 168.891 253.932 168.993 254.058 169.121C254.181 169.238 254.283 169.379 254.35 169.535C254.419 169.692 254.456 169.861 254.456 170.033C254.439 170.419 254.341 170.799 254.168 171.144Z" fill="white"/>
<path d="M265.282 180.404L256.35 175.434C256.012 175.263 255.709 175.035 255.452 174.757C255.298 174.535 255.22 174.271 255.231 174.001C255.229 173.815 255.266 173.628 255.337 173.456C255.411 173.285 255.517 173.129 255.651 173C255.779 172.868 255.932 172.764 256.101 172.692C256.272 172.623 256.454 172.586 256.638 172.588C257.032 172.631 257.411 172.764 257.746 172.977L269.274 179.403C269.458 179.494 269.611 179.637 269.722 179.813C269.83 179.989 269.886 180.191 269.886 180.397C269.886 180.603 269.83 180.807 269.722 180.983C269.611 181.159 269.458 181.3 269.274 181.391L257.746 187.818C257.413 188.039 257.034 188.18 256.638 188.228C256.45 188.23 256.266 188.193 256.093 188.119C255.922 188.044 255.766 187.933 255.64 187.794C255.508 187.664 255.406 187.507 255.335 187.336C255.263 187.164 255.229 186.98 255.231 186.795C255.222 186.526 255.3 186.261 255.452 186.04C255.709 185.762 256.012 185.532 256.35 185.36L265.282 180.404Z" fill="white"/>
<path d="M179.097 152.261H175.395V155.973H179.097V152.261Z" fill="white"/>
<path d="M179.097 161.874H175.395V165.586H179.097V161.874Z" fill="white"/>
<path d="M179.097 171.479H175.395V175.191H179.097V171.479Z" fill="white"/>
<path d="M179.097 181.081H175.395V184.793H179.097V181.081Z" fill="white"/>
<path d="M179.097 190.686H175.395V194.398H179.097V190.686Z" fill="white"/>
<path d="M179.097 200.29H175.395V204.003H179.097V200.29Z" fill="white"/>
<path d="M197.363 153.105H182.61V154.217H197.363V153.105Z" fill="white"/>
<path d="M191.302 162.734H186.048V163.845H191.302V162.734Z" fill="white"/>
<path d="M214.168 173.535H208.914V174.646H214.168V173.535Z" fill="white"/>
<path d="M191.302 182.108H186.048V183.219H191.302V182.108Z" fill="white"/>
<path d="M198.872 182.108H193.618V183.219H198.872V182.108Z" fill="white"/>
<path d="M207.042 173.535H193.618V174.646H207.042V173.535Z" fill="white"/>
<path d="M210.276 182.108H201.443V183.219H210.276V182.108Z" fill="white"/>
<path d="M206.663 202.702H201.409V203.814H206.663V202.702Z" fill="white"/>
<path d="M214.246 202.702H208.992V203.814H214.246V202.702Z" fill="white"/>
<path d="M219.742 202.702H216.804V203.814H219.742V202.702Z" fill="white"/>
<path d="M210.275 162.734H193.927V163.845H210.275V162.734Z" fill="white"/>
<path d="M198.872 192.145H193.618V193.256H198.872V192.145Z" fill="white"/>
<path d="M203.671 192.145H200.634V193.256H203.671V192.145Z" fill="white"/>
<path d="M214.566 192.145H205.987V193.256H214.566V192.145Z" fill="white"/>
<path d="M198.982 101.596C198.731 113.762 186.129 123.967 170.822 124.369C166.119 124.528 161.44 123.66 157.106 121.825C155.563 125.646 152.314 128.923 143 130.391C152.716 122.861 147.402 116.486 145.185 110.886C144.039 108.441 143.467 105.765 143.513 103.064C143.762 90.8881 156.364 80.7031 171.673 80.291C186.98 79.8787 199.222 89.4303 198.982 101.596Z" fill="#8DCDFF"/>
<path d="M171.573 88.857H158.229V89.8623H171.573V88.857Z" fill="white"/>
<path d="M166.088 97.577H161.338V98.5824H166.088V97.577Z" fill="white"/>
<path d="M186.771 107.345H182.018V108.35H186.771V107.345Z" fill="white"/>
<path d="M166.088 115.098H161.338V116.104H166.088V115.098Z" fill="white"/>
<path d="M172.946 115.098H168.193V116.104H172.946V115.098Z" fill="white"/>
<path d="M180.334 107.345H168.193V108.35H180.334V107.345Z" fill="white"/>
<path d="M183.249 115.098H175.26V116.104H183.249V115.098Z" fill="white"/>
<path d="M183.262 97.577H168.475V98.5824H183.262V97.577Z" fill="white"/>
<path d="M279.981 365.959L271.9 363.534L273.785 343.672L281.864 346.094L279.981 365.959Z" fill="#7F3E3B"/>
<path opacity="0.2" d="M282.531 341.607L274.45 339.193L273.398 350.321L281.565 351.843L282.531 341.607Z" fill="#0B0639"/>
<path d="M327.806 243.274C327.806 243.274 272.244 247.977 273.608 272.175C274.716 291.984 277.653 286.626 271.9 345.539L285.877 346.316C285.877 346.316 300.098 298.141 298.18 279.001C313.839 279.001 349.696 280.377 354.905 266.205C357.489 259.008 358.747 251.401 358.617 243.752L327.806 243.274Z" fill="white"/>
<path d="M288.094 348.986L269.828 345.851L270.129 337.747L289.036 341.961L288.094 348.986Z" fill="#0B0639"/>
<path d="M271.07 360.2L280.403 362.056C280.572 362.097 280.721 362.199 280.818 362.342C280.918 362.486 280.959 362.662 280.935 362.835L280.158 371.728C280.145 371.936 280.089 372.142 279.996 372.329C279.903 372.516 279.771 372.683 279.613 372.82C279.455 372.957 279.268 373.061 279.069 373.126C278.87 373.189 278.66 373.213 278.452 373.195C275.216 372.483 273.685 371.96 269.585 371.137C267.057 370.638 261.284 369.427 257.77 369.027C254.257 368.625 254.677 364.513 256.196 364.303C263.024 363.402 266.903 362.29 269.551 360.577C269.99 360.258 270.534 360.124 271.07 360.2Z" fill="#0B0639"/>
<path d="M266.879 361.789C267.613 361.891 268.356 361.913 269.096 361.856C269.133 361.858 269.17 361.847 269.2 361.824C269.23 361.802 269.252 361.769 269.263 361.735C269.278 361.702 269.287 361.665 269.287 361.628C269.287 361.591 269.278 361.557 269.263 361.524C269.029 361.29 266.934 359.301 265.86 359.522C265.734 359.542 265.617 359.596 265.522 359.679C265.427 359.761 265.356 359.87 265.317 359.989C265.23 360.163 265.189 360.358 265.202 360.554C265.213 360.749 265.275 360.938 265.384 361.101C265.775 361.515 266.31 361.761 266.879 361.789ZM268.663 361.489C267.124 361.489 266.037 361.311 265.715 360.855C265.65 360.749 265.615 360.625 265.615 360.499C265.615 360.376 265.65 360.252 265.715 360.145C265.732 360.085 265.767 360.03 265.81 359.989C265.856 359.946 265.91 359.915 265.97 359.9C266.492 359.789 267.8 360.677 268.709 361.5L268.663 361.489Z" fill="#188EF8"/>
<path d="M269.107 361.869H269.196C269.228 361.856 269.256 361.839 269.28 361.813C269.302 361.787 269.319 361.758 269.33 361.726C269.33 361.624 269.938 359.257 269.23 358.313C269.144 358.185 269.027 358.083 268.893 358.011C268.756 357.94 268.607 357.901 268.453 357.901C268.289 357.877 268.118 357.909 267.973 357.994C267.828 358.081 267.717 358.211 267.657 358.367C267.312 359.247 268.265 361.192 269.007 361.826C269.02 361.839 269.036 361.852 269.053 361.858C269.07 361.867 269.09 361.871 269.107 361.869ZM268.531 358.302C268.685 358.333 268.823 358.419 268.919 358.545C269.239 359.425 269.274 360.382 269.018 361.281C268.343 360.521 267.986 359.529 268.022 358.513C268.022 358.402 268.144 358.278 268.432 358.289L268.531 358.302Z" fill="#188EF8"/>
<path d="M243.959 369.049L236.266 365.582L241.587 346.55L249.278 350.02L243.959 369.049Z" fill="#7F3E3B"/>
<path opacity="0.2" d="M250.575 345.117L242.883 341.648L240.145 351.463L247.838 354.933L250.575 345.117Z" fill="#0B0639"/>
<path d="M311.27 243.274C310.904 243.274 248.979 249.666 248.903 270.729C248.769 305.566 238.85 345.493 238.85 345.493L251.042 351.574C251.042 351.574 272.356 308.29 272.034 281.135C289.07 276.233 333.138 284.47 338.346 270.308C342.613 258.726 340.308 243.274 340.308 243.274H311.27Z" fill="white"/>
<path d="M253.036 353.346L236.631 345.942L237.952 339.206L255.253 345.198L253.036 353.346Z" fill="#0B0639"/>
<path d="M237.032 359.192L246.386 361.137C246.561 361.196 246.71 361.315 246.806 361.474C246.901 361.632 246.938 361.821 246.907 362.004L246.176 371.73C246.044 372.785 245.288 373.508 244.481 373.341C241.244 372.596 239.714 372.019 235.614 371.118C233.085 370.607 226.204 368.895 222.734 368.017C219.266 367.14 220.041 362.681 221.625 362.649C228.485 362.549 232.932 361.426 235.568 359.503C235.778 359.353 236.017 359.246 236.268 359.194C236.519 359.14 236.779 359.14 237.032 359.192Z" fill="#0B0639"/>
<path d="M233.241 361.292C233.893 360.931 234.506 360.508 235.071 360.024C235.099 359.998 235.12 359.965 235.131 359.928C235.142 359.891 235.144 359.85 235.136 359.813C235.125 359.776 235.103 359.744 235.075 359.72C235.045 359.696 235.008 359.683 234.971 359.679C234.649 359.679 231.789 359.257 231.046 360.091C230.964 360.187 230.908 360.299 230.882 360.421C230.854 360.543 230.858 360.671 230.893 360.79C230.925 360.983 231.007 361.164 231.131 361.316C231.256 361.465 231.419 361.58 231.601 361.648C232.172 361.739 232.759 361.611 233.241 361.292ZM234.495 359.991C233.285 360.936 232.278 361.392 231.756 361.235C231.64 361.183 231.538 361.101 231.462 360.999C231.386 360.894 231.339 360.775 231.323 360.647C231.306 360.588 231.304 360.527 231.317 360.469C231.33 360.41 231.36 360.356 231.401 360.313C231.735 359.913 233.241 359.88 234.439 359.991H234.495Z" fill="#188EF8"/>
<path d="M235.014 360.024L235.092 359.97C235.112 359.941 235.123 359.909 235.123 359.874C235.123 359.841 235.112 359.809 235.092 359.781C235.038 359.702 234.118 357.423 232.997 357.08C232.854 357.032 232.7 357.021 232.551 357.045C232.399 357.067 232.256 357.125 232.133 357.212C231.984 357.293 231.867 357.421 231.8 357.575C231.735 357.731 231.722 357.905 231.767 358.068C232.001 358.99 233.917 359.98 234.904 360.048L235.014 360.024ZM232.432 357.49C232.505 357.458 232.585 357.44 232.666 357.44C232.746 357.44 232.824 357.458 232.897 357.49C233.679 358.007 234.276 358.758 234.605 359.635C233.609 359.429 232.73 358.843 232.155 358.003C232.09 357.914 232.155 357.736 232.354 357.579L232.432 357.49Z" fill="#188EF8"/>
<path d="M332.305 176.07C333.935 179.583 335.275 182.961 336.617 186.474C337.957 189.987 339.143 193.499 340.241 197.101C341.338 200.703 342.291 204.394 343.057 208.217C343.89 212.19 344.306 216.239 344.297 220.299C344.284 222.682 343.932 225.053 343.245 227.335C342.81 228.733 342.187 230.064 341.394 231.293C340.925 231.983 340.394 232.632 339.808 233.227L339.331 233.694C339.065 233.915 338.777 234.161 338.5 234.349C338.033 234.669 337.535 234.944 337.015 235.172C336.245 235.504 335.441 235.761 334.621 235.939C333.974 236.073 333.318 236.169 332.66 236.227C331.534 236.295 330.404 236.295 329.278 236.227C327.28 236.127 325.289 235.906 323.317 235.561C315.959 234.217 308.752 232.148 301.803 229.38L303.41 223.255C310.447 224.1 317.63 225.001 324.403 225.311C326.088 225.311 327.728 225.39 329.257 225.311C329.939 225.27 330.616 225.186 331.285 225.057C331.839 224.958 332.316 224.756 332.149 224.766C332.038 224.801 331.932 224.853 331.839 224.923C331.727 224.988 331.623 225.066 331.53 225.157C331.567 225.096 331.599 225.034 331.629 224.968C331.77 224.649 331.883 224.317 331.96 223.978C332.205 222.756 332.305 221.51 332.261 220.266C332.093 217.083 331.621 213.922 330.852 210.828C330.099 207.494 329.125 204.248 328.06 200.946C326.997 197.646 325.843 194.344 324.579 191.055C323.317 187.763 321.985 184.461 320.678 181.361L332.305 176.07Z" fill="#7F3E3B"/>
<path d="M306.471 224.921L299.121 220.776L295.43 228.757C295.43 228.757 304.022 232.346 305.828 230.101L306.471 224.921Z" fill="#7F3E3B"/>
<path d="M293.168 222.291L289.811 227.628L295.43 228.705L299.121 220.724L293.168 222.291Z" fill="#7F3E3B"/>
<path d="M315.171 182.407C313.764 185.953 312.289 189.342 310.737 192.779C309.185 196.213 307.633 199.591 305.994 202.971C302.691 209.851 298.989 216.532 294.911 222.98C293.803 224.623 292.692 226.258 291.452 227.893C290.83 228.716 290.144 229.525 289.412 230.359C289.014 230.782 288.692 231.171 288.226 231.605L287.562 232.25L287.185 232.606C286.128 233.509 284.888 234.169 283.55 234.538C282.845 234.74 282.126 234.892 281.398 234.994C280.214 235.137 279.022 235.185 277.831 235.14C275.772 235.075 273.72 234.87 271.69 234.527C264.176 233.197 256.816 231.104 249.722 228.281L251.341 222.146C258.511 223.012 265.838 223.935 272.731 224.224C274.357 224.284 275.984 224.263 277.608 224.156C278.262 224.102 278.911 224 279.548 223.846C279.755 223.794 279.955 223.718 280.147 223.624C280.212 223.624 280.147 223.546 279.846 223.735C279.736 223.792 279.634 223.868 279.548 223.957L279.658 223.824L279.97 223.479C280.169 223.279 280.413 222.945 280.645 222.678C281.1 222.1 281.565 221.477 282.031 220.8C282.951 219.478 283.849 218.01 284.734 216.521C286.509 213.542 288.159 210.375 289.778 207.172C291.395 203.97 292.947 200.703 294.478 197.414C297.526 190.855 300.507 184.075 303.345 177.516L315.171 182.407Z" fill="#7F3E3B"/>
<path d="M254.488 223.746L247.128 219.513L243.437 227.493C243.437 227.493 252.027 231.095 253.845 228.848L254.488 223.746Z" fill="#7F3E3B"/>
<path d="M241.188 221.123L237.818 226.449L243.437 227.526L247.128 219.545L241.188 221.123Z" fill="#7F3E3B"/>
<path d="M334.201 142.966L329.501 148.424L322.332 155.86L322.873 157.204C323.427 158.58 323.75 160.037 323.828 161.518C323.994 164.497 323.704 167.019 319.018 169.043C319.018 169.043 314.095 175.491 325.8 173.702C337.505 171.911 339.267 165.819 339.267 165.819C334.102 162.117 333.792 149.814 334.201 142.966Z" fill="#7F3E3B"/>
<path d="M310.337 136.81C310.337 137.544 309.973 138.166 309.484 138.188C308.997 138.211 308.609 137.632 308.599 136.899C308.588 136.165 308.975 135.543 309.452 135.52C309.928 135.498 310.326 136.076 310.337 136.81Z" fill="#0B0639"/>
<path d="M312.787 134.076C312.716 134.075 312.647 134.057 312.584 134.022C312.521 133.987 312.469 133.937 312.432 133.876C312.144 133.404 311.755 133.005 311.289 132.708C310.824 132.412 310.298 132.225 309.75 132.164C309.636 132.158 309.529 132.109 309.452 132.026C309.374 131.943 309.328 131.834 309.328 131.72C309.328 131.662 309.341 131.605 309.363 131.553C309.387 131.5 309.419 131.452 309.46 131.413C309.501 131.373 309.551 131.343 309.605 131.323C309.657 131.303 309.716 131.294 309.772 131.297C310.462 131.359 311.129 131.582 311.718 131.949C312.307 132.315 312.803 132.816 313.164 133.409C313.223 133.507 313.242 133.624 313.218 133.736C313.192 133.848 313.125 133.946 313.03 134.009C312.956 134.052 312.872 134.075 312.787 134.076Z" fill="#0B0639"/>
<path d="M310.073 137.254C309.475 139.255 308.618 141.169 307.523 142.945C307.979 143.203 308.486 143.356 309.006 143.395C309.527 143.433 310.051 143.356 310.538 143.168L310.073 137.254Z" fill="#0B0639"/>
<path d="M334.866 133.108C334.435 142.179 334.634 147.558 330.144 152.36C328.7 153.956 326.852 155.124 324.793 155.741C322.737 156.357 320.55 156.399 318.47 155.86C316.392 155.322 314.5 154.223 312.997 152.684C311.495 151.143 310.443 149.221 309.949 147.126C307.91 139.089 308.975 125.605 317.708 121.559C319.589 120.625 321.68 120.206 323.773 120.344C325.867 120.482 327.884 121.172 329.627 122.344C331.367 123.516 332.77 125.129 333.69 127.02C334.61 128.91 335.015 131.01 334.866 133.108Z" fill="#7F3E3B"/>
<path d="M338.966 136.145C337.66 139.992 335.671 143.57 333.091 146.705L321.321 148.928C321.321 148.928 312.021 145.026 314.504 138.602C312.93 137.268 313.517 133.144 314.625 130.876C315.519 131.611 316.645 131.999 317.799 131.968C318.953 131.938 320.059 131.491 320.91 130.709C321.267 131.269 321.747 131.738 322.314 132.081C322.882 132.423 323.52 132.63 324.178 132.685C324.839 132.74 325.501 132.641 326.118 132.397C326.733 132.153 327.283 131.769 327.726 131.276C328.231 131.766 328.841 132.132 329.51 132.345C330.179 132.558 330.889 132.613 331.582 132.505C332.277 132.398 332.935 132.13 333.508 131.724C334.082 131.318 334.554 130.784 334.887 130.165C335.61 130.618 336.457 130.832 337.31 130.777C338.16 130.721 338.972 130.398 339.63 129.854L339.797 129.698C339.957 131.881 339.674 134.074 338.966 136.145Z" fill="#0B0639"/>
<path d="M340.663 125.139C340.983 125.89 341.07 126.72 340.916 127.522C340.762 128.324 340.373 129.062 339.799 129.641L339.632 129.796C338.974 130.341 338.162 130.663 337.31 130.719C336.459 130.775 335.612 130.561 334.889 130.108C334.556 130.727 334.084 131.261 333.51 131.667C332.937 132.073 332.276 132.34 331.584 132.448C330.891 132.556 330.181 132.501 329.512 132.288C328.843 132.074 328.233 131.709 327.728 131.219C327.285 131.712 326.735 132.095 326.118 132.34C325.503 132.584 324.841 132.683 324.18 132.628C323.52 132.573 322.881 132.366 322.316 132.024C321.749 131.681 321.269 131.212 320.912 130.652C320.061 131.434 318.955 131.88 317.801 131.911C316.647 131.942 315.519 131.554 314.627 130.819C314.155 130.453 313.777 129.98 313.519 129.441C313.458 129.323 313.406 129.2 313.365 129.074C313.27 129.182 313.166 129.283 313.053 129.374C312.501 129.817 311.824 130.077 311.118 130.119C310.41 130.161 309.709 129.982 309.107 129.607C308.633 129.276 308.252 128.826 308.003 128.301C307.754 127.777 307.646 127.196 307.689 126.617C307.702 126.376 307.743 126.137 307.81 125.906C307.724 126.073 307.611 126.227 307.479 126.362C307.215 126.617 306.901 126.818 306.559 126.951C306.217 127.085 305.851 127.149 305.486 127.14C305.118 127.13 304.756 127.048 304.42 126.897C304.087 126.746 303.784 126.53 303.533 126.261C303.277 125.874 303.102 125.438 303.02 124.98C302.938 124.523 302.948 124.053 303.052 123.6C303.156 123.147 303.351 122.72 303.624 122.344C303.897 121.969 304.243 121.653 304.641 121.415C305.273 121.046 305.994 120.854 306.726 120.859C307.878 120.876 308.992 121.266 309.906 121.971C309.553 121.27 309.46 120.467 309.64 119.704C309.819 118.94 310.261 118.264 310.889 117.796C311.517 117.327 312.289 117.095 313.071 117.141C313.852 117.187 314.59 117.508 315.16 118.047C315.036 117.48 315.086 116.888 315.3 116.349C315.517 115.81 315.887 115.348 316.368 115.024C317.898 114.134 320.446 114.901 321.689 116.391C321.689 116.391 323.394 112.256 326.343 112.723C326.986 112.811 330.012 114.157 329.934 115.246C329.952 115.315 329.952 115.388 329.934 115.457C329.975 115.372 330.023 115.29 330.077 115.213C330.404 114.771 330.833 114.418 331.328 114.183C331.824 113.949 332.37 113.84 332.915 113.867C334.099 113.955 335.257 114.264 336.329 114.779C338.624 115.724 341.061 116.78 342.392 118.881C343.722 120.981 343.046 124.472 340.663 125.139Z" fill="#0B0639"/>
<path d="M319.693 139.479C319.366 141.717 318.34 143.795 316.766 145.415C314.759 147.337 313.054 145.415 313.03 142.491C313.03 139.846 314.017 135.655 316.355 134.877C318.695 134.099 320.135 136.555 319.693 139.479Z" fill="#7F3E3B"/>
<path d="M355.16 168.978C354.329 166.754 350.45 164.531 348.066 164.531H346.493C343.317 164.56 340.146 164.764 336.994 165.144C330.657 165.847 324.367 166.909 318.152 168.322C315.292 169.077 312.532 170.035 310.337 170.858C307.544 171.969 305.904 172.714 305.904 172.714C305.904 172.714 308.965 193.143 310.549 213.44C311.424 224.745 311.058 235.96 311.346 243.676H358.628C360.258 234.406 360.003 226.323 360.137 209.584C360.202 199.502 358.574 178.126 355.16 168.978Z" fill="#0B0639"/>
<path opacity="0.2" d="M309.516 202.105C309.871 206.363 310.237 210.831 310.625 215.299C316.166 207.185 319.225 184.987 319.225 184.987L309.516 202.105Z" fill="#0B0639"/>
<path d="M303.221 174.203C296.45 178.026 289.811 197.546 289.811 197.546L305.328 209.272C311.246 203.66 319.903 189.733 320.845 184.162C322.351 175.671 314.073 168.111 303.221 174.203Z" fill="#0B0639"/>
<path d="M289.835 373.397C289.835 374.355 289.551 375.288 289.023 376.083C288.492 376.88 287.739 377.498 286.858 377.865C285.977 378.23 285.007 378.326 284.072 378.139C283.137 377.954 282.277 377.492 281.604 376.817C280.929 376.139 280.47 375.28 280.284 374.342C280.098 373.402 280.193 372.431 280.559 371.548C280.924 370.664 281.541 369.908 282.334 369.377C283.128 368.845 284.059 368.562 285.014 368.562C286.291 368.562 287.518 369.07 288.423 369.978C289.326 370.885 289.835 372.114 289.835 373.397Z" fill="#0B0639"/>
<path d="M361.81 373.397C361.81 374.355 362.092 375.288 362.622 376.083C363.152 376.88 363.906 377.498 364.785 377.865C365.666 378.23 366.636 378.326 367.571 378.139C368.506 377.954 369.365 377.492 370.041 376.817C370.714 376.139 371.173 375.28 371.359 374.342C371.545 373.402 371.45 372.431 371.084 371.548C370.72 370.664 370.101 369.908 369.309 369.377C368.517 368.845 367.584 368.562 366.631 368.562C365.352 368.562 364.127 369.07 363.222 369.978C362.317 370.885 361.81 372.114 361.81 373.397Z" fill="#0B0639"/>
<path d="M321.1 371.795C321.1 372.75 321.384 373.686 321.912 374.481C322.442 375.275 323.195 375.896 324.077 376.261C324.958 376.628 325.927 376.723 326.863 376.537C327.798 376.35 328.657 375.89 329.33 375.214C330.004 374.537 330.465 373.675 330.651 372.737C330.835 371.799 330.74 370.827 330.376 369.943C330.01 369.06 329.393 368.306 328.601 367.774C327.806 367.242 326.876 366.96 325.921 366.96C324.642 366.96 323.416 367.468 322.511 368.376C321.609 369.283 321.1 370.512 321.1 371.795Z" fill="#0B0639"/>
<path d="M324.425 365.881V356.533H310.614C307.904 356.528 305.198 356.782 302.535 357.288L276.822 362.29C276.244 362.403 275.731 362.729 275.383 363.204C275.036 363.68 274.878 364.268 274.945 364.854C275.01 365.44 275.294 365.979 275.738 366.365C276.181 366.752 276.755 366.956 277.342 366.936L324.425 365.881Z" fill="#0B0639"/>
<path d="M324.425 365.881V356.533H338.247C340.949 356.548 343.642 356.819 346.293 357.345L375.199 361.967C375.775 362.08 376.288 362.408 376.637 362.883C376.985 363.356 377.141 363.947 377.076 364.533C377.009 365.117 376.728 365.658 376.282 366.044C375.838 366.428 375.266 366.632 374.678 366.615L324.425 365.881Z" fill="#0B0639"/>
<path d="M332.972 313.74H315.87V356.546H332.972V313.74Z" fill="#0B0639"/>
<path d="M330.523 293.818H318.331V313.727H330.523V293.818Z" fill="#0B0639"/>
<path opacity="0.5" d="M318.331 299.665L330.523 302.743V293.818H318.331V299.665Z" fill="#0B0639"/>
<path d="M285.011 248.778H278.816V275.288H285.011V248.778Z" fill="#0B0639"/>
<path d="M316.08 293.82V178.563C316.078 176.407 316.537 174.275 317.426 172.31C318.314 170.347 319.613 168.598 321.232 167.18L329.423 159.987C332.181 157.562 335.729 156.229 339.399 156.242H368.98L383.412 171.715V293.82H316.08Z" fill="#188EF8"/>
<path d="M272.034 271.52H339.533V293.816H261.028C259.621 293.814 258.238 293.438 257.021 292.728C255.804 292.018 254.796 291 254.099 289.774C253.402 288.547 253.04 287.158 253.049 285.746C253.06 284.335 253.441 282.95 254.155 281.734C255.991 278.617 258.606 276.035 261.742 274.244C264.877 272.453 268.425 271.513 272.034 271.52Z" fill="#188EF8"/>
<path opacity="0.7" d="M383.412 171.715V293.82H261.028C259.621 293.818 258.238 293.443 257.021 292.733C255.804 292.023 254.796 291.005 254.099 289.778C253.402 288.551 253.04 287.162 253.049 285.751C253.06 284.339 253.441 282.954 254.155 281.739C255.993 278.623 258.608 276.042 261.742 274.251C264.877 272.457 268.425 271.517 272.034 271.524H306.027C308.705 271.524 311.272 270.456 313.166 268.556C315.06 266.659 316.123 264.082 316.123 261.396V178.563C316.123 176.407 316.582 174.275 317.47 172.31C318.359 170.347 319.658 168.598 321.277 167.18L329.469 159.987C332.227 157.562 335.775 156.229 339.444 156.242H369.025L383.412 171.715Z" fill="white"/>
<path d="M325.921 293.82V178.563C325.923 176.407 326.384 174.275 327.272 172.312C328.161 170.35 329.458 168.6 331.075 167.18L339.267 159.987C342.024 157.562 345.572 156.229 349.242 156.242H372.307C374.366 156.24 376.405 156.663 378.297 157.484C380.189 158.303 381.891 159.503 383.302 161.01L389.199 167.291C391.825 170.102 393.288 173.81 393.288 177.662V282.273C393.29 283.79 392.991 285.293 392.413 286.695C391.833 288.098 390.985 289.372 389.913 290.444C388.844 291.519 387.571 292.368 386.172 292.948C384.774 293.527 383.274 293.825 381.761 293.82H325.921Z" fill="#188EF8"/>
<path opacity="0.5" d="M325.921 293.82V178.563C325.923 176.407 326.384 174.275 327.272 172.312C328.161 170.35 329.458 168.6 331.075 167.18L339.267 159.987C342.024 157.562 345.572 156.229 349.242 156.242H372.307C374.366 156.24 376.405 156.663 378.297 157.484C380.189 158.303 381.891 159.503 383.302 161.01L389.199 167.291C391.825 170.102 393.288 173.81 393.288 177.662V282.273C393.29 283.79 392.991 285.293 392.413 286.695C391.833 288.098 390.985 289.372 389.913 290.444C388.844 291.519 387.571 292.368 386.172 292.948C384.774 293.527 383.274 293.825 381.761 293.82H325.921Z" fill="white"/>
<path d="M302.957 256.867C289.321 252.089 274.473 252.089 260.84 256.867C259.472 257.38 257.963 257.375 256.599 256.854C255.235 256.331 254.105 255.33 253.426 254.034C252.161 251.355 253.856 247.886 257.294 246.674C273.218 241.095 290.558 241.095 306.481 246.674C309.917 247.875 311.614 251.355 310.35 254.034C309.67 255.324 308.544 256.322 307.185 256.843C305.826 257.367 304.323 257.373 302.957 256.867Z" fill="#188EF8"/>
<path opacity="0.7" d="M302.957 256.867C289.321 252.089 274.473 252.089 260.84 256.867C259.472 257.38 257.963 257.375 256.599 256.854C255.235 256.331 254.105 255.33 253.426 254.034C252.161 251.355 253.856 247.886 257.294 246.674C273.218 241.095 290.558 241.095 306.481 246.674C309.917 247.875 311.614 251.355 310.35 254.034C309.67 255.324 308.544 256.322 307.185 256.843C305.826 257.367 304.323 257.373 302.957 256.867Z" fill="white"/>
<path d="M130.71 146.581C130.476 147.237 130.643 147.892 131.076 148.038C131.507 148.181 132.039 147.782 132.26 147.126C132.483 146.47 132.327 145.802 131.907 145.658C131.485 145.513 130.942 145.915 130.71 146.581Z" fill="#0B0639"/>
<path d="M130.587 147.261C130.678 149.549 131.076 151.816 131.773 153.997C131.214 154.156 130.628 154.193 130.054 154.104C129.481 154.015 128.933 153.804 128.448 153.485L130.587 147.261Z" fill="#A02724"/>
<path d="M129.645 142.111C129.684 142.127 129.727 142.136 129.773 142.136C129.816 142.136 129.859 142.127 129.901 142.111C130.388 141.955 130.903 141.914 131.409 141.991C131.914 142.068 132.397 142.261 132.814 142.555C132.858 142.588 132.907 142.611 132.959 142.624C133.013 142.637 133.068 142.64 133.122 142.631C133.176 142.623 133.226 142.604 133.273 142.576C133.319 142.548 133.36 142.51 133.39 142.466C133.453 142.391 133.485 142.297 133.485 142.2C133.485 142.102 133.453 142.008 133.39 141.933C132.871 141.545 132.264 141.287 131.626 141.181C130.985 141.074 130.329 141.123 129.712 141.321C129.611 141.359 129.528 141.434 129.481 141.532C129.433 141.629 129.424 141.741 129.457 141.844C129.474 141.904 129.509 141.959 129.552 142.003C129.598 142.048 129.652 142.081 129.712 142.1L129.645 142.111Z" fill="#0B0639"/>
<path d="M106.404 149.004C107.645 155.328 108.874 166.922 104.465 171.146C104.465 171.146 106.192 177.56 117.919 177.56C130.81 177.56 124.082 171.146 124.082 171.146C117.044 169.457 118.174 164.221 119.404 159.308L106.404 149.004Z" fill="#FFC3BD"/>
<path d="M109.275 137.535C106.969 145.804 105.196 150.528 107.833 156.097C111.79 164.49 125.623 165.58 129.392 155.975C132.262 147.083 135.1 137.779 128.283 131.81C126.792 130.486 124.991 129.566 123.045 129.137C121.101 128.708 119.081 128.783 117.174 129.356C115.267 129.93 113.537 130.982 112.149 132.413C110.762 133.844 109.76 135.607 109.242 137.535H109.275Z" fill="#FFC3BD"/>
<path d="M100.341 140.29C99.7433 137.244 99.5874 133.91 101.105 131.197C102.625 128.485 106.294 126.829 108.963 128.407C109.831 126.574 111.115 124.969 112.712 123.723C114.31 122.476 116.176 121.621 118.161 121.227C120.146 120.833 122.196 120.911 124.147 121.453C126.097 121.996 127.892 122.989 129.392 124.353C130.89 125.716 132.05 127.413 132.777 129.307C133.507 131.201 133.782 133.239 133.583 135.259C133.386 137.279 132.719 139.224 131.637 140.94C130.554 142.655 129.087 144.092 127.353 145.136C127.961 142.858 128.582 140.59 129.19 138.312C128.647 141.484 126.967 144.349 124.469 146.371L125.577 139.556C125.404 141.165 124.859 142.71 123.984 144.071C123.112 145.431 121.934 146.568 120.547 147.393L121.843 142.624C121.185 144.817 120.347 146.95 119.339 149.004C118.23 150.283 117.52 158.641 113.708 158.908C100.607 161.52 101.737 147.404 100.341 140.29Z" fill="#0B0639"/>
<path d="M117.975 144.247C117.754 146.368 118.228 148.503 119.328 150.328C120.802 152.706 122.962 151.794 123.761 149.36C124.469 147.137 124.547 143.302 122.497 141.757C120.447 140.212 118.284 141.702 117.975 144.247Z" fill="#FFC3BD"/>
<path d="M86.731 224.369C85.3218 223.902 78.728 220.503 77.6759 221.113C80.7239 213.332 82.618 212.12 84.0035 207.164C84.3888 205.933 84.4559 204.624 84.1983 203.358C83.9407 202.094 83.367 200.918 82.5293 199.939C80.5788 197.314 79.9034 195.992 76.6671 196.313C72.2337 203.783 66.5924 212.986 64.3973 221.425C63.6548 224.258 63.1223 226.414 64.8064 228.815C66.2915 230.928 69.0299 231.772 71.6016 232.007C77.7755 232.563 86.941 231.429 86.8198 227.749C86.7527 225.426 86.731 224.369 86.731 224.369Z" fill="#FFC3BD"/>
<path d="M85.6876 224.091L90.9198 222.391L90.4544 231.872C90.4544 231.872 86.2656 232.018 84.0251 229.204L85.6876 224.091Z" fill="#FFC3BD"/>
<path d="M97.4596 222.233L96.7171 230.059L90.4545 231.87L90.9199 222.389L97.4596 222.233Z" fill="#FFC3BD"/>
<path d="M157.445 230.826C157.445 230.826 150.117 225.068 140.564 206.172C139.146 203.525 137.793 200.846 136.486 198.156C135.178 195.466 133.936 192.776 132.738 189.921L144.067 185.03C146.394 190.121 150.028 195.377 152.6 200.436C155.172 205.494 161.235 217.476 161.999 218.588C162.376 219.165 162.787 219.643 163.175 220.177L163.762 220.956L156.458 229.425L157.445 230.826Z" fill="#FFC3BD"/>
<path d="M167.03 193.944L164.814 191.233L163.772 187.175L170.611 180.805C171.656 182.14 172.587 183.56 173.392 185.052C173.57 185.395 173.652 185.779 173.637 186.163L173.36 193.31L167.03 193.944Z" fill="#FFC3BD"/>
<path d="M163.816 182.796L168.924 178.139L170.544 180.862L163.716 187.199L163.816 182.796Z" fill="#FFC3BD"/>
<path d="M167.13 191.988C167.307 191.22 167.461 192.722 167.972 192.121C169.479 190.297 171.674 190.108 172.981 192.121C174.289 194.133 173.169 213.929 171.087 220.144C169.702 224.267 168.959 227.558 165.411 230.07C163.978 231.18 162.233 231.809 160.423 231.87C159.523 231.881 158.637 231.633 157.871 231.158C157.107 230.68 156.492 229.994 156.1 229.18C154.992 226.59 158.96 217.253 160.358 214.241C164.736 204.758 165.034 200.946 167.13 191.988Z" fill="#FFC3BD"/>
<path d="M152.466 191.133L161.521 191.044C162.813 191.126 164.108 190.922 165.311 190.445C166.786 189.581 167.89 188.198 168.405 186.565C169.689 183.23 169.801 179.65 170.299 176.159C170.797 172.67 171.862 169.001 174.501 166.657C169.689 167.302 161.201 165.788 157.486 169.735C155.536 171.837 152.089 191.133 152.466 191.133Z" fill="#188EF8"/>
<path opacity="0.5" d="M152.466 191.133L161.521 191.044C162.813 191.126 164.108 190.922 165.311 190.445C166.786 189.581 167.89 188.198 168.405 186.565C169.689 183.23 169.801 179.65 170.299 176.159C170.797 172.67 171.862 169.001 174.501 166.657C169.689 167.302 161.201 165.788 157.486 169.735C155.536 171.837 152.089 191.133 152.466 191.133Z" fill="white"/>
<path d="M167.961 177.64C167.439 177.783 167.097 179.639 167.208 180.174L167.717 181.085L168.749 185.532L172.206 183.619L169.091 178.061C168.972 177.881 168.799 177.74 168.595 177.664C168.392 177.588 168.171 177.579 167.961 177.64Z" fill="#FFC3BD"/>
<path d="M89.8548 172.736C81.7651 174.592 69.7941 199.88 69.7941 199.88L86.0319 210.996C90.7077 204.302 94.929 197.303 98.6675 190.043C103.467 179.972 98.1242 170.834 89.8548 172.736Z" fill="white"/>
<path d="M101.672 173.348C100.741 171.314 99.7325 168.991 101.828 168.268C104.144 167.467 116.823 166.644 121.19 168.146C121.761 168.3 122.298 168.569 122.765 168.932C123.235 169.297 123.627 169.75 123.921 170.265C124.214 170.782 124.404 171.353 124.478 171.941C124.549 172.532 124.506 173.131 124.348 173.704V173.78L101.672 173.348Z" fill="#0B0639"/>
<path opacity="0.2" d="M94.8554 187.34L83.3173 209.126L86.034 210.996C86.034 210.996 91.264 203.692 94.9008 197.379L94.8554 187.34Z" fill="#0B0639"/>
<path d="M139.034 183.862C140.785 192.755 136.696 213.874 136.739 248.333H90.6103C90.3094 241.375 95.3641 224.879 89.0798 192.021C88.8807 190.909 88.7919 172.957 89.8548 172.768C94.3229 171.984 98.8299 171.45 103.356 171.168C109.89 170.79 116.44 170.79 122.973 171.168C125.645 171.446 129.844 173.102 132.505 174.058C136.639 175.525 138.192 179.494 139.034 183.862Z" fill="white"/>
<path opacity="0.2" d="M126.842 192.7C128.039 200.004 132.814 209.652 137.57 215.32C137.759 211.174 138.178 206.84 138.168 203.516L126.842 192.7Z" fill="#0B0639"/>
<path d="M123.517 181.717C122.408 189.908 138.479 210.818 138.479 210.818L154.65 199.702C154.65 199.702 150.163 188.176 142.614 180.616C134.046 171.969 124.813 172.825 123.517 181.717Z" fill="white"/>
<path d="M176.406 363.048H185.028L186.991 343.005H178.367L176.406 363.048Z" fill="#FFC3BD"/>
<path opacity="0.2" d="M186.857 344.219L185.859 354.544H177.226L178.235 344.219H186.857Z" fill="#0B0639"/>
<path d="M142.391 363.048H151.015L155.347 343.005H146.725L142.391 363.048Z" fill="#FFC3BD"/>
<g opacity="0.2">
<path opacity="0.2" d="M146.534 344.075H155.159L152.918 354.401H144.296L146.534 344.075Z" fill="#0B0639"/>
</g>
<path d="M185.517 359.158H176.107C175.912 359.179 175.733 359.27 175.596 359.412C175.46 359.555 175.38 359.739 175.365 359.935L173.659 369.828C173.559 370.212 173.598 370.618 173.769 370.977C173.94 371.333 174.23 371.619 174.59 371.784C174.691 371.802 174.797 371.802 174.899 371.784C178.291 371.717 183.201 371.452 187.468 371.452C192.466 371.452 196.778 371.795 202.63 371.795C206.178 371.795 207.163 367.149 205.678 366.739C198.928 364.826 193.421 364.626 187.589 359.946C187.009 359.453 186.277 359.175 185.517 359.158Z" fill="#0B0639"/>
<path d="M192.367 362.373C193.475 362.373 194.583 362.217 194.906 361.717C194.997 361.585 195.047 361.426 195.047 361.266C195.047 361.105 194.997 360.949 194.906 360.816C194.759 360.582 194.529 360.412 194.263 360.339C192.821 359.948 189.829 361.672 189.684 361.75C189.648 361.769 189.617 361.8 189.598 361.839C189.581 361.876 189.576 361.919 189.585 361.96C189.591 362.002 189.609 362.038 189.637 362.069C189.665 362.099 189.702 362.119 189.741 362.128C190.607 362.293 191.486 362.373 192.367 362.373ZM193.741 360.695H194.129C194.213 360.71 194.291 360.745 194.36 360.794C194.43 360.844 194.486 360.91 194.529 360.983C194.672 361.237 194.629 361.361 194.529 361.426C194.129 361.995 191.947 362.006 190.338 361.771C191.397 361.2 192.551 360.831 193.741 360.682V360.695Z" fill="#188EF8"/>
<path d="M189.762 362.125H189.851C190.892 361.656 192.953 359.789 192.789 358.791C192.789 358.556 192.59 358.278 192.035 358.211C191.633 358.181 191.234 358.309 190.927 358.567C189.819 359.468 189.596 361.802 189.585 361.902C189.581 361.939 189.585 361.973 189.598 362.008C189.611 362.041 189.635 362.069 189.663 362.091C189.691 362.112 189.726 362.123 189.762 362.125ZM191.869 358.623H191.99C192.356 358.623 192.377 358.812 192.388 358.856C192.488 359.446 191.081 360.912 190.018 361.546C190.107 360.569 190.494 359.642 191.126 358.89C191.336 358.721 191.598 358.628 191.869 358.623Z" fill="#188EF8"/>
<path d="M151.624 359.157H141.937C141.744 359.181 141.564 359.27 141.43 359.414C141.298 359.555 141.218 359.742 141.207 359.935L139.499 369.828C139.406 370.221 139.454 370.634 139.635 370.992C139.815 371.352 140.116 371.637 140.486 371.795C140.577 371.806 140.67 371.806 140.763 371.795C144.142 371.73 145.794 371.463 150.05 371.463C152.678 371.463 156.036 371.808 159.659 371.808C163.285 371.808 163.751 367.16 162.266 366.75C155.616 364.861 155.161 362.303 153.033 359.77C152.856 359.57 152.639 359.414 152.394 359.307C152.152 359.203 151.89 359.151 151.624 359.157Z" fill="#0B0639"/>
<path d="M156.689 363.469C157.055 363.521 157.428 363.497 157.785 363.4C158.14 363.302 158.473 363.133 158.763 362.903C158.865 362.764 158.919 362.594 158.919 362.421C158.919 362.247 158.865 362.078 158.763 361.936C158.696 361.815 158.605 361.708 158.495 361.626C158.382 361.543 158.254 361.485 158.12 361.459C156.856 361.157 154.473 362.792 154.373 362.859C154.341 362.883 154.317 362.916 154.302 362.952C154.286 362.989 154.28 363.031 154.284 363.07C154.291 363.109 154.31 363.146 154.336 363.172C154.364 363.2 154.401 363.22 154.44 363.226C155.178 363.389 155.934 363.471 156.689 363.469ZM157.798 361.826H158.042C158.12 361.839 158.194 361.871 158.259 361.917C158.324 361.963 158.378 362.023 158.419 362.093C158.607 362.436 158.497 362.57 158.419 362.625C158.053 363.102 156.291 363.115 154.994 362.903C155.828 362.329 156.778 361.949 157.776 361.791L157.798 361.826Z" fill="#188EF8"/>
<path d="M154.551 363.237C155.449 362.748 157.179 360.857 156.988 359.902C156.96 359.75 156.88 359.611 156.761 359.511C156.642 359.412 156.49 359.357 156.334 359.357C156.181 359.342 156.025 359.359 155.875 359.405C155.728 359.451 155.59 359.524 155.471 359.624C154.473 360.447 154.263 362.959 154.252 363.048C154.25 363.085 154.258 363.124 154.276 363.157C154.293 363.189 154.319 363.217 154.351 363.237H154.551ZM156.291 359.735H156.38C156.646 359.735 156.668 359.891 156.678 359.948C156.789 360.514 155.681 361.947 154.795 362.625C154.862 361.641 155.217 360.699 155.815 359.913C155.947 359.8 156.116 359.737 156.291 359.735Z" fill="#188EF8"/>
<path d="M122.917 248.311C122.917 248.311 163.759 265.23 172.206 278.224C167.184 311.282 158.174 348.943 158.174 348.943H142.813C142.837 332.647 144.168 316.38 146.792 300.299C149.009 259.894 76.5004 301.701 90.5865 248.311H122.917Z" fill="#0B0639"/>
<path opacity="0.3" d="M151.158 276.2C148.297 276.37 145.448 276.7 142.625 277.188L133.68 278.567C138.293 282.455 143.164 286.029 148.255 289.261C151.347 291.228 154.717 293.117 158.363 293.128C162.463 293.128 173.592 287.861 171.752 282.379C169.912 276.899 155.813 276.001 151.158 276.2Z" fill="#0B0639"/>
<path d="M136.75 248.311C136.75 248.311 174.501 253.203 195.315 265.085C201.72 268.743 200.857 280.492 200.657 288.228C200.212 308.989 196.237 329.521 188.909 348.943H176.075C176.075 348.943 176.728 327.966 176.295 294.12C176.163 283.97 155.735 280.625 135.773 279.446C127.322 278.914 119.185 276.022 112.284 271.098C105.382 266.175 99.9901 259.414 96.7148 251.579L95.3531 248.311H136.75Z" fill="#0B0639"/>
<path d="M192.022 345.495C192.09 345.495 191.191 351.574 191.191 351.574H173.458L172.97 346.151L192.022 345.495Z" fill="#8BC6FB"/>
<path d="M159.659 345.495C159.726 345.495 158.029 351.574 158.029 351.574H140.296L140.618 346.151L159.659 345.495Z" fill="#8BC6FB"/>
<path d="M112.011 278.99L99.2974 372.928L97.0027 372.605L106.813 278.278L112.011 278.99Z" fill="#188EF8"/>
<path opacity="0.4" d="M111.556 282.357L99.2974 372.928L97.0027 372.607L106.391 282.336L111.556 282.357Z" fill="#0B0639"/>
<path d="M156.7 282.349H84.6572C84.6572 281.265 84.8715 280.193 85.2828 279.192C85.6962 278.191 86.3024 277.284 87.0665 276.517C87.8307 275.751 88.7377 275.143 89.7357 274.728C90.7315 274.314 91.8008 274.101 92.881 274.101H148.476C149.556 274.101 150.626 274.314 151.624 274.728C152.622 275.143 153.529 275.751 154.293 276.517C155.055 277.284 155.661 278.191 156.074 279.192C156.488 280.193 156.7 281.265 156.7 282.349Z" fill="#188EF8"/>
<path opacity="0.7" d="M156.7 282.349H84.6572C84.6572 281.265 84.8715 280.193 85.2828 279.192C85.6962 278.191 86.3024 277.284 87.0665 276.517C87.8307 275.751 88.7377 275.143 89.7357 274.728C90.7315 274.314 91.8008 274.101 92.881 274.101H148.476C149.556 274.101 150.626 274.314 151.624 274.728C152.622 275.143 153.529 275.751 154.293 276.517C155.055 277.284 155.661 278.191 156.074 279.192C156.488 280.193 156.7 281.265 156.7 282.349Z" fill="white"/>
<path d="M87.993 282.336L77.1324 373.673H79.4595L93.236 282.336H87.993Z" fill="#188EF8"/>
<path d="M153.364 282.336L164.227 373.673H161.9L148.134 282.336H153.364Z" fill="#188EF8"/>
<path opacity="0.4" d="M153.364 282.336L164.227 373.673H161.9L148.134 282.336H153.364Z" fill="#0B0639"/>
<path d="M138.834 282.336L139.044 373.673H136.728L133.591 282.336H138.834Z" fill="#188EF8"/>
<defs>
<filter id="filter0_di_598_612" x="14.9962" y="0.2" width="460.804" height="451.88" filterUnits="userSpaceOnUse" color-interpolation-filters="sRGB">
<feFlood flood-opacity="0" result="BackgroundImageFix"/>
<feColorMatrix in="SourceAlpha" type="matrix" values="0 0 0 0 0 0 0 0 0 0 0 0 0 0 0 0 0 0 127 0" result="hardAlpha"/>
<feOffset/>
<feGaussianBlur stdDeviation="4.4"/>
<feComposite in2="hardAlpha" operator="out"/>
<feColorMatrix type="matrix" values="0 0 0 0 0.0745098 0 0 0 0 0.509804 0 0 0 0 0.85098 0 0 0 0.4 0"/>
<feBlend mode="normal" in2="BackgroundImageFix" result="effect1_dropShadow_598_612"/>
<feBlend mode="normal" in="SourceGraphic" in2="effect1_dropShadow_598_612" result="shape"/>
<feColorMatrix in="SourceAlpha" type="matrix" values="0 0 0 0 0 0 0 0 0 0 0 0 0 0 0 0 0 0 127 0" result="hardAlpha"/>
<feOffset dx="-2" dy="-2"/>
<feGaussianBlur stdDeviation="4.6"/>
<feComposite in2="hardAlpha" operator="arithmetic" k2="-1" k3="1"/>
<feColorMatrix type="matrix" values="0 0 0 0 0 0 0 0 0 0 0 0 0 0 0 0 0 0 0.3 0"/>
<feBlend mode="normal" in2="shape" result="effect2_innerShadow_598_612"/>
</filter>
</defs>
</svg>
