<svg width="143" height="138" viewBox="0 0 143 138" fill="none" xmlns="http://www.w3.org/2000/svg">
<path d="M0.839318 2.3733C0.294207 2.46204 -0.075747 2.97588 0.0129951 3.52098C0.101737 4.06609 0.61557 4.43605 1.16068 4.34731L0.839318 2.3733ZM105.5 27.8602L104.841 28.6127L105.5 27.8602ZM133.696 136.955C134.024 137.399 134.651 137.493 135.095 137.164L142.33 131.813C142.774 131.484 142.868 130.858 142.54 130.414C142.211 129.97 141.585 129.876 141.141 130.205L134.709 134.962L129.952 128.53C129.624 128.086 128.997 127.992 128.553 128.321C128.109 128.649 128.016 129.275 128.344 129.719L133.696 136.955ZM0.999999 3.36031C1.16068 4.34731 1.16064 4.34732 1.16059 4.34733C1.16059 4.34733 1.16057 4.34733 1.16056 4.34733C1.16055 4.34733 1.16057 4.34733 1.16062 4.34732C1.16072 4.34731 1.16094 4.34727 1.16128 4.34721C1.16195 4.34711 1.16311 4.34692 1.16475 4.34665C1.16802 4.34613 1.17321 4.3453 1.18029 4.34417C1.19445 4.34191 1.21619 4.33848 1.24541 4.33393C1.30384 4.32483 1.39215 4.3113 1.5094 4.29391C1.74391 4.25914 2.09419 4.20895 2.55279 4.14804C3.47002 4.02619 4.8204 3.86143 6.54442 3.69115L6.34784 1.70084C4.59998 1.87347 3.22728 2.04087 2.28942 2.16545C1.82048 2.22774 1.4602 2.27934 1.21604 2.31555C1.09396 2.33365 1.00091 2.3479 0.937811 2.35772C0.906264 2.36263 0.882201 2.36644 0.865748 2.36906C0.857524 2.37036 0.851198 2.37138 0.846789 2.37209C0.844581 2.37245 0.842857 2.37272 0.841611 2.37293C0.840988 2.37303 0.840485 2.37311 0.840104 2.37317C0.839914 2.3732 0.83975 2.37323 0.83962 2.37325C0.839552 2.37326 0.839481 2.37327 0.839447 2.37328C0.839378 2.37329 0.839318 2.3733 0.999999 3.36031ZM17.5221 2.98208C20.8202 2.87359 24.5107 2.8425 28.4934 2.95162L28.5481 0.952365C24.5215 0.842048 20.7907 0.873484 17.4563 0.98316L17.5221 2.98208ZM39.4598 3.59377C42.9805 3.91266 46.6309 4.35533 50.3603 4.95348L50.677 2.97872C46.8986 2.37272 43.2026 1.9246 39.6402 1.60193L39.4598 3.59377ZM61.1063 7.09354C64.6069 7.93406 68.1326 8.92901 71.645 10.1023L72.2787 8.20539C68.7072 7.01232 65.1256 6.00177 61.5732 5.14881L61.1063 7.09354ZM81.8415 14.0636C85.1383 15.5388 88.3882 17.198 91.5581 19.062L92.5719 17.338C89.3342 15.4341 86.0181 13.7414 82.6584 12.238L81.8415 14.0636ZM100.618 25.1533C102.053 26.2535 103.462 27.4058 104.841 28.6127L106.158 27.1076C104.746 25.8716 103.303 24.6919 101.835 23.5661L100.618 25.1533ZM104.841 28.6127C106.294 29.884 107.679 31.207 108.999 32.5765L110.439 31.1885C109.081 29.7792 107.655 28.417 106.158 27.1076L104.841 28.6127ZM116.272 41.4615C118.471 44.6225 120.422 47.9339 122.151 51.3482L123.935 50.4448C122.168 46.9546 120.17 43.5626 117.914 40.3192L116.272 41.4615ZM126.725 61.9331C128.057 65.5724 129.184 69.2671 130.135 72.9663L132.072 72.4683C131.106 68.7114 129.96 64.9532 128.604 61.2461L126.725 61.9331ZM132.533 84.2888C133.194 88.1913 133.688 92.0371 134.047 95.7636L136.037 95.5718C135.674 91.8023 135.175 87.9087 134.504 83.9544L132.533 84.2888ZM134.784 107.325C134.92 111.522 134.908 115.431 134.813 118.933L136.812 118.987C136.908 115.45 136.92 111.501 136.783 107.26L134.784 107.325ZM134.147 130.519C133.983 132.335 133.824 133.763 133.705 134.734C133.646 135.22 133.597 135.592 133.563 135.841C133.546 135.965 133.533 136.059 133.524 136.122C133.52 136.153 133.516 136.176 133.514 136.191C133.513 136.199 133.512 136.204 133.512 136.208C133.511 136.21 133.511 136.211 133.511 136.212C133.511 136.212 133.511 136.212 133.511 136.212C133.511 136.213 133.511 136.213 133.511 136.213L133.511 136.213C133.511 136.213 133.511 136.212 134.5 136.36C135.489 136.509 135.489 136.508 135.489 136.508C135.489 136.508 135.489 136.508 135.489 136.508C135.489 136.508 135.489 136.508 135.489 136.508C135.489 136.507 135.489 136.507 135.489 136.506C135.489 136.505 135.49 136.503 135.49 136.501C135.491 136.496 135.492 136.49 135.493 136.481C135.496 136.464 135.499 136.438 135.504 136.405C135.514 136.338 135.527 136.24 135.545 136.111C135.58 135.853 135.63 135.472 135.691 134.976C135.811 133.985 135.973 132.537 136.139 130.699L134.147 130.519ZM0.839318 2.3733C0.294207 2.46204 -0.075747 2.97588 0.0129951 3.52098C0.101737 4.06609 0.61557 4.43605 1.16068 4.34731L0.839318 2.3733ZM105.5 27.8602L104.841 28.6127L105.5 27.8602ZM133.696 136.955C134.024 137.399 134.651 137.493 135.095 137.164L142.33 131.813C142.774 131.484 142.868 130.858 142.54 130.414C142.211 129.97 141.585 129.876 141.141 130.205L134.709 134.962L129.952 128.53C129.624 128.086 128.997 127.992 128.553 128.321C128.109 128.649 128.016 129.275 128.344 129.719L133.696 136.955ZM0.999999 3.36031C1.16068 4.34731 1.16064 4.34732 1.16059 4.34733C1.16059 4.34733 1.16057 4.34733 1.16056 4.34733C1.16055 4.34733 1.16057 4.34733 1.16062 4.34732C1.16072 4.34731 1.16094 4.34727 1.16128 4.34721C1.16195 4.34711 1.16311 4.34692 1.16475 4.34665C1.16802 4.34613 1.17321 4.3453 1.18029 4.34417C1.19445 4.34191 1.21619 4.33848 1.24541 4.33393C1.30384 4.32483 1.39215 4.3113 1.5094 4.29391C1.74391 4.25914 2.09419 4.20895 2.55279 4.14804C3.47002 4.02619 4.8204 3.86143 6.54442 3.69115L6.34784 1.70084C4.59998 1.87347 3.22728 2.04087 2.28942 2.16545C1.82048 2.22774 1.4602 2.27934 1.21604 2.31555C1.09396 2.33365 1.00091 2.3479 0.937811 2.35772C0.906264 2.36263 0.882201 2.36644 0.865748 2.36906C0.857524 2.37036 0.851198 2.37138 0.846789 2.37209C0.844581 2.37245 0.842857 2.37272 0.841611 2.37293C0.840988 2.37303 0.840485 2.37311 0.840104 2.37317C0.839914 2.3732 0.83975 2.37323 0.83962 2.37325C0.839552 2.37326 0.839481 2.37327 0.839447 2.37328C0.839378 2.37329 0.839318 2.3733 0.999999 3.36031ZM17.5221 2.98208C20.8202 2.87359 24.5107 2.8425 28.4934 2.95162L28.5481 0.952365C24.5215 0.842048 20.7907 0.873484 17.4563 0.98316L17.5221 2.98208ZM39.4598 3.59377C42.9805 3.91266 46.6309 4.35533 50.3603 4.95348L50.677 2.97872C46.8986 2.37272 43.2026 1.9246 39.6402 1.60193L39.4598 3.59377ZM61.1063 7.09354C64.6069 7.93406 68.1326 8.92901 71.645 10.1023L72.2787 8.20539C68.7072 7.01232 65.1256 6.00177 61.5732 5.14881L61.1063 7.09354ZM81.8415 14.0636C85.1383 15.5388 88.3882 17.198 91.5581 19.062L92.5719 17.338C89.3342 15.4341 86.0181 13.7414 82.6584 12.238L81.8415 14.0636ZM100.618 25.1533C102.053 26.2535 103.462 27.4058 104.841 28.6127L106.158 27.1076C104.746 25.8716 103.303 24.6919 101.835 23.5661L100.618 25.1533ZM104.841 28.6127C106.294 29.884 107.679 31.207 108.999 32.5765L110.439 31.1885C109.081 29.7792 107.655 28.417 106.158 27.1076L104.841 28.6127ZM116.272 41.4615C118.471 44.6225 120.422 47.9339 122.151 51.3482L123.935 50.4448C122.168 46.9546 120.17 43.5626 117.914 40.3192L116.272 41.4615ZM126.725 61.9331C128.057 65.5724 129.184 69.2671 130.135 72.9663L132.072 72.4683C131.106 68.7114 129.96 64.9532 128.604 61.2461L126.725 61.9331ZM132.533 84.2888C133.194 88.1913 133.688 92.0371 134.047 95.7636L136.037 95.5718C135.674 91.8023 135.175 87.9087 134.504 83.9544L132.533 84.2888ZM134.784 107.325C134.92 111.522 134.908 115.431 134.813 118.933L136.812 118.987C136.908 115.45 136.92 111.501 136.783 107.26L134.784 107.325ZM134.147 130.519C133.983 132.335 133.824 133.763 133.705 134.734C133.646 135.22 133.597 135.592 133.563 135.841C133.546 135.965 133.533 136.059 133.524 136.122C133.52 136.153 133.516 136.176 133.514 136.191C133.513 136.199 133.512 136.204 133.512 136.208C133.511 136.21 133.511 136.211 133.511 136.212C133.511 136.212 133.511 136.212 133.511 136.212C133.511 136.213 133.511 136.213 133.511 136.213L133.511 136.213C133.511 136.213 133.511 136.212 134.5 136.36C135.489 136.509 135.489 136.508 135.489 136.508C135.489 136.508 135.489 136.508 135.489 136.508C135.489 136.508 135.489 136.508 135.489 136.508C135.489 136.507 135.489 136.507 135.489 136.506C135.489 136.505 135.49 136.503 135.49 136.501C135.491 136.496 135.492 136.49 135.493 136.481C135.496 136.464 135.499 136.438 135.504 136.405C135.514 136.338 135.527 136.24 135.545 136.111C135.58 135.853 135.63 135.472 135.691 134.976C135.811 133.985 135.973 132.537 136.139 130.699L134.147 130.519Z" fill="#188EF8"/>
</svg>
