<svg width="504" height="351" viewBox="0 0 504 351" fill="none" xmlns="http://www.w3.org/2000/svg">
<path d="M0 12.8604C0 6.23294 5.37258 0.860352 12 0.860352H492C498.627 0.860352 504 6.23293 504 12.8604V338.86C504 345.488 498.627 350.86 492 350.86H12C5.3726 350.86 0 345.488 0 338.86V12.8604Z" fill="#101215"/>
<path d="M0.5 12.8604C0.5 6.50908 5.64873 1.36035 12 1.36035H492C498.351 1.36035 503.5 6.50908 503.5 12.8604V338.86C503.5 345.212 498.351 350.36 492 350.36H12C5.64874 350.36 0.5 345.212 0.5 338.86V12.8604Z" stroke="white" stroke-opacity="0.05"/>
<path d="M204.31 67.2379L201.979 104.1L208.024 104.483L210.355 67.6201L204.31 67.2379Z" fill="#407BFF"/>
<path d="M196.54 76.2324L194.206 104.044L200.242 104.551L202.576 76.7388L196.54 76.2324Z" fill="#C8E5FF"/>
<path d="M185.921 62.4875L183.59 104.039L192.661 104.548L194.991 62.9963L185.921 62.4875Z" fill="#407BFF"/>
<path d="M178.347 70.3599L176.018 104.083L182.06 104.5L184.389 70.7772L178.347 70.3599Z" fill="#C8E5FF"/>
<path d="M170.534 73.5594L161.525 74.7322L165.45 104.875L174.458 103.702L170.534 73.5594Z" fill="#407BFF"/>
<path d="M158.584 59.5776L149.564 60.667L154.899 104.844L163.92 103.755L158.584 59.5776Z" fill="#C8E5FF"/>
<path d="M147.991 66.0886L141.993 66.936L147.331 104.718L153.329 103.871L147.991 66.0886Z" fill="#407BFF"/>
<path d="M140.409 62.9427L131.4 64.1211L136.732 104.889L145.741 103.71L140.409 62.9427Z" fill="#C8E5FF"/>
<path d="M238.074 101.903H129.127V106.961H238.074V101.903Z" fill="white"/>
<path d="M216.221 76.2052C216.221 76.2052 214.681 29.3928 216.221 24.9328C217.762 20.4727 218.114 30.214 218.701 48.7586C219.289 67.3025 219.323 76.2059 219.323 76.2059L216.221 76.2052Z" fill="#6CC04A"/>
<path d="M212.329 76.2053C207.497 47.1693 209.938 38.2014 214.429 76.2053H212.329Z" fill="#41873F"/>
<path d="M220.461 76.2052C221.991 40.2197 221.624 34.9922 218.63 46.8562C217.063 53.0658 219.312 76.2052 219.312 76.2052H220.461Z" fill="#41873F"/>
<path d="M214.068 76.2052C209.67 41.051 213.152 37.528 213.493 37.9541C213.954 38.5289 217.013 76.2052 217.013 76.2052H214.068Z" fill="#41873F"/>
<path d="M227.519 102.031H206.269C204.602 98.3403 204.089 95.6059 204.251 93.386C204.31 92.4482 204.498 91.6089 204.772 90.8277C206.367 86.1531 210.931 83.5752 210.931 76.2061H222.461C222.461 82.046 227.988 85.3986 229.654 90.7958C229.908 91.6031 230.071 92.4627 230.117 93.3802C230.234 95.7552 229.557 98.5548 227.519 102.031Z" fill="#7F3E3B"/>
<path d="M221.565 76.2052C229.012 35.1958 229.012 20.3669 223.84 43.3571C218.667 66.3473 219.817 76.2052 219.817 76.2052H221.565Z" fill="#6CC04A"/>
<path d="M211.961 76.2055C206.897 62.9239 205.187 58.2689 209.7 61.831C214.212 65.3938 213.214 76.2055 213.214 76.2055H211.961Z" fill="#6CC04A"/>
<path d="M221.565 76.2051C231.407 57.5249 225.398 59.3433 219.323 76.2051H221.565Z" fill="#6CC04A"/>
<path d="M230.116 93.3788C229.804 93.4571 229.459 93.5028 229.081 93.5028C226.946 93.5028 225.859 92.0772 225.065 91.035C224.283 90.0131 223.893 89.5964 223.125 89.5964C222.356 89.5964 221.959 90.0131 221.184 91.035C220.39 92.0765 219.303 93.5028 217.168 93.5028C215.039 93.5028 213.952 92.0772 213.158 91.035C212.377 90.0131 211.986 89.5964 211.218 89.5964C210.45 89.5964 210.052 90.0131 209.278 91.035C208.483 92.0765 207.396 93.5028 205.261 93.5028C204.897 93.5028 204.558 93.4571 204.252 93.3854C204.311 92.4475 204.499 91.6083 204.773 90.827C204.923 90.8727 205.079 90.8988 205.262 90.8988C206.03 90.8988 206.427 90.4821 207.202 89.4602C207.996 88.4187 209.083 86.9924 211.219 86.9924C213.348 86.9924 214.436 88.418 215.229 89.4602C216.01 90.4821 216.401 90.8988 217.169 90.8988C217.938 90.8988 218.335 90.4821 219.116 89.4602C219.904 88.4187 220.991 86.9924 223.126 86.9924C225.261 86.9924 226.349 88.418 227.136 89.4602C227.917 90.4821 228.314 90.8988 229.083 90.8988C229.297 90.8988 229.48 90.8662 229.656 90.7944C229.908 91.6018 230.07 92.4613 230.116 93.3788Z" fill="white"/>
<path d="M108.601 243.285L91.5412 324.692H87L99.5184 243.285" fill="#82A9FE"/>
<path d="M182.649 244.598L165.589 326.005H161.047L173.566 244.598" fill="#82A9FE"/>
<path d="M186.366 246.864L105.428 244.967C98.4846 244.805 92.9881 239.044 93.1505 232.1L93.9339 198.663L187.444 200.855C194.388 201.018 199.884 206.778 199.722 213.722L199.233 234.586C199.07 241.53 193.309 247.027 186.366 246.864Z" fill="#CBDBFF"/>
<path d="M153.802 241.229L105.626 240.1C98.4121 239.931 92.7011 233.945 92.87 226.732L94.4434 159.596C94.5949 153.127 99.9616 148.006 106.43 148.158L144.244 149.044C150.712 149.196 155.833 154.562 155.682 161.031L153.802 241.229Z" fill="#CBDBFF"/>
<path d="M149.668 241.229L115.002 240.417C107.788 240.248 102.077 234.262 102.247 227.049L103.82 159.913C103.972 153.444 109.338 148.324 115.807 148.476L140.111 149.045C146.579 149.197 151.7 154.563 151.549 161.032L149.668 241.229Z" fill="#82A9FE"/>
<path d="M138.997 162.33C142.291 181.086 156.08 194.541 167.47 208.098C169.802 210.873 173.486 212.11 177.016 211.292C183.293 209.836 186.391 202.741 183.191 197.147L158.785 155.183C157.544 153.014 155.636 151.421 153.424 150.547C151.385 149.741 149.1 149.557 146.855 150.129C141.453 151.512 138.032 156.834 138.997 162.33Z" fill="#264A99"/>
<path d="M149.64 148.293L150.725 147.237C153.147 144.876 152.833 140.896 150.069 138.944L145.729 135.879L140.78 144.938L149.64 148.293Z" fill="white"/>
<path d="M131.312 241.25C131.507 241.276 131.693 241.28 131.889 241.284L159.073 241.921L156.784 216.503L156.26 208.643L122.71 205.638L114.322 207.883L112.365 215.318C108.996 228.065 118.253 240.604 131.312 241.25Z" fill="#232321"/>
<path d="M202.96 237.226L201.009 309.782L187.359 308.754C189.868 293.573 176.086 243.439 187.474 222.616C195.961 221.892 203.189 228.712 202.96 237.226Z" fill="white"/>
<path d="M187.926 303.758C187.211 310.691 182.656 313.162 182.147 318.655C181.585 324.718 189.623 325.041 199.659 325.798C209.694 326.554 225.327 327.731 225.327 327.731C225.327 327.731 226.907 322.222 219.781 321.491C219.781 321.491 214.73 316.914 203.487 311.301C203.487 311.301 201.01 309.782 201.238 301.283L187.926 303.758Z" fill="white"/>
<path d="M225.339 325.764L178.526 326.119C178.526 326.119 178.274 314.428 185.385 309.363L199.217 309.969L203.553 306.356L208.925 312.949C208.925 312.949 227.272 315.611 225.339 325.764Z" fill="#232321"/>
<path d="M156.784 216.501L160.968 241.965L180.728 242.428C180.728 242.428 178.186 266.91 180.098 294.35C180.305 297.374 180.574 300.44 180.903 303.518L205.979 303.979L207.793 295.061L205.429 294.944L204.723 232.771C204.632 224.321 197.859 217.465 189.415 217.267L156.784 216.501Z" fill="#232321"/>
<path d="M180.728 242.428C180.728 242.428 178.186 266.91 180.098 294.35L189.376 294.568L186.627 233.336L171.703 232.708L164.159 242.041L180.728 242.428Z" fill="#020000"/>
<path d="M204.441 294.919L182.197 294.398" stroke="#3A3A39" stroke-width="1.0129" stroke-miterlimit="10"/>
<path d="M165.388 237.57L150.965 308.705L136.996 307.573C139.506 292.392 137.846 239.06 152.651 220.51C161.135 221.26 167.081 229.222 165.388 237.57Z" fill="white"/>
<path d="M137.563 302.577C136.848 309.51 132.293 311.981 131.784 317.475C131.222 323.537 139.261 323.86 149.296 324.617C159.332 325.373 174.964 326.55 174.964 326.55C174.964 326.55 176.543 321.041 169.418 320.31C169.418 320.31 164.367 315.733 153.124 310.12C153.124 310.12 150.647 308.602 150.875 300.102L137.563 302.577Z" fill="white"/>
<path d="M175.143 326.125L128.33 325.879C128.33 325.879 128.228 314.186 135.403 309.213L149.226 309.997L153.608 306.44L158.895 313.102C158.895 313.102 177.207 315.998 175.143 326.125Z" fill="#232321"/>
<path d="M127.128 215.806L130.302 235.147L131.313 241.249L131.312 241.269L143.834 241.563C143.834 241.563 137.026 269.581 135.203 293.297C134.965 296.444 134.81 299.521 134.773 302.436L159.294 303.977L161.935 293.978L159.299 293.862L171.705 232.707C173.371 224.483 167.196 216.745 158.803 216.549L127.128 215.806Z" fill="#232321"/>
<path d="M131.312 241.25L131.312 241.27L143.833 241.564C143.833 241.564 137.025 269.582 135.203 293.298L139.487 293.399L149.25 241.692L150.379 235.732L132.019 235.302C131.432 235.288 130.856 235.233 130.302 235.148C122.736 234.002 117.563 226.566 119.432 218.893L122.71 205.638L114.323 207.883L112.366 215.318C108.996 228.065 118.253 240.604 131.312 241.25Z" fill="#020000"/>
<path d="M156.631 131.801L154.682 134.582L148.705 143.125L145.158 148.183L131.962 144.627L144.585 107.263L156.631 131.801Z" fill="#D7AAAD"/>
<path d="M140.931 134.281C140.931 134.281 152.098 138.421 155.942 139.392C160.078 140.436 164.539 137.869 165.432 133.608C166.672 127.802 167.565 121.969 165.786 115.364C164.735 111.463 162.424 108.181 159.358 105.875C157.984 104.832 156.448 103.992 154.803 103.395L154.787 103.387L153.853 103.078L153.759 103.042C153.29 102.902 152.817 102.79 152.336 102.694C151.194 102.456 150.02 102.324 148.823 102.322C147.678 102.316 146.572 102.501 145.547 102.849C141.241 104.309 138.308 108.65 138.883 113.474L139.39 117.614L140.931 134.281Z" fill="#D7AAAD"/>
<path d="M154.682 134.581L145.159 148.183C137.519 137.622 143.989 129.802 143.989 129.802L154.682 134.581Z" fill="#9C6669"/>
<path d="M159.697 116.064C160.956 119.226 162.625 121.183 164.151 122.918C166.53 125.624 164.057 129.799 160.535 129.039L159.592 128.836L159.697 116.064Z" fill="#B58487"/>
<path d="M139.911 122.597C146.094 121.212 149.635 116.461 150.124 112.537L145.938 111.193L160.985 107.263C160.985 107.263 158.541 103.578 151.566 102.267C148.021 101.6 138.596 101.625 134.525 105.012C132.291 106.87 128.204 118.468 136.97 129.803L139.911 122.597Z" fill="black"/>
<path d="M145.938 123.086C138.429 104.515 123.65 124.44 142.312 128.1L145.938 123.086Z" fill="#D7AAAD"/>
<path d="M137.058 119.871L141.119 123.492" stroke="#9C6669" stroke-width="1.0129" stroke-miterlimit="10"/>
<path d="M156.26 208.642L123.621 207.038L122.676 207.131L122.212 207.085L114.327 207.889C114.327 207.889 114.585 196.919 113.917 180.843C113.631 173.675 112.27 165.901 114.145 158.011C119.103 137.266 135.538 136.357 134.54 137.298L152.177 149.562C152.902 152.053 155.307 156.945 156.446 162.601C156.538 163.024 156.618 163.468 156.688 163.901C156.914 165.381 157.06 166.895 157.046 168.438C157.048 168.869 157.037 169.322 156.981 169.775C156.954 170.433 156.882 171.113 156.775 171.768C156.139 175.681 154.323 179.565 150.509 182.972L150.57 183.235L150.58 183.292L156.26 208.642Z" fill="#3768D7"/>
<path d="M132.231 137.27L151.882 164.216L145.222 174.921L132.231 137.27Z" fill="#407BFF"/>
<path d="M143.995 143.873L133.864 137.058L150.926 168.668L149.965 148.024L143.995 143.873Z" fill="white"/>
<path d="M156.26 208.642L119.971 207.121C119.688 197.409 119.721 168.914 121.781 158.951L142.356 177.174L154.634 178.979L156.26 208.642Z" fill="#407BFF"/>
<path d="M146.564 113.599L146.507 124.149L145.063 123.916L142.426 117.117L146.564 113.599Z" fill="black"/>
<path d="M156.938 121.214C157.157 122.732 156.774 124.043 156.083 124.143C155.39 124.243 154.652 123.094 154.432 121.577C154.213 120.059 154.596 118.748 155.288 118.648C155.98 118.548 156.719 119.697 156.938 121.214Z" fill="#212121"/>
<path d="M154.755 116.989C151.633 117.968 150.949 116.348 153.226 115.24C155.674 114.047 158.638 115.772 154.755 116.989Z" fill="black"/>
<path d="M165.224 119.69C165.443 121.207 165.06 122.518 164.368 122.618C163.676 122.718 162.938 121.57 162.718 120.052C162.499 118.534 162.882 117.223 163.574 117.123C164.266 117.023 165.004 118.172 165.224 119.69Z" fill="#212121"/>
<path d="M163.405 112.519C160.141 112.307 160.086 110.551 162.609 110.336C165.322 110.106 167.466 112.783 163.405 112.519Z" fill="black"/>
<path d="M158.441 293.841L136.196 293.32" stroke="#3A3A39" stroke-width="1.0129" stroke-miterlimit="10"/>
<path d="M139.483 293.397L150.382 235.735L132.019 235.304C123.545 235.106 117.424 227.125 119.43 218.889L121.22 211.54" stroke="#3A3A39" stroke-width="1.0129" stroke-miterlimit="10"/>
<path d="M113.793 211.366L156.173 212.36" stroke="#3A3A39" stroke-width="1.0129" stroke-miterlimit="10"/>
<path d="M119.706 217.755L129.056 216.707L130.224 212.21" stroke="#3A3A39" stroke-width="1.0129" stroke-miterlimit="10"/>
<path d="M169.484 242.16L171.007 235.151C172.999 225.986 166.145 217.276 156.768 217.056L136.326 216.577" stroke="#3A3A39" stroke-width="1.0129" stroke-miterlimit="10"/>
<path d="M189.371 294.566L186.629 233.34L171.699 232.705" stroke="#3A3A39" stroke-width="1.0129" stroke-miterlimit="10"/>
<path d="M117.616 154.819C118.483 172.351 124.689 185.02 132.257 197.718C135.037 202.383 140.748 204.41 145.845 202.536C151.738 200.369 154.727 193.808 152.495 187.939L136.528 151.056C135.565 148.75 131.87 143.387 126.926 143.687C121.361 144.026 117.34 149.245 117.616 154.819Z" fill="#264A99"/>
<path d="M146.129 123.05C146.129 123.05 147.27 127.398 151.206 128.531C156.296 129.996 161.559 128.099 166.598 127.03C166.368 130.408 168.202 139.87 159.124 140.52C152.75 140.977 144.504 134.568 142.908 130.626C141.312 126.684 142.717 124.626 142.426 117.117L146.129 123.05Z" fill="black"/>
<path d="M159.094 115.465C160.353 118.626 162.022 120.584 163.548 122.319C165.928 125.025 163.454 129.201 159.932 128.441L158.989 128.237" fill="#D7AAAD"/>
<path d="M159.094 115.465C160.353 118.626 162.022 120.584 163.548 122.319C165.928 125.025 163.454 129.201 159.932 128.441L158.989 128.237" stroke="#9C6669" stroke-width="1.0129" stroke-miterlimit="10"/>
<path d="M159.69 132.543C157.881 133.668 155.03 132.619 154.863 130.413" stroke="#9C6669" stroke-width="1.0129" stroke-miterlimit="10"/>
<path opacity="0.4" d="M145.179 144.696L143.721 144.876L140.846 147.089L145.368 150.261L143.004 153.991L150.926 168.668L150.19 152.863L147.504 150.293L148.057 146.697L145.179 144.696Z" fill="#407BFF"/>
<path d="M140.74 149.797L143.694 146.803C147.201 143.248 146.575 137.181 142.209 134.757C142.014 134.648 141.812 134.547 141.605 134.452L135.561 131.706L132.231 137.269L140.74 149.797Z" fill="white"/>
<path d="M151.925 150.26L148.705 138.176L149.65 131.266C149.767 130.415 150.679 129.924 151.454 130.295C151.905 130.511 152.187 130.973 152.173 131.472L152.078 134.983L158.898 141.324L151.925 150.26Z" fill="#D7AAAD"/>
<path d="M155.08 138.69L166.125 134.563L166.602 129.558L169.65 130.397C170.564 130.63 171.24 131.404 171.346 132.342L171.377 132.621C171.525 133.928 171.088 135.233 170.182 136.188L155.862 151.277L155.08 138.69Z" fill="#D7AAAD"/>
<path d="M168.828 135.718L169.635 141.462C169.787 142.537 169.411 143.618 168.625 144.368C168.95 145.971 168.176 147.596 166.727 148.354L153.025 155.528L149.43 140.898L168.828 135.718Z" fill="#D7AAAD"/>
<path d="M159.355 149.541C157.732 166.536 156.386 180.242 155.43 189.851C154.569 198.508 146.741 204.745 138.109 203.661C134.04 196.717 133.692 188.205 137.18 180.952L153.961 146.058L159.355 149.541Z" fill="#D7AAAD"/>
<path d="M165.678 196.876L146.467 214.71C146.467 214.71 164.126 217.262 179.306 208.642C183.395 206.32 183.487 200.059 180.923 197.358C176.832 193.047 170.034 192.832 165.678 196.876Z" fill="#D7AAAD"/>
<path d="M93.1838 231.473C93.0258 238.701 98.2874 244.705 104.925 244.869L109.214 244.98L134.39 245.627L143.889 241.563L144.518 212.34C144.66 205.784 139.889 200.34 133.86 200.185L93.8796 199.168L93.4679 218.249L93.1838 231.473Z" fill="#82A9FE"/>
<path d="M92.9874 231.473C92.8316 238.701 98.0121 244.705 104.548 244.869L108.77 244.98L133.558 245.627L134.087 224.452C134.087 207.54 136.295 199.849 120.027 199.849L93.673 199.168L93.2679 218.249L92.9874 231.473Z" fill="#CBDBFF"/>
<path d="M166.843 197.342H184.711L192.591 144.687H174.023C172.86 144.687 171.872 145.539 171.699 146.689L164.519 194.643C164.307 196.064 165.407 197.342 166.843 197.342Z" fill="#6CBAFF"/>
<path d="M169.832 197.342H247.01C248.173 197.342 249.162 196.49 249.334 195.339L256.51 147.384C256.723 145.964 255.623 144.687 254.186 144.687H177.013C175.85 144.687 174.861 145.539 174.689 146.689L167.508 194.643C167.296 196.064 168.396 197.342 169.832 197.342Z" fill="#ACD8FF"/>
<path d="M199.53 197.342H226.12L230.057 169.283H203.472L199.53 197.342Z" fill="#8ECAFF"/>
<path d="M203.664 169.283L208.859 209.283H235.45L230.249 169.283H203.664ZM219.528 188.142C222.858 188.142 225.877 190.84 226.264 194.175C226.656 197.504 224.274 200.203 220.945 200.203C217.615 200.203 214.596 197.504 214.204 194.175C213.811 190.84 216.194 188.142 219.528 188.142Z" fill="#6CBAFF"/>
<path d="M187.56 209.283H233.745V205.362H187.56V209.283Z" fill="#6CBAFF"/>
<path d="M206.43 169.283L211.626 209.283H238.217L233.016 169.283H206.43ZM222.295 188.142C225.624 188.142 228.644 190.84 229.031 194.175C229.423 197.504 227.04 200.203 223.711 200.203C220.382 200.203 217.362 197.504 216.97 194.175C216.578 190.84 218.96 188.142 222.295 188.142Z" fill="#D0E9FF"/>
<path d="M253.517 219.149L275.04 326.013H279.167L261.771 219.149" fill="#5287FF"/>
<path d="M236.061 307.148C234.408 307.083 232.777 307.017 231.161 306.945L213.485 219.15H221.732L236.061 307.148Z" fill="#5287FF"/>
<path d="M132.766 219.149L111.243 326.013H107.116L124.512 219.149" fill="#5287FF"/>
<path d="M279.166 209.283H102.42V219.149H279.166V209.283Z" fill="#5287FF"/>
<path d="M293.713 116.4H401.275C404.91 116.4 407.857 113.454 407.857 109.818C407.857 106.183 404.91 103.236 401.275 103.236H293.713C290.078 103.236 287.131 106.183 287.131 109.818C287.13 113.454 290.078 116.4 293.713 116.4Z" fill="#E1F1FF"/>
<path d="M400.278 125.744H294.714C290.525 125.744 287.129 129.133 287.129 133.322V182.096L273.013 189.088L287.129 195.616V254.835C287.129 259.024 290.526 262.42 294.714 262.42H400.279C404.461 262.42 407.857 259.023 407.857 254.835V133.322C407.857 129.134 404.46 125.744 400.278 125.744Z" fill="#8BC8FF"/>
<path d="M392 118.961H286.436C282.247 118.961 278.85 122.35 278.85 126.539V175.312L264.734 182.304L278.85 188.832V248.051C278.85 252.24 282.247 255.636 286.436 255.636H392C396.182 255.636 399.578 252.24 399.578 248.051V126.539C399.578 122.35 396.181 118.961 392 118.961Z" fill="#E1F1FF" stroke="#6BB9FF" stroke-width="1.0129" stroke-miterlimit="10"/>
<path d="M342.197 162.336H292.49C290.295 162.336 288.515 160.556 288.515 158.36V131.32C288.515 129.124 290.295 127.344 292.49 127.344H342.197C344.392 127.344 346.172 129.124 346.172 131.32V158.36C346.172 160.556 344.392 162.336 342.197 162.336Z" fill="#6BB9FF"/>
<path opacity="0.3" d="M385.908 132.896H353.098C351.656 132.896 350.487 131.728 350.487 130.286V129.954C350.487 128.513 351.656 127.344 353.098 127.344H385.908C387.35 127.344 388.518 128.513 388.518 129.954V130.286C388.518 131.728 387.35 132.896 385.908 132.896Z" fill="#188EF8"/>
<path opacity="0.3" d="M385.908 143.709H353.098C351.656 143.709 350.487 142.54 350.487 141.098V140.767C350.487 139.325 351.656 138.156 353.098 138.156H385.908C387.35 138.156 388.518 139.324 388.518 140.767V141.098C388.518 142.54 387.35 143.709 385.908 143.709Z" fill="#188EF8"/>
<path opacity="0.3" d="M385.908 154.52H353.098C351.656 154.52 350.487 153.352 350.487 151.911V151.579C350.487 150.137 351.656 148.968 353.098 148.968H385.908C387.35 148.968 388.518 150.137 388.518 151.579V151.911C388.518 153.352 387.35 154.52 385.908 154.52Z" fill="#188EF8"/>
<path opacity="0.3" d="M385.908 175.264H353.098C351.656 175.264 350.487 174.095 350.487 172.654V172.322C350.487 170.88 351.656 169.711 353.098 169.711H385.908C387.35 169.711 388.518 170.88 388.518 172.322V172.654C388.518 174.095 387.35 175.264 385.908 175.264Z" fill="#188EF8"/>
<path opacity="0.3" d="M385.908 186.076H353.098C351.656 186.076 350.487 184.908 350.487 183.465V183.133C350.487 181.692 351.656 180.523 353.098 180.523H385.908C387.35 180.523 388.518 181.692 388.518 183.133V183.465C388.518 184.908 387.35 186.076 385.908 186.076Z" fill="#188EF8"/>
<path opacity="0.3" d="M385.908 196.888H353.098C351.656 196.888 350.487 195.72 350.487 194.278V193.946C350.487 192.504 351.656 191.335 353.098 191.335H385.908C387.35 191.335 388.518 192.503 388.518 193.946V194.278C388.518 195.719 387.35 196.888 385.908 196.888Z" fill="#188EF8"/>
<path opacity="0.3" d="M385.908 207.26H353.098C351.656 207.26 350.487 206.092 350.487 204.649V204.318C350.487 202.876 351.656 201.707 353.098 201.707H385.908C387.35 201.707 388.518 202.875 388.518 204.318V204.649C388.518 206.091 387.35 207.26 385.908 207.26Z" fill="#188EF8"/>
<path opacity="0.3" d="M385.908 218.072H353.098C351.656 218.072 350.487 216.903 350.487 215.461V215.129C350.487 213.688 351.656 212.519 353.098 212.519H385.908C387.35 212.519 388.518 213.687 388.518 215.129V215.461C388.518 216.903 387.35 218.072 385.908 218.072Z" fill="#188EF8"/>
<path opacity="0.3" d="M385.908 228.884H353.098C351.656 228.884 350.487 227.715 350.487 226.274V225.942C350.487 224.501 351.656 223.332 353.098 223.332H385.908C387.35 223.332 388.518 224.5 388.518 225.942V226.274C388.518 227.715 387.35 228.884 385.908 228.884Z" fill="#188EF8"/>
<path d="M342.197 231.874H292.49C290.295 231.874 288.515 230.094 288.515 227.899V172.196C288.515 170.001 290.295 168.221 292.49 168.221H342.197C344.392 168.221 346.172 170.001 346.172 172.196V227.899C346.172 230.095 344.392 231.874 342.197 231.874Z" fill="#6BB9FF"/>
<path d="M285.435 113.543H392.998C396.633 113.543 399.58 110.596 399.58 106.961C399.58 103.325 396.633 100.379 392.998 100.379H285.435C281.8 100.379 278.853 103.325 278.853 106.961C278.853 110.596 281.8 113.543 285.435 113.543Z" fill="#6BB9FF" stroke="#A9F0FF" stroke-width="1.0129" stroke-miterlimit="10"/>
<path d="M289.986 106.961C289.986 108.589 288.666 109.908 287.039 109.908C285.412 109.908 284.093 108.588 284.093 106.961C284.093 105.333 285.412 104.014 287.039 104.014C288.666 104.014 289.986 105.333 289.986 106.961Z" fill="#0D5C9B"/>
<path d="M301.73 106.961C301.73 108.589 300.41 109.908 298.783 109.908C297.155 109.908 295.836 108.588 295.836 106.961C295.836 105.333 297.156 104.014 298.783 104.014C300.411 104.014 301.73 105.333 301.73 106.961Z" fill="#188EF8"/>
<path d="M313.473 106.961C313.473 108.589 312.154 109.908 310.527 109.908C308.899 109.908 307.58 108.588 307.58 106.961C307.58 105.333 308.899 104.014 310.527 104.014C312.154 104.014 313.473 105.333 313.473 106.961Z" fill="#0A385B"/>
<path d="M304.49 165.623C304.388 172.136 311.214 176.455 317.048 173.56C329.548 167.357 338.122 158.68 342.349 152.29C343.883 149.982 340.018 142.249 341.305 139.904C341.483 139.576 341.632 139.243 341.74 138.901C342.553 136.432 341.633 133.659 339.389 132.19C338.286 131.471 337.01 131.162 335.766 131.248C334.52 131.339 333.303 131.829 332.312 132.7L330.46 134.611L307.725 158.99C305.717 160.61 304.531 163.041 304.49 165.623Z" fill="#BD4939"/>
<path d="M302.023 166.646C303.496 168.952 306.063 170.082 308.592 169.875C309.926 169.765 311.251 169.283 312.394 168.398C314.969 166.408 315.796 163.024 314.69 160.163C314.401 159.414 313.979 158.699 313.419 158.054L293.209 134.763L293.183 134.729L289.14 137.434C289.14 137.434 292.307 151.428 302.023 166.646Z" fill="#EDC9C2"/>
<path d="M271.726 136.205L275.217 137.874L280.633 137.6L278.84 134.914L276.139 135.568L272.302 134.646C271.958 134.563 271.602 134.725 271.432 135.041L271.373 135.156C271.305 135.294 271.276 135.441 271.294 135.581C271.316 135.844 271.47 136.088 271.726 136.205Z" fill="#EDC9C2"/>
<path d="M270.783 137.503L276.388 139.883L277.202 140.228L282.937 139.774L283.302 136.063L276.488 137.094L271.476 135.577C271.18 135.488 270.865 135.537 270.614 135.705C270.514 135.772 270.427 135.855 270.356 135.953C270.21 136.152 270.148 136.388 270.164 136.615C270.185 136.989 270.404 137.341 270.783 137.503Z" fill="#EDC9C2"/>
<path d="M270.783 137.503L276.388 139.883L280.193 138.983L276.066 138.957L270.164 136.614C270.185 136.988 270.404 137.341 270.783 137.503Z" fill="#E2A8A1"/>
<path d="M269.34 139.624C269.434 139.765 269.553 139.879 269.713 139.967L270.316 140.301L273.551 142.081L276.489 142.885L282.071 144.419L285.687 137.675L276.191 139.93L270.548 137.989C270.093 137.853 269.602 138.029 269.337 138.418C269.085 138.797 269.106 139.273 269.34 139.624Z" fill="#EDC9C2"/>
<path d="M270.76 140.544L273.552 142.081L276.49 142.885L279.932 141.086L275.225 141.472L270.76 140.544Z" fill="#E2A8A1"/>
<path d="M282.076 144.417L275.209 144.485L271.001 142.345C270.614 142.148 270.465 141.67 270.673 141.288C270.857 140.949 271.262 140.798 271.623 140.935L274.946 142.192L279.932 141.084L282.076 144.417Z" fill="#EDC9C2"/>
<path d="M275.915 131.802C276.103 132.082 276.403 132.28 276.75 132.318L281.153 132.846L283.301 136.063L293.194 134.744C291.308 131.546 287.833 129.628 284.122 129.737L276.877 129.95C276.052 129.968 275.489 130.81 275.797 131.576C275.827 131.658 275.868 131.732 275.915 131.802Z" fill="#EDC9C2"/>
<path d="M293.189 134.743C286.524 131.858 278.755 134.972 278.755 134.972L282.14 144.392L293.91 140.788L293.189 134.743Z" fill="#EDC9C2"/>
<path d="M271.293 135.581L276.488 137.094L280.185 136.205L276.295 136.386L271.372 135.156C271.304 135.294 271.275 135.441 271.293 135.581Z" fill="#E2A8A1"/>
<path d="M282.201 139.956C284.421 136.29 287.109 134.977 291.213 136.23C291.213 136.23 286.088 135.457 282.201 139.956Z" fill="#E2A8A1"/>
<path d="M299.555 141.46L292.626 146.442C292.626 146.442 296.005 179.108 315.149 174.061L321.112 163.878L299.555 141.46Z" fill="#BD4939"/>
<path d="M290.481 143.662L292.713 152.391L295.245 150.865L294.356 145.009L297.531 149.486L304.822 145.081L298.421 138.962L290.481 143.662Z" fill="white"/>
<path d="M348.877 97.5285C334.76 84.8253 326.265 96.3595 330.731 108.517L348.877 97.5285Z" fill="black"/>
<path d="M367.469 88.293C361.392 81.7703 353.095 88.5169 354.681 98.1132C356.714 110.41 377.39 98.9409 367.469 88.293Z" fill="black"/>
<path d="M339.968 115.911L344.294 138.327L356.564 132.768L354.443 112.088L354.399 111.066L339.968 115.911Z" fill="#E2A8A1"/>
<path d="M350.724 115.612C353.151 126.043 358.903 122.98 361.969 116.638C366.878 106.483 367.147 91.4711 344.961 94.673L350.724 115.612Z" fill="black"/>
<path d="M353.815 103.743L352.533 108.823L351.945 111.139L350.371 117.355C349.522 120.711 346.995 123.388 343.694 124.429L338.561 126.048C334.112 127.452 329.537 124.363 329.123 119.716C328.819 116.306 328.821 112.328 330.119 108.101C331.628 103.192 335.565 99.356 340.25 97.8246L340.269 97.8188L341.091 97.5732L341.18 97.5507C341.59 97.4434 342.013 97.3557 342.435 97.2862C343.437 97.1086 344.474 97.0325 345.52 97.0629L348.841 97.1593C352.222 97.2579 354.644 100.462 353.815 103.743Z" fill="#EDC9C2"/>
<path d="M337.261 113.903C337.168 114.682 338.304 115.458 339.8 115.637C341.295 115.816 342.583 115.33 342.676 114.553C342.77 113.774 341.633 112.998 340.137 112.819C338.642 112.639 337.354 113.125 337.261 113.903Z" fill="#E2A8A1"/>
<path d="M329.858 109.077C329.296 111.986 327.571 112.916 326.297 113.198C325.479 113.379 324.935 114.153 325.038 114.984C325.174 116.08 325.943 116.994 327 117.315L330.741 118.452C332.758 118.694 334.545 117.147 334.595 115.117L334.764 108.235L329.858 109.077Z" fill="#EDC9C2"/>
<path d="M339.206 94.1426C337.85 106.478 346.45 114.685 353.978 111.723L354.481 103.57C356.104 99.4825 353.259 95.0029 348.869 94.734L339.206 94.1426Z" fill="black"/>
<path d="M354.019 111.068C354.019 111.068 340.434 119.247 338.881 97.5178" stroke="black" stroke-width="2.0258" stroke-miterlimit="10"/>
<path d="M332.83 111.875C333.014 113.297 333.689 114.383 334.338 114.299C334.987 114.215 335.363 112.994 335.179 111.571C334.995 110.148 334.321 109.063 333.671 109.147C333.023 109.23 332.646 110.452 332.83 111.875Z" fill="#212121"/>
<path d="M335.088 104.707C338.079 105.357 338.436 103.477 336.221 102.634C333.839 101.729 331.366 103.898 335.088 104.707Z" fill="black"/>
<path d="M330.953 142.488L332.431 145.675V145.687L333.558 148.11L338.671 159.124L340.731 163.571L348.025 179.286C351.842 176.923 355.695 173.203 359.282 168.732C362.42 164.819 365.34 160.299 367.824 155.585V155.573C368.406 154.507 368.938 153.429 369.46 152.35C371.75 142.341 372.797 139.25 367.842 132.244C367.695 132.036 358.409 130.879 358.167 130.843L344.002 128.468L337.205 129.922C336.866 129.994 336.538 130.079 336.224 130.2C331.219 131.862 328.675 137.581 330.953 142.488Z" fill="#D26D57"/>
<path d="M341.031 129.013L342.781 133.263L337.204 129.927L341.031 129.013Z" fill="#BD4939"/>
<path d="M331.541 193.881C321.479 190.283 332.711 178.294 332.711 178.294L331.541 193.881Z" fill="#D26D57"/>
<path d="M358.055 170.032C369.195 174.839 377.407 186.207 369.204 190.283L358.055 170.032Z" fill="#BD4939"/>
<path d="M324.649 255.638H375.887C375.253 239.88 376 201.171 370.756 190.908C368.888 187.254 366.687 183.223 363.339 179.422C358.963 174.452 352.944 169.738 344.658 166.067C344.658 166.067 342.015 168.225 338.879 172.977C338.852 173.009 338.825 173.053 338.803 173.086L336.285 171.469C335.542 173.02 334.853 174.839 334.209 176.866C332.876 181.116 331.762 186.315 330.833 192.083C330.271 194.421 329.833 196.945 329.424 199.643C326.041 221.945 325.135 243.244 324.649 255.638Z" fill="#232321"/>
<path d="M341.343 169.595C346.259 172.561 350.142 175.931 353.217 179.421C356.565 183.223 357.414 185.325 359.281 188.979C364.525 199.242 367.684 232.118 365.292 255.637H375.887C376.749 240.1 379.966 215.516 370.755 190.908C369.317 187.065 366.686 183.223 363.338 179.421C358.963 174.451 352.944 169.737 344.658 166.067C344.658 166.067 343.282 167.186 341.343 169.595Z" fill="#020000"/>
<path d="M329.426 199.642L329.754 199.581L366.374 197.289L367.013 191.705L369.097 191.258L370.757 190.906C369.06 187.174 366.685 183.224 363.341 179.42L347.553 178.038L336.442 177.057L334.213 176.864C332.88 181.116 331.765 186.315 330.832 192.082C330.274 194.42 329.789 196.94 329.426 199.642Z" fill="#020000"/>
<path d="M371.372 255.638C373.439 228.554 372.114 215.244 368.08 198.102C368.08 198.102 357.216 199.331 354.818 188.254" stroke="#3A3A39" stroke-width="1.0129" stroke-miterlimit="10"/>
<path d="M329.426 228.438L354.678 220.917" stroke="#3A3A39" stroke-width="1.0129" stroke-miterlimit="10"/>
<path d="M339.175 184.643C336.63 199.724 335.641 239.738 335.351 255.638" stroke="#3A3A39" stroke-width="1.0129" stroke-miterlimit="10"/>
<path d="M328.675 191.294L359.282 188.98L369.436 188.204L359.282 168.733L355.332 161.171L343.639 158.167L339.313 157.064L338.671 159.124L337.326 163.438L332.71 178.293L328.675 191.294Z" fill="#D26D57"/>
<path d="M346.546 161.766C344.478 162.778 342.526 163.38 340.736 163.57H340.729C339.511 163.695 338.381 163.659 337.325 163.438C333.342 162.661 330.722 159.543 330.363 155.083C330.348 154.811 330.333 154.533 330.326 154.247C330.297 152.251 330.7 150.014 331.602 147.622C331.837 146.999 332.115 146.339 332.431 145.686V145.679C332.563 145.4 332.695 145.129 332.842 144.85L336.877 149.831L340.53 154.328L342.298 156.506L343.64 158.165L346.546 161.766Z" fill="#D26D57"/>
<path d="M369.897 188.17L359.281 188.975L356.069 180.546L332.711 178.294L337.325 163.439C333.342 162.661 330.723 159.543 330.364 155.083C332.029 154.225 334.105 153.895 336.254 153.909C337.678 153.916 339.137 154.078 340.531 154.327C343.275 154.826 345.572 155.517 347.317 155.685C350.293 155.972 353.449 152.64 355.122 149.199L360.991 137.109L367.828 155.566V155.588C367.205 156.762 366.559 157.928 365.884 159.079C363.867 162.52 361.637 165.799 359.282 168.734L369.897 188.17Z" fill="#BD4939"/>
<path d="M352.983 163.437L331.225 162.668L327.236 167.028C327.236 167.028 340.898 176.403 354.776 177.374C364.32 178.042 365.324 163.942 352.983 163.437Z" fill="#EDC9C2"/>
<path d="M327.377 167.113L312.291 157.332L331.385 158.28L332.018 167.684L327.377 167.113Z" fill="#EDC9C2"/>
<path d="M329.041 159.592L331.717 159.15C332.508 159.02 332.962 158.178 332.638 157.445L332.538 157.219C331.925 155.832 330.252 155.273 328.928 156.013C328.04 156.509 327.528 157.482 327.62 158.495C327.686 159.203 328.339 159.708 329.041 159.592Z" fill="#EDC9C2"/>
<path d="M324.009 159.037L312.291 157.333L312.144 156.993C311.567 155.654 310.433 154.64 309.041 154.219C308.818 154.148 308.671 153.943 308.671 153.72C308.671 153.684 308.676 153.65 308.682 153.614C308.869 152.68 309.684 152.033 310.601 152.033C310.753 152.033 310.906 152.056 311.064 152.091L311.764 152.313L311.834 152.336C313.038 152.723 313.973 153.673 314.338 154.882L323.703 158.907L324.009 159.037Z" fill="#EDC9C2"/>
<path d="M319.687 159.629L314.322 157.919C313.517 155.661 312.22 154.815 310.828 154.393C310.604 154.323 310.457 154.118 310.457 153.895C310.457 153.859 310.463 153.824 310.469 153.789C310.609 153.072 311.125 152.526 311.765 152.313L311.836 152.336C313.039 152.723 313.974 153.673 314.34 154.882L315.405 157.328L319.687 159.629Z" fill="#E2A8A1"/>
<path d="M315.405 157.328L315.258 156.989C314.683 155.653 313.548 154.638 312.156 154.215C311.899 154.137 311.743 153.876 311.796 153.612C312.014 152.52 313.094 151.827 314.178 152.085L314.947 152.333C316.151 152.721 317.087 153.673 317.455 154.882L327.125 159.034L315.405 157.328Z" fill="#EDC9C2"/>
<path d="M351.354 163.043L360.134 176.12C368.218 168.631 371.179 156.28 371.966 145.531C372.174 142.767 372.163 140.02 371.939 137.354C371.906 136.983 371.846 136.622 371.747 136.278C371.059 133.771 368.76 131.969 366.078 131.984C364.762 131.995 363.527 132.443 362.538 133.203C361.55 133.967 360.807 135.049 360.463 136.321L351.354 163.043Z" fill="#D26D57"/>
<path d="M337.204 117.957C337.204 117.957 332.959 117.553 332.377 118.406C331.796 119.26 335.941 122.217 337.204 117.957Z" fill="white"/>
<path d="M342.781 133.262L340.511 127.751C340.256 127.132 340.664 126.442 341.329 126.366L355.532 124.752C356.983 124.587 358.208 125.816 358.04 127.266L357.37 133.031L342.781 133.262Z" fill="#D26D57"/>
<path d="M355.281 124.734L355.031 133.245L355.536 133.26L355.787 124.749L355.281 124.734Z" fill="#BD4939"/>
<path d="M352.72 125.096L352.214 125.118L352.565 133.122L353.071 133.1L352.72 125.096Z" fill="#BD4939"/>
<path d="M349.59 125.423L349.087 125.474L349.868 133.281L350.371 133.231L349.59 125.423Z" fill="#BD4939"/>
<path d="M346.432 125.814L345.929 125.872L346.775 133.218L347.278 133.161L346.432 125.814Z" fill="#BD4939"/>
<path d="M343.018 126.143L342.522 126.247L343.997 133.284L344.492 133.181L343.018 126.143Z" fill="#BD4939"/>
<path d="M357.348 133.011H342.781V133.517H357.348V133.011Z" fill="#BD4939"/>
<path d="M335.238 170.149C335.238 170.149 337.538 172.755 341.055 175.158C346.02 178.55 353.415 181.532 360.134 176.119V162.333L344.31 162.257L336.832 162.218L335.238 170.149Z" fill="#D26D57"/>
<path d="M331.541 170.859L339.275 175.48L339.996 172.612L335.238 169.084L340.646 170.023L342.716 161.759L333.862 161.929L331.541 170.859Z" fill="white"/>
<path d="M351.301 161.869L358.055 167.684" stroke="#BD4939" stroke-width="1.0129" stroke-miterlimit="10"/>
<path d="M348.591 115.619C350.965 109.114 356.64 109.946 358.046 111.573C361.035 115.03 357.063 124.327 348.591 120.02V115.619Z" fill="#EDC9C2"/>
<path d="M351.752 117.369L355.897 114.036" stroke="#E2A8A1" stroke-width="1.0129" stroke-miterlimit="10"/>
<path d="M348.855 242.398C349.746 237.071 346.15 232.031 340.824 231.14C335.498 230.249 330.457 233.844 329.566 239.171C328.675 244.497 332.271 249.537 337.597 250.428C342.924 251.319 347.964 247.724 348.855 242.398Z" fill="#EA2D2E"/>
<path d="M333.433 242.791H335.763C336.226 242.79 336.604 242.399 336.603 241.918V240.745C336.66 240.728 336.72 240.711 336.783 240.693C337.359 240.528 338.148 240.302 339.216 240.303C340.286 240.303 341.076 240.529 341.653 240.694C341.714 240.712 341.772 240.729 341.829 240.744L341.828 241.531V241.919C341.828 242.4 342.206 242.791 342.669 242.791H344.999C345.462 242.791 345.839 242.4 345.839 241.918L345.837 241.26H345.819C345.788 241.009 345.719 240.755 345.612 240.512C345.508 240.282 345.39 240.084 345.248 239.907C344.127 238.478 342.379 237.895 339.216 237.895C334.843 237.895 333.247 239.822 333.179 239.906C333.033 240.092 332.915 240.29 332.816 240.514C332.711 240.754 332.641 241.009 332.61 241.259L332.596 241.26L332.589 241.918C332.592 242.399 332.97 242.79 333.433 242.791Z" fill="white"/>
<path d="M316.091 87.3167V73.7807C316.091 69.5801 312.685 66.1746 308.484 66.1746H282.331C278.13 66.1746 274.725 69.5801 274.725 73.7807V87.2065C274.725 91.4071 278.13 94.8126 282.331 94.8126H305.538H323.497L316.091 87.3167Z" fill="#E1F1FF"/>
<path d="M282.423 76.989H308.395" stroke="#188EF8" stroke-width="5.06451" stroke-miterlimit="10" stroke-linecap="round" stroke-linejoin="round"/>
<path d="M282.423 83.999H299.111" stroke="#188EF8" stroke-width="5.06451" stroke-miterlimit="10" stroke-linecap="round" stroke-linejoin="round"/>
<path d="M304.532 83.999H308.675" stroke="#188EF8" stroke-width="5.06451" stroke-miterlimit="10" stroke-linecap="round" stroke-linejoin="round"/>
<path d="M146.106 82.1644V73.4443C146.106 69.2437 149.511 65.8389 153.712 65.8389H179.865C184.065 65.8389 187.471 69.2444 187.471 73.4443V82.0549C187.471 86.2555 184.065 89.6603 179.865 89.6603H156.658L146.104 96.9809L146.106 82.1644Z" fill="white"/>
<path d="M158.06 81.1984C158.06 82.3369 157.137 83.2595 155.999 83.2595C154.861 83.2595 153.938 82.3369 153.938 81.1984C153.938 80.0605 154.861 79.1379 155.999 79.1379C157.137 79.1372 158.06 80.0598 158.06 81.1984Z" fill="#0D62A5"/>
<path d="M165.252 81.1984C165.252 82.3369 164.329 83.2595 163.191 83.2595C162.053 83.2595 161.13 82.3369 161.13 81.1984C161.13 80.0605 162.053 79.1379 163.191 79.1379C164.329 79.1372 165.252 80.0598 165.252 81.1984Z" fill="#0D62A5"/>
<path d="M172.444 81.1984C172.444 82.3369 171.522 83.2595 170.384 83.2595C169.246 83.2595 168.323 82.3369 168.323 81.1984C168.323 80.0605 169.245 79.1379 170.384 79.1379C171.522 79.1372 172.444 80.0598 172.444 81.1984Z" fill="#0D62A5"/>
<path d="M179.637 81.1984C179.637 82.3369 178.714 83.2595 177.575 83.2595C176.438 83.2595 175.514 82.3369 175.514 81.1984C175.514 80.0605 176.437 79.1379 177.575 79.1379C178.714 79.1372 179.637 80.0598 179.637 81.1984Z" fill="#0D62A5"/>
<path d="M416.66 180.397V182.36C416.66 190.894 409.742 197.812 401.209 197.812H398.809C390.275 197.812 383.357 190.893 383.357 182.36V180.397C383.357 171.863 390.276 164.945 398.809 164.945H401.21C409.743 164.945 416.66 171.863 416.66 180.397Z" fill="#6BB9FF"/>
<path d="M414.411 177.314V179.277C414.411 187.811 407.493 194.729 398.959 194.729H396.559C388.025 194.729 381.108 187.81 381.108 179.277V177.314C381.108 168.78 388.026 161.863 396.559 161.863H398.96C407.493 161.863 414.411 168.78 414.411 177.314Z" fill="#EDF6FE" stroke="#F3F3F1" stroke-width="1.0129" stroke-miterlimit="10"/>
<path d="M400.702 183.178H388.741C388.174 183.178 387.714 182.718 387.714 182.152V174.44C387.714 173.873 388.174 173.414 388.74 173.414H400.701C401.268 173.414 401.727 173.874 401.727 174.44V182.152C401.727 182.718 401.268 183.178 400.702 183.178Z" fill="#188EF8"/>
<path d="M407.803 174.627V181.967C407.803 182.507 407.221 182.845 406.752 182.578L403.048 180.47C402.808 180.333 402.66 180.078 402.66 179.802V176.792C402.66 176.515 402.808 176.26 403.048 176.124L406.752 174.016C407.221 173.748 407.803 174.087 407.803 174.627Z" fill="#188EF8"/>
<path d="M416.66 220.214V222.178C416.66 230.712 409.742 237.629 401.209 237.629H398.809C390.275 237.629 383.357 230.712 383.357 222.178V220.214C383.357 211.681 390.276 204.763 398.809 204.763H401.21C409.743 204.762 416.66 211.681 416.66 220.214Z" fill="#6BB9FF"/>
<path d="M414.411 217.131V219.095C414.411 227.629 407.492 234.546 398.959 234.546H396.559C388.025 234.546 381.108 227.629 381.108 219.095V217.131C381.108 208.598 388.026 201.68 396.559 201.68H398.96C407.493 201.679 414.411 208.598 414.411 217.131Z" fill="#EDF6FE" stroke="#F3F3F1" stroke-width="1.0129" stroke-miterlimit="10"/>
<path d="M397.759 218.818C396.233 218.818 394.995 217.58 394.995 216.054V210.958C394.995 209.431 396.233 208.194 397.759 208.194C399.286 208.194 400.523 209.431 400.523 210.958V216.054C400.523 217.58 399.286 218.818 397.759 218.818Z" fill="#188EF8"/>
<path d="M397.759 222.323C394.551 222.323 391.942 219.713 391.942 216.506H394.079C394.079 218.535 395.73 220.186 397.759 220.186C399.788 220.186 401.439 218.535 401.439 216.506H403.577C403.577 219.713 400.967 222.323 397.759 222.323Z" fill="#188EF8"/>
<path d="M400.95 225.894H394.567V228.031H400.95V225.894Z" fill="#188EF8"/>
<path d="M398.827 221.254H396.69V226.963H398.827V221.254Z" fill="#188EF8"/>
<path d="M307.925 204.693H261.165C259.05 204.693 257.334 206.408 257.334 208.524V266.766C257.334 268.881 259.05 270.597 261.165 270.597H307.925C310.04 270.597 311.756 268.881 311.756 266.766V208.524C311.755 206.408 310.04 204.693 307.925 204.693Z" fill="#8BC8FF"/>
<path d="M303.237 198.91H256.478C254.362 198.91 252.647 200.624 252.647 202.741V260.982C252.647 263.098 254.362 264.813 256.478 264.813H303.237C305.353 264.813 307.068 263.098 307.068 260.982V202.741C307.068 200.624 305.353 198.91 303.237 198.91Z" fill="#E1F1FF" stroke="#B9DEFF" stroke-width="1.0129" stroke-miterlimit="10"/>
<path d="M259.604 213.165H272.958" stroke="#188EF8" stroke-width="5.06451" stroke-miterlimit="10" stroke-linecap="round" stroke-linejoin="round"/>
<path d="M259.604 219.763H272.958" stroke="#188EF8" stroke-width="5.06451" stroke-miterlimit="10" stroke-linecap="round" stroke-linejoin="round"/>
<path d="M259.604 233.328H299.564" stroke="#188EF8" stroke-width="5.06451" stroke-miterlimit="10" stroke-linecap="round" stroke-linejoin="round"/>
<path d="M259.604 240.208H299.564" stroke="#188EF8" stroke-width="5.06451" stroke-miterlimit="10" stroke-linecap="round" stroke-linejoin="round"/>
<path d="M259.604 247.089H299.564" stroke="#188EF8" stroke-width="5.06451" stroke-miterlimit="10" stroke-linecap="round" stroke-linejoin="round"/>
<path d="M259.604 253.969H276.671" stroke="#188EF8" stroke-width="5.06451" stroke-miterlimit="10" stroke-linecap="round" stroke-linejoin="round"/>
<path d="M291.003 227.132C297.54 227.132 302.839 221.833 302.839 215.296C302.839 208.759 297.54 203.459 291.003 203.459C284.466 203.459 279.166 208.759 279.166 215.296C279.166 221.833 284.466 227.132 291.003 227.132Z" fill="#EABC75"/>
<mask id="mask0_0_891" style="mask-type:luminance" maskUnits="userSpaceOnUse" x="279" y="203" width="24" height="24">
<path d="M291.003 226.951C297.44 226.951 302.658 221.733 302.658 215.296C302.658 208.859 297.44 203.641 291.003 203.641C284.566 203.641 279.348 208.859 279.348 215.296C279.348 221.733 284.566 226.951 291.003 226.951Z" fill="white"/>
</mask>
<g mask="url(#mask0_0_891)">
<path d="M291.534 210.535C286.373 205.891 283.268 210.107 284.9 214.552L291.534 210.535Z" fill="#232321"/>
<path d="M298.331 207.159C296.109 204.775 293.076 207.241 293.655 210.749C294.399 215.245 301.958 211.052 298.331 207.159Z" fill="#232321"/>
<path d="M288.277 217.256L289.858 225.45L294.344 223.418L293.568 215.858L293.552 215.484L288.277 217.256Z" fill="white"/>
<path d="M292.209 217.146C293.096 220.96 295.199 219.84 296.319 217.522C298.115 213.809 298.212 208.321 290.102 209.492L292.209 217.146Z" fill="#232321"/>
<path d="M293.339 212.807L292.87 214.665L292.655 215.511L292.08 217.784C291.769 219.011 290.845 219.989 289.639 220.37L287.762 220.962C286.136 221.475 284.463 220.346 284.312 218.647C284.201 217.4 284.202 215.946 284.676 214.401C285.229 212.606 286.667 211.204 288.381 210.644L288.387 210.641L288.688 210.552L288.72 210.544C288.87 210.504 289.025 210.472 289.179 210.447C289.546 210.382 289.925 210.354 290.307 210.365L291.521 210.401C292.757 210.436 293.642 211.608 293.339 212.807Z" fill="white"/>
<path d="M284.581 214.757C284.376 215.821 283.745 216.161 283.279 216.264C282.98 216.33 282.781 216.613 282.819 216.917C282.868 217.318 283.15 217.652 283.537 217.769L284.904 218.185C285.641 218.273 286.294 217.708 286.313 216.966L286.375 214.449L284.581 214.757Z" fill="white"/>
<path d="M287.999 209.297C287.503 213.807 290.647 216.807 293.4 215.724L293.583 212.744C294.176 211.25 293.136 209.612 291.531 209.514L287.999 209.297Z" fill="#232321"/>
<path d="M291.409 216.403C290.943 216.403 290.445 216.313 289.96 216.061C288.546 215.326 287.723 213.475 287.515 210.557L288.244 210.505C288.43 213.112 289.139 214.807 290.292 215.41C291.63 216.106 293.21 215.181 293.225 215.171L293.602 215.797C293.547 215.831 292.578 216.403 291.409 216.403Z" fill="#232321"/>
<path d="M284.981 226.972L285.522 228.137V228.142L285.933 229.028L287.802 233.055L288.555 234.68L291.222 240.425C292.617 239.561 294.026 238.202 295.337 236.567C296.485 235.136 297.552 233.484 298.46 231.76V231.756C298.673 231.366 298.868 230.972 299.058 230.577C299.895 226.918 300.279 225.788 298.467 223.227C298.413 223.151 295.019 222.728 294.93 222.715L289.752 221.846L287.267 222.378C287.143 222.404 287.023 222.435 286.908 222.48C285.079 223.087 284.148 225.178 284.981 226.972Z" fill="#D26D57"/>
<path d="M289.305 223.599L288.476 221.584C288.382 221.358 288.531 221.106 288.775 221.078L293.968 220.487C294.498 220.427 294.946 220.876 294.884 221.406L294.639 223.514L289.305 223.599Z" fill="#D26D57"/>
<path d="M291.43 217.149C292.297 214.771 294.372 215.076 294.886 215.67C295.979 216.934 294.526 220.333 291.43 218.758V217.149Z" fill="white"/>
<path d="M291.43 217.149C292.297 214.771 294.372 215.076 294.886 215.67C295.979 216.934 294.526 220.333 291.43 218.758V217.149Z" fill="white"/>
</g>
<path d="M189.535 113.356H183.057V119.834H189.535V113.356Z" fill="white"/>
<path d="M189.535 121.969H183.057V128.447H189.535V121.969Z" fill="white"/>
<path d="M189.535 130.583H183.057V137.061H189.535V130.583Z" fill="white"/>
<path d="M193.48 116.595H224.538" stroke="#99C8F2" stroke-width="5.06451" stroke-miterlimit="10"/>
<path d="M193.48 125.208H224.538" stroke="#99C8F2" stroke-width="5.06451" stroke-miterlimit="10"/>
<path d="M193.48 133.821H224.538" stroke="#99C8F2" stroke-width="5.06451" stroke-miterlimit="10"/>
<path d="M183.979 115.152L186.455 117.89L190.831 112.414" stroke="#188EF8" stroke-width="2.0258" stroke-miterlimit="10"/>
<path d="M183.979 123.386L186.455 126.124L190.831 120.648" stroke="#407BFF" stroke-width="2.0258" stroke-miterlimit="10"/>
<path d="M183.979 132.248L186.455 134.986L190.831 129.51" stroke="#0D62A5" stroke-width="2.0258" stroke-miterlimit="10"/>
<path d="M268.119 103.035L264.272 100.736L262.614 103.51C261.832 103.283 261.034 103.168 260.239 103.162L259.449 100.027L255.103 101.121L255.892 104.257C255.195 104.639 254.547 105.118 253.965 105.688L251.191 104.03L248.891 107.877L251.665 109.535C251.439 110.317 251.323 111.115 251.318 111.91L248.182 112.7L249.277 117.046L252.412 116.257C252.795 116.954 253.274 117.603 253.843 118.184L252.185 120.958L256.032 123.258L257.69 120.484C258.472 120.71 259.27 120.826 260.065 120.831L260.854 123.967L265.201 122.872L264.411 119.737C265.109 119.354 265.757 118.875 266.339 118.306L269.113 119.964L271.412 116.117L268.638 114.459C268.865 113.677 268.98 112.879 268.987 112.084L272.122 111.295L271.028 106.948L267.892 107.738C267.51 107.04 267.031 106.392 266.461 105.811L268.119 103.035ZM261.942 109.004C263.592 109.99 264.132 112.135 263.145 113.786C262.159 115.436 260.014 115.976 258.364 114.99C256.713 114.004 256.173 111.858 257.16 110.208C258.146 108.557 260.291 108.017 261.942 109.004Z" fill="#0074BD"/>
<path d="M246.663 115.76L243.353 115.314L243.031 117.702C242.429 117.776 241.848 117.931 241.302 118.161L239.841 116.244L237.185 118.27L238.646 120.186C238.28 120.653 237.977 121.171 237.745 121.733L235.358 121.411L234.912 124.722L237.3 125.043C237.374 125.646 237.53 126.226 237.759 126.773L235.842 128.234L237.868 130.89L239.784 129.429C240.251 129.795 240.769 130.098 241.331 130.329L241.009 132.716L244.32 133.162L244.641 130.775C245.244 130.701 245.824 130.545 246.371 130.316L247.832 132.232L250.489 130.206L249.028 128.29C249.393 127.823 249.696 127.305 249.928 126.744L252.315 127.065L252.761 123.755L250.373 123.433C250.299 122.831 250.144 122.25 249.915 121.704L251.831 120.243L249.805 117.587L247.889 119.048C247.422 118.682 246.903 118.379 246.342 118.147L246.663 115.76ZM244.286 120.896C246.129 121.144 247.427 122.845 247.178 124.688C246.929 126.531 245.228 127.829 243.385 127.581C241.542 127.332 240.245 125.631 240.493 123.788C240.742 121.944 242.444 120.647 244.286 120.896Z" fill="#C8E5FF"/>
</svg>
