<svg width="504" height="401" viewBox="0 0 504 401" fill="none" xmlns="http://www.w3.org/2000/svg">
<g clip-path="url(#clip0_0_1670)">
<path d="M0 12.8603C0 6.23292 5.37258 0.860352 12 0.860352H492C498.627 0.860352 504 6.23293 504 12.8604V388.86C504 395.488 498.627 400.86 492 400.86H12C5.3726 400.86 0 395.488 0 388.86V12.8603Z" fill="#101215"/>
<g filter="url(#filter0_di_0_1670)">
<path d="M252.134 367.86C354.381 367.86 437.269 364.217 437.269 359.723C437.269 355.23 354.381 351.586 252.134 351.586C149.887 351.586 67 355.23 67 359.723C67 364.217 149.887 367.86 252.134 367.86Z" fill="#148BE7"/>
</g>
<path d="M213.957 355.058H210.775C210.775 350.804 212.273 347.237 215.226 344.458C223.086 337.064 238.587 337.916 239.247 337.959L239.053 341.134C238.906 341.127 224.253 340.326 217.401 346.781C215.084 348.963 213.957 351.671 213.957 355.058Z" fill="#1B1B28"/>
<path d="M227.349 355.058H224.167C224.167 348.81 225.859 344.144 229.197 341.189C233.575 337.314 239.11 337.939 239.343 337.966L238.964 341.126C238.922 341.119 234.563 340.664 231.279 343.596C228.672 345.924 227.349 349.78 227.349 355.058Z" fill="#1B1B28"/>
<path d="M267.526 355.058H264.344C264.344 351.671 263.216 348.963 260.899 346.78C254.046 340.325 239.394 341.126 239.247 341.133L239.053 337.958C239.712 337.915 255.215 337.063 263.074 344.457C266.028 347.237 267.526 350.803 267.526 355.058Z" fill="#36364E"/>
<path d="M254.134 355.058H250.951C250.951 349.761 249.62 345.896 246.993 343.571C243.677 340.635 239.388 341.119 239.343 341.125L238.957 337.967C239.191 337.939 244.725 337.314 249.102 341.189C252.44 344.145 254.134 348.81 254.134 355.058Z" fill="#36364E"/>
<path d="M217.032 355.058C217.032 357.634 214.943 359.723 212.366 359.723C209.79 359.723 207.701 357.634 207.701 355.058C207.701 352.481 209.79 350.392 212.366 350.392C214.943 350.392 217.032 352.481 217.032 355.058Z" fill="#1B1B28"/>
<path d="M212.366 357.197C213.547 357.197 214.505 356.239 214.505 355.058C214.505 353.876 213.547 352.918 212.366 352.918C211.184 352.918 210.226 353.876 210.226 355.058C210.226 356.239 211.184 357.197 212.366 357.197Z" fill="#263238"/>
<path d="M225.758 359.723C228.334 359.723 230.423 357.634 230.423 355.058C230.423 352.481 228.334 350.392 225.758 350.392C223.181 350.392 221.092 352.481 221.092 355.058C221.092 357.634 223.181 359.723 225.758 359.723Z" fill="#1B1B28"/>
<path d="M225.758 357.197C226.939 357.197 227.897 356.239 227.897 355.058C227.897 353.876 226.939 352.918 225.758 352.918C224.576 352.918 223.618 353.876 223.618 355.058C223.618 356.239 224.576 357.197 225.758 357.197Z" fill="#263238"/>
<path d="M252.542 359.723C255.119 359.723 257.207 357.634 257.207 355.058C257.207 352.481 255.119 350.392 252.542 350.392C249.966 350.392 247.877 352.481 247.877 355.058C247.877 357.634 249.966 359.723 252.542 359.723Z" fill="#1B1B28"/>
<path d="M252.542 357.197C253.724 357.197 254.682 356.239 254.682 355.058C254.682 353.876 253.724 352.918 252.542 352.918C251.36 352.918 250.403 353.876 250.403 355.058C250.403 356.239 251.36 357.197 252.542 357.197Z" fill="#263238"/>
<path d="M265.934 359.723C268.511 359.723 270.6 357.634 270.6 355.058C270.6 352.481 268.511 350.392 265.934 350.392C263.358 350.392 261.269 352.481 261.269 355.058C261.269 357.634 263.358 359.723 265.934 359.723Z" fill="#1B1B28"/>
<path d="M265.934 357.197C267.116 357.197 268.074 356.239 268.074 355.058C268.074 353.876 267.116 352.918 265.934 352.918C264.753 352.918 263.795 353.876 263.795 355.058C263.795 356.239 264.753 357.197 265.934 357.197Z" fill="#263238"/>
<path d="M241.551 307.867H236.75V340.032H241.551V307.867Z" fill="#263238"/>
<path d="M240.138 311.212H238.162C236.449 311.212 235.06 309.823 235.06 308.109V293.032H243.24V308.109C243.24 309.822 241.851 311.212 240.138 311.212Z" fill="#36364E"/>
<path d="M256.773 303.424L255.239 300.257C255.019 299.803 254.546 299.564 254.072 299.61L249.394 289.954L245.407 291.886L250.085 301.542C249.755 301.886 249.65 302.405 249.869 302.858L251.403 306.026C251.686 306.608 252.387 306.852 252.969 306.569L256.229 304.99C256.811 304.708 257.055 304.007 256.773 303.424Z" fill="#36364E"/>
<path d="M241.366 342.038H236.933C235.898 342.038 235.059 341.2 235.059 340.164V338.926C235.059 337.891 235.897 337.052 236.933 337.052H241.366C242.401 337.052 243.24 337.89 243.24 338.926V340.164C243.24 341.2 242.402 342.038 241.366 342.038Z" fill="#1B1B28"/>
<path d="M258.326 297.106H219.974C216.311 297.106 213.34 294.136 213.34 290.472V289.886H264.959V290.472C264.96 294.136 261.989 297.106 258.326 297.106Z" fill="#36364E"/>
<path d="M229.756 307.09H217.96C217.52 307.09 217.164 306.734 217.164 306.295C217.164 305.855 217.52 305.499 217.96 305.499H229.527L238.089 300.148C238.462 299.914 238.953 300.027 239.185 300.4C239.418 300.773 239.305 301.264 238.933 301.496L230.178 306.968C230.051 307.049 229.905 307.09 229.756 307.09Z" fill="#36364E"/>
<path d="M228.318 206.398H206.532L207.602 218.915L229.387 218.903L228.318 206.398Z" fill="#1B1B28"/>
<path d="M238.832 181.925H191.54L193.863 209.095L241.151 209.071L238.832 181.925Z" fill="#29477C"/>
<path d="M240.675 209.095C237.683 209.095 235.189 206.805 234.936 203.824L233.562 187.706C233.279 184.513 235.639 181.925 238.832 181.925C242.024 181.925 244.842 184.513 245.124 187.706L246.415 202.846C246.7 206.208 244.049 209.095 240.675 209.095Z" fill="#29477C"/>
<path d="M193.384 209.095C190.393 209.095 187.899 206.805 187.645 203.824L186.272 187.706C185.989 184.513 188.348 181.925 191.541 181.925C194.734 181.925 197.552 184.513 197.834 187.706L199.124 202.846C199.41 206.208 196.758 209.095 193.384 209.095Z" fill="#385D93"/>
<path d="M242.375 216.243H195.084L201.377 288.176H248.668L242.375 216.243Z" fill="#29477C"/>
<path d="M243.24 292.167L237.106 222.024C236.823 218.831 239.182 216.243 242.375 216.243C245.567 216.243 248.385 218.831 248.668 222.024L254.802 292.167H243.24Z" fill="#29477C"/>
<path d="M195.95 292.167L189.815 222.024C189.532 218.831 191.891 216.243 195.084 216.243C198.277 216.243 201.095 218.831 201.377 222.024L207.512 292.167H195.95Z" fill="#385D93"/>
<path d="M243.24 280.605H293.81C296.743 280.605 299.122 282.983 299.122 285.917V286.855C299.122 289.789 296.744 292.168 293.81 292.168H243.24V280.605Z" fill="#29477C"/>
<path d="M195.95 280.605H246.519C249.453 280.605 251.832 282.983 251.832 285.917V286.855C251.832 289.789 249.453 292.168 246.519 292.168H195.95V280.605Z" fill="#385D93"/>
<path d="M83.4004 128.261L80.3864 264.149L83.4004 267.787H178.477V128.261L175.463 124.623L83.4004 128.261Z" fill="#58B0FF"/>
<path d="M175.462 124.623H80.3864V264.149H175.462V124.623Z" fill="#C8E5FF"/>
<path d="M127.925 256.256C148.367 256.256 164.938 228.555 164.938 194.385C164.938 160.215 148.367 132.515 127.925 132.515C107.483 132.515 90.9115 160.215 90.9115 194.385C90.9115 228.555 107.483 256.256 127.925 256.256Z" fill="#FFF4E9"/>
<mask id="mask0_0_1670" style="mask-type:luminance" maskUnits="userSpaceOnUse" x="80" y="124" width="96" height="141">
<path d="M175.462 124.623H80.3864V264.149H175.462V124.623Z" fill="white"/>
</mask>
<g mask="url(#mask0_0_1670)">
<path d="M107.898 191.856C107.898 191.856 89.0542 213.621 88.1223 278.727H95.7712C95.7712 278.727 97.2142 238.895 110.145 214.64L107.898 191.856Z" fill="#EFAD9C"/>
<path d="M118.296 184.131C91.1428 192.85 86.9402 270.981 86.9402 270.981C90.2396 271.889 93.5932 271.684 97.0026 270.346C100.001 248.606 103.686 229.017 109.72 216.794L118.296 184.131Z" fill="#407BFF"/>
<path d="M154.848 267.859C134.272 273.235 118.061 271.044 103.386 266.015C104.112 257.789 106.907 253.933 109.455 246.048C110.131 243.958 110.51 241.829 110.673 239.683C111.131 233.463 109.717 227.149 108.225 221.438C105.939 212.715 105.939 208.932 108.225 200.208C109.56 195.106 116.959 184.908 116.959 184.908C117.389 184.634 117.831 184.371 118.295 184.131C118.641 183.941 118.994 183.767 119.356 183.606C120.356 183.147 121.423 182.767 122.519 182.461C126.799 181.259 131.633 181.192 135.702 182.204C135.998 182.277 136.288 182.343 136.579 182.416C137.305 182.584 138.003 182.746 138.674 182.936C139.775 183.237 140.876 183.528 141.954 184.025C142.848 184.433 143.725 184.975 144.586 185.78C147.358 188.367 148.246 194.939 148.554 198.638C149.839 213.994 146.939 222.673 148.772 237.968C148.94 239.365 149.191 240.706 149.493 242.014C151.249 249.636 154.848 256.247 154.848 267.859Z" fill="#263238"/>
<path d="M123.894 182.117C123.894 182.117 123.437 190.668 125.971 200.186C125.971 200.186 130.88 194.024 134.373 181.916L123.894 182.117Z" fill="#FFF4E9"/>
<path d="M125.971 200.186L123.862 216.565L117.8 200.633L121.885 198.292L116.12 189.079L123.894 182.118C123.719 188.004 124.411 194.027 125.971 200.186Z" fill="#407BFF"/>
<path d="M125.971 200.186L123.862 216.565L133.763 202.689L130.404 199.388L139.584 190.742L134.373 181.916C133.052 187.655 129.041 194.623 125.971 200.186Z" fill="#407BFF"/>
<path d="M151.749 192.272C151.749 192.272 169.693 214.785 167.977 279.875L160.335 279.564C160.335 279.564 160.512 239.706 148.578 214.945L151.749 192.272Z" fill="#EFAD9C"/>
<path d="M141.674 184.131C168.45 193.947 169.473 272.185 169.473 272.185C166.139 272.958 162.796 272.617 159.445 271.141C158.529 250.526 153.247 228.368 147.802 214.217C145.439 208.078 143.789 201.687 143.002 195.157L141.674 184.131Z" fill="#407BFF"/>
<path d="M150.886 141.257C153.777 147.881 151.995 154.594 146.908 156.251C141.82 157.907 135.352 153.881 132.461 147.256C129.57 140.632 131.352 133.92 136.44 132.263C141.528 130.606 147.996 134.633 150.886 141.257Z" fill="#5B3D31"/>
<path d="M132.639 138.228C132.639 138.228 135.81 136.028 139.377 138.128C142.944 140.226 140.967 144.017 140.967 144.017L132.639 138.228Z" fill="#263238"/>
<path d="M143.486 144.789C142.652 142.889 140.981 141.353 139.08 140.716C136.974 140.01 135.065 138.843 133.216 137.612C129.045 134.834 122.692 134.804 118.354 136.628C111.519 139.501 108.078 147.679 112.173 154.19C116.323 160.789 124.807 162.854 128.864 169.481C129.749 170.926 130.862 172.553 132.769 172.517C134.525 172.483 135.643 170.912 136.545 169.612C139.101 165.927 141.105 161.865 142.547 157.621C143.92 153.581 145.301 148.917 143.486 144.789Z" fill="#5B3D31"/>
<path d="M135.711 146.14C131 137.505 114.43 140.452 113.142 147.317C110.492 161.439 112.504 167.237 116.429 170.573C120.971 174.434 123.894 174.006 123.894 182.117C124.933 186.732 131.723 186.917 134.373 181.915C134.242 171.17 137.926 163.165 137.926 163.165C137.926 163.165 137.652 149.7 135.711 146.14Z" fill="#EFAD9C"/>
<path d="M133.944 148.053C133.944 148.053 133.584 157.345 137.248 159.789L139.584 158.007C139.584 158.007 139.145 152.616 138.949 148.298C138.753 143.981 136.136 141.364 130.118 140.252C124.1 139.14 117.042 139.955 114.615 143.261C110.82 148.43 112.059 151.527 112.059 151.527C115.892 151.527 119.577 152.585 123.396 152.261C127.213 151.937 131.077 150.596 133.944 148.053Z" fill="#5B3D31"/>
<path d="M125.589 159.452C125.589 160.039 125.113 160.515 124.527 160.515C123.94 160.515 123.464 160.039 123.464 159.452C123.464 158.866 123.94 158.39 124.527 158.39C125.113 158.39 125.589 158.866 125.589 159.452Z" fill="black"/>
<path d="M124.527 159.162C124.527 159.377 124.353 159.551 124.138 159.551C123.923 159.551 123.749 159.377 123.749 159.162C123.749 158.947 123.923 158.773 124.138 158.773C124.352 158.772 124.527 158.947 124.527 159.162Z" fill="white"/>
<path d="M117.372 159.452C117.372 160.039 116.896 160.515 116.309 160.515C115.723 160.515 115.247 160.039 115.247 159.452C115.247 158.866 115.723 158.39 116.309 158.39C116.896 158.39 117.372 158.866 117.372 159.452Z" fill="black"/>
<path d="M116.309 159.162C116.309 159.377 116.135 159.551 115.92 159.551C115.705 159.551 115.531 159.377 115.531 159.162C115.531 158.947 115.705 158.773 115.92 158.773C116.135 158.772 116.309 158.947 116.309 159.162Z" fill="white"/>
<path d="M118.082 155.292C116.747 154.364 115.014 154.417 113.756 155.505C113.521 155.708 113.48 156.118 113.659 156.383C113.842 156.654 114.189 156.699 114.425 156.495C114.941 156.049 115.599 155.847 116.241 155.895C116.566 155.918 116.887 156.005 117.186 156.154C117.45 156.285 117.706 156.514 118.003 156.343C118.074 156.303 118.135 156.242 118.183 156.171C118.347 155.926 118.336 155.469 118.082 155.292Z" fill="#5B3D31"/>
<path d="M122.224 155.292C123.754 154.364 125.742 154.417 127.184 155.505C127.454 155.708 127.501 156.118 127.295 156.383C127.085 156.654 126.688 156.699 126.417 156.495C125.825 156.049 125.072 155.856 124.336 155.905C123.965 155.93 123.597 156.016 123.254 156.16C122.95 156.287 122.653 156.513 122.315 156.344C122.234 156.303 122.164 156.243 122.109 156.172C121.921 155.926 121.934 155.469 122.224 155.292Z" fill="#5B3D31"/>
<path d="M118.692 162.333C118.632 162.333 118.576 162.294 118.558 162.233C118.295 161.328 118.603 161.02 118.907 160.921C119.217 160.822 119.587 160.902 120.008 161.161C120.072 161.201 120.093 161.287 120.053 161.352C120.012 161.417 119.925 161.437 119.861 161.397C119.514 161.182 119.222 161.11 118.993 161.185C118.72 161.273 118.663 161.6 118.825 162.156C118.846 162.229 118.803 162.306 118.729 162.328C118.717 162.332 118.704 162.333 118.692 162.333Z" fill="#C16B5B"/>
<path d="M122.821 163.157C122.405 162.63 121.501 163.309 120.367 163.508C119.232 163.706 118.152 163.375 117.939 164.011C117.67 164.817 118.971 166.474 120.83 166.148C122.689 165.823 123.348 163.823 122.821 163.157Z" fill="#8E4136"/>
<path d="M122.875 164.401C122.512 164.418 122.128 164.456 121.728 164.526C120.407 164.757 119.323 165.227 118.864 165.709C119.373 166.063 120.047 166.286 120.829 166.149C121.947 165.954 122.622 165.153 122.875 164.401Z" fill="#C16B5B"/>
<path d="M120.478 164.146C121.492 163.969 122.31 163.577 122.529 162.975C122.049 162.873 121.284 163.348 120.367 163.508C119.45 163.669 118.569 163.484 118.152 163.742C118.562 164.234 119.465 164.324 120.478 164.146Z" fill="white"/>
<path d="M141.561 163.475C140.14 165.169 137.898 165.628 136.554 164.501C135.209 163.374 135.271 161.087 136.692 159.393C138.112 157.699 140.354 157.24 141.698 158.367C143.042 159.495 142.981 161.782 141.561 163.475Z" fill="#EFAD9C"/>
<path d="M140.771 159.196C140.167 158.877 139.361 158.892 138.617 159.238C138.246 159.41 137.977 159.62 137.793 159.879C137.551 160.222 137.483 160.652 137.618 161.001C137.738 161.315 137.988 161.519 138.209 161.698C138.369 161.829 138.52 161.952 138.606 162.099C138.738 162.324 138.705 162.64 138.529 162.834C138.354 163.027 138.043 163.089 137.806 162.98C137.666 162.915 137.501 162.976 137.437 163.115C137.373 163.254 137.433 163.419 137.573 163.483C137.725 163.554 137.89 163.588 138.057 163.588C138.387 163.588 138.716 163.454 138.941 163.206C139.278 162.835 139.34 162.251 139.087 161.818C138.951 161.584 138.744 161.416 138.561 161.267C138.378 161.118 138.205 160.976 138.138 160.801C138.07 160.625 138.113 160.388 138.249 160.198C138.303 160.122 138.378 160.052 138.459 159.985C138.734 159.983 139.08 160.068 139.254 160.259C139.45 160.474 139.542 160.785 139.496 161.072C139.471 161.223 139.573 161.365 139.725 161.391C139.74 161.393 139.755 161.395 139.77 161.395C139.903 161.395 140.021 161.298 140.043 161.162C140.118 160.705 139.976 160.227 139.663 159.885C139.547 159.757 139.401 159.671 139.247 159.601C139.707 159.477 140.159 159.501 140.511 159.687C140.945 159.917 141.273 160.509 141.05 160.991C140.986 161.131 141.047 161.296 141.186 161.36C141.325 161.424 141.489 161.364 141.554 161.224C141.879 160.522 141.519 159.593 140.771 159.196Z" fill="#C16B5B"/>
</g>
<path d="M330.291 128.261L327.278 264.149L330.291 267.787H425.368V128.261L422.354 124.623L330.291 128.261Z" fill="#58B0FF"/>
<path d="M422.354 124.623H327.278V264.149H422.354V124.623Z" fill="#C8E5FF"/>
<path d="M374.816 256.256C395.258 256.256 411.83 228.555 411.83 194.385C411.83 160.215 395.258 132.515 374.816 132.515C354.375 132.515 337.803 160.215 337.803 194.385C337.803 228.555 354.375 256.256 374.816 256.256Z" fill="#FFF4E9"/>
<mask id="mask1_0_1670" style="mask-type:luminance" maskUnits="userSpaceOnUse" x="327" y="124" width="96" height="141">
<path d="M422.354 124.623H327.278V264.149H422.354V124.623Z" fill="white"/>
</mask>
<g mask="url(#mask1_0_1670)">
<path d="M396.243 191.497C396.243 191.497 415.051 213.621 415.982 278.726H408.333C408.333 278.726 406.891 238.894 393.959 214.639L396.243 191.497Z" fill="#9E6C52"/>
<path d="M417.888 274.24H407.103C407.103 274.24 403.755 232.349 393.96 214.639L405.924 208.423C405.924 208.423 415.46 239.755 417.888 274.24Z" fill="#407BFF"/>
<path d="M390.442 184.959C399.084 188.7 407.589 208.674 407.589 208.674L394.041 216.795L390.442 184.959Z" fill="#264A99"/>
<path d="M353.389 191.497C353.389 191.497 334.581 213.621 333.649 278.726H341.298C341.298 278.726 342.741 238.894 355.672 214.639L353.389 191.497Z" fill="#9E6C52"/>
<path d="M331.744 274.24H342.529C342.529 274.24 345.876 232.349 355.672 214.639L342.529 210.632C342.529 210.632 334.172 239.755 331.744 274.24Z" fill="#407BFF"/>
<path d="M358.845 184.959C350.203 188.7 340.936 209.86 340.936 209.86L355.945 217.133L358.845 184.959Z" fill="#264A99"/>
<path d="M398.493 265.49C398.493 265.49 384.222 272.638 350.797 265.57C353.392 230.472 358.85 184.959 358.85 184.959L365.537 182.784L369.466 181.499H379.896L383.511 182.687L390.44 184.96C390.44 184.96 396.511 224.165 398.493 265.49Z" fill="#3561C0"/>
<path d="M374.644 232.575C379.225 232.575 382.938 226.394 382.938 218.769C382.938 211.144 379.225 204.962 374.644 204.962C370.063 204.962 366.349 211.144 366.349 218.769C366.349 226.394 370.063 232.575 374.644 232.575Z" fill="#1A3263"/>
<path d="M383.51 182.687C382.539 184.611 380 188.217 374.64 188.217C368.94 188.217 366.385 184.45 365.536 182.784L369.465 181.499H379.895L383.51 182.687Z" fill="#1A3263"/>
<path d="M357.544 201.566C356.437 205.95 355.668 210.412 355.234 214.912C355.184 215.427 355.99 215.424 356.039 214.912C356.466 210.483 357.232 206.094 358.32 201.78C358.447 201.277 357.671 201.063 357.544 201.566Z" fill="#1A3263"/>
<path d="M391.736 201.566C392.843 205.95 393.612 210.412 394.046 214.912C394.096 215.427 393.291 215.424 393.242 214.912C392.814 210.483 392.049 206.094 390.96 201.78C390.834 201.277 391.609 201.063 391.736 201.566Z" fill="#1A3263"/>
<path d="M381.584 139.96C384.579 139.319 387.75 141.361 389.013 144.233C390.827 148.361 389.447 153.025 388.074 157.064C386.632 161.308 384.628 165.37 382.072 169.055C381.17 170.356 380.052 171.927 378.296 171.96C376.388 171.996 375.275 170.37 374.391 168.924C370.333 162.297 361.85 160.233 357.7 153.633C357.197 152.833 356.837 152.068 356.702 151.133C355.088 149.858 354.328 147.65 354.179 145.599C354.058 143.929 354.208 142.181 355.029 140.722C355.846 139.27 357.251 138.238 358.721 137.453C361.712 135.855 365.113 135.107 368.502 135.004C370.707 134.938 373.044 135.182 374.822 136.485C374.539 135.369 373.985 134.421 373.164 133.612C376.729 134.227 380.204 136.616 381.584 139.96Z" fill="#1B1B28"/>
<path d="M381.237 145.583C376.527 136.948 359.957 139.896 358.669 146.76C356.019 160.883 358.031 166.68 361.956 170.016C366.498 173.877 369.462 173.385 369.462 181.497C371.179 185.815 377.77 186.404 379.896 181.497C379.766 170.752 383.452 162.609 383.452 162.609C383.452 162.609 383.179 149.144 381.237 145.583Z" fill="#9E6C52"/>
<path d="M379.471 147.497C376.625 151.599 370.902 150.654 370.902 150.654L374.205 147.808C374.205 147.808 366.028 152.649 357.586 150.971C357.586 150.971 356.347 147.873 360.141 142.705C362.569 139.399 369.627 138.584 375.645 139.696C381.663 140.809 384.28 143.425 384.476 147.742C384.672 152.06 385.111 157.451 385.111 157.451L382.775 159.233C379.111 156.789 379.471 147.497 379.471 147.497Z" fill="#1B1B28"/>
<path d="M371.115 158.896C371.115 159.482 370.639 159.958 370.053 159.958C369.466 159.958 368.991 159.482 368.991 158.896C368.991 158.309 369.466 157.833 370.053 157.833C370.639 157.833 371.115 158.309 371.115 158.896Z" fill="black"/>
<path d="M370.053 158.605C370.053 158.82 369.879 158.994 369.664 158.994C369.449 158.994 369.275 158.82 369.275 158.605C369.275 158.39 369.449 158.217 369.664 158.217C369.879 158.217 370.053 158.39 370.053 158.605Z" fill="white"/>
<path d="M362.898 158.896C362.898 159.482 362.422 159.958 361.835 159.958C361.249 159.958 360.773 159.482 360.773 158.896C360.773 158.309 361.249 157.833 361.835 157.833C362.422 157.833 362.898 158.309 362.898 158.896Z" fill="black"/>
<path d="M361.835 158.605C361.835 158.82 361.662 158.994 361.447 158.994C361.232 158.994 361.058 158.82 361.058 158.605C361.058 158.39 361.232 158.217 361.447 158.217C361.662 158.217 361.835 158.39 361.835 158.605Z" fill="white"/>
<path d="M363.609 154.736C362.274 153.808 360.541 153.861 359.283 154.949C359.048 155.152 359.007 155.563 359.186 155.828C359.369 156.098 359.716 156.143 359.952 155.939C360.468 155.493 361.126 155.291 361.768 155.339C362.093 155.362 362.414 155.449 362.712 155.598C362.977 155.729 363.233 155.958 363.53 155.787C363.601 155.747 363.662 155.686 363.71 155.615C363.873 155.37 363.863 154.913 363.609 154.736Z" fill="#1B1B28"/>
<path d="M367.75 154.736C369.28 153.808 371.268 153.861 372.71 154.949C372.98 155.152 373.027 155.563 372.821 155.828C372.611 156.098 372.214 156.143 371.943 155.939C371.351 155.493 370.597 155.3 369.862 155.348C369.491 155.373 369.123 155.459 368.78 155.604C368.476 155.731 368.178 155.956 367.841 155.787C367.76 155.747 367.69 155.686 367.635 155.615C367.447 155.37 367.46 154.913 367.75 154.736Z" fill="#1B1B28"/>
<path d="M365.529 164.937C364.95 164.937 364.347 164.81 363.765 164.504C363.493 164.361 363.388 164.025 363.532 163.755C363.675 163.484 364.009 163.379 364.281 163.522C365.687 164.259 367.254 163.501 367.702 162.887C367.882 162.641 368.23 162.585 368.478 162.766C368.726 162.947 368.779 163.294 368.598 163.542C368.071 164.262 366.864 164.937 365.529 164.937Z" fill="#7F4932"/>
<path d="M364.218 161.777C364.158 161.777 364.102 161.738 364.085 161.677C363.821 160.772 364.13 160.463 364.434 160.365C364.744 160.266 365.113 160.346 365.534 160.605C365.599 160.645 365.62 160.731 365.579 160.796C365.538 160.861 365.452 160.88 365.388 160.841C365.04 160.626 364.748 160.554 364.52 160.629C364.246 160.717 364.19 161.044 364.351 161.599C364.372 161.672 364.329 161.75 364.255 161.772C364.244 161.776 364.231 161.777 364.218 161.777Z" fill="#7F4932"/>
<path d="M387.087 162.919C385.666 164.613 383.425 165.072 382.081 163.945C380.736 162.818 380.798 160.53 382.219 158.836C383.639 157.142 385.881 156.684 387.225 157.811C388.569 158.938 388.507 161.225 387.087 162.919Z" fill="#9E6C52"/>
<path d="M386.297 158.639C385.694 158.32 384.888 158.335 384.144 158.681C383.773 158.854 383.504 159.063 383.32 159.322C383.077 159.665 383.01 160.095 383.145 160.444C383.264 160.758 383.515 160.962 383.736 161.141C383.896 161.272 384.047 161.395 384.133 161.542C384.264 161.767 384.232 162.083 384.056 162.277C383.881 162.47 383.57 162.532 383.333 162.423C383.193 162.358 383.028 162.42 382.964 162.558C382.9 162.697 382.96 162.863 383.1 162.927C383.252 162.997 383.417 163.031 383.583 163.031C383.913 163.031 384.242 162.897 384.467 162.649C384.804 162.278 384.866 161.694 384.613 161.261C384.477 161.027 384.27 160.859 384.087 160.71C383.904 160.561 383.731 160.42 383.664 160.244C383.596 160.068 383.639 159.831 383.775 159.641C383.829 159.565 383.904 159.495 383.986 159.429C384.261 159.426 384.607 159.511 384.78 159.702C384.977 159.917 385.069 160.228 385.022 160.515C384.998 160.666 385.1 160.808 385.251 160.834C385.266 160.836 385.282 160.838 385.296 160.838C385.43 160.838 385.548 160.741 385.57 160.605C385.645 160.148 385.503 159.671 385.19 159.328C385.073 159.201 384.927 159.114 384.775 159.044C385.234 158.92 385.687 158.945 386.039 159.13C386.473 159.36 386.801 159.952 386.578 160.434C386.514 160.574 386.575 160.739 386.713 160.803C386.853 160.867 387.017 160.807 387.082 160.667C387.406 159.965 387.046 159.036 386.297 158.639Z" fill="#7F4932"/>
</g>
<path d="M237.207 359.723H180.513L178.881 357.555L190.815 326.118L245.878 323.949L247.509 326.118L237.207 359.723Z" fill="#9ED1FF"/>
<path d="M235.575 357.555H178.881L189.183 323.949H245.878L235.575 357.555Z" fill="#E5F1FD"/>
<path d="M190.087 343.925L188.925 335.898H191.024L192.011 343.007H190.776L196.169 335.898H198.1L192.006 343.925H190.087ZM194.956 343.925L201.159 335.898H203.078L204.371 343.925H202.332L201.434 336.838H202.202L196.947 343.925H194.956ZM197.354 342.205L198.303 340.794H202.62L202.716 342.205H197.354ZM209.101 344.062C208.453 344.062 207.88 343.963 207.381 343.764C206.893 343.558 206.502 343.267 206.209 342.893C205.916 342.518 205.731 342.078 205.654 341.574C205.585 341.069 205.643 340.515 205.828 339.911C206.013 339.307 206.295 338.753 206.673 338.248C207.06 337.744 207.515 337.304 208.037 336.93C208.568 336.555 209.139 336.268 209.752 336.07C210.367 335.863 211.002 335.76 211.658 335.76C212.386 335.76 213.004 335.882 213.513 336.127C214.032 336.364 214.42 336.716 214.676 337.182L213.092 338.283C212.9 337.969 212.651 337.736 212.346 337.583C212.044 337.423 211.685 337.343 211.269 337.343C210.877 337.343 210.499 337.404 210.133 337.526C209.768 337.648 209.43 337.824 209.12 338.053C208.81 338.283 208.539 338.554 208.307 338.868C208.083 339.181 207.912 339.529 207.795 339.911C207.678 340.293 207.635 340.641 207.667 340.955C207.707 341.268 207.811 341.54 207.981 341.769C208.151 341.998 208.381 342.174 208.671 342.296C208.961 342.419 209.302 342.48 209.694 342.48C210.11 342.48 210.517 342.403 210.916 342.25C211.317 342.09 211.71 341.849 212.097 341.528L213.007 342.629C212.464 343.095 211.859 343.451 211.192 343.695C210.534 343.94 209.837 344.062 209.101 344.062ZM212.666 343.925L218.869 335.898H220.788L222.081 343.925H220.042L219.144 336.838H219.912L214.657 343.925H212.666ZM215.064 342.205L216.012 340.794H220.33L220.425 342.205H215.064ZM222.952 343.925L225.413 335.898H227.02L230.202 341.677H229.422L231.194 335.898H233.113L230.652 343.925H229.057L225.863 338.145H226.643L224.871 343.925H222.952ZM234.378 343.925L236.374 337.411H233.688L234.152 335.898H241.468L241.004 337.411H238.317L236.321 343.925H234.378Z" fill="#188EF8"/>
<path d="M388.345 312.287C387.073 310.944 385.05 311.379 383.416 312.033C379.719 313.513 376.237 315.693 373.153 318.456C372.535 319.01 371.611 319.581 371.055 318.947C370.68 318.517 370.768 317.8 370.941 317.226C371.712 314.664 373.56 312.706 375.562 311.258C377.565 309.81 379.772 308.765 381.79 307.344C383.807 305.923 385.69 304.024 386.54 301.496C387.389 298.967 386.932 295.729 385.006 294.151C383.159 292.64 380.511 293.047 378.591 294.435C376.671 295.822 375.315 298.005 374.01 300.13C373.246 301.375 372.48 302.621 371.716 303.866C371.573 304.098 371.422 304.338 371.203 304.471C370.621 304.825 369.887 304.185 369.757 303.447C369.626 302.708 369.895 301.964 370.141 301.266C370.919 299.064 371.534 296.752 371.591 294.379C371.648 292.005 371.102 289.552 369.773 287.728C368.444 285.904 365.819 284.817 363.789 285.315H363.787C361.757 284.817 359.131 285.904 357.803 287.728C356.474 289.552 355.927 292.005 355.985 294.379C356.041 296.752 356.656 299.064 357.434 301.266C357.681 301.964 357.949 302.708 357.819 303.447C357.689 304.185 356.954 304.824 356.373 304.471C356.154 304.338 356.003 304.098 355.86 303.866C355.095 302.621 354.331 301.375 353.565 300.13C352.26 298.005 350.904 295.823 348.985 294.435C347.065 293.048 344.417 292.64 342.569 294.151C340.642 295.728 340.186 298.967 341.035 301.496C341.885 304.025 343.768 305.923 345.785 307.344C347.803 308.765 350.01 309.81 352.013 311.258C354.015 312.706 355.864 314.664 356.634 317.226C356.806 317.801 356.895 318.518 356.519 318.947C355.963 319.581 355.039 319.01 354.421 318.456C351.338 315.693 347.855 313.513 344.158 312.033C342.524 311.379 340.501 310.944 339.229 312.287C338.496 313.06 338.215 314.288 338.345 315.419C338.474 316.549 338.971 317.589 339.592 318.482C341.485 321.205 344.446 322.647 347.373 323.592C350.3 324.537 353.346 325.104 356.103 326.574C358.859 328.044 361.376 330.659 361.944 334.074C362.116 335.113 362.102 336.184 362.279 337.221C362.573 338.914 365.003 338.914 365.296 337.221C365.474 336.184 365.46 335.114 365.632 334.074C366.199 330.659 368.716 328.043 371.473 326.574C374.229 325.105 377.275 324.537 380.202 323.592C383.129 322.647 386.091 321.205 387.983 318.482C388.603 317.59 389.1 316.55 389.231 315.419C389.359 314.288 389.077 313.06 388.345 312.287Z" fill="#6CC04A"/>
<path d="M385.648 314.899C385.471 314.675 385.148 314.636 384.926 314.813C384.81 314.905 373.44 323.792 364.301 324.12V314.899C375.99 308.905 383.164 298.315 383.236 298.209C383.393 297.972 383.33 297.653 383.094 297.494C382.856 297.337 382.538 297.401 382.38 297.636C382.311 297.74 375.467 307.833 364.301 313.74V288.333C364.301 288.049 364.072 287.819 363.787 287.819C363.502 287.819 363.273 288.049 363.273 288.333V313.74C352.107 307.833 345.263 297.74 345.194 297.636C345.035 297.4 344.717 297.337 344.48 297.494C344.244 297.652 344.181 297.972 344.338 298.209C344.409 298.315 351.585 308.905 363.273 314.899V324.12C354.134 323.792 342.764 314.904 342.647 314.813C342.425 314.638 342.101 314.675 341.925 314.899C341.75 315.122 341.788 315.445 342.011 315.62C342.495 316.004 353.794 324.835 363.273 325.149V337.953C363.273 338.237 363.502 338.467 363.787 338.467C364.072 338.467 364.301 338.237 364.301 337.953V325.149C373.78 324.835 385.079 316.003 385.563 315.62C385.786 315.445 385.824 315.122 385.648 314.899Z" fill="#41873F"/>
<path d="M378.459 334.745L377.877 337.821L377.629 339.159L377.063 342.154L376.808 343.492L376.248 346.488L375.994 347.826L375.427 350.828L375.18 352.159L374.612 355.161L374.365 356.492L373.784 359.567H353.79L353.209 356.492L352.961 355.161L352.394 352.159L352.147 350.828L351.579 347.826L351.325 346.488L350.766 343.492L350.511 342.154L349.944 339.159L349.697 337.821L349.115 334.745H378.459Z" fill="#7F3E3B"/>
<path d="M377.877 337.821L377.629 339.159H349.944L349.697 337.821H377.877Z" fill="#FFC3BD"/>
<path d="M377.063 342.155L376.808 343.492H350.765L350.511 342.155H377.063Z" fill="#FFC3BD"/>
<path d="M376.248 346.488L375.994 347.826H351.579L351.325 346.488H376.248Z" fill="#FFC3BD"/>
<path d="M375.427 350.828L375.18 352.159H352.394L352.147 350.828H375.427Z" fill="#FFC3BD"/>
<path d="M374.612 355.161L374.365 356.492H353.209L352.961 355.161H374.612Z" fill="#FFC3BD"/>
<path d="M151.299 312.416C166.13 278.042 189.589 269.17 189.589 269.17C189.589 269.17 183.623 293.531 151.299 312.416Z" fill="#6CC04A"/>
<path d="M151.299 312.416C157.477 275.492 178.132 261.265 178.132 261.265C178.132 261.265 178.167 286.346 151.299 312.416Z" fill="#41873F"/>
<path d="M151.299 312.416C148.465 275.086 165.117 256.331 165.117 256.331C165.117 256.331 171.15 280.676 151.299 312.416Z" fill="#6CC04A"/>
<path d="M151.299 312.416C162.981 276.848 151.299 254.655 151.299 254.655C151.299 254.655 139.616 276.848 151.299 312.416Z" fill="#41873F"/>
<path d="M151.299 312.416C154.133 275.086 137.481 256.331 137.481 256.331C137.481 256.331 131.446 280.676 151.299 312.416Z" fill="#6CC04A"/>
<path d="M151.299 312.416C145.121 275.492 124.465 261.265 124.465 261.265C124.465 261.265 124.43 286.346 151.299 312.416Z" fill="#41873F"/>
<path d="M151.299 312.416C136.468 278.042 113.008 269.17 113.008 269.17C113.008 269.17 118.974 293.531 151.299 312.416Z" fill="#6CC04A"/>
<path d="M174.234 334.477C173.602 341.898 170.623 350.385 163.513 359.568H139.092C132.118 350.559 129.115 342.22 128.408 334.911C126.634 316.632 139.092 304.732 139.092 304.732H163.513C163.513 304.732 175.773 316.446 174.234 334.477Z" fill="#0D62A5"/>
<path d="M174.234 334.477C173.602 341.898 170.623 350.385 163.513 359.568H139.092C132.118 350.559 129.115 342.22 128.408 334.911C136.188 339.702 154.529 347.879 174.234 334.477Z" fill="#148BE7"/>
<path d="M327.341 -43.1396L278.793 0.579128L228.38 33.6358L225.726 34.9886C224.479 35.6236 223.39 36.4866 222.482 37.5038L222.456 37.521L222.458 37.5317C221.126 39.0346 220.197 40.8803 219.826 42.9074L212.362 83.6894C211.891 86.2612 212.34 88.9158 213.631 91.189L232.819 125.016C234.93 128.738 238.861 130.769 242.86 130.646C243.902 131.001 245.015 131.208 246.174 131.238C247.659 131.275 249.084 131.021 250.394 130.526C252.953 129.558 255.07 127.672 256.331 125.26C257.148 125.145 257.951 124.941 258.722 124.649C260.81 123.86 262.668 122.434 263.997 120.466C264.826 121.516 265.851 122.438 267.072 123.156C270.098 124.937 273.62 125.126 276.667 123.974C278.958 123.108 280.98 121.484 282.319 119.21L285.993 112.968C286.885 114.088 288.007 115.055 289.34 115.788C292.313 117.422 295.706 117.557 298.648 116.444C301.04 115.54 303.135 113.81 304.464 111.393L318.176 86.4498C318.552 85.7648 318.852 85.0437 319.076 84.303L340.242 60.6917C346.884 53.2832 351.693 44.4177 354.282 34.8106L358.379 19.6096L389.844 -20.5432L327.341 -43.1396Z" fill="#FFE3C2"/>
<path d="M245.366 127.542C241.573 127.402 238.627 123.812 238.787 119.525L239.168 109.225C243.97 107.126 248.561 107.162 252.901 109.733L252.52 120.032C252.362 124.32 249.158 127.682 245.366 127.542Z" fill="#FFF4E9"/>
<path d="M332.496 21.0918C332.117 20.8712 331.63 20.9975 331.408 21.3781C328.236 26.8129 324.746 31.4553 321.123 35.4249C321.045 35.4824 320.981 35.5521 320.929 35.6366C302.131 56.0846 279.832 58.4488 279.564 58.4734C279.363 58.4923 279.174 58.5883 279.039 58.7417L261.638 78.6458C259.77 80.7828 258.662 83.5219 258.518 86.3579L256.796 120.367C256.688 124.591 254.065 128.287 250.112 129.78C248.862 130.253 247.544 130.475 246.194 130.441C243.433 130.37 240.864 129.229 238.961 127.226C237.058 125.223 236.05 122.6 236.118 119.875L239.093 77.526C239.252 75.2618 240.111 73.1511 241.578 71.4202L268.761 39.3503V39.3495L268.767 39.3429C268.788 39.3175 268.795 39.2871 268.812 39.2601C268.851 39.201 268.892 39.1428 268.914 39.0755C268.93 39.0246 268.929 38.9721 268.935 38.9188C268.941 38.8696 268.955 38.8228 268.952 38.7728C268.946 38.6908 268.92 38.612 268.888 38.5349C268.881 38.516 268.882 38.4955 268.873 38.4775L268.871 38.4758C268.838 38.4102 268.786 38.3544 268.734 38.2986C268.714 38.2765 268.7 38.2461 268.678 38.2273C268.676 38.2256 268.675 38.224 268.674 38.2223C268.627 38.1813 268.57 38.1624 268.516 38.1346C268.48 38.1165 268.449 38.0894 268.411 38.0763C268.335 38.0509 268.255 38.046 268.175 38.0443C268.152 38.0435 268.131 38.0353 268.108 38.0369C268.025 38.0427 267.947 38.0681 267.869 38.0993C267.849 38.1075 267.828 38.1058 267.808 38.1149L267.801 38.1181L267.8 38.119L240.818 51.4102C239.025 49.4668 236.845 47.8261 234.478 46.6596C234.083 46.4652 233.607 46.6284 233.412 47.0214C233.218 47.4151 233.38 47.8926 233.774 48.087C236.062 49.215 238.165 50.8179 239.864 52.722L234.346 82.8714C234.266 82.8353 234.184 82.8041 234.092 82.7959C229.775 82.4046 225.319 82.9165 221.203 84.275C220.814 84.4128 220.56 84.8624 220.697 85.2799C220.835 85.6967 221.284 85.9239 221.702 85.7861C225.612 84.4957 229.846 84.01 233.948 84.3816C234.072 84.3923 234.192 84.3743 234.301 84.3332C234.338 84.3193 234.369 84.2963 234.403 84.2775L236.737 88.3341L234.527 119.799C234.359 126.376 239.574 131.864 246.152 132.032C247.708 132.072 249.23 131.815 250.673 131.269C255.234 129.546 258.261 125.283 258.385 120.428L260.105 86.4383C260.23 83.9583 261.2 81.5621 262.834 79.6934L280.034 60.0198C280.308 59.9845 280.768 59.9172 281.358 59.8155C281.85 60.8639 282.167 61.9771 282.282 63.1404L284.066 80.928C284.282 83.1052 283.793 85.3349 282.687 87.2061L263.684 119.479C262.48 121.529 260.666 123.059 258.44 123.901C258.029 124.056 257.821 124.516 257.977 124.926C258.132 125.337 258.591 125.544 259.002 125.389C260.979 124.642 262.718 123.368 264.039 121.737C264.809 122.554 265.687 123.264 266.666 123.84C269.794 125.687 273.541 126.007 276.948 124.719C279.481 123.761 281.632 121.949 283.002 119.615L286.12 114.318C286.946 115.173 287.895 115.901 288.955 116.484C292.019 118.168 295.654 118.425 298.928 117.187C301.578 116.185 303.792 114.263 305.159 111.776L318.871 86.832C319.991 84.7951 320.489 82.4932 320.313 80.1749L319.029 63.3684C318.527 56.8081 312.782 51.8787 306.222 52.3799C303.472 52.5891 300.891 53.7523 298.902 55.6482C298.551 55.2478 298.18 54.8631 297.775 54.5095C304.657 51.3249 312.662 46.352 320.25 38.6415C319.799 42.2002 319.923 48.5161 324.775 54.2191C324.998 54.4824 325.356 54.5637 325.661 54.448C325.744 54.4168 325.824 54.3701 325.895 54.3093C326.23 54.0255 326.271 53.5226 325.985 53.1879C319.991 46.1403 321.923 37.8302 322.289 36.4873C325.985 32.4381 329.546 27.7186 332.779 22.1796C333.003 21.8006 332.875 21.3125 332.496 21.0918ZM306.345 53.9656C312.03 53.5317 317.01 57.8032 317.444 63.489L318.728 80.2955C318.881 82.3045 318.45 84.3004 317.479 86.065L303.768 111.008C302.583 113.164 300.665 114.83 298.368 115.698C295.53 116.771 292.38 116.549 289.724 115.089C288.672 114.511 287.754 113.762 286.97 112.876L302.003 87.3365C303.299 85.1421 303.849 82.6368 303.593 80.092L301.813 62.311C301.618 60.3569 300.933 58.5177 299.871 56.9181C301.611 55.2019 303.902 54.1527 306.345 53.9656ZM300.231 62.4702L302.012 80.252C302.233 82.4579 301.757 84.6278 300.633 86.5293L281.633 118.809C280.446 120.831 278.584 122.401 276.389 123.231C273.436 124.347 270.188 124.069 267.477 122.47C266.532 121.914 265.691 121.222 264.975 120.413C265.002 120.369 265.032 120.329 265.058 120.285L284.061 88.0141C285.336 85.855 285.901 83.2816 285.651 80.7697L283.867 62.9829C283.747 61.7753 283.444 60.6113 282.972 59.5071C285.899 58.8984 290.581 57.6588 296.141 55.2454C298.453 56.9829 299.943 59.5899 300.231 62.4702Z" fill="#E7BD8E"/>
<path d="M241.905 75.2537C241.75 74.8444 241.297 74.6327 240.881 74.7902C240.47 74.9445 240.261 75.403 240.416 75.8149C240.527 76.1126 243.267 83.1069 253.291 83.038C253.344 83.038 253.396 83.0323 253.446 83.0216C253.81 82.947 254.084 82.6229 254.081 82.2374C254.078 81.7985 253.719 81.4441 253.28 81.4474C244.419 81.5073 242.009 75.5253 241.905 75.2537Z" fill="#D8B288"/>
<path d="M279.505 85.4943C280.183 85.2384 280.882 84.9307 281.6 84.5665C281.993 84.3672 282.149 83.8889 281.95 83.4968C281.751 83.1047 281.263 82.9513 280.881 83.1473C272.294 87.5066 267.06 82.8364 266.841 82.6354C266.519 82.3393 266.02 82.3565 265.719 82.6781C265.419 82.9997 265.438 83.5033 265.76 83.8028C265.991 84.0177 271.129 88.6609 279.505 85.4943Z" fill="#D8B288"/>
<path d="M298.026 84.8099C298.555 84.6105 299.099 84.371 299.659 84.0871C300.051 83.8878 300.208 83.4095 300.008 83.0174C299.809 82.6253 299.322 82.4735 298.939 82.6679C292.445 85.9584 288.499 82.4612 288.326 82.3029C288.005 82.0059 287.503 82.0256 287.203 82.3455C286.905 82.6671 286.922 83.1708 287.244 83.4694C287.426 83.6384 291.467 87.2898 298.026 84.8099Z" fill="#D8B288"/>
<path d="M304.053 83.2178C304.235 83.3868 308.273 87.0381 314.834 84.5582C315.361 84.3589 315.906 84.1193 316.465 83.8355C316.857 83.6361 317.014 83.1579 316.815 82.7658C316.616 82.3736 316.126 82.2219 315.746 82.4163C309.248 85.7157 305.299 82.203 305.133 82.0504C304.811 81.7543 304.309 81.7723 304.011 82.0931C303.712 82.4146 303.73 82.9183 304.053 83.2178Z" fill="#D8B288"/>
<path d="M299.409 125.861L310.673 257.559L220.935 265.233L217.795 262.036L209.672 133.535L238.528 129.917C239.198 130.179 239.9 130.366 240.605 130.489C242.25 131.426 244.134 131.976 246.158 132.034C247.71 132.069 249.229 131.812 250.675 131.265C252.64 130.521 254.324 129.308 255.605 127.769L296.271 122.671L299.409 125.861Z" fill="#58B0FF"/>
<path d="M296.27 122.672L307.532 254.362L217.795 262.036L206.532 130.346L235.169 127.898C236.17 128.778 237.306 129.456 238.527 129.917C239.197 130.18 239.899 130.367 240.604 130.49C242.249 131.427 244.133 131.976 246.157 132.035C247.709 132.069 249.228 131.812 250.674 131.265C252.639 130.522 254.323 129.309 255.604 127.77C256.061 127.236 256.467 126.658 256.814 126.045L296.27 122.672Z" fill="#C8E5FF"/>
<path d="M262.033 250.763C281.329 249.113 294.735 221.629 291.977 189.376C289.219 157.122 271.341 132.313 252.046 133.963C232.751 135.612 219.345 163.097 222.103 195.35C224.861 227.604 242.738 252.413 262.033 250.763Z" fill="#FFF4E9"/>
<mask id="mask2_0_1670" style="mask-type:luminance" maskUnits="userSpaceOnUse" x="206" y="122" width="102" height="141">
<path d="M296.28 122.678L206.537 130.351L217.798 262.05L307.541 254.376L296.28 122.678Z" fill="white"/>
</mask>
<g mask="url(#mask2_0_1670)">
<path d="M236.586 191.358C236.586 191.358 220.62 213.758 224.996 275.284L232.216 274.667C232.216 274.667 230.362 236.954 240.609 213.016L236.586 191.358Z" fill="#F0D0C6"/>
<path d="M241.209 184.746C233.353 188.975 226.315 209.696 226.315 209.696L241.626 215.562L241.209 184.746Z" fill="#0B7CD3"/>
<path d="M277.035 187.898C277.035 187.898 296.573 207.262 302.708 268.638L295.488 269.256C295.488 269.256 290.911 231.776 276.748 209.926L277.035 187.898Z" fill="#F0D0C6"/>
<path d="M271.032 182.196C279.491 185.03 289.131 203.195 289.131 203.195L276.999 211.953L271.032 182.196Z" fill="#0B7CD3"/>
<path d="M285.13 257.557C285.13 257.557 272.237 265.455 240.117 261.483C239.734 228.145 241.211 184.746 241.211 184.746L248.66 181.595L250.952 180.622L260.797 179.78L263.465 180.413L271.028 182.195C271.028 182.195 279.925 218.711 285.13 257.557Z" fill="#3CA2FF"/>
<path d="M263.465 180.414C262.854 181.988 260.911 185.79 256.355 186.18C251.394 186.604 249.185 182.703 248.66 181.595L250.952 180.622L260.797 179.78L263.465 180.414Z" fill="#0D62A5"/>
<path d="M262.618 200.688L270.418 200.021C270.418 200.021 271.381 209.844 267.359 210.188C263.338 210.532 262.618 200.688 262.618 200.688Z" fill="#0D62A5"/>
<path d="M266.545 156.057C265.527 160.18 263.962 164.176 261.847 167.86C261.101 169.159 260.173 170.733 258.518 170.907C256.72 171.094 255.539 169.649 254.586 168.356C250.222 162.429 241.706 161.025 237.256 155.131C235.828 153.106 234.679 150.855 234.134 148.437C233.59 146.02 233.677 143.426 234.627 141.136C235.576 138.847 237.433 136.898 239.768 136.068C240.416 135.838 241.201 135.714 241.741 136.139C242.137 136.45 242.294 136.989 242.266 137.491C242.239 137.993 242.052 138.471 241.868 138.938C243.272 137.007 244.686 134.786 246.683 133.478C247.345 133.044 248.079 132.686 248.866 132.6C249.654 132.516 250.503 132.741 251.038 133.325C251.572 133.909 251.25 135.456 250.765 136.082C252.096 135.139 254.159 133.993 255.755 133.659C256.45 133.513 257.198 133.436 257.847 133.722C258.522 134.02 258.988 134.684 259.189 135.395C259.389 136.105 258.938 137.439 258.67 138.048C260.055 137.71 261.472 137.37 262.841 137.769C264.306 138.195 265.438 139.418 266.083 140.801C266.728 142.183 266.948 143.722 267.101 145.24C267.457 148.787 267.399 152.598 266.545 156.057Z" fill="#CE714D"/>
<path d="M259.166 145.773C254.023 138.002 238.62 142.122 237.959 148.706C236.598 162.249 238.965 167.56 242.938 170.391C247.537 173.669 250.295 172.966 250.95 180.622C252.92 184.559 259.188 184.582 260.798 179.779C259.807 169.648 262.631 161.665 262.631 161.665C262.631 161.665 261.286 148.977 259.166 145.773Z" fill="#F0D0C6"/>
<path d="M237.074 149.597C237.284 148.338 237.826 146.717 239.02 144.76C241.044 141.444 247.641 140.104 253.411 140.668C259.181 141.231 261.862 143.49 262.396 147.55C262.93 151.609 263.779 156.662 263.779 156.662L261.719 158.532C258.064 156.521 257.653 147.721 257.653 147.721C255.778 149.212 253.595 150.488 251.266 151.048C250.807 151.158 250.331 151.242 249.862 151.179C249.394 151.116 248.928 150.887 248.676 150.487C248.326 149.932 248.463 149.187 248.791 148.618C247.285 149.697 245.755 150.731 244.084 151.53C243.504 151.808 242.842 152.054 242.228 151.857C241.754 151.705 241.386 151.295 241.221 150.825C241.056 150.355 241.078 149.833 241.214 149.354C240.457 150.034 239.601 150.646 238.759 151.217C238.417 151.449 238.02 151.683 237.615 151.597C237.25 151.519 236.978 151.184 236.893 150.821C236.808 150.459 237.012 149.965 237.074 149.597Z" fill="#CE714D"/>
<path d="M250.687 159.156C250.734 159.709 250.323 160.197 249.769 160.244C249.216 160.292 248.728 159.881 248.681 159.327C248.633 158.773 249.044 158.286 249.598 158.239C250.152 158.191 250.639 158.602 250.687 159.156Z" fill="#1B1B28"/>
<path d="M249.66 158.967C249.677 159.17 249.527 159.349 249.325 159.366C249.122 159.383 248.943 159.233 248.926 159.03C248.909 158.828 249.059 158.649 249.262 158.632C249.464 158.614 249.643 158.764 249.66 158.967Z" fill="white"/>
<path d="M242.93 159.819C242.978 160.372 242.567 160.86 242.013 160.907C241.459 160.955 240.972 160.544 240.924 159.99C240.877 159.436 241.288 158.949 241.842 158.902C242.395 158.855 242.883 159.265 242.93 159.819Z" fill="#1B1B28"/>
<path d="M241.904 159.63C241.921 159.832 241.771 160.011 241.568 160.029C241.366 160.046 241.187 159.896 241.17 159.693C241.152 159.49 241.303 159.312 241.505 159.294C241.708 159.277 241.887 159.427 241.904 159.63Z" fill="white"/>
<path d="M243.266 155.835C241.931 155.065 240.299 155.257 239.2 156.385C238.994 156.595 238.988 156.986 239.179 157.221C239.373 157.462 239.705 157.477 239.91 157.265C240.362 156.802 240.966 156.558 241.576 156.551C241.884 156.548 242.193 156.604 242.487 156.72C242.747 156.823 243.008 157.018 243.275 156.832C243.338 156.788 243.391 156.727 243.431 156.655C243.566 156.412 243.519 155.981 243.266 155.835Z" fill="#CE714D"/>
<path d="M247.175 155.501C248.544 154.501 250.424 154.391 251.874 155.301C252.145 155.472 252.222 155.854 252.05 156.12C251.874 156.393 251.502 156.468 251.23 156.297C250.636 155.924 249.909 155.802 249.219 155.908C248.87 155.961 248.53 156.072 248.217 156.236C247.941 156.381 247.678 156.618 247.346 156.485C247.266 156.453 247.196 156.402 247.138 156.339C246.939 156.123 246.915 155.691 247.175 155.501Z" fill="#CE714D"/>
<path d="M245.901 165.308C245.354 165.355 244.775 165.283 244.201 165.041C243.933 164.929 243.807 164.62 243.92 164.353C244.033 164.085 244.34 163.96 244.609 164.072C245.995 164.655 247.413 163.813 247.786 163.197C247.936 162.95 248.26 162.87 248.509 163.021C248.757 163.172 248.836 163.495 248.685 163.743C248.246 164.466 247.161 165.2 245.901 165.308Z" fill="#D3A092"/>
<path d="M244.408 162.432C244.352 162.437 244.296 162.404 244.275 162.348C243.953 161.514 244.219 161.199 244.499 161.081C244.782 160.963 245.138 161.008 245.557 161.22C245.622 161.253 245.647 161.332 245.615 161.397C245.581 161.461 245.502 161.487 245.438 161.455C245.093 161.281 244.81 161.236 244.601 161.325C244.35 161.43 244.323 161.743 244.521 162.255C244.547 162.322 244.513 162.399 244.445 162.425C244.433 162.428 244.421 162.431 244.408 162.432Z" fill="#D3A092"/>
<path d="M266.086 161.664C264.882 163.377 262.804 163.991 261.444 163.036C260.084 162.08 259.957 159.917 261.162 158.203C262.366 156.49 264.444 155.876 265.804 156.832C267.163 157.787 267.29 159.951 266.086 161.664Z" fill="#F0D0C6"/>
<path d="M264.995 157.688C264.399 157.436 263.64 157.514 262.966 157.902C262.63 158.093 262.394 158.313 262.241 158.573C262.039 158.915 262.011 159.327 262.166 159.646C262.304 159.933 262.557 160.105 262.78 160.258C262.942 160.367 263.094 160.472 263.187 160.603C263.329 160.806 263.323 161.106 263.173 161.304C263.023 161.5 262.735 161.583 262.502 161.5C262.365 161.45 262.215 161.521 262.165 161.657C262.116 161.793 262.185 161.944 262.322 161.994C262.472 162.048 262.631 162.067 262.787 162.053C263.098 162.027 263.399 161.874 263.591 161.623C263.879 161.245 263.891 160.69 263.617 160.301C263.469 160.092 263.261 159.949 263.076 159.824C262.892 159.698 262.717 159.578 262.639 159.418C262.561 159.257 262.582 159.03 262.695 158.84C262.74 158.763 262.804 158.692 262.876 158.623C263.136 158.598 263.468 158.651 263.649 158.816C263.851 159.003 263.964 159.29 263.943 159.564C263.931 159.709 264.039 159.835 264.185 159.847C264.199 159.848 264.213 159.847 264.228 159.847C264.354 159.836 264.457 159.735 264.468 159.605C264.502 159.168 264.33 158.728 264.006 158.43C263.886 158.319 263.742 158.249 263.591 158.195C264.015 158.041 264.445 158.028 264.792 158.175C265.22 158.356 265.577 158.889 265.405 159.363C265.356 159.5 265.427 159.65 265.563 159.7C265.7 159.749 265.85 159.679 265.9 159.542C266.148 158.85 265.734 158.002 264.995 157.688Z" fill="#D3A092"/>
</g>
<path d="M341.118 259.852L332.548 254.801L318.991 277.805L327.562 282.856L341.118 259.852Z" fill="#263238"/>
<path d="M299.249 323.051L297.537 322.042C294.407 320.197 293.365 316.164 295.21 313.034L318.056 274.271C319.901 271.14 323.934 270.099 327.064 271.944L328.775 272.953C331.906 274.798 332.948 278.83 331.103 281.961L308.257 320.724C306.412 323.854 302.378 324.896 299.249 323.051Z" fill="#00417C"/>
<g opacity="0.5">
<path opacity="0.4" d="M397.808 210.519L390.892 213.177L324.575 238.706L317.668 241.364C316.626 239.084 315.781 236.696 315.141 234.219C313.205 226.721 313.32 219.018 315.387 211.758L324.592 208.214L370.449 190.552L379.637 187.016C388.365 192.489 394.739 200.733 397.808 210.519Z" fill="#99C8F2"/>
<path opacity="0.4" d="M399.703 226.721L391.868 229.732L334.969 251.643L327.151 254.654C325.043 252.661 323.148 250.462 321.499 248.091L328.644 245.335L392.311 220.831L399.473 218.067C399.842 220.955 399.916 223.85 399.703 226.721Z" fill="#99C8F2"/>
</g>
<path d="M399.473 218.067C399.243 216.27 398.899 214.482 398.439 212.702C398.251 211.963 398.045 211.241 397.808 210.519C394.739 200.733 388.365 192.488 379.637 187.016C379.309 186.803 378.972 186.598 378.628 186.401C358.201 174.359 331.778 181.192 319.735 201.619C317.832 204.843 316.38 208.247 315.387 211.758C313.32 219.018 313.205 226.721 315.141 234.219C315.781 236.697 316.626 239.084 317.668 241.365C318.742 243.727 320.022 245.983 321.499 248.091C323.148 250.462 325.043 252.661 327.151 254.654C329.489 256.869 332.098 258.838 334.953 260.52C341.794 264.556 349.3 266.467 356.716 266.467C371.458 266.467 385.839 258.895 393.845 245.302C397.242 239.543 399.219 233.21 399.703 226.721C399.916 223.85 399.842 220.955 399.473 218.067ZM387.488 241.554C377.512 258.478 355.625 264.138 338.702 254.163C337.397 253.392 336.15 252.547 334.969 251.644C332.582 249.798 330.457 247.682 328.644 245.336C327.044 243.285 325.683 241.07 324.575 238.707C323.624 236.689 322.861 234.573 322.295 232.374C320.178 224.204 320.998 215.746 324.592 208.215C325.043 207.247 325.543 206.295 326.093 205.368C332.729 194.113 344.641 187.838 356.848 187.838C361.425 187.838 366.044 188.724 370.449 190.553C371.958 191.176 373.435 191.915 374.879 192.768C382.902 197.493 388.398 204.893 390.892 213.178C391.639 215.664 392.123 218.232 392.311 220.832C392.533 223.785 392.393 226.771 391.868 229.733C391.146 233.793 389.703 237.796 387.488 241.554Z" fill="#188EF8"/>
</g>
<path d="M0.5 12.8603C0.5 6.50907 5.64873 1.36035 12 1.36035H492C498.351 1.36035 503.5 6.50908 503.5 12.8604V388.86C503.5 395.212 498.351 400.36 492 400.36H12C5.64874 400.36 0.5 395.212 0.5 388.86V12.8603Z" stroke="white" stroke-opacity="0.05"/>
<defs>
<filter id="filter0_di_0_1670" x="59.7809" y="344.367" width="384.707" height="30.7123" filterUnits="userSpaceOnUse" color-interpolation-filters="sRGB">
<feFlood flood-opacity="0" result="BackgroundImageFix"/>
<feColorMatrix in="SourceAlpha" type="matrix" values="0 0 0 0 0 0 0 0 0 0 0 0 0 0 0 0 0 0 127 0" result="hardAlpha"/>
<feOffset/>
<feGaussianBlur stdDeviation="3.60953"/>
<feComposite in2="hardAlpha" operator="out"/>
<feColorMatrix type="matrix" values="0 0 0 0 0.0745098 0 0 0 0 0.509804 0 0 0 0 0.85098 0 0 0 0.4 0"/>
<feBlend mode="normal" in2="BackgroundImageFix" result="effect1_dropShadow_0_1670"/>
<feBlend mode="normal" in="SourceGraphic" in2="effect1_dropShadow_0_1670" result="shape"/>
<feColorMatrix in="SourceAlpha" type="matrix" values="0 0 0 0 0 0 0 0 0 0 0 0 0 0 0 0 0 0 127 0" result="hardAlpha"/>
<feOffset dx="-1.6407" dy="-1.6407"/>
<feGaussianBlur stdDeviation="3.7736"/>
<feComposite in2="hardAlpha" operator="arithmetic" k2="-1" k3="1"/>
<feColorMatrix type="matrix" values="0 0 0 0 0 0 0 0 0 0 0 0 0 0 0 0 0 0 0.3 0"/>
<feBlend mode="normal" in2="shape" result="effect2_innerShadow_0_1670"/>
</filter>
<clipPath id="clip0_0_1670">
<path d="M0 12.8603C0 6.23292 5.37258 0.860352 12 0.860352H492C498.627 0.860352 504 6.23293 504 12.8604V388.86C504 395.488 498.627 400.86 492 400.86H12C5.3726 400.86 0 395.488 0 388.86V12.8603Z" fill="white"/>
</clipPath>
</defs>
</svg>
