<svg width="504" height="351" viewBox="0 0 504 351" fill="none" xmlns="http://www.w3.org/2000/svg">
<path d="M0 12.8604C0 6.23294 5.37258 0.860352 12 0.860352H492C498.627 0.860352 504 6.23293 504 12.8604V338.86C504 345.488 498.627 350.86 492 350.86H12C5.3726 350.86 0 345.488 0 338.86V12.8604Z" fill="#101215"/>
<path d="M0.5 12.8604C0.5 6.50908 5.64873 1.36035 12 1.36035H492C498.351 1.36035 503.5 6.50908 503.5 12.8604V338.86C503.5 345.212 498.351 350.36 492 350.36H12C5.64874 350.36 0.5 345.212 0.5 338.86V12.8604Z" stroke="white" stroke-opacity="0.05"/>
<path d="M173.121 112.221H124.643C123.463 112.221 122.506 111.263 122.506 110.082V61.5718C122.506 60.3907 123.462 59.4331 124.643 59.4331H173.121C174.301 59.4331 175.258 60.3905 175.258 61.5718V110.082C175.258 111.263 174.301 112.221 173.121 112.221Z" fill="#72C4F4"/>
<path d="M168.343 107.641H129.42C128.129 107.641 127.082 106.594 127.082 105.302V66.3524C127.082 65.0602 128.129 64.0127 129.42 64.0127H168.343C169.634 64.0127 170.681 65.0602 170.681 66.3524V105.301C170.681 106.594 169.634 107.641 168.343 107.641Z" fill="white"/>
<path d="M127.397 105.667L126.767 104.936L138.343 94.9474C140.342 93.1103 143.498 93.2276 145.366 95.219L149.85 99.9995C150.3 100.479 150.909 100.75 151.566 100.762C152.224 100.774 152.843 100.525 153.31 100.063L170.342 83.1863L171.021 83.8723L153.989 100.749C153.335 101.397 152.472 101.746 151.549 101.727C150.629 101.71 149.776 101.332 149.147 100.66L144.662 95.8799C143.155 94.2726 140.608 94.1778 138.985 95.6688L127.397 105.667Z" fill="#188EF8"/>
<path d="M154.894 92.5072C156.036 91.0387 155.771 88.9223 154.304 87.7802C152.836 86.638 150.721 86.9025 149.58 88.3711C148.439 89.8396 148.703 91.9559 150.171 93.0981C151.638 94.2403 153.753 93.9757 154.894 92.5072Z" fill="#188EF8"/>
<path d="M147.738 80.2444H134.074C132.715 80.2444 131.609 79.1382 131.609 77.7785C131.609 76.4993 132.588 75.4444 133.835 75.324C134.068 73.3758 135.722 71.8585 137.727 71.8445C138.111 69.7122 139.988 68.1035 142.195 68.1035C144.214 68.1035 145.959 69.4245 146.535 71.3151C146.926 71.2073 147.329 71.1527 147.738 71.1527C150.243 71.1527 152.281 73.1921 152.281 75.6985C152.281 78.2051 150.243 80.2444 147.738 80.2444ZM134.074 76.2777C133.247 76.2777 132.574 76.951 132.574 77.7783C132.574 78.6057 133.247 79.279 134.074 79.279H147.738C149.711 79.279 151.316 77.6728 151.316 75.6985C151.316 73.7242 149.711 72.118 147.738 72.118C147.268 72.118 146.809 72.2091 146.374 72.389L145.818 72.6184L145.715 72.0264C145.414 70.3126 143.933 69.0688 142.194 69.0688C140.331 69.0688 138.766 70.526 138.63 72.3859L138.594 72.8867L138.095 72.8305C137.97 72.8165 137.859 72.8095 137.756 72.8095C136.115 72.8095 134.779 74.1419 134.772 75.7822C134.773 75.7939 134.773 75.8053 134.773 75.8168V76.3555L134.161 76.287C134.132 76.283 134.103 76.2777 134.074 76.2777Z" fill="#188EF8"/>
<path d="M310.598 232.952H189.897V162.916C189.897 150.878 199.649 141.119 211.679 141.119H288.816C300.846 141.119 310.598 150.878 310.598 162.916V232.952H310.598Z" fill="#6695FF"/>
<path d="M295.886 221.209H204.609V244.695H295.886V221.209Z" fill="#CBDBFF"/>
<path d="M204.609 244.695H175.186V198.033C175.186 189.902 181.772 183.311 189.897 183.311C198.023 183.311 204.609 189.902 204.609 198.033V244.695Z" fill="#CBDBFF"/>
<path d="M325.309 244.695H295.886V198.033C295.886 189.902 302.473 183.311 310.598 183.311C318.723 183.311 325.309 189.902 325.309 198.033V244.695Z" fill="#CBDBFF"/>
<path d="M325.309 244.695H175.186V256.698H325.309V244.695Z" fill="#6695FF"/>
<path d="M179.599 297.412H175.186V256.698H185.922L179.599 297.412Z" fill="#CBDBFF"/>
<path d="M320.896 297.412H325.309V256.698H314.573L320.896 297.412Z" fill="#BBE0F8"/>
<path d="M204.609 245.478C204.177 245.478 203.826 245.127 203.826 244.695V221.209C203.826 220.776 204.177 220.425 204.609 220.425C205.042 220.425 205.392 220.776 205.392 221.209V244.695C205.392 245.127 205.042 245.478 204.609 245.478Z" fill="#6695FF"/>
<path d="M295.889 245.053C295.578 245.053 295.327 244.659 295.327 244.173V217.798C295.327 217.312 295.578 216.918 295.889 216.918C296.2 216.918 296.452 217.312 296.452 217.798V244.173C296.452 244.659 296.2 245.053 295.889 245.053Z" fill="#6695FF"/>
<path d="M415.751 230.982C415.751 230.982 402.15 236.878 414.248 249.845C426.345 262.811 443.741 240.05 444.962 235.869C446.182 231.688 417.698 206.05 415.751 230.982Z" fill="#41873F"/>
<path d="M394.085 213.968C394.085 213.968 391.957 203.016 379.188 215.489C366.419 227.962 375.236 234.046 386.637 232.829C398.037 231.613 409.286 221.269 394.085 213.968Z" fill="#41873F"/>
<path d="M407.029 213.12C407.029 213.12 394.564 213.728 400.037 200.038C405.509 186.348 429.83 183.914 433.175 189.086C436.519 194.258 424.662 202.706 422.23 211.715C419.798 220.725 411.285 219.813 407.029 213.12Z" fill="#6CC04A"/>
<path d="M403.508 269.393C403.502 269.393 403.496 269.393 403.49 269.392C403.374 269.382 403.288 269.281 403.298 269.165C403.327 268.822 406.241 234.82 407.578 224.519C408.034 221.006 406.805 216.449 398.361 214.695C395.927 214.189 393.405 214.911 391.616 216.628L378.647 227.302C378.557 227.375 378.425 227.362 378.351 227.273C378.277 227.183 378.29 227.05 378.38 226.976L391.337 216.313C393.215 214.511 395.877 213.748 398.447 214.282C402.405 215.105 408.909 217.536 407.996 224.573C406.66 234.865 403.747 268.859 403.718 269.201C403.708 269.31 403.616 269.393 403.508 269.393Z" fill="white"/>
<path d="M412.183 266.983C412.082 266.983 411.993 266.91 411.976 266.807C411.674 264.99 404.607 222.213 406.824 213.07C409.051 203.89 427.267 191.558 428.042 191.037C428.139 190.972 428.269 190.998 428.334 191.095C428.399 191.191 428.373 191.322 428.277 191.387C428.23 191.419 423.503 194.607 418.566 198.876C412.055 204.506 408.136 209.449 407.234 213.169C405.037 222.229 412.317 266.293 412.391 266.737C412.41 266.852 412.333 266.961 412.218 266.98C412.206 266.982 412.195 266.983 412.183 266.983Z" fill="white"/>
<path d="M409.235 273.075C409.144 273.075 409.06 273.015 409.033 272.923C409.013 272.856 407.043 266.122 405.361 258.371C403.098 247.943 402.406 240.739 403.303 236.959C403.904 234.429 405.177 232.586 407.088 231.482C410.76 229.359 415.463 230.677 415.799 230.775L442.453 235.354C442.568 235.374 442.644 235.483 442.625 235.597C442.605 235.712 442.497 235.79 442.382 235.769L415.691 231.183C415.643 231.169 410.866 229.783 407.296 231.848C405.491 232.892 404.286 234.644 403.713 237.056C401.603 245.939 409.358 272.537 409.437 272.804C409.47 272.916 409.406 273.033 409.294 273.066C409.274 273.072 409.255 273.075 409.235 273.075Z" fill="white"/>
<path d="M386.208 245.981C386.208 245.981 378.514 230.816 371.053 239.915C363.592 249.014 362.892 271.412 371.053 273.979C379.213 276.545 407.658 269.546 402.995 254.147C398.332 238.748 386.208 245.981 386.208 245.981Z" fill="#6CC04A"/>
<path d="M372.899 266.983C372.86 266.983 372.82 266.972 372.785 266.949C372.687 266.886 372.659 266.756 372.721 266.658L386.03 245.867C386.242 245.563 391.177 238.561 396.53 238.727C398.88 238.795 400.939 240.245 402.65 243.035C409.303 253.884 408.009 263.904 407.995 264.004C407.979 264.119 407.874 264.198 407.758 264.184C407.643 264.168 407.562 264.061 407.578 263.946C407.592 263.848 408.862 253.97 402.291 243.255C400.659 240.594 398.717 239.212 396.519 239.148C396.465 239.147 396.41 239.146 396.357 239.146C391.285 239.146 386.429 246.031 386.38 246.102L373.076 266.886C373.036 266.948 372.968 266.983 372.899 266.983Z" fill="white"/>
<path d="M415.981 296.589H399.593C396.863 296.589 394.649 294.375 394.649 291.643V264.195C394.649 261.463 396.863 259.249 399.593 259.249H415.981C418.711 259.249 420.924 261.463 420.924 264.195V291.643C420.924 294.375 418.711 296.589 415.981 296.589Z" fill="#7F3E3B"/>
<path d="M119.633 241.363C119.633 241.363 106.032 247.26 118.129 260.226C130.227 273.193 147.623 250.431 148.844 246.25C150.064 242.069 121.58 216.432 119.633 241.363Z" fill="#6CC04A"/>
<path d="M120.687 211.225C120.687 211.225 123.539 200.439 135.449 213.736C147.359 227.032 138.157 232.515 126.863 230.541C115.569 228.567 105.033 217.497 120.687 211.225Z" fill="#41873F"/>
<path d="M107.609 265.899C107.494 265.899 107.4 265.808 107.398 265.693C107.392 265.349 106.748 231.237 106.101 220.879C105.658 213.796 112.31 211.804 116.314 211.247C118.914 210.886 121.519 211.825 123.284 213.759L135.491 225.251C135.576 225.331 135.58 225.464 135.5 225.549C135.42 225.634 135.287 225.637 135.202 225.558L122.984 214.055C121.302 212.211 118.834 211.322 116.372 211.665C107.83 212.853 106.3 217.317 106.521 220.853C107.169 231.22 107.813 265.341 107.82 265.685C107.822 265.801 107.729 265.897 107.613 265.899C107.611 265.899 107.61 265.899 107.609 265.899Z" fill="white"/>
<path d="M101.698 214.632C101.698 214.632 114.168 214.133 107.505 200.982C100.842 187.831 76.4009 187.562 73.5277 193.01C70.6545 198.458 83.2125 205.822 86.4326 214.58C89.6527 223.339 98.0511 221.676 101.698 214.632Z" fill="#6CC04A"/>
<path d="M101.314 268.74C101.309 268.74 101.303 268.74 101.298 268.74C101.182 268.731 101.095 268.63 101.104 268.514C101.138 268.065 104.489 223.528 101.499 214.699C100.271 211.073 95.93 206.497 88.9459 201.466C83.6507 197.652 78.6599 194.895 78.6101 194.867C78.5084 194.811 78.4711 194.683 78.5271 194.581C78.5832 194.479 78.7111 194.442 78.8131 194.498C79.6305 194.948 98.8676 205.617 101.897 214.564C104.915 223.474 101.663 266.71 101.524 268.546C101.515 268.656 101.423 268.74 101.314 268.74Z" fill="white"/>
<path d="M113.116 283.456C113.025 283.456 112.941 283.397 112.914 283.305C112.895 283.238 110.924 276.504 109.242 268.752C106.979 258.324 106.287 251.121 107.185 247.341C107.786 244.81 109.059 242.967 110.969 241.863C114.642 239.741 119.345 241.059 119.68 241.157L146.334 245.736C146.449 245.756 146.526 245.864 146.506 245.979C146.487 246.094 146.379 246.172 146.263 246.151L119.572 241.565C119.525 241.551 114.748 240.164 111.178 242.229C109.373 243.273 108.167 245.026 107.594 247.438C105.485 256.32 113.24 282.919 113.318 283.186C113.351 283.298 113.287 283.415 113.176 283.447C113.156 283.453 113.136 283.456 113.116 283.456Z" fill="white"/>
<path d="M87.1823 236.371C87.1823 236.371 87.4769 219.366 76.6275 223.912C65.7781 228.458 54.6829 247.923 60.6935 254.013C66.7042 260.104 95.1147 267.242 98.1971 251.451C101.279 235.659 87.1823 236.371 87.1823 236.371Z" fill="#41873F"/>
<path d="M107.018 277.38C106.916 277.38 106.826 277.304 106.81 277.199C106.777 276.97 103.47 254.133 102.67 241.495C102.473 238.379 101.403 236.249 99.4902 235.163C97.1697 233.844 93.9834 234.289 91.7192 234.893C89.2425 235.555 87.2978 236.548 87.2783 236.558L65.7994 248.693C65.6981 248.75 65.5696 248.715 65.5126 248.613C65.4554 248.512 65.4912 248.384 65.5924 248.326L87.0784 236.187C87.4081 236.018 95.0364 232.149 99.6973 234.796C101.742 235.957 102.883 238.202 103.09 241.468C103.889 254.09 107.194 276.909 107.227 277.138C107.244 277.254 107.164 277.361 107.049 277.377C107.039 277.379 107.028 277.38 107.018 277.38Z" fill="white"/>
<path d="M113.669 299.72H97.2814C94.5513 299.72 92.338 297.506 92.338 294.774V267.326C92.338 264.594 94.5511 262.38 97.2814 262.38H113.669C116.399 262.38 118.613 264.594 118.613 267.326V294.774C118.612 297.506 116.399 299.72 113.669 299.72Z" fill="#7F3E3B"/>
<path d="M128.27 298.754C127.987 298.754 127.744 298.525 127.743 298.242C127.742 297.845 128.035 297.753 128.264 297.73V297.725C128.278 297.725 128.292 297.726 128.305 297.727C128.356 297.724 128.402 297.723 128.439 297.723L131.152 297.699C133.043 297.682 135.817 297.659 139.346 297.629C146.406 297.569 156.491 297.485 168.592 297.385C192.796 297.184 225.068 296.919 257.339 296.653C321.883 296.123 386.426 295.594 386.426 295.594C386.427 295.594 386.429 295.594 386.43 295.594C386.712 295.594 386.941 295.822 386.944 296.104C386.946 296.388 386.718 296.621 386.434 296.623C383.874 296.644 131.409 298.711 128.298 298.753C128.289 298.754 128.279 298.754 128.27 298.754Z" fill="white"/>
<g filter="url(#filter0_di_0_1193)">
<path d="M257.173 314.825C288.874 314.825 314.573 311.444 314.573 307.273C314.573 303.102 288.874 299.72 257.173 299.72C225.472 299.72 199.773 303.102 199.773 307.273C199.773 311.444 225.472 314.825 257.173 314.825Z" fill="#148BE7"/>
</g>
<path d="M264.46 119.282C261.106 111.959 260.255 103.432 247.387 103.882C234.519 103.432 233.668 111.959 230.314 119.282C226.93 126.67 214.164 127.593 214.164 147.602C214.164 166.448 243.929 166.041 247.387 165.93C250.845 166.041 280.61 166.448 280.61 147.602C280.61 127.593 267.844 126.67 264.46 119.282Z" fill="black"/>
<path d="M295.001 174.132L289.73 162.112C287.117 157.034 283.158 152.805 278.377 149.705C273.685 146.663 268.36 144.704 262.935 143.439C260.203 142.802 257.482 142.225 254.67 142.225C252.885 142.225 251.101 142.225 249.316 142.225C247.463 142.225 245.61 142.225 243.757 142.225C241.965 142.225 240.152 142.039 238.37 142.309C236.935 142.527 235.504 142.809 234.083 143.099C231.41 143.644 228.756 144.3 226.161 145.148C221.534 146.66 217.092 148.826 213.371 152.003C210.162 154.744 207.334 158.279 205.533 162.112L199.773 174.376L218.571 180.493L221.865 223.833H272.377L275.577 180.558L295.001 174.132Z" fill="#F54552"/>
<path d="M218.571 180.725C218.558 180.725 218.544 180.724 218.53 180.722C218.404 180.699 218.32 180.579 218.343 180.452L221.91 160.559C221.933 160.433 222.053 160.348 222.179 160.371C222.305 160.394 222.389 160.514 222.367 160.641L218.799 180.534C218.779 180.647 218.681 180.725 218.571 180.725Z" fill="black"/>
<path d="M275.364 180.725C275.262 180.725 275.168 180.657 275.14 180.553L269.878 160.659C269.845 160.535 269.919 160.408 270.043 160.376C270.167 160.343 270.293 160.417 270.326 160.541L275.589 180.434C275.621 180.558 275.548 180.685 275.424 180.718C275.404 180.723 275.384 180.725 275.364 180.725Z" fill="black"/>
<path d="M247.632 149.535C243.551 149.535 240.386 145.538 240.87 140.996L241.783 132.431H253.481L254.394 140.996C254.879 145.539 251.714 149.535 247.632 149.535Z" fill="url(#paint0_linear_0_1193)"/>
<path d="M254.423 120.562C249.431 120.562 246.398 118.87 244.563 116.636C245.261 118.8 246.172 120.562 246.172 120.562C243.031 118.66 242.002 115.625 241.665 113.892C239.714 115.243 238.434 117.494 238.434 120.047V122.191C238.359 122.185 238.286 122.169 238.209 122.169C236.735 122.169 235.541 123.364 235.541 124.838C235.541 126.313 236.735 127.508 238.209 127.508C238.286 127.508 238.359 127.492 238.434 127.486V127.794C238.434 132.94 242.49 138.687 247.632 138.687C252.775 138.687 257.056 132.94 257.056 127.794V127.508C258.53 127.508 259.724 126.313 259.724 124.838C259.724 123.364 258.53 122.168 257.056 122.168V120.362C256.273 120.487 255.405 120.562 254.423 120.562Z" fill="url(#paint1_linear_0_1193)"/>
<path d="M200.789 204.07L199.978 203.805C196.275 202.594 194.254 198.608 195.465 194.903L201.941 175.075L216.161 179.726L209.685 199.554C208.475 203.259 204.492 205.281 200.789 204.07Z" fill="#FA6964"/>
<path d="M235.597 202.216L202.94 205.009C198.656 205.376 194.976 201.995 194.976 197.692V197.398C194.976 195.358 194.976 190.922 200.408 190.405L235.597 189.981V202.216H235.597Z" fill="url(#paint2_linear_0_1193)"/>
<path d="M294.184 203.746L294.995 203.481C298.698 202.27 300.719 198.284 299.508 194.579L293.032 174.751L278.812 179.403L285.288 199.23C286.498 202.936 290.481 204.957 294.184 203.746Z" fill="#FA6964"/>
<path d="M259.376 201.893L292.033 204.686C296.317 205.052 299.997 201.671 299.997 197.368V197.075C299.997 195.035 299.997 190.599 294.565 190.082L259.376 189.658L259.376 201.893Z" fill="url(#paint3_linear_0_1193)"/>
<path d="M233.694 306.099L221.351 304.435L219.744 264.475L238.389 271.244L233.694 306.099Z" fill="url(#paint4_linear_0_1193)"/>
<path d="M233.743 308.547C234.575 308.66 235.311 308.003 235.299 307.163C235.226 301.99 231.38 297.511 226.102 296.799C220.824 296.087 215.929 299.388 214.491 304.357C214.257 305.164 214.792 305.992 215.624 306.104L233.743 308.547Z" fill="black"/>
<path d="M251.111 214.244L240.717 284.331L217.116 283.992C217.116 283.992 204.056 185.888 242.169 199.226C248.384 201.401 252.144 207.738 251.111 214.244Z" fill="#050542"/>
<path d="M274.213 306.304L286.281 303.222L283.882 266.534L265.521 272.226L274.213 306.304Z" fill="url(#paint5_linear_0_1193)"/>
<path d="M275.191 307.102C274.377 307.31 273.571 306.743 273.486 305.907C272.96 300.76 276.263 295.866 281.423 294.548C286.583 293.23 291.826 295.942 293.829 300.712C294.155 301.486 293.719 302.37 292.905 302.578L275.191 307.102Z" fill="black"/>
<path d="M246.296 217.081L265.521 284.161L286.992 281.699C286.992 281.699 289.757 183.469 253.442 201.129C247.52 204.009 244.518 210.738 246.296 217.081Z" fill="#050542"/>
<path d="M274.017 213.03H221.647C220.662 213.03 219.838 212.278 219.747 211.296L215.77 168.373C215.666 167.253 216.547 166.287 217.67 166.287H278.751C279.888 166.287 280.773 167.275 280.648 168.406L275.914 211.329C275.808 212.297 274.99 213.03 274.017 213.03Z" fill="#BBE0F8"/>
<path d="M253.266 191.415C254.233 188.64 252.768 185.605 249.994 184.637C247.221 183.669 244.188 185.135 243.221 187.911C242.254 190.687 243.719 193.721 246.493 194.689C249.266 195.657 252.299 194.191 253.266 191.415Z" fill="#72C4F4"/>
<path d="M277.901 167.433H218.385V167.931H277.901V167.433Z" fill="#72C4F4"/>
<path d="M249.346 228.101C249.198 228.101 249.062 228.004 249.018 227.854L245.459 215.488C245.407 215.307 245.511 215.118 245.693 215.065C245.874 215.014 246.063 215.118 246.115 215.299L249.674 227.665C249.727 227.846 249.622 228.036 249.441 228.088C249.409 228.097 249.378 228.101 249.346 228.101Z" fill="#BBE0F8"/>
<path d="M380.728 36.8604H287.65C284.089 36.8604 281.202 39.7493 281.202 43.3127V105.494C281.202 109.058 284.089 111.947 287.65 111.947H304.919L302.534 128.753C302.092 131.865 305.811 133.796 308.1 131.645L329.051 111.947H380.728C384.289 111.947 387.176 109.058 387.176 105.494V43.3127C387.176 39.7491 384.289 36.8604 380.728 36.8604Z" fill="#72C4F4"/>
<path d="M347.893 99.4126H360.459V49.9002H347.893V99.4126Z" fill="#407BFF"/>
<path d="M327.098 99.168H339.663V67.0093H327.098V99.168Z" fill="#407BFF"/>
<path d="M307.92 99.168H320.485V82.6914H307.92V99.168Z" fill="#407BFF"/>
<path d="M376.622 52.8093L364.847 60.6998L368.194 63.4301C362.502 70.0919 355.443 75.7601 347.164 80.3037C339.658 84.4225 331.139 87.6351 321.842 89.8518C305.965 93.6381 293.167 93.1945 293.039 93.1895C292.354 93.1617 291.783 93.6945 291.757 94.3766C291.731 95.0585 292.261 95.6328 292.943 95.6595C293.05 95.6638 293.649 95.685 294.671 95.685C298.723 95.685 309.413 95.3488 322.346 92.2726C331.869 90.0078 340.606 86.7166 348.315 82.491C356.892 77.7891 364.207 71.9104 370.108 64.9918L374.142 68.2822L376.622 52.8093Z" fill="#BBE0F8"/>
<path d="M324.108 49.0059H292.811C292.229 49.0059 291.756 48.5333 291.756 47.9502V45.9845C291.756 45.4014 292.228 44.9287 292.811 44.9287H324.108C324.691 44.9287 325.163 45.4014 325.163 45.9845V47.9502C325.163 48.5331 324.691 49.0059 324.108 49.0059Z" fill="#188EF8"/>
<path d="M308.914 54.8478H292.529C292.102 54.8478 291.756 54.5015 291.756 54.0743V51.5442C291.756 51.1171 292.102 50.7708 292.529 50.7708H308.914C309.341 50.7708 309.687 51.1171 309.687 51.5442V54.0743C309.687 54.5013 309.341 54.8478 308.914 54.8478Z" fill="#188EF8"/>
<path d="M299.452 60.6893H292.279C291.99 60.6893 291.756 60.4549 291.756 60.1656V57.136C291.756 56.8467 291.99 56.6123 292.279 56.6123H299.452C299.741 56.6123 299.975 56.8467 299.975 57.136V60.1656C299.975 60.4549 299.741 60.6893 299.452 60.6893Z" fill="#188EF8"/>
<defs>
<filter id="filter0_di_0_1193" x="191.649" y="291.596" width="131.048" height="31.3529" filterUnits="userSpaceOnUse" color-interpolation-filters="sRGB">
<feFlood flood-opacity="0" result="BackgroundImageFix"/>
<feColorMatrix in="SourceAlpha" type="matrix" values="0 0 0 0 0 0 0 0 0 0 0 0 0 0 0 0 0 0 127 0" result="hardAlpha"/>
<feOffset/>
<feGaussianBlur stdDeviation="4.06204"/>
<feComposite in2="hardAlpha" operator="out"/>
<feColorMatrix type="matrix" values="0 0 0 0 0.0745098 0 0 0 0 0.509804 0 0 0 0 0.85098 0 0 0 0.4 0"/>
<feBlend mode="normal" in2="BackgroundImageFix" result="effect1_dropShadow_0_1193"/>
<feBlend mode="normal" in="SourceGraphic" in2="effect1_dropShadow_0_1193" result="shape"/>
<feColorMatrix in="SourceAlpha" type="matrix" values="0 0 0 0 0 0 0 0 0 0 0 0 0 0 0 0 0 0 127 0" result="hardAlpha"/>
<feOffset dx="-1.84638" dy="-1.84638"/>
<feGaussianBlur stdDeviation="4.24667"/>
<feComposite in2="hardAlpha" operator="arithmetic" k2="-1" k3="1"/>
<feColorMatrix type="matrix" values="0 0 0 0 0 0 0 0 0 0 0 0 0 0 0 0 0 0 0.3 0"/>
<feBlend mode="normal" in2="shape" result="effect2_innerShadow_0_1193"/>
</filter>
<linearGradient id="paint0_linear_0_1193" x1="247.632" y1="153.86" x2="247.632" y2="132.669" gradientUnits="userSpaceOnUse">
<stop stop-color="#FFACAA"/>
<stop offset="0.1451" stop-color="#FFA6A5"/>
<stop offset="0.3295" stop-color="#FE9795"/>
<stop offset="0.5344" stop-color="#FC7F7B"/>
<stop offset="0.6641" stop-color="#FB6B67"/>
</linearGradient>
<linearGradient id="paint1_linear_0_1193" x1="247.182" y1="150.36" x2="247.783" y2="116.333" gradientUnits="userSpaceOnUse">
<stop stop-color="#FFACAA"/>
<stop offset="0.9501" stop-color="#FB6B67"/>
</linearGradient>
<linearGradient id="paint2_linear_0_1193" x1="243.82" y1="192.02" x2="175.254" y2="203.371" gradientUnits="userSpaceOnUse">
<stop offset="0.1634" stop-color="#FFACAC"/>
<stop offset="0.2975" stop-color="#FEA5A5"/>
<stop offset="0.4918" stop-color="#FD9391"/>
<stop offset="0.7218" stop-color="#FB7672"/>
<stop offset="0.8101" stop-color="#FA6964"/>
</linearGradient>
<linearGradient id="paint3_linear_0_1193" x1="264.761" y1="194.033" x2="306.272" y2="200.637" gradientUnits="userSpaceOnUse">
<stop offset="0.1634" stop-color="#FFACAC"/>
<stop offset="0.2975" stop-color="#FEA5A5"/>
<stop offset="0.4918" stop-color="#FD9391"/>
<stop offset="0.7218" stop-color="#FB7672"/>
<stop offset="0.8101" stop-color="#FA6964"/>
</linearGradient>
<linearGradient id="paint4_linear_0_1193" x1="216.834" y1="349.337" x2="229.176" y2="269.474" gradientUnits="userSpaceOnUse">
<stop offset="0.2964" stop-color="#FFACAA"/>
<stop offset="0.5407" stop-color="#FFA9A8"/>
<stop offset="0.6877" stop-color="#FEA1A0"/>
<stop offset="0.8089" stop-color="#FD9491"/>
<stop offset="0.9154" stop-color="#FC807D"/>
<stop offset="1" stop-color="#FB6B67"/>
</linearGradient>
<linearGradient id="paint5_linear_0_1193" x1="294.849" y1="343.745" x2="275.124" y2="272.282" gradientUnits="userSpaceOnUse">
<stop offset="0.2964" stop-color="#FFACAA"/>
<stop offset="0.5407" stop-color="#FFA9A8"/>
<stop offset="0.6877" stop-color="#FEA1A0"/>
<stop offset="0.8089" stop-color="#FD9491"/>
<stop offset="0.9154" stop-color="#FC807D"/>
<stop offset="1" stop-color="#FB6B67"/>
</linearGradient>
</defs>
</svg>
