<svg width="504" height="401" viewBox="0 0 504 401" fill="none" xmlns="http://www.w3.org/2000/svg">
<path d="M0 12.8603C0 6.23292 5.37258 0.860352 12 0.860352H492C498.627 0.860352 504 6.23293 504 12.8604V388.86C504 395.488 498.627 400.86 492 400.86H12C5.3726 400.86 0 395.488 0 388.86V12.8603Z" fill="#101215"/>
<path d="M0.5 12.8603C0.5 6.50907 5.64873 1.36035 12 1.36035H492C498.351 1.36035 503.5 6.50908 503.5 12.8604V388.86C503.5 395.212 498.351 400.36 492 400.36H12C5.64874 400.36 0.5 395.212 0.5 388.86V12.8603Z" stroke="white" stroke-opacity="0.05"/>
<path d="M332.666 354.042H324.239V354.284H332.666V354.042Z" fill="#EBEBEB"/>
<path d="M119.058 344.036H112.918V344.279H119.058V344.036Z" fill="#EBEBEB"/>
<path d="M105.511 228.074H76.96V258.467H105.511V228.074Z" fill="#B3CAFF"/>
<path d="M76.9601 228.074H69.6462V258.467H76.9601V228.074Z" fill="#264A99"/>
<path d="M112.998 223.386H91.5497V258.467H112.998V223.386Z" fill="#6090FF"/>
<path d="M91.5595 223.386H85.3587V258.467H91.5595V223.386Z" fill="#264A99"/>
<path d="M115.953 228.074H97.87V258.467H115.953V228.074Z" fill="#B3CAFF"/>
<path d="M97.8699 228.074H93.739V258.467H97.8699V228.074Z" fill="#264A99"/>
<path d="M60 267.248H235.554V258.45H60V267.248Z" fill="#D9E5FF"/>
<path d="M136.389 233.217H112.67V258.467H136.389V233.217Z" fill="#6090FF"/>
<path d="M112.67 233.217H106.596V258.467H112.67V233.217Z" fill="#264A99"/>
<path d="M142.607 229.323H124.789V258.468H142.607V229.323Z" fill="#B3CAFF"/>
<path d="M124.797 229.323H119.646V258.468H124.797V229.323Z" fill="#264A99"/>
<path d="M148.332 233.217H129.982V258.467H148.332V233.217Z" fill="#6090FF"/>
<path d="M130.033 233.217H126.604V258.467H130.033V233.217Z" fill="#264A99"/>
<path d="M392.091 54.5881H370.643V89.669H392.091V54.5881Z" fill="#B3CAFF"/>
<path d="M370.652 54.5881H364.451V89.669H370.652V54.5881Z" fill="#264A99"/>
<path d="M399.892 59.2759H381.809V89.6693H399.892V59.2759Z" fill="#6090FF"/>
<path d="M381.809 59.2759H377.678V89.6693H381.809V59.2759Z" fill="#264A99"/>
<path d="M269.289 98.4495L444.843 98.4495V89.6523L269.289 89.6523V98.4495Z" fill="#D9E5FF"/>
<path d="M422.267 64.4187H398.549V89.669H422.267V64.4187Z" fill="#B3CAFF"/>
<path d="M398.55 64.4187H392.476V89.669H398.55V64.4187Z" fill="#264A99"/>
<path d="M428.486 60.5249H410.668V89.6696H428.486V60.5249Z" fill="#B3CAFF"/>
<path d="M410.677 60.5249H405.525V89.6696H410.677V60.5249Z" fill="#264A99"/>
<path d="M434.211 64.4187H416.903V89.669H434.211V64.4187Z" fill="#6090FF"/>
<path d="M416.909 64.4187H412.483V89.669H416.909V64.4187Z" fill="#264A99"/>
<path d="M376.263 123.97C374.527 123.97 373.12 125.377 373.12 127.113C373.12 128.849 374.527 130.256 376.263 130.256C377.998 130.256 379.406 128.85 379.406 127.113C379.405 125.378 377.998 123.97 376.263 123.97ZM376.263 129.499C374.946 129.499 373.877 128.431 373.877 127.113C373.877 125.796 374.946 124.727 376.263 124.727C377.581 124.727 378.649 125.796 378.649 127.113C378.649 128.431 377.581 129.499 376.263 129.499Z" fill="white"/>
<path d="M349.16 134.995L348.916 181.948L403.339 182.231L403.583 135.278L349.16 134.995Z" fill="#188EF8"/>
<path opacity="0.4" d="M349.16 134.995L348.916 181.948L403.339 182.231L403.583 135.278L349.16 134.995Z" fill="white"/>
<path d="M349.162 135.023L403.585 135.306L403.631 126.521L349.208 126.238L349.162 135.023Z" fill="#188EF8"/>
<path d="M347.341 180.637L401.764 180.922L403.598 135.293L349.175 135.008L347.341 180.637Z" fill="white"/>
<path d="M361.277 146.283L388.218 146.424L388.54 138.394L361.6 138.252L361.277 146.283Z" fill="#188EF8"/>
<path d="M392.336 156.821L399.531 156.858L399.82 149.664L392.625 149.627L392.336 156.821Z" fill="#188EF8"/>
<path d="M382.128 156.767L389.324 156.805L389.613 149.611L382.417 149.573L382.128 156.767Z" fill="#188EF8"/>
<path d="M391.947 166.524L399.141 166.561L399.43 159.367L392.235 159.329L391.947 166.524Z" fill="#188EF8"/>
<path d="M391.556 176.228L398.751 176.265L399.04 169.071L391.846 169.033L391.556 176.228Z" fill="#148BE7" fill-opacity="0.3"/>
<path d="M381.739 166.47L388.934 166.508L389.223 159.313L382.028 159.276L381.739 166.47Z" fill="#188EF8"/>
<path d="M371.531 166.416L378.727 166.454L379.016 159.26L371.821 159.222L371.531 166.416Z" fill="#188EF8"/>
<path d="M361.324 166.363L368.52 166.401L368.809 159.207L361.613 159.169L361.324 166.363Z" fill="#188EF8"/>
<path d="M351.117 166.31L358.312 166.348L358.601 159.153L351.405 159.116L351.117 166.31Z" fill="#188EF8"/>
<path d="M381.349 176.173L388.545 176.211L388.833 169.017L381.638 168.979L381.349 176.173Z" fill="#148BE7" fill-opacity="0.3"/>
<path d="M371.141 176.12L378.337 176.157L378.626 168.964L371.43 168.926L371.141 176.12Z" fill="#148BE7" fill-opacity="0.3"/>
<path d="M360.934 176.066L368.13 176.104L368.419 168.911L361.223 168.873L360.934 176.066Z" fill="#188EF8"/>
<path d="M371.922 156.713L379.116 156.751L379.405 149.557L372.21 149.519L371.922 156.713Z" fill="#148BE7" fill-opacity="0.3"/>
<path d="M361.714 156.66L368.91 156.697L369.199 149.504L362.003 149.466L361.714 156.66Z" fill="#148BE7" fill-opacity="0.3"/>
<path d="M351.507 156.606L358.702 156.644L358.991 149.45L351.796 149.412L351.507 156.606Z" fill="#148BE7" fill-opacity="0.3"/>
<path d="M350.727 176.013L357.923 176.051L358.211 168.856L351.016 168.819L350.727 176.013Z" fill="#188EF8"/>
<path d="M227.526 63.8887H68.6932V160.673H227.526V63.8887Z" fill="#188EF8"/>
<path d="M228.706 63.8506H227.543V160.634H228.706V63.8506Z" fill="#0B0639"/>
<path d="M74.4616 68.0938H73.5018V155.183H74.4616V68.0938Z" fill="white"/>
<path opacity="0.8" d="M222.351 68.0938H73.406V155.183H222.351V68.0938Z" fill="white"/>
<path d="M174.233 97.1157H161.96V114.746H174.233V97.1157Z" fill="#87C4FB"/>
<path d="M92.8547 125.048H80.581V142.678H92.8547V125.048Z" fill="#87C4FB"/>
<path d="M91.6574 88.282H79.3837V100.556H91.6574V88.282Z" fill="#87C4FB"/>
<path d="M152.713 130.667H140.439V142.941H152.713V130.667Z" fill="#87C4FB"/>
<path d="M212.993 98.6338H181.562V142.804H212.993V98.6338Z" fill="white"/>
<path d="M208.443 105.029H185.867V105.514H208.443V105.029Z" fill="#188EF8"/>
<path d="M197.397 105.502H196.912V138.215H197.397V105.502Z" fill="#188EF8"/>
<path d="M207.764 105.502H207.28V138.215H207.764V105.502Z" fill="#188EF8"/>
<path d="M188.182 105.502H187.697V138.215H188.182V105.502Z" fill="#188EF8"/>
<path d="M186.569 105.502H186.085V138.215H186.569V105.502Z" fill="#188EF8"/>
<path d="M207.291 107.227H186.327V107.712H207.291V107.227Z" fill="#188EF8"/>
<path d="M130.423 85.3059V89.4524H140.099V85.3059H130.423Z" fill="#F5F5F5"/>
<path d="M132.314 116.531V119.756H141.99V116.531H132.314Z" fill="#0D5C9B"/>
<path opacity="0.4" d="M133.884 83.9458H102.454V128.116H133.884V83.9458Z" fill="#188EF8"/>
<path d="M130.145 123.672V126.897H139.82V123.672H130.145Z" fill="#188EF8"/>
<path d="M131.758 94.1459V97.3713H141.433V94.1459H131.758Z" fill="#188EF8"/>
<path d="M129.636 102.161V105.387H139.312V102.161H129.636Z" fill="#0D62A5"/>
<path d="M127.582 89.376H106.157V93.1773H127.582V89.376Z" fill="#188EF8"/>
<path d="M127.928 105.617H106.503L106.157 103.889H127.582L127.928 105.617Z" fill="#188EF8"/>
<path d="M113.76 96.9778H106.157V100.779H113.76V96.9778Z" fill="#188EF8"/>
<g filter="url(#filter0_di_0_1298)">
<path d="M249.249 375.861C353.064 375.861 437.222 370.946 437.222 364.883C437.222 358.82 353.064 353.906 249.249 353.906C145.435 353.906 61.2766 358.82 61.2766 364.883C61.2766 370.946 145.435 375.861 249.249 375.861Z" fill="#148BE7"/>
</g>
<path d="M257.121 130.009L246.941 143.286H205.453L215.637 130.009H244.685H251.886H257.121Z" fill="#407BFF"/>
<g opacity="0.4">
<path d="M257.121 130.009L246.941 143.286H205.453L215.637 130.009H244.685H251.886H257.121Z" fill="white"/>
</g>
<path d="M205.593 143.284H247.081L237.932 118.147H196.444L205.593 143.284Z" fill="#407BFF"/>
<g opacity="0.6">
<path d="M205.593 143.284H247.081L237.932 118.147H196.444L205.593 143.284Z" fill="white"/>
</g>
<path d="M221.272 119.014H232.343L229.153 115.978H222.253L221.272 119.014Z" fill="#407BFF"/>
<path opacity="0.6" d="M221.272 119.014H232.343L229.153 115.978H222.253L221.272 119.014Z" fill="white"/>
<path d="M345.273 228.331H344.943C344.542 228.331 344.269 228.006 344.332 227.605L347.234 209.278C347.297 208.877 347.675 208.552 348.075 208.552H348.406H392.956L389.824 228.33L345.273 228.331Z" fill="#263238"/>
<path opacity="0.5" d="M345.273 228.331H344.943C344.542 228.331 344.269 228.006 344.332 227.605L347.234 209.278C347.297 208.877 347.675 208.552 348.075 208.552H348.406H392.956L389.824 228.33L345.273 228.331Z" fill="white"/>
<path d="M389.66 228.331C390.152 228.331 390.613 227.933 390.692 227.44L393.542 209.443C393.62 208.951 393.284 208.552 392.793 208.552C392.301 208.552 391.839 208.951 391.761 209.443L388.911 227.44C388.832 227.932 389.167 228.331 389.66 228.331Z" fill="#263238"/>
<path opacity="0.2" d="M389.66 228.331C390.152 228.331 390.613 227.933 390.692 227.44L393.542 209.443C393.62 208.951 393.284 208.552 392.793 208.552C392.301 208.552 391.839 208.951 391.761 209.443L388.911 227.44C388.832 227.932 389.167 228.331 389.66 228.331Z" fill="white"/>
<path d="M327.603 252.87H385.27L381.975 223.715H328.257C326.152 223.715 324.516 225.546 324.752 227.639L327.603 252.87Z" fill="#407BFF"/>
<path opacity="0.2" d="M328.257 223.715H381.037V226.995H324.741C324.867 225.185 326.371 223.715 328.257 223.715Z" fill="white"/>
<path d="M379.023 252.871H394.811V226.667C394.811 225.038 393.49 223.716 391.86 223.716H379.677C377.572 223.716 375.935 225.548 376.172 227.64L379.023 252.871Z" fill="#407BFF"/>
<path opacity="0.4" d="M379.023 252.871H394.811V226.667C394.811 225.038 393.49 223.716 391.86 223.716H379.677C377.572 223.716 375.935 225.548 376.172 227.64L379.023 252.871Z" fill="black"/>
<path d="M331.25 251.853L330.207 242.629H373.53L374.572 251.853H331.25Z" fill="#263238"/>
<path d="M313.079 251.853H356.988V250.371H313.079C312.759 250.371 312.5 250.629 312.5 250.949V251.274C312.5 251.594 312.759 251.853 313.079 251.853Z" fill="#263238"/>
<path opacity="0.1" d="M313.079 251.853H356.988V250.371H313.079C312.759 250.371 312.5 250.629 312.5 250.949V251.274C312.5 251.594 312.759 251.853 313.079 251.853Z" fill="white"/>
<path d="M331.082 250.37H319.239C319.239 248.642 320.639 247.241 322.368 247.241H330.728L331.082 250.37Z" fill="#263238"/>
<path opacity="0.3" d="M331.082 250.37H319.239C319.239 248.642 320.639 247.241 322.368 247.241H330.728L331.082 250.37Z" fill="white"/>
<path opacity="0.1" d="M382.639 223.715H355.716L357.543 208.552H384.467L382.639 223.715Z" fill="black"/>
<path d="M355.562 250.37H358.901C358.901 248.642 360.302 247.241 362.03 247.241H374.052L374.406 250.37L374.573 251.853H355.563C355.252 251.853 355 251.601 355 251.291V250.933C354.999 250.623 355.251 250.37 355.562 250.37Z" fill="#263238"/>
<path opacity="0.3" d="M355.562 250.37H358.901C358.901 248.642 360.302 247.241 362.03 247.241H374.052L374.406 250.37L374.573 251.853H355.563C355.252 251.853 355 251.601 355 251.291V250.933C354.999 250.623 355.251 250.37 355.562 250.37Z" fill="white"/>
<path d="M353.265 223.715H380.188L383.432 203.233H356.509L353.265 223.715Z" fill="#407BFF"/>
<path opacity="0.9" d="M353.265 223.715H380.188L383.432 203.233H356.509L353.265 223.715Z" fill="white"/>
<path d="M369.593 225.827H331.134C331.677 224.593 332.907 223.715 334.364 223.715H372.823C371.366 223.715 370.135 224.592 369.593 225.827Z" fill="#407BFF"/>
<path opacity="0.5" d="M369.593 225.827H331.134C331.677 224.593 332.907 223.715 334.364 223.715H372.823C371.366 223.715 370.135 224.592 369.593 225.827Z" fill="white"/>
<path d="M309.973 358.868V282.015H341.193V358.868C341.193 362.428 338.297 365.323 334.737 365.323H316.43C312.869 365.323 309.973 362.428 309.973 358.868Z" fill="#407BFF"/>
<g opacity="0.5">
<path d="M309.973 282.012V358.871C309.973 361.452 311.497 363.694 313.7 364.72C314.527 365.109 315.454 365.328 316.43 365.328H334.733C338.3 365.328 341.19 362.428 341.19 358.871V282.012H309.973Z" fill="white"/>
</g>
<path d="M384.537 365.226C380.422 365.226 377.086 361.89 377.086 357.776V288.153H384.537V365.226Z" fill="#407BFF"/>
<path opacity="0.8" d="M384.537 365.226C380.422 365.226 377.086 361.89 377.086 357.776V288.153H384.537V365.226Z" fill="white"/>
<path d="M313.699 288.15V364.72C311.498 363.693 309.973 361.452 309.973 358.871V288.149H313.699V288.15Z" fill="#407BFF"/>
<path opacity="0.8" d="M313.699 288.15V364.72C311.498 363.693 309.973 361.452 309.973 358.871V288.149H313.699V288.15Z" fill="white"/>
<path d="M381.003 358.868V282.015H412.222V358.868C412.222 362.428 409.326 365.323 405.767 365.323H387.46C383.9 365.323 381.003 362.428 381.003 358.868Z" fill="#407BFF"/>
<path d="M309.888 288.153H385.98V259.57H309.888V288.153Z" fill="#407BFF"/>
<path opacity="0.8" d="M309.888 288.153H385.98V259.57H309.888V288.153Z" fill="white"/>
<path d="M381.019 288.153H412.207V259.57H381.019V288.153Z" fill="#407BFF"/>
<path opacity="0.7" d="M412.219 282.012V358.871C412.219 362.428 409.33 365.328 405.763 365.328H387.46C383.903 365.328 381.003 362.428 381.003 358.871V282.012H381.013V259.574H412.209V282.012H412.219Z" fill="white"/>
<path d="M306.025 261.355H380.346V253.021H306.025V261.355Z" fill="#407BFF"/>
<path opacity="0.9" d="M306.025 261.355H380.346V253.021H306.025V261.355Z" fill="white"/>
<path d="M379.193 261.355H416.071V253.021H379.193V261.355Z" fill="#407BFF"/>
<path opacity="0.8" d="M379.193 261.355H416.071V253.021H379.193V261.355Z" fill="white"/>
<path d="M316.006 282.558H374.913V266.119H316.006V282.558Z" fill="#407BFF"/>
<path opacity="0.6" d="M316.006 282.558H374.913V266.119H316.006V282.558Z" fill="white"/>
<path d="M341.474 274.62C340.218 274.62 339.2 273.602 339.2 272.345C339.2 271.089 340.218 270.071 341.474 270.071H344.463C345.718 270.071 346.737 271.089 346.737 272.345C346.737 273.602 345.719 274.62 344.463 274.62H341.474Z" fill="#407BFF"/>
<path opacity="0.3" d="M341.474 274.62C340.218 274.62 339.2 273.602 339.2 272.345C339.2 271.089 340.218 270.071 341.474 270.071H344.463C345.718 270.071 346.737 271.089 346.737 272.345C346.737 273.602 345.719 274.62 344.463 274.62H341.474Z" fill="white"/>
<path d="M339.2 272.345C339.2 273.602 340.218 274.62 341.474 274.62C342.73 274.62 343.748 273.602 343.748 272.345C343.748 271.089 342.73 270.071 341.474 270.071C340.218 270.071 339.2 271.09 339.2 272.345Z" fill="#407BFF"/>
<path opacity="0.9" d="M339.2 272.345C339.2 273.602 340.218 274.62 341.474 274.62C342.73 274.62 343.748 273.602 343.748 272.345C343.748 271.089 342.73 270.071 341.474 270.071C340.218 270.071 339.2 271.09 339.2 272.345Z" fill="white"/>
<path d="M309.858 162.927L306.253 204.999C306.207 205.541 305.73 205.981 305.188 205.982L266.279 206.052C265.737 206.053 265.335 205.615 265.382 205.073L270.071 150.348C270.118 149.806 270.595 149.366 271.137 149.365L297.354 149.318L309.858 162.927Z" fill="#407BFF"/>
<g opacity="0.6">
<path d="M309.858 162.927L306.253 204.999C306.207 205.541 305.73 205.981 305.188 205.982L266.279 206.052C265.737 206.053 265.335 205.615 265.382 205.073L270.071 150.348C270.118 149.806 270.595 149.366 271.137 149.365L297.354 149.318L309.858 162.927Z" fill="white"/>
</g>
<path opacity="0.2" d="M301.915 173.952L274.446 174.084C274.018 174.086 273.643 174.434 273.607 174.862L273.587 175.113C273.551 175.54 273.869 175.886 274.297 175.883L301.767 175.751C302.194 175.749 302.569 175.401 302.605 174.973L302.627 174.722C302.661 174.296 302.343 173.95 301.915 173.952Z" fill="black"/>
<path opacity="0.2" d="M301.307 181.3L273.838 181.432C273.41 181.434 273.035 181.782 272.999 182.209L272.979 182.461C272.944 182.888 273.262 183.233 273.689 183.231L301.159 183.099C301.586 183.097 301.962 182.749 301.997 182.322L302.018 182.071C302.053 181.643 301.735 181.298 301.307 181.3Z" fill="black"/>
<path opacity="0.2" d="M300.699 188.648L273.23 188.78C272.802 188.782 272.427 189.13 272.391 189.557L272.371 189.808C272.336 190.236 272.654 190.58 273.082 190.578L300.551 190.446C300.979 190.444 301.354 190.096 301.39 189.669L301.41 189.417C301.445 188.99 301.127 188.646 300.699 188.648Z" fill="black"/>
<path d="M297.377 149.289L296.289 161.979C296.243 162.521 296.644 162.96 297.186 162.959L309.84 162.935L297.377 149.289Z" fill="#407BFF"/>
<path opacity="0.8" d="M297.377 149.289L296.289 161.979C296.243 162.521 296.644 162.96 297.186 162.959L309.84 162.935L297.377 149.289Z" fill="white"/>
<path d="M290.867 208.711H262.171L263.349 195.239H292.046L290.867 208.711Z" fill="#407BFF"/>
<path d="M273.879 203.869L273.114 202.551L272.131 203.869H270.759L272.494 201.719L271.197 199.619H272.55L273.293 200.845L274.237 199.619H275.536L273.876 201.671L275.262 203.869H273.879Z" fill="white"/>
<path d="M275.917 199.62H277.119L276.831 202.916H278.858L278.774 203.869H275.546L275.917 199.62Z" fill="white"/>
<path d="M278.975 203.486L279.447 202.6C279.802 202.848 280.321 203.019 280.812 203.019C281.31 203.019 281.516 202.879 281.534 202.672C281.594 201.999 279.135 202.49 279.274 200.912C279.34 200.153 280.012 199.534 281.275 199.534C281.827 199.534 282.387 199.661 282.783 199.904L282.335 200.796C281.947 200.578 281.557 200.469 281.186 200.469C280.683 200.469 280.485 200.638 280.467 200.852C280.411 201.501 282.862 201.016 282.725 202.581C282.66 203.322 281.986 203.954 280.724 203.954C280.027 203.953 279.351 203.765 278.975 203.486Z" fill="white"/>
<path d="M325.664 80.2713L322.059 122.344C322.012 122.886 321.535 123.326 320.993 123.327L282.084 123.397C281.542 123.398 281.141 122.96 281.187 122.418L285.877 67.6932C285.923 67.1512 286.4 66.7111 286.942 66.7101L313.159 66.6626L325.664 80.2713Z" fill="#407BFF"/>
<g opacity="0.6">
<path d="M325.664 80.2713L322.059 122.344C322.012 122.886 321.535 123.326 320.993 123.327L282.084 123.397C281.542 123.398 281.141 122.96 281.187 122.418L285.877 67.6932C285.923 67.1512 286.4 66.7111 286.942 66.7101L313.159 66.6626L325.664 80.2713Z" fill="white"/>
</g>
<path opacity="0.2" d="M317.721 91.2976L290.252 91.4295C289.824 91.4314 289.449 91.7794 289.413 92.207L289.393 92.4581C289.358 92.8856 289.675 93.2308 290.104 93.2288L317.573 93.097C318.001 93.095 318.376 92.747 318.412 92.3194L318.433 92.0684C318.467 91.6408 318.149 91.2957 317.721 91.2976Z" fill="black"/>
<path opacity="0.2" d="M317.114 98.6455L289.644 98.7774C289.217 98.7793 288.841 99.1274 288.806 99.5549L288.785 99.806C288.75 100.234 289.068 100.579 289.496 100.576L316.965 100.444C317.393 100.442 317.768 100.094 317.804 99.6664L317.824 99.4153C317.859 98.9887 317.541 98.6436 317.114 98.6455Z" fill="black"/>
<path opacity="0.2" d="M316.506 105.993L289.036 106.125C288.609 106.127 288.233 106.475 288.198 106.902L288.177 107.153C288.142 107.581 288.46 107.926 288.888 107.924L316.357 107.792C316.785 107.79 317.16 107.442 317.196 107.015L317.216 106.764C317.252 106.336 316.934 105.991 316.506 105.993Z" fill="black"/>
<path d="M313.183 66.634L312.095 79.3246C312.049 79.8666 312.45 80.3048 312.992 80.3038L325.646 80.2815L313.183 66.634Z" fill="#407BFF"/>
<path opacity="0.8" d="M313.183 66.634L312.095 79.3246C312.049 79.8666 312.45 80.3048 312.992 80.3038L325.646 80.2815L313.183 66.634Z" fill="white"/>
<path d="M306.674 126.057H277.977L279.156 112.585H307.852L306.674 126.057Z" fill="#407BFF"/>
<path d="M284.032 116.964H286.041C287.449 116.964 288.343 117.784 288.228 119.088C288.114 120.393 287.078 121.213 285.67 121.213H283.661L284.032 116.964ZM285.704 120.255C286.426 120.255 286.95 119.823 287.014 119.089C287.078 118.355 286.63 117.924 285.908 117.924H285.149L284.946 120.255H285.704Z" fill="white"/>
<path d="M288.645 119.089C288.757 117.814 289.84 116.879 291.199 116.879C292.558 116.879 293.478 117.814 293.367 119.089C293.255 120.364 292.172 121.298 290.813 121.298C289.453 121.298 288.534 120.364 288.645 119.089ZM292.152 119.089C292.216 118.354 291.755 117.874 291.112 117.874C290.468 117.874 289.923 118.354 289.858 119.089C289.794 119.824 290.256 120.303 290.898 120.303C291.543 120.303 292.088 119.824 292.152 119.089Z" fill="white"/>
<path d="M293.785 119.089C293.898 117.796 294.967 116.879 296.314 116.879C297.097 116.879 297.703 117.164 298.071 117.68L297.246 118.372C297.006 118.051 296.694 117.874 296.288 117.874C295.59 117.874 295.063 118.36 294.999 119.089C294.935 119.817 295.378 120.303 296.076 120.303C296.482 120.303 296.825 120.127 297.121 119.805L297.825 120.498C297.367 121.013 296.711 121.298 295.928 121.298C294.581 121.298 293.671 120.382 293.785 119.089Z" fill="white"/>
<path d="M300.909 121.214L300.144 119.896L299.161 121.214H297.79L299.525 119.065L298.228 116.965H299.581L300.324 118.19L301.269 116.965H302.567L300.907 119.016L302.293 121.214H300.909Z" fill="white"/>
<path d="M255.096 39.4978L251.49 81.5707C251.444 82.1126 250.967 82.5528 250.425 82.5537L211.515 82.6235C210.973 82.6245 210.572 82.1863 210.619 81.6444L215.308 26.9197C215.354 26.3778 215.831 25.9376 216.373 25.9367L242.59 25.8892L255.096 39.4978Z" fill="#407BFF"/>
<g opacity="0.6">
<path d="M255.096 39.4978L251.49 81.5707C251.444 82.1126 250.967 82.5528 250.425 82.5537L211.515 82.6235C210.973 82.6245 210.572 82.1863 210.619 81.6444L215.308 26.9197C215.354 26.3778 215.831 25.9376 216.373 25.9367L242.59 25.8892L255.096 39.4978Z" fill="white"/>
</g>
<path opacity="0.2" d="M247.152 50.5252L219.683 50.657C219.255 50.6589 218.88 51.007 218.844 51.4345L218.824 51.6856C218.789 52.1132 219.107 52.4583 219.535 52.4564L247.004 52.3245C247.432 52.3226 247.807 51.9745 247.843 51.547L247.863 51.2959C247.898 50.8674 247.58 50.5232 247.152 50.5252Z" fill="black"/>
<path opacity="0.2" d="M246.545 57.8718L219.075 58.0037C218.648 58.0056 218.273 58.3537 218.237 58.7812L218.216 59.0323C218.181 59.4599 218.499 59.805 218.927 59.8021L246.396 59.6702C246.824 59.6683 247.199 59.3202 247.235 58.8927L247.255 58.6416C247.29 58.215 246.972 57.8699 246.545 57.8718Z" fill="black"/>
<path opacity="0.2" d="M245.937 65.2192L218.467 65.3511C218.04 65.353 217.665 65.7011 217.629 66.1286L217.608 66.3797C217.573 66.8073 217.89 67.1524 218.319 67.1495L245.788 67.0176C246.216 67.0157 246.591 66.6677 246.627 66.2401L246.647 65.989C246.682 65.5624 246.364 65.2173 245.937 65.2192Z" fill="black"/>
<path d="M242.614 25.8604L241.526 38.5509C241.48 39.0929 241.882 39.5311 242.423 39.5301L255.077 39.5069L242.614 25.8604Z" fill="#407BFF"/>
<path opacity="0.8" d="M242.614 25.8604L241.526 38.5509C241.48 39.0929 241.882 39.5311 242.423 39.5301L255.077 39.5069L242.614 25.8604Z" fill="white"/>
<path d="M236.104 84.4485H207.408L208.586 70.9756H237.283L236.104 84.4485Z" fill="#407BFF"/>
<path d="M215.134 75.3552H217.143C218.551 75.3552 219.445 76.1744 219.33 77.4803C219.216 78.7853 218.179 79.6045 216.772 79.6045H214.763L215.134 75.3552ZM216.807 78.6457C217.529 78.6457 218.052 78.2142 218.116 77.4803C218.18 76.7455 217.732 76.315 217.011 76.315H216.252L216.048 78.6457H216.807Z" fill="white"/>
<path d="M219.748 77.4805C219.859 76.2056 220.942 75.271 222.302 75.271C223.661 75.271 224.581 76.2056 224.469 77.4805C224.358 78.7553 223.275 79.6899 221.916 79.6899C220.556 79.6899 219.635 78.7553 219.748 77.4805ZM223.255 77.4805C223.319 76.7456 222.857 76.2657 222.214 76.2657C221.571 76.2657 221.026 76.7456 220.961 77.4805C220.897 78.2144 221.358 78.6943 222.001 78.6943C222.645 78.6943 223.191 78.2144 223.255 77.4805Z" fill="white"/>
<path d="M224.887 77.4805C225.001 76.1872 226.069 75.271 227.417 75.271C228.199 75.271 228.806 75.556 229.173 76.0718L228.348 76.764C228.109 76.4431 227.798 76.2657 227.39 76.2657C226.692 76.2657 226.165 76.7514 226.101 77.4805C226.038 78.2085 226.48 78.6943 227.178 78.6943C227.584 78.6943 227.927 78.5188 228.223 78.1969L228.927 78.8891C228.469 79.4049 227.813 79.6899 227.031 79.6899C225.682 79.6899 224.774 78.7738 224.887 77.4805Z" fill="white"/>
<path d="M175.361 72.4881L171.757 114.561C171.71 115.103 171.233 115.543 170.691 115.544L131.782 115.614C131.24 115.615 130.838 115.177 130.885 114.635L135.574 59.91C135.621 59.368 136.098 58.9279 136.64 58.9269L162.857 58.8794L175.361 72.4881Z" fill="#407BFF"/>
<g opacity="0.6">
<path d="M175.361 72.4881L171.757 114.561C171.71 115.103 171.233 115.543 170.691 115.544L131.782 115.614C131.24 115.615 130.838 115.177 130.885 114.635L135.574 59.91C135.621 59.368 136.098 58.9279 136.64 58.9269L162.857 58.8794L175.361 72.4881Z" fill="white"/>
</g>
<path opacity="0.2" d="M167.558 85.1719L140.088 85.3037C139.661 85.3057 139.285 85.6537 139.249 86.0813L139.229 86.3324C139.194 86.7599 139.512 87.105 139.94 87.1021L167.409 86.9703C167.837 86.9683 168.212 86.6203 168.248 86.1928L168.268 85.9417C168.303 85.5141 167.986 85.1699 167.558 85.1719Z" fill="black"/>
<path opacity="0.2" d="M166.951 92.5193L139.481 92.6512C139.054 92.6531 138.678 93.0011 138.643 93.4287L138.622 93.6798C138.586 94.1073 138.905 94.4525 139.333 94.4496L166.802 94.3177C167.23 94.3158 167.605 93.9677 167.641 93.5402L167.661 93.2891C167.696 92.8615 167.378 92.5164 166.951 92.5193Z" fill="black"/>
<path opacity="0.2" d="M166.343 99.866L138.873 99.9978C138.446 99.9998 138.071 100.348 138.035 100.775L138.014 101.026C137.98 101.454 138.297 101.798 138.725 101.796L166.194 101.664C166.622 101.662 166.997 101.314 167.033 100.887L167.053 100.636C167.088 100.209 166.77 99.864 166.343 99.866Z" fill="black"/>
<path d="M162.879 58.8499L161.791 71.5404C161.745 72.0824 162.146 72.5206 162.688 72.5196L175.342 72.4973L162.879 58.8499Z" fill="#407BFF"/>
<path opacity="0.8" d="M162.879 58.8499L161.791 71.5404C161.745 72.0824 162.146 72.5206 162.688 72.5196L175.342 72.4973L162.879 58.8499Z" fill="white"/>
<path d="M156.235 118.014H127.538L128.717 104.541H157.414L156.235 118.014Z" fill="#407BFF"/>
<path d="M137.757 109.874H136.452L136.535 108.921H140.339L140.256 109.874H138.958L138.669 113.17H137.468L137.757 109.874Z" fill="white"/>
<path d="M142.921 113.17L142.156 111.853L141.173 113.17H139.801L141.537 111.021L140.239 108.921H141.593L142.335 110.146L143.281 108.921H144.579L142.919 110.972L144.304 113.17H142.921Z" fill="white"/>
<path d="M145.727 109.874H144.422L144.505 108.921H148.309L148.226 109.874H146.928L146.639 113.17H145.438L145.727 109.874Z" fill="white"/>
<path d="M144.285 158.379L140.68 200.452C140.633 200.994 140.156 201.434 139.614 201.435L100.705 201.505C100.163 201.506 99.7614 201.067 99.8079 200.525L104.497 145.801C104.544 145.259 105.021 144.819 105.563 144.818L131.78 144.77L144.285 158.379Z" fill="#407BFF"/>
<g opacity="0.6">
<path d="M144.285 158.379L140.68 200.452C140.633 200.994 140.156 201.434 139.614 201.435L100.705 201.505C100.163 201.506 99.7614 201.067 99.8079 200.525L104.497 145.801C104.544 145.259 105.021 144.819 105.563 144.818L131.78 144.77L144.285 158.379Z" fill="white"/>
</g>
<path opacity="0.2" d="M136.483 171.063L109.013 171.195C108.586 171.197 108.21 171.545 108.175 171.973L108.154 172.224C108.119 172.651 108.437 172.996 108.865 172.994L136.334 172.862C136.762 172.86 137.137 172.512 137.173 172.084L137.194 171.833C137.228 171.405 136.91 171.061 136.483 171.063Z" fill="black"/>
<path opacity="0.2" d="M135.875 178.411L108.405 178.543C107.978 178.545 107.603 178.893 107.567 179.321L107.546 179.572C107.511 179.999 107.829 180.344 108.257 180.342L135.726 180.211C136.154 180.209 136.529 179.861 136.565 179.433L136.585 179.182C136.62 178.753 136.302 178.409 135.875 178.411Z" fill="black"/>
<path opacity="0.2" d="M135.267 185.758L107.797 185.889C107.37 185.891 106.995 186.239 106.959 186.667L106.938 186.918C106.903 187.346 107.221 187.69 107.649 187.688L135.119 187.556C135.546 187.554 135.921 187.206 135.957 186.778L135.978 186.527C136.013 186.101 135.694 185.756 135.267 185.758Z" fill="black"/>
<path d="M131.804 144.742L130.716 157.433C130.67 157.974 131.071 158.413 131.613 158.412L144.267 158.389L131.804 144.742Z" fill="#407BFF"/>
<path opacity="0.8" d="M131.804 144.742L130.716 157.433C130.67 157.974 131.071 158.413 131.613 158.412L144.267 158.389L131.804 144.742Z" fill="white"/>
<path d="M125.16 203.906H96.4631L97.642 190.433H126.338L125.16 203.906Z" fill="#407BFF"/>
<path d="M109.02 196.345C108.938 197.295 108.174 197.885 107.036 197.885H106.179L106.077 199.058H105.092L105.464 194.8H107.307C108.444 194.8 109.104 195.39 109.02 196.345ZM108.023 196.345C108.065 195.877 107.784 195.604 107.182 195.604H106.379L106.25 197.082H107.053C107.655 197.082 107.983 196.808 108.023 196.345Z" fill="white"/>
<path d="M113.415 196.345C113.331 197.295 112.568 197.885 111.432 197.885H110.574L110.471 199.058H109.486L109.859 194.8H111.701C112.839 194.8 113.499 195.39 113.415 196.345ZM112.418 196.345C112.459 195.877 112.178 195.604 111.576 195.604H110.774L110.645 197.082H111.447C112.05 197.082 112.377 196.808 112.418 196.345Z" fill="white"/>
<path d="M114.95 195.604H113.588L113.659 194.8H117.368L117.297 195.604H115.935L115.633 199.058H114.648L114.95 195.604Z" fill="white"/>
<path d="M240.205 193.316C241.106 193.316 241.951 192.691 242.094 191.92L247.31 163.709C247.452 162.937 246.839 162.313 245.938 162.313C245.037 162.313 244.192 162.938 244.049 163.709L238.834 191.92C238.691 192.691 239.306 193.316 240.205 193.316Z" fill="#263238"/>
<path opacity="0.5" d="M240.205 193.316C241.106 193.316 241.951 192.691 242.094 191.92L247.31 163.709C247.452 162.937 246.839 162.313 245.938 162.313C245.037 162.313 244.192 162.938 244.049 163.709L238.834 191.92C238.691 192.691 239.306 193.316 240.205 193.316Z" fill="white"/>
<path d="M199.128 193.314H198.523C197.789 193.314 197.289 192.805 197.405 192.177L202.717 163.448C202.833 162.82 203.522 162.311 204.256 162.311H204.861H246.514L240.781 193.315H199.128V193.314Z" fill="#263238"/>
<path opacity="0.8" d="M199.128 193.314H198.523C197.789 193.314 197.289 192.805 197.405 192.177L202.717 163.448C202.833 162.82 203.522 162.311 204.256 162.311H204.861H246.514L240.781 193.315H199.128V193.314Z" fill="white"/>
<path d="M173.946 196.53H216.578V193.314H170.731C170.73 195.091 172.17 196.53 173.946 196.53Z" fill="#263238"/>
<path opacity="0.7" d="M173.946 196.53H216.578V193.314H170.731C170.73 195.091 172.17 196.53 173.946 196.53Z" fill="white"/>
<path d="M211.78 196.53H237.378C239.154 196.53 240.594 195.091 240.594 193.314H208.565C208.564 195.091 210.004 196.53 211.78 196.53Z" fill="#263238"/>
<path opacity="0.5" d="M211.78 196.53H237.378C239.154 196.53 240.594 195.091 240.594 193.314H208.565C208.564 195.091 210.004 196.53 211.78 196.53Z" fill="white"/>
<path opacity="0.2" d="M188.281 193.314C188.265 193.871 187.737 194.318 187.083 194.318H182.127C181.474 194.318 180.945 193.871 180.929 193.314H188.281Z" fill="black"/>
<path d="M200.658 190.875H238.48L243.344 164.57H205.522L200.658 190.875Z" fill="#263238"/>
<path d="M231.658 190.875H208.114L212.01 170.835H235.554L231.658 190.875Z" fill="white"/>
<path d="M230.792 189.78H209.368L212.861 171.811H234.285L230.792 189.78Z" fill="#263238"/>
<path opacity="0.4" d="M230.792 189.78H209.368L212.861 171.811H234.285L230.792 189.78Z" fill="#188EF8"/>
<path d="M227.51 189.78H212.694L215.699 174.316H230.515L227.51 189.78Z" fill="white"/>
<path d="M234.058 172.977H212.634L212.861 171.811H234.285L234.058 172.977Z" fill="#263238"/>
<path opacity="0.8" d="M234.058 172.977H212.634L212.861 171.811H234.285L234.058 172.977Z" fill="#188EF8"/>
<path d="M230.807 189.708H209.382L209.496 189.124H230.92L230.807 189.708Z" fill="#263238"/>
<path opacity="0.8" d="M230.807 189.708H209.382L209.496 189.124H230.92L230.807 189.708Z" fill="#188EF8"/>
<path d="M228.292 176.719H220.547L220.641 176.234H228.386L228.292 176.719Z" fill="#263238"/>
<path d="M227.758 179.468H216.907L217.001 178.983H227.852L227.758 179.468Z" fill="#263238"/>
<path d="M227.223 182.218H216.373L216.467 181.734H227.317L227.223 182.218Z" fill="#263238"/>
<path d="M226.689 184.969H215.839L215.933 184.484H226.783L226.689 184.969Z" fill="#263238"/>
<path d="M223.821 187.718H215.304L215.398 187.234H223.916L223.821 187.718Z" fill="#263238"/>
<path d="M218.262 177.492L218.017 178.126H217.694L218.907 174.984H219.414L219.407 178.126H219.056L219.058 177.492H218.262ZM218.366 177.192H219.068L219.065 175.379L218.366 177.192Z" fill="#188EF8"/>
<path d="M223.132 163.231C223.132 163.483 223.37 163.686 223.664 163.686C223.958 163.686 224.196 163.483 224.196 163.231C224.196 162.98 223.958 162.775 223.664 162.775C223.37 162.775 223.132 162.98 223.132 163.231Z" fill="#263238"/>
<path d="M194.549 148.205C194.957 148.287 195.176 148.841 195.035 149.426C194.893 150.011 194.535 150.422 194.127 150.331C193.718 150.241 193.523 149.694 193.641 149.103C193.726 148.514 194.141 148.123 194.549 148.205Z" fill="#263238"/>
<path d="M195.914 148.323L194.453 147.972C194.72 148.95 195.914 148.323 195.914 148.323Z" fill="#263238"/>
<path d="M193.101 153.976C193.793 154.297 194.592 154.298 195.285 153.979C194.594 152.662 194.084 151.259 193.769 149.805L193.101 153.976Z" fill="#A02724"/>
<path d="M195.555 145.183C195.643 145.013 195.577 144.805 195.407 144.717C194.43 144.109 193.22 144.006 192.155 144.441C192.018 144.529 191.958 144.698 192.01 144.852C192.072 145.038 192.273 145.137 192.458 145.075C193.315 144.75 194.275 144.842 195.054 145.325C195.103 145.355 195.158 145.37 195.215 145.369C195.356 145.382 195.49 145.308 195.555 145.183Z" fill="#263238"/>
<path d="M182.846 159.327C181.563 162.593 180.98 166.189 185.74 168.112C185.74 168.112 189.869 173.265 180.878 171.875C172.676 170.613 170.214 165.835 170.214 165.835C173.66 163.392 175.313 156.055 175.005 151.549L182.846 159.327Z" fill="#B55B52"/>
<path d="M176.041 138.4C179.254 133.994 185.431 133.025 189.837 136.239C196.35 140.732 195.203 151.663 192.347 157.78C189.183 164.581 179.978 164.665 175.57 157.868C172.651 153.334 173.232 150.29 174.224 142.975C174.433 141.32 175.059 139.747 176.041 138.4Z" fill="#B55B52"/>
<path d="M192.724 136.178C191.325 136.11 190.429 134.79 189.069 134.456C181.909 132.689 177.3 134.761 175.615 135.671C173.197 136.979 171.421 137.954 169.662 140.067C168.171 141.859 167.306 144.343 167.804 146.568C167.981 147.361 167.79 148.188 167.354 148.875C167.088 149.292 166.843 149.721 166.66 150.049C166.285 150.719 166.093 151.527 166.31 152.264C166.475 152.823 166.855 153.288 167.126 153.803C167.398 154.318 167.554 154.966 167.257 155.467C166.032 155.89 165.08 157.487 165.159 158.78C165.2 159.449 165.464 160.085 165.568 160.747C165.673 161.409 165.574 162.177 165.049 162.593C167.12 163.684 175.563 164.565 177.892 163.312C178.392 163.043 178.97 162.927 179.502 163.122C180.261 163.4 180.792 164.025 181.446 164.471C182.633 165.281 184.239 165.437 185.561 164.871C186.342 165.071 187.247 164.578 187.715 163.921C186.687 163.302 185.959 161.988 186.069 160.793C186.181 159.597 187.02 158.5 188.145 158.081C189.624 157.53 189.667 154.926 189.169 153.429C188.992 152.896 188.712 152.4 188.612 151.843C188.532 151.395 188.73 150.732 189.026 150.385C189.771 149.509 190.828 148.932 191.363 147.889C191.826 146.989 191.679 145.847 190.965 145.13C190.038 144.198 189.918 142.185 192.254 142.993C193.129 143.295 194.271 143.749 193.791 145.253C192.934 147.935 195.838 146.979 192.958 150.213C194.893 149.975 195.659 149.171 195.592 147.221C195.571 146.602 194.803 146.178 195.592 145.253C196.438 144.263 196.231 143.035 195.592 142.297C194.623 141.176 194.993 140.598 195.265 140.417C195.865 140.016 196.152 139.144 196.049 138.43C195.946 137.715 195.445 137.099 194.823 136.731C194.2 136.364 193.47 136.221 192.749 136.18L192.724 136.178Z" fill="#263238"/>
<path d="M189.068 147.286C190.471 148.78 190.264 151.448 189.681 152.812C189.042 154.333 187.46 154.527 186.5 152.575C185.8 151.183 185.547 149.607 185.775 148.066C186.098 146.362 187.664 145.792 189.068 147.286Z" fill="#B55B52"/>
<path d="M159.289 167.631L158.371 168.937C157.903 169.377 153.641 194.414 153.574 195.036C153.549 195.244 153.555 196.158 153.585 196.404C153.631 196.694 153.693 196.982 153.772 197.264C153.981 197.907 154.312 198.503 154.745 199.022C155.346 199.698 156.111 200.209 156.966 200.505C157.613 200.754 158.296 200.895 158.988 200.924C159.846 200.954 177.411 201.093 181.371 198.549L180.589 194.238C176.9 193.989 163.293 192.586 163.293 192.586C162.353 192.832 161.398 193.011 160.432 193.119C160.151 193.163 159.864 193.16 159.583 193.111C159.54 193.108 159.619 193.07 159.927 193.182C160.158 193.273 160.374 193.398 160.568 193.552C160.876 193.795 161.129 194.1 161.312 194.446C161.407 194.61 161.483 194.786 161.535 194.968C161.585 195.114 161.619 195.264 161.636 195.416C161.643 195.521 161.636 195.626 161.618 195.729C161.611 195.84 161.61 195.856 161.606 195.924C161.592 196.153 161.592 196.144 161.597 196.076L162.262 194.621C162.687 193.636 165.117 175.968 165.478 175.624L166.018 175.113L166.476 174.699C166.476 174.699 159.557 167.4 159.289 167.631Z" fill="#B55B52"/>
<path d="M178.681 194.037L184.24 192.059C185.126 191.744 186.107 191.839 186.914 192.319L189.567 193.897C190.57 194.493 191.163 195.594 191.107 196.76C191.036 198.306 189.853 199.572 188.315 199.751L184.099 200.239L179.339 198.144L178.681 194.037Z" fill="#B55B52"/>
<path d="M158.445 168.52C155.513 171.459 154.336 184.13 154.336 184.13L167.786 186.306C169.794 182.575 171.918 173.429 170.161 167.735C169.475 165.593 162.903 164.049 158.445 168.52Z" fill="#407BFF"/>
<path opacity="0.4" d="M158.445 168.52C155.513 171.459 154.336 184.13 154.336 184.13L167.786 186.306C169.794 182.575 171.918 173.429 170.161 167.735C169.475 165.593 162.903 164.049 158.445 168.52Z" fill="black"/>
<path d="M195.914 186.306C195.945 187.848 192.994 193.775 191.11 200.241C189.429 206.011 188.224 214.56 187.141 217.896L155.922 216.06C155.922 216.06 157.26 214.166 157.656 211.365C158.953 202.199 159.899 188.073 157.998 172.323C157.982 172.197 157.97 172.071 157.963 171.945C157.717 168.199 160.555 164.962 164.301 164.717C173.704 164.292 179.951 164.713 188.7 168.184C191.4 169.267 195.719 176.714 195.914 186.306Z" fill="#407BFF"/>
<path d="M125.791 331.187L132.588 334.66L122.209 348.313L115.413 344.839L125.791 331.187Z" fill="#B55B52"/>
<path d="M122.776 349.204C122.734 351.736 121.764 353.271 124.535 358.527C125.147 359.697 122.613 361.488 120.599 359.09C118.584 356.692 116.847 354.257 115.39 352.521C113.016 349.696 111.977 348.729 110.058 346.518C110.02 346.474 109.985 346.425 109.954 346.375C109.617 345.832 109.784 345.119 110.327 344.782L116.17 341.425C116.431 341.271 116.764 341.331 116.956 341.565L122.347 347.981C122.626 348.327 122.778 348.759 122.776 349.204Z" fill="#263238"/>
<path opacity="0.2" d="M125.784 331.184L120.427 338.23L126.818 342.251L132.581 334.657L125.784 331.184Z" fill="black"/>
<path d="M119.53 336.536L129.27 340.683C129.27 340.683 151.238 317.584 163.717 296.284C167.013 290.671 169.144 281.748 170.507 272.024C170.507 272.017 170.507 272.017 170.508 272.009C171.98 261.541 172.567 250.142 172.773 240.937C173.009 230.357 172.744 222.68 172.744 222.68C172.744 222.68 165.148 219.085 157.696 216.059C133.386 242.512 161.658 265.577 149.461 288.801C138.287 310.107 119.53 336.536 119.53 336.536Z" fill="#407BFF"/>
<path opacity="0.4" d="M119.53 336.536L129.27 340.683C129.27 340.683 151.238 317.584 163.717 296.284C167.013 290.671 169.144 281.748 170.507 272.024C170.507 272.017 170.507 272.017 170.508 272.009C171.98 261.541 172.567 250.142 172.773 240.937C173.009 230.357 172.744 222.68 172.744 222.68C172.744 222.68 165.148 219.085 157.696 216.059C133.386 242.512 161.658 265.577 149.461 288.801C138.287 310.107 119.53 336.536 119.53 336.536Z" fill="black"/>
<path d="M133.14 337.567L120.05 333.181L118.512 336.494L130.048 341.74L133.14 337.567Z" fill="#407BFF"/>
<path opacity="0.2" d="M167.597 286.531C168.472 281.188 169.501 276.372 170.507 272.023C170.507 272.016 170.507 272.016 170.508 272.008C171.979 261.54 172.567 250.141 172.772 240.936C172.758 240.929 172.752 240.914 172.745 240.906L172.511 240.837C171.442 240.265 170.189 240.695 168.744 242.376C158.13 247.386 164.879 272.836 167.597 286.531Z" fill="black"/>
<path d="M123.733 352.424C123.24 351.805 122.804 351.143 122.433 350.445C122.396 350.38 122.406 350.299 122.457 350.243C122.507 350.186 122.587 350.168 122.656 350.197C123.007 350.345 126.125 351.696 126.292 352.689C126.328 352.88 126.262 353.076 126.119 353.206C125.886 353.437 125.559 353.543 125.236 353.493C124.632 353.309 124.104 352.934 123.733 352.424ZM123.011 350.746C123.854 352.186 124.695 353.081 125.304 353.178C125.519 353.215 125.738 353.141 125.888 352.983C125.948 352.934 125.977 352.856 125.965 352.779C125.845 352.235 124.248 351.334 122.997 350.754L123.011 350.746Z" fill="#407BFF"/>
<path d="M122.442 350.493C122.414 350.467 122.396 350.434 122.388 350.396C122.382 350.335 122.413 350.276 122.467 350.245C122.584 350.181 125.146 348.488 126.224 349.765L126.291 349.889C126.568 350.294 126.468 350.555 126.336 350.707C125.786 351.341 123.367 350.988 122.475 350.554L122.442 350.493ZM125.969 349.986C125.275 349.164 123.637 349.972 122.972 350.346C123.985 350.688 125.758 350.846 126.088 350.432C126.088 350.432 126.189 350.305 126.009 350.044L125.969 349.986Z" fill="#407BFF"/>
<path d="M187.91 339.221L195.235 338.852L192.597 356.59L185.272 356.951L187.91 339.221Z" fill="#B55B52"/>
<path opacity="0.2" d="M187.91 339.316L186.553 348.462L193.776 348.799L195.234 338.948L187.91 339.316Z" fill="black"/>
<path d="M160.07 221.353C154.073 256.219 193.235 267.179 191.27 292.352C189.468 315.446 185.863 346.242 185.863 346.242L196.709 346.565C196.709 346.565 203.553 316.452 206.795 293.141C209.913 270.71 182.307 223.173 182.307 223.173C182.307 223.173 168.366 221.876 160.07 221.353Z" fill="#407BFF"/>
<path opacity="0.4" d="M160.07 221.353C154.073 256.219 193.235 267.179 191.27 292.352C189.468 315.446 185.863 346.242 185.863 346.242L196.709 346.565C196.709 346.565 203.553 316.452 206.795 293.141C209.913 270.71 182.307 223.173 182.307 223.173C182.307 223.173 168.366 221.876 160.07 221.353Z" fill="black"/>
<path d="M187.869 215.145L186.616 219.886C185.509 224.074 185.689 228.499 187.134 232.583L164.037 240.124L161.193 237.241C154.888 230.85 153.238 221.203 157.061 213.079L187.869 215.145Z" fill="#407BFF"/>
<path opacity="0.4" d="M187.869 215.145L186.616 219.886C185.509 224.074 185.689 228.499 187.134 232.583L164.037 240.124L161.193 237.241C154.888 230.85 153.238 221.203 157.061 213.079L187.869 215.145Z" fill="black"/>
<path d="M157.863 215.773L183.737 217.348C184.038 217.367 184.309 217.53 184.322 217.71L184.499 220.308C184.511 220.473 184.311 220.558 184.037 220.576L157.062 218.935C156.713 218.911 156.422 218.687 156.488 218.493L157.372 215.964C157.478 215.802 157.676 215.726 157.863 215.773Z" fill="#263238"/>
<path d="M199.047 342.029L184.352 342.768L184.625 346.379L198.289 346.995L199.047 342.029Z" fill="#407BFF"/>
<path opacity="0.2" d="M190.178 185.947C190.747 187.03 194.403 185.089 194.518 186.306C194.638 187.579 194.241 188.837 193.847 190.053C193.599 190.82 190.203 194.729 189.467 195.056C188.415 195.525 183.054 195.073 181.917 183.033C181.81 181.899 183.031 176.139 185.123 176.693C186.037 176.936 187.155 180.195 187.596 181.034C188.456 182.673 189.317 184.31 190.178 185.947Z" fill="black"/>
<path d="M188.809 171.711L210.534 201.021C208.632 203.274 204.424 204.723 202.382 202.596C196.279 196.239 185.173 184.574 183.032 178.859C180.084 170.988 188.809 171.711 188.809 171.711Z" fill="#B55B52"/>
<path d="M204.96 193.864C208.338 195.171 212.51 193.092 213.51 197.106C214.43 200.798 210.266 202.432 205.843 203.9C204.244 204.43 201.597 202.813 201.128 200.392C200.659 197.97 202.092 194.209 204.96 193.864Z" fill="#B55B52"/>
<path d="M211.617 194.813L217.124 192.697C218.002 192.359 218.984 192.431 219.805 192.892L222.495 194.403C223.512 194.974 224.131 196.06 224.106 197.227C224.072 198.774 222.922 200.07 221.39 200.287L218.221 200.735L212.617 200.196L211.617 194.813Z" fill="#B55B52"/>
<path d="M194.122 172.097L199.434 181.014C200.253 187.772 187.911 187.847 187.911 187.847C187.911 187.847 181.328 182.195 181.372 174.018C181.389 170.697 183.146 169.167 185.225 168.521C188.626 167.465 192.3 169.038 194.122 172.097Z" fill="#407BFF"/>
<path opacity="0.4" d="M194.122 172.097L199.434 181.014C200.253 187.772 187.911 187.847 187.911 187.847C187.911 187.847 181.328 182.195 181.372 174.018C181.389 170.697 183.146 169.167 185.225 168.521C188.626 167.465 192.3 169.038 194.122 172.097Z" fill="black"/>
<path d="M196.147 356.05C195.36 356.026 194.579 355.931 193.809 355.766C193.733 355.755 193.675 355.692 193.669 355.615C193.659 355.541 193.697 355.47 193.763 355.437C194.109 355.264 197.141 353.758 198.032 354.275C198.204 354.373 198.311 354.553 198.315 354.75C198.345 355.073 198.216 355.391 197.968 355.601C197.429 355.953 196.787 356.11 196.147 356.05ZM194.396 355.519C196.04 355.804 197.266 355.738 197.736 355.362C197.901 355.221 197.985 355.007 197.961 354.792C197.963 354.716 197.924 354.645 197.858 354.607C197.363 354.299 195.646 354.94 194.396 355.519Z" fill="#407BFF"/>
<path d="M193.841 355.773C193.804 355.77 193.769 355.758 193.737 355.738C193.688 355.699 193.662 355.638 193.667 355.576C193.66 355.442 194.045 352.408 195.715 352.408L195.865 352.401C196.34 352.45 196.477 352.695 196.51 352.891C196.636 353.735 194.821 355.334 193.911 355.739L193.841 355.773ZM195.723 352.762C194.643 352.75 194.23 354.518 194.069 355.274C195.005 354.726 196.237 353.47 196.158 352.961C196.158 352.961 196.151 352.797 195.826 352.765L195.723 352.762Z" fill="#407BFF"/>
<path d="M194.89 355.456C196.893 357.023 199.222 358.646 205.09 359.63C206.4 359.852 206.302 362.953 203.175 363.1C200.047 363.248 195.359 363.232 193.087 363.34C189.409 363.513 188.002 363.753 185.089 363.937C185.027 363.941 184.965 363.94 184.904 363.934C184.268 363.873 183.802 363.308 183.864 362.672L184.675 355.993C184.711 355.695 184.957 355.467 185.256 355.454L193.634 355.059C194.086 355.041 194.53 355.181 194.89 355.456Z" fill="#263238"/>
<defs>
<filter id="filter0_di_0_1298" x="52.4766" y="345.106" width="393.546" height="39.5551" filterUnits="userSpaceOnUse" color-interpolation-filters="sRGB">
<feFlood flood-opacity="0" result="BackgroundImageFix"/>
<feColorMatrix in="SourceAlpha" type="matrix" values="0 0 0 0 0 0 0 0 0 0 0 0 0 0 0 0 0 0 127 0" result="hardAlpha"/>
<feOffset/>
<feGaussianBlur stdDeviation="4.4"/>
<feComposite in2="hardAlpha" operator="out"/>
<feColorMatrix type="matrix" values="0 0 0 0 0.0745098 0 0 0 0 0.509804 0 0 0 0 0.85098 0 0 0 0.4 0"/>
<feBlend mode="normal" in2="BackgroundImageFix" result="effect1_dropShadow_0_1298"/>
<feBlend mode="normal" in="SourceGraphic" in2="effect1_dropShadow_0_1298" result="shape"/>
<feColorMatrix in="SourceAlpha" type="matrix" values="0 0 0 0 0 0 0 0 0 0 0 0 0 0 0 0 0 0 127 0" result="hardAlpha"/>
<feOffset dx="-2" dy="-2"/>
<feGaussianBlur stdDeviation="4.6"/>
<feComposite in2="hardAlpha" operator="arithmetic" k2="-1" k3="1"/>
<feColorMatrix type="matrix" values="0 0 0 0 0 0 0 0 0 0 0 0 0 0 0 0 0 0 0.3 0"/>
<feBlend mode="normal" in2="shape" result="effect2_innerShadow_0_1298"/>
</filter>
</defs>
</svg>
