<svg width="76" height="76" viewBox="0 0 76 76" fill="none" xmlns="http://www.w3.org/2000/svg">
<path d="M69.6666 38V64.6285C69.6666 66.5364 68.2495 68.0833 66.4999 68.0833H9.49992C7.75034 68.0833 6.33325 66.5364 6.33325 64.6285V38L37.9999 58.5833L69.6666 38Z" stroke="#188EF8" stroke-width="4.47059" stroke-linejoin="round"/>
<path d="M6.33325 37.6578L22.1666 26.7455M69.6666 37.6578L53.8333 26.7455" stroke="#188EF8" stroke-width="4.47059" stroke-linecap="round" stroke-linejoin="round"/>
<path d="M53.8329 7.91663H22.1663V46.5737C22.1662 47.1013 22.298 47.6205 22.5496 48.0842C22.8013 48.5479 23.1648 48.9414 23.6071 49.229L36.2738 57.4623C36.7874 57.7962 37.3869 57.9739 37.9996 57.9739C38.6123 57.9739 39.2118 57.7962 39.7254 57.4623L52.3921 49.229C52.8344 48.9414 53.1979 48.5479 53.4496 48.0842C53.7012 47.6205 53.833 47.1013 53.8329 46.5737V7.91663Z" stroke="#188EF8" stroke-width="4.47059" stroke-linejoin="round"/>
<path d="M31.6663 20.5831H37.9996M31.6663 30.0831H44.3329" stroke="#188EF8" stroke-width="4.47059" stroke-linecap="round" stroke-linejoin="round"/>
</svg>
