<svg width="437" height="353" viewBox="0 0 437 353" fill="none" xmlns="http://www.w3.org/2000/svg">
<g filter="url(#filter0_di_717_29360)">
<path d="M70.3587 138.616C-11.4545 185.601 -11.4527 261.777 70.363 308.762C152.179 355.746 284.827 355.746 366.641 308.762C448.455 261.777 448.452 185.601 366.637 138.616C284.82 91.6321 152.172 91.6321 70.3587 138.616Z" fill="#148BE7"/>
</g>
<path d="M251.966 34.7525C246.531 33.57 242.713 41.7638 239.035 47.3616C237.567 49.5939 232.492 58.5055 223.269 65.9612C222.859 66.2918 222.503 66.6448 222.187 67.0136C213.391 72.9929 195.771 85.2189 195.771 85.2189C195.771 85.2189 199.557 91.6155 201.942 91.7977C205.361 89.7898 208.204 96.3277 236.325 76.3456C239.857 73.9255 256.573 62.0576 259.176 55.0141C261.041 49.9709 257.487 35.9564 251.966 34.7525Z" fill="#2493F8"/>
<path d="M253.024 37.2583C253.024 37.2583 263.523 34.504 267.119 34.3321C268.887 34.2459 271.84 34.0531 273.257 35.1157C273.737 35.4748 276.586 36.641 277.247 37.2583C277.122 38.0169 273.405 39.7503 273.405 39.7503L265.673 38.4908L253.024 37.2583Z" fill="#DAE0E0"/>
<g opacity="0.12">
<path d="M180.912 141.09C186.63 144.394 186.662 149.757 180.98 153.066L135.138 179.948C129.46 183.255 120.221 183.255 114.5 179.948L75.1469 157.187C69.4329 153.882 69.4049 148.519 75.0827 145.213L120.925 118.328C126.607 115.023 135.841 115.023 141.559 118.328L180.912 141.09Z" fill="#020202"/>
</g>
<path opacity="0.1" d="M276.208 158.217C270.494 161.521 270.458 166.883 276.14 170.193L321.982 197.074C327.66 200.381 336.902 200.381 342.619 197.074L381.973 174.314C387.687 171.009 387.719 165.645 382.037 162.34L336.195 135.455C330.517 132.15 321.282 132.15 315.564 135.455L276.208 158.217Z" fill="#020202"/>
<path d="M268.409 136.008C291.781 149.617 315.151 163.226 338.527 176.835C338.32 176.711 338.034 176.731 337.716 176.913C336.702 177.496 336.205 179.204 336.913 179.618C313.54 166.009 290.167 152.404 266.794 138.796C266.587 138.676 266.462 138.42 266.462 138.061C266.458 136.891 267.69 135.597 268.409 136.008Z" fill="#5C90DD"/>
<path d="M337.716 176.914C337.088 177.275 336.577 178.159 336.581 178.885C336.581 179.608 337.095 179.899 337.723 179.538C338.352 179.173 338.859 178.291 338.859 177.568C338.859 176.84 338.345 176.548 337.716 176.914Z" fill="#3D60AF"/>
<path d="M248.199 160.395L278.318 142.971L282.578 145.457L252.463 162.875C251.07 163.68 249.81 163.754 248.899 163.219C247.478 162.396 246.057 161.567 244.639 160.74C245.549 161.273 246.81 161.197 248.199 160.395Z" fill="#D1D1D1"/>
<path d="M267.194 70.6116C268.162 69.9984 267.566 70.3576 278.093 64.2665L282.357 66.7478C272.576 72.4032 270.176 73.5056 265.808 77.3408C264.516 78.4769 263.19 79.7696 262.037 81.0006C262.002 81.0378 261.966 81.0751 261.93 81.1113C261.574 81.502 261.216 81.8918 260.866 82.2902C260.827 82.3295 260.788 82.3708 260.749 82.4172C252.717 91.5579 246.371 104.469 245.328 116.64C245.114 119.178 245.168 117.033 245.293 161.247C245.3 163.505 246.097 165.089 247.382 165.837C245.961 165.011 244.539 164.184 243.118 163.359C241.836 162.612 241.036 161.022 241.032 158.768L240.912 117.681C240.864 100.762 252.424 79.9594 267.194 70.6116Z" fill="#D1D1D1"/>
<path d="M272.761 72.2997C257.502 81.124 245.125 102.596 245.174 120.163L245.292 161.247C245.303 165.791 248.528 167.622 252.47 165.345L282.589 147.921L282.578 145.456L252.464 162.875C249.703 164.471 247.446 163.186 247.439 160.01L247.321 118.922C247.274 102.718 258.691 82.909 272.769 74.7682L282.364 69.2184L282.357 66.7478L272.761 72.2997Z" fill="#5C90DD"/>
<path d="M267.194 70.6116C268.162 69.9984 267.565 70.3576 278.093 64.2665L282.357 66.7478C272.576 72.4032 270.176 73.5056 265.808 77.3408C264.516 78.4769 263.19 79.7696 262.037 81.0006C262.002 81.0378 261.965 81.0751 261.93 81.1113C261.573 81.502 261.216 81.8918 260.866 82.2902C260.827 82.3295 260.788 82.3708 260.748 82.4172C255.713 88.1502 251.341 95.3681 248.521 102.952C248.074 104.158 246.678 104.716 245.567 104.069C244.328 103.346 243.75 101.84 244.253 100.491C248.713 88.4563 257.219 76.9256 267.194 70.6116Z" fill="#82A9FE"/>
<path d="M227.562 127.523C228.237 123.838 230.915 120.54 233.618 119.137C263.659 101.761 269.19 100.638 272.065 94.1622C273.304 91.3681 271.555 89.6041 270.912 88.0808C266.401 77.296 276.043 42.8428 282.975 29.2195C283.335 28.5064 284.661 28.3145 286.913 29.595C293.894 33.5593 322.389 50.4091 337.748 59.3514C337.409 59.1493 337.227 60.063 336.93 60.3349C333.895 63.132 318.029 109.106 325.035 120.31C330.263 128.673 320.253 130.919 286.803 150.265C284.239 151.595 281.067 155.065 280.614 159.566C280.579 159.978 280.7 160.278 280.925 160.407C265.562 151.467 243.1 138.226 227.741 129.282C227.251 129.001 227.448 128.154 227.562 127.523Z" fill="#CBDBFF"/>
<path d="M278.389 158.35C278.839 153.85 282.014 150.383 284.578 149.048C318.025 129.705 328.038 127.455 322.806 119.094C315.8 107.893 331.413 61.244 334.452 58.4479C334.744 58.176 335.034 57.8572 335.526 58.076C335.669 58.1347 336.887 58.8305 337.748 59.3631C337.408 59.1616 336.951 59.385 336.679 59.6743C333.837 62.6897 318.028 109.119 325.034 120.321C330.262 128.682 320.252 130.931 286.802 150.276C284.238 151.606 281.066 155.076 280.613 159.574C280.574 159.989 280.699 160.29 280.924 160.421C278.838 159.208 280.574 160.175 278.488 158.958C278.407 158.806 278.365 158.602 278.389 158.35Z" fill="#82A9FE"/>
<path d="M271.233 95.8384L322.706 126.214L324.682 127.991C324.424 128.297 324.128 128.61 323.8 128.924L321.825 127.15L270.519 96.8735C270.78 96.5379 271.016 96.196 271.233 95.8384Z" fill="#82A9FE"/>
<path opacity="0.09" d="M271.008 88.2522L324.771 119.82C324.867 120.011 324.974 120.196 325.081 120.371C326.106 122.01 326.542 123.416 326.335 124.761L272.461 93.1271C272.876 91.011 271.59 89.5439 271.008 88.2522Z" fill="#1A3D8C"/>
<path d="M336.162 60.3476C328.738 74.9585 318.928 111.152 324.657 120.311C329.887 128.675 320.246 130.919 286.803 150.265C284.274 151.58 281.075 154.998 280.614 159.566C280.546 160.282 280.967 160.656 281.553 160.403C282.221 160.025 282.682 159.302 282.746 158.64C283.103 155.093 285.856 153.277 286.56 152.873C321.225 132.844 325.896 132.625 327.849 126.063C328.621 123.462 328.009 120.389 326.553 118.06C321.439 109.896 330.613 75.1421 337.816 60.9771C338.191 60.2293 338.13 59.4891 337.674 59.3177C337.216 59.1437 336.541 59.6059 336.162 60.3476Z" fill="#292D2D"/>
<path d="M301.333 191.389L331.449 173.966L335.713 176.445L305.594 193.866C304.201 194.669 302.944 194.745 302.034 194.215C300.612 193.385 299.191 192.558 297.77 191.732C298.68 192.263 299.94 192.19 301.333 191.389Z" fill="#3D60AF"/>
<path d="M320.325 101.604C321.296 100.988 320.7 101.35 331.227 95.2574L335.491 97.7377C325.71 103.396 323.307 104.496 318.939 108.331C317.647 109.468 316.321 110.759 315.168 111.993C315.133 112.029 315.101 112.07 315.061 112.104C314.701 112.491 314.347 112.884 313.997 113.283C313.958 113.324 313.921 113.367 313.883 113.408C305.848 122.551 299.509 135.466 298.463 147.629C298.245 150.169 298.302 148.026 298.424 192.24C298.431 194.498 299.227 196.084 300.512 196.833C299.095 196.006 297.673 195.18 296.252 194.351C294.967 193.603 294.17 192.015 294.159 189.757L294.049 148.677C293.995 131.754 305.555 110.95 320.325 101.604Z" fill="#3D60AF"/>
<path d="M325.892 103.293C310.636 112.119 298.258 133.59 298.309 151.152L298.423 192.24C298.438 196.781 301.658 198.619 305.601 196.336L335.719 178.917L335.712 176.444L305.594 193.865C302.833 195.462 300.579 194.174 300.569 190.998L300.455 149.914C300.408 133.711 311.825 113.899 325.899 105.76L335.498 100.207L335.49 97.7367L325.892 103.293Z" fill="#5C90DD"/>
<path d="M320.325 101.604C321.296 100.988 320.7 101.35 331.227 95.2574L335.491 97.7377C325.709 103.396 323.306 104.496 318.939 108.331C317.646 109.468 316.321 110.759 315.168 111.993C315.132 112.029 315.1 112.07 315.061 112.104C314.701 112.491 314.347 112.884 313.996 113.283C313.958 113.324 313.921 113.367 313.882 113.408C308.844 119.141 304.472 126.358 301.654 133.942C301.208 135.147 299.808 135.709 298.701 135.061C297.462 134.337 296.887 132.828 297.383 131.479C301.844 119.448 310.354 107.914 320.325 101.604Z" fill="#82A9FE"/>
<path d="M323.492 91.4079L323.653 90.6815L272.447 60.6093L272.279 61.3812L323.492 91.4079Z" fill="#6388DD"/>
<path d="M323.157 92.9746L323.492 91.4079L272.283 61.3281L271.951 62.8876L323.157 92.9746Z" fill="#82A9FE"/>
<path d="M195.554 178.928L184.084 186.208C184.084 186.208 177.095 187.841 175.371 189.271C174.985 189.586 174.688 190.39 174.481 191.471C174.345 192.165 173.985 194.924 174.396 195.497C175.431 196.949 176.488 197.796 179.759 199.027C185.623 201.236 192.283 198.275 192.283 198.275C193.38 197.771 210.124 192.673 210.124 192.673C210.124 192.673 210.924 192.418 211.353 190.998L212.381 187.205L195.554 178.928Z" fill="#F5F5F5"/>
<path d="M195.854 176.705L190.469 180.123L184.387 183.99C184.387 183.99 178.613 187.476 176.545 188.328C175.606 188.721 174.859 189.755 174.645 190.837C174.517 191.529 174.599 192.24 175.014 192.802C176.045 194.258 178.389 195.592 180.373 196.336C186.248 198.536 192.894 195.589 192.894 195.589C193.865 195.139 206.514 191.3 211.089 189.663C211.685 189.453 212.024 188.62 212.024 188.62C212.024 188.62 212.906 185.675 213.182 184.432C214.035 180.556 213.192 178.066 213.192 178.066L195.854 176.705Z" fill="#059B97"/>
<path d="M193.136 188.602C192.886 188.8 192.54 188.658 192.34 188.419C191.608 187.521 189.994 185.638 188.605 184.724C187.554 184.026 186.59 183.951 186.005 184.003C185.698 184.03 185.351 183.94 185.244 183.643C185.162 183.405 185.205 183.118 185.451 183.068C186.105 182.931 187.562 182.826 189.162 183.878C190.784 184.944 192.593 187.11 193.265 187.958C193.429 188.158 193.34 188.442 193.136 188.602Z" fill="#F5F5F5"/>
<path d="M197.246 185.757C196.993 185.962 196.654 185.818 196.454 185.573C195.722 184.673 194.104 182.79 192.719 181.88C191.658 181.181 190.704 181.11 190.112 181.161C189.801 181.188 189.458 181.093 189.359 180.796C189.269 180.565 189.312 180.277 189.555 180.223C190.216 180.087 191.673 179.983 193.265 181.039C194.887 182.102 196.705 184.27 197.379 185.117C197.536 185.318 197.45 185.609 197.246 185.757Z" fill="#F5F5F5"/>
<path d="M195.025 187.159C194.772 187.354 194.429 187.215 194.23 186.972C193.497 186.072 191.883 184.187 190.497 183.278C189.441 182.581 188.476 182.513 187.895 182.556C187.584 182.584 187.241 182.488 187.138 182.195C187.052 181.967 187.094 181.675 187.334 181.626C187.995 181.493 189.448 181.377 191.051 182.434C192.67 183.504 194.483 185.668 195.158 186.514C195.318 186.716 195.226 187.002 195.025 187.159Z" fill="#F5F5F5"/>
<path d="M232.14 194.615L220.916 204.06C220.916 204.06 213.678 206.81 212.035 208.585C211.667 208.976 211.463 209.877 211.399 211.065C211.352 211.825 211.364 214.835 211.881 215.386C213.199 216.785 214.453 217.544 218.13 218.386C224.719 219.908 231.418 215.78 231.418 215.78C232.515 215.079 249.692 207.223 249.692 207.223C249.692 207.223 250.513 206.826 250.767 205.259L251.324 201.048L232.14 194.615Z" fill="#F5F5F5"/>
<path d="M232.14 192.197L226.872 196.626L220.916 201.642C220.916 201.642 215.241 206.198 213.156 207.413C212.21 207.965 211.556 209.181 211.484 210.372C211.442 211.123 211.638 211.868 212.155 212.418C213.47 213.82 216.17 214.919 218.402 215.424C224.998 216.925 231.687 212.82 231.687 212.82C232.654 212.199 245.636 206.275 250.292 203.864C250.899 203.556 251.145 202.608 251.145 202.608C251.145 202.608 251.667 199.338 251.777 197.963C252.138 193.693 250.881 191.16 250.881 191.16L232.14 192.197Z" fill="#059B97"/>
<path d="M230.944 205.31C230.7 205.561 230.312 205.459 230.058 205.234C229.155 204.375 227.151 202.594 225.537 201.817C224.309 201.223 223.27 201.28 222.651 201.417C222.326 201.492 221.94 201.443 221.787 201.141C221.662 200.905 221.67 200.586 221.924 200.501C222.605 200.261 224.148 199.936 226.012 200.83C227.894 201.734 230.147 203.792 230.983 204.599C231.193 204.796 231.137 205.117 230.944 205.31Z" fill="#F5F5F5"/>
<path d="M301.73 93.5112L280.646 104.931C280.646 104.931 241.864 128.188 239.261 144.947C236.793 160.855 232.544 170.764 228.89 194.604C228.476 197.288 242.407 202.264 251.888 195.038C252.745 194.388 257.47 161.195 257.549 160.372C257.549 160.372 259.412 149.289 262.923 145.532C265.534 142.753 291.256 129.82 291.256 129.82C291.256 129.82 304.369 121.845 304.523 108.741C304.565 105.363 301.73 93.5112 301.73 93.5112Z" fill="#0B0639"/>
<path d="M276.283 86.3203L261.245 93.6647L224.551 113.76C224.551 113.76 217.174 119.369 212.87 129.87C208.146 141.414 195.661 176.432 195.661 176.432C194.864 178.91 196.521 181.603 200.232 183.629C207.639 187.68 212.345 185.16 212.345 185.16C213.145 184.718 213.799 184.285 214.306 182.98L230.63 139.416C230.63 139.416 233.579 135.367 235.797 133.588C241.618 128.918 264.283 116.5 264.283 116.5C264.283 116.5 274.979 111.664 275.657 103.493C275.943 100.137 276.283 86.3203 276.283 86.3203Z" fill="#0B0639"/>
<path d="M245.964 37.9311C244.939 45.6011 244.225 50.3418 248.981 63.1422L259.241 92.6884C259.876 94.4131 260.413 99.2671 258.048 102.226C248.66 113.978 273.597 119.705 279.81 123.37C290.931 129.934 293.523 125.508 300.133 122.078C307.501 118.257 306.279 109.271 305.997 108.694C300.002 96.5425 300.323 67.4243 297.68 55.4503C294.819 42.478 284.463 40.2921 269.608 36.4716C266.894 35.7743 246.667 32.7221 245.964 37.9311Z" fill="#99C8F2"/>
<path d="M261.005 49.0323L256.206 36.6395C255.484 35.4269 254.002 36.7471 254.002 36.7471C252.749 37.5873 252.035 38.2775 252.602 39.6768L255.734 53.0027L261.115 49.1394L261.005 49.0323Z" fill="#FDFFFF"/>
<path d="M259.387 49.0323C259.898 49.3684 259.659 52.7114 260.748 52.4379C268.154 50.5846 273.718 43.3651 272.062 40.7037C271.569 39.9151 265.384 32.1033 263.609 24.5941C263.019 22.075 254.502 19.7427 254.502 19.7427L246.027 33.6036C246.027 33.6036 253.527 45.2093 259.387 49.0323Z" fill="#D3A07D"/>
<path d="M261.073 50.6596L259.498 49.1399L254.363 47.3549L256.345 56.8205C256.82 57.9984 257.066 58.5744 258.02 57.7367C258.02 57.7367 260.673 54.3739 261.634 53.4123C262.695 52.3482 262.405 51.7227 261.073 50.6596Z" fill="#FDFFFF"/>
<path d="M263.609 24.5941C263.283 23.2136 260.58 21.8893 258.198 20.9777L251.48 31.964C251.48 31.964 258.976 43.5727 264.837 47.3967C265.219 47.6436 266.337 48.6241 263.341 52.3073C275.858 45.4276 276.35 40.8359 275.086 38.807C274.936 38.5714 273.511 38.0867 272.062 37.0185C268.643 34.5076 264.851 29.8623 263.609 24.5941Z" fill="#BF8B67"/>
<path d="M234.929 201.684C234.686 201.928 234.301 201.825 234.055 201.594C233.14 200.736 231.137 198.958 229.526 198.182C228.294 197.592 227.262 197.654 226.637 197.788C226.308 197.862 225.926 197.806 225.776 197.509C225.652 197.276 225.655 196.958 225.905 196.869C226.594 196.631 228.133 196.3 229.993 197.199C231.88 198.11 234.132 200.166 234.976 200.97C235.176 201.169 235.122 201.49 234.929 201.684Z" fill="#F5F5F5"/>
<path d="M232.754 203.498C232.511 203.74 232.126 203.645 231.875 203.416C230.965 202.554 228.965 200.768 227.354 199.994C226.122 199.402 225.079 199.47 224.465 199.599C224.136 199.676 223.758 199.628 223.601 199.324C223.48 199.092 223.484 198.773 223.733 198.683C224.416 198.444 225.958 198.118 227.825 199.013C229.708 199.925 231.958 201.981 232.801 202.79C233.004 202.98 232.943 203.302 232.754 203.498Z" fill="#F5F5F5"/>
<path d="M236.904 10.0332L240.764 4.87674C240.764 4.87674 257.798 -0.637848 261.555 3.0581C268.604 9.99445 267.58 13.9975 267.58 13.9975C267.287 15.5575 263.452 23.9687 263.294 25.3241C262.702 30.3719 260.334 38.1383 258.445 39.3519C256.487 40.5874 254.87 41.5965 250.035 43.6911C247.953 44.5966 243.782 45.0685 242.578 42.3423C241.089 38.9652 240.114 35.8401 237.904 28.916C237.357 27.2045 238.246 26.0143 238.2 24.8517C238.168 24.2401 236.257 20.7267 236.286 20.2365C236.433 17.6771 236.904 10.0332 236.904 10.0332Z" fill="#D3A07D"/>
<path opacity="0.13" d="M257.362 5.63327L264.276 8.90989L263.473 26.1393C263.18 27.6998 261.912 34.0204 261.622 35.3549C261.134 37.6179 260.334 38.1378 258.445 39.3514C256.791 40.3956 255.105 41.3618 251.72 42.8999C252.448 42.1663 251.506 35.838 252.452 33.3981C253.313 31.1795 254.149 27.5524 254.162 26.8117C254.195 25.1109 253.013 23.8013 252.442 22.8515C251.681 21.5919 251.995 20.4921 252.23 19.9554C253.191 17.7695 253.541 16.2095 253.342 13.9398C252.995 10.0827 248.585 7.08869 247.621 6.83158C247.534 6.80353 257.427 5.7302 257.362 5.63327Z" fill="#461600"/>
<path d="M264.566 26.2327C264.848 22.1434 268.919 12.5523 267.736 10.1587C264.409 3.40856 257.748 0.0309331 251.799 0.000834932C245.849 -0.0262024 239.932 0.592598 237.668 3.44019C234.779 7.07543 235.576 11.7723 237.925 13.6021C242.682 17.2996 247.51 13.672 253.735 11.354C258.213 9.6904 256.07 23.4998 256.07 23.4998C256.07 23.4998 257.559 24.591 257.888 23.5906C258.931 20.4094 260.488 17.9761 262.566 19.4039C264.155 20.4997 264.294 24.3212 261.659 28.415C260.502 30.2143 264.998 28.7624 264.998 28.7624C264.998 28.7624 264.519 26.8734 264.566 26.2327Z" fill="#563B29"/>
<path opacity="0.13" d="M261.977 20.3599C261.977 20.3599 260.655 19.2667 259.295 22.1806C258.505 23.86 258.612 25.0017 258.612 25.0017C258.612 25.0017 259.476 25.0476 259.523 25.9133C259.566 26.7775 259.159 27.4141 259.566 27.4141C259.977 27.4141 260.887 26.275 260.477 25.8205C260.066 25.3659 259.295 26.0516 259.612 24.5472C259.93 23.0489 260.43 20.7232 261.977 20.3599Z" fill="#461600"/>
<g opacity="0.2">
<path opacity="0.3" d="M63.7087 211.508L225.78 305.475L332.209 243.277L170.103 149.254L63.7087 211.508Z" fill="#020202"/>
</g>
<path d="M80.1181 132.748L84.3926 130.258L84.1497 213.512L79.8752 216.002L80.1181 132.748Z" fill="#B3CAFF"/>
<path d="M226.858 211.353L231.133 208.865L230.857 297.923L226.583 300.411L226.858 211.353Z" fill="#B3CAFF"/>
<path d="M75.1179 124.073L79.3964 121.584L231.133 208.865L226.858 211.353L75.1179 124.073Z" fill="#B8B9BA"/>
<path d="M226.858 211.353L75.1181 124.073L74.8406 213.129L79.8783 216.027V210.252H79.8753L79.8783 209.611V209.477V209.611L80.1182 132.748L221.826 214.219L221.577 297.39L226.584 300.411L226.858 211.353Z" fill="#C5D7FF"/>
<path d="M174.01 156.254L178.28 153.764L319.743 235.345L315.465 237.83L174.01 156.254Z" fill="#EFEFEF"/>
<path d="M174.01 78.8453L178.28 76.3588L178.037 153.864L174.01 156.254V78.8453Z" fill="#A5A6A7"/>
<path d="M320.749 157.453L325.024 154.964L324.745 244.026L320.471 246.512L320.749 157.453Z" fill="#B2B2B2"/>
<path d="M169.009 70.1734L173.281 67.6834L325.024 154.964L320.749 157.453L169.009 70.1734Z" fill="#B8B9BA"/>
<path d="M169.009 70.1734L320.749 157.454L320.471 246.512L168.728 159.234L169.009 70.1734ZM315.465 237.83L315.714 160.321L174.009 78.8452L173.76 156.354L315.465 237.83Z" fill="#B3CAFF"/>
<path d="M226.812 207.528L226.826 212.047L325.035 155.873L325.021 151.356L226.812 207.528Z" fill="#D9E5FF"/>
<path d="M74.7039 119.986L74.7181 124.503L226.826 212.047L226.812 207.528L74.7039 119.986Z" fill="#D9E5FF"/>
<path d="M74.7324 120.039L226.812 207.528L325.021 151.356L172.913 63.8161L74.7324 120.039Z" fill="#ECF2FF"/>
<path opacity="0.15" d="M214.377 115.259C202.75 108.532 187.862 105.267 172.756 105.042L145.069 117.76C145.069 117.76 143.059 118.419 142.881 119.684C142.713 120.865 143.566 121.437 144.598 122.04L201.189 154.862C202.221 155.46 203.503 155.452 204.531 154.848L232.593 138.263C230.89 128.625 226.911 122.504 214.377 115.259Z" fill="black"/>
<path d="M203.453 149.27L144.294 115.149V116.858C144.294 118.049 144.948 119.165 145.977 119.763L201.768 151.946C202.803 152.543 204.086 152.536 205.113 151.934L245.928 127.809C246.702 127.354 247.178 126.514 247.178 125.617V124.528L203.453 149.27Z" fill="#848484"/>
<path d="M246.217 123.158C247.488 123.806 247.503 125.625 246.246 126.302L203.453 149.27L144.294 115.149L186.99 95.8542C188.936 94.9794 191.193 95.0278 193.09 95.9935L246.217 123.158Z" fill="white"/>
<path d="M195.772 85.2184C195.772 85.2184 196.999 84.3665 198.967 83.0029C200.404 82.0081 198.674 81.0378 200.711 79.6299C209.633 73.4597 226.067 64.2931 227.008 63.8161C227.969 63.3279 231.761 63.5248 232.976 64.4884C235.39 66.4081 238.611 74.679 236.453 76.2553C205.294 99.0151 205.367 89.7867 201.943 91.7977C199.557 91.615 195.772 85.2184 195.772 85.2184Z" fill="#2493F8"/>
<path opacity="0.14" d="M246.116 55.6539C241.52 61.5883 235.605 69.6653 232.073 72.0854C203.952 92.0675 201.109 85.5301 197.69 87.5375C197.538 87.5258 197.382 87.489 197.221 87.4309C198.541 89.2985 200.498 91.6875 201.942 91.7977C205.361 89.7898 208.204 96.3277 236.325 76.3456C239.857 73.9255 250.146 66.1234 249.893 65.6016C248.62 62.9662 246.321 55.3891 246.116 55.6539Z" fill="#231F20"/>
<path d="M182.091 93.1817C184.251 89.9907 195.989 85.4765 197.539 84.8174C200.879 84.8174 203.089 86.5096 203 88.6384C202.985 89.021 202.486 90.1463 202.475 90.2376C202.036 93.4755 201.679 93.6397 194.762 99.0202L189.251 104.544C189.251 104.544 187.873 106.102 187.705 104.022C187.645 103.274 189.301 101.104 189.963 99.5431C189.963 99.5431 184.103 105.278 183.049 105.591C181.192 106.146 181.07 104.677 180.628 104.648C179.67 104.595 179.164 104.535 179.174 103.564C179.199 101.761 181.371 97.9025 181.135 98.0586C180.596 98.4162 178.924 101.128 178.061 101.972C177.496 102.513 176.807 102.04 176.892 101.701C177.441 99.5288 180.551 95.4717 182.091 93.1817Z" fill="#D3A07D"/>
<path d="M226.58 132.195C227.116 132.503 227.669 133.785 225.573 134.681L206.61 145.052C205.042 146.022 203.711 145.142 202.257 144.305L152.283 115.477C151.168 114.833 151.494 113.829 152.283 113.368L170.546 101.825C171.56 101.235 172.734 100.984 173.477 101.414L226.58 132.195Z" fill="#898686"/>
<path d="M184.38 108.168C184.62 108.305 184.62 108.532 184.38 108.672L181.848 110.143C181.608 110.282 181.216 110.282 180.973 110.143L178.427 108.672C178.184 108.532 178.18 108.304 178.427 108.164L180.959 106.691C181.198 106.548 181.591 106.551 181.833 106.691L184.38 108.168Z" fill="#4A4A4A"/>
<path d="M171.953 121.426C172.195 121.569 172.195 121.796 171.953 121.942L169.424 123.411C169.179 123.552 168.793 123.552 168.546 123.411L166.007 121.936C165.76 121.796 165.757 121.569 166 121.426L168.532 119.954C168.771 119.815 169.168 119.813 169.41 119.954L171.953 121.426Z" fill="#4A4A4A"/>
<path d="M176.37 123.975C176.609 124.111 176.609 124.34 176.37 124.485L173.838 125.951C173.595 126.095 173.206 126.093 172.959 125.947L170.416 124.482C170.174 124.34 170.174 124.111 170.413 123.975L172.941 122.499C173.191 122.356 173.581 122.356 173.82 122.503L176.37 123.975Z" fill="#4A4A4A"/>
<path d="M180.787 126.526C181.034 126.667 181.034 126.893 180.795 127.03L178.259 128.503C178.02 128.641 177.631 128.641 177.381 128.503L174.842 127.025C174.595 126.889 174.595 126.667 174.838 126.514L177.367 125.048C177.61 124.914 177.998 124.914 178.249 125.048L180.787 126.526Z" fill="#4A4A4A"/>
<path d="M175.606 108.419C175.849 108.562 175.852 108.782 175.606 108.932L173.073 110.4C172.831 110.542 172.441 110.542 172.195 110.4L165.213 106.358C164.968 106.218 164.968 105.986 165.21 105.85L167.738 104.376C167.978 104.237 168.374 104.237 168.62 104.376L175.606 108.419Z" fill="#4A4A4A"/>
<path d="M179.834 110.772C180.073 110.913 180.073 111.142 179.834 111.284L177.302 112.752C177.062 112.898 176.674 112.898 176.423 112.759L173.887 111.284C173.634 111.142 173.634 110.913 173.877 110.772L176.405 109.305C176.641 109.158 177.044 109.161 177.283 109.305L179.834 110.772Z" fill="#4A4A4A"/>
<path d="M184.601 113.518C184.844 113.657 184.844 113.889 184.601 114.026L182.077 115.502C181.833 115.643 181.444 115.643 181.197 115.502L178.652 114.026C178.408 113.889 178.408 113.657 178.652 113.518L181.18 112.049C181.416 111.907 181.816 111.907 182.059 112.049L184.601 113.518Z" fill="#4A4A4A"/>
<path d="M189.036 116.098C189.279 116.235 189.279 116.459 189.04 116.603L186.523 118.067C186.276 118.214 185.884 118.214 185.634 118.067L183.088 116.601C182.844 116.459 182.844 116.231 183.088 116.087L185.619 114.62C185.859 114.473 186.251 114.473 186.498 114.62L189.036 116.098Z" fill="#4A4A4A"/>
<path d="M193.479 118.661C193.722 118.797 193.722 119.022 193.479 119.173L190.951 120.636C190.718 120.776 190.323 120.776 190.075 120.636L187.534 119.169C187.29 119.022 187.287 118.795 187.534 118.652L190.062 117.187C190.297 117.048 190.69 117.048 190.93 117.187L193.479 118.661Z" fill="#4A4A4A"/>
<path d="M171.317 110.913C171.56 111.051 171.56 111.284 171.325 111.42L168.8 112.894C168.553 113.032 168.153 113.032 167.918 112.894L160.933 108.855C160.686 108.711 160.686 108.484 160.929 108.338L163.461 106.866C163.697 106.733 164.093 106.733 164.336 106.866L171.317 110.913Z" fill="#4A4A4A"/>
<path d="M175.759 113.483C176.002 113.623 176.002 113.849 175.759 113.992L173.235 115.463C172.991 115.603 172.595 115.603 172.356 115.463L169.81 113.992C169.567 113.849 169.567 113.62 169.806 113.479L172.334 112.007C172.58 111.871 172.97 111.871 173.213 112.007L175.759 113.483Z" fill="#4A4A4A"/>
<path d="M180.341 116.189C180.587 116.343 180.587 116.565 180.345 116.703L177.816 118.178C177.573 118.315 177.177 118.315 176.938 118.178L174.395 116.703C174.149 116.565 174.149 116.336 174.392 116.189L176.924 114.723C177.163 114.583 177.556 114.583 177.802 114.723L180.341 116.189Z" fill="#4A4A4A"/>
<path d="M184.78 118.765C185.03 118.904 185.03 119.134 184.783 119.271L182.255 120.744C182.019 120.883 181.623 120.883 181.381 120.747L178.834 119.271C178.588 119.13 178.588 118.901 178.83 118.759L181.359 117.291C181.602 117.155 181.991 117.155 182.23 117.291L184.78 118.765Z" fill="#4A4A4A"/>
<path d="M185.233 129.086C185.473 129.235 185.473 129.467 185.233 129.605L182.702 131.072C182.459 131.211 182.066 131.211 181.82 131.072L179.284 129.605C179.041 129.462 179.034 129.235 179.281 129.086L181.809 127.617C182.045 127.478 182.441 127.478 182.68 127.617L185.233 129.086Z" fill="#4A4A4A"/>
<path d="M197.919 121.23C198.162 121.366 198.162 121.6 197.919 121.731L195.394 123.211C195.154 123.348 194.758 123.348 194.518 123.211L191.973 121.731C191.729 121.6 191.722 121.365 191.969 121.23L194.497 119.752C194.737 119.618 195.133 119.618 195.372 119.752L197.919 121.23Z" fill="#4A4A4A"/>
<path d="M189.222 121.326C189.462 121.471 189.462 121.698 189.222 121.84L186.698 123.31C186.458 123.449 186.066 123.449 185.819 123.31L183.269 121.84C183.026 121.698 183.026 121.469 183.269 121.326L185.798 119.86C186.037 119.722 186.433 119.722 186.673 119.86L189.222 121.326Z" fill="#4A4A4A"/>
<path d="M193.658 123.902C193.898 124.043 193.901 124.274 193.669 124.414L191.133 125.88C190.891 126.023 190.502 126.026 190.255 125.88L187.712 124.414C187.469 124.274 187.469 124.043 187.709 123.902L190.237 122.432C190.477 122.289 190.872 122.289 191.116 122.432L193.658 123.902Z" fill="#4A4A4A"/>
<path d="M176.077 118.815C176.323 118.962 176.331 119.187 176.085 119.327L173.56 120.793C173.314 120.935 172.924 120.935 172.675 120.793L170.131 119.327C169.886 119.187 169.886 118.962 170.131 118.815L172.664 117.345C172.896 117.198 173.296 117.198 173.539 117.345L176.077 118.815Z" fill="#4A4A4A"/>
<path d="M180.52 121.384C180.762 121.523 180.762 121.759 180.523 121.895L177.991 123.362C177.752 123.514 177.363 123.514 177.116 123.362L174.57 121.891C174.327 121.755 174.327 121.523 174.57 121.384L177.098 119.913C177.334 119.766 177.73 119.766 177.977 119.913L180.52 121.384Z" fill="#4A4A4A"/>
<path d="M184.962 123.956C185.202 124.102 185.202 124.323 184.962 124.46L182.437 125.934C182.195 126.073 181.802 126.073 181.552 125.934L179.013 124.459C178.77 124.322 178.763 124.091 179.009 123.956L181.537 122.48C181.777 122.348 182.17 122.348 182.417 122.48L184.962 123.956Z" fill="#4A4A4A"/>
<path d="M189.394 126.526C189.644 126.667 189.644 126.893 189.405 127.03L186.876 128.503C186.627 128.641 186.241 128.641 185.998 128.503L183.452 127.029C183.208 126.889 183.208 126.667 183.444 126.526L185.972 125.049C186.219 124.914 186.612 124.914 186.855 125.049L189.394 126.526Z" fill="#4A4A4A"/>
<path d="M189.666 131.658C189.912 131.801 189.912 132.031 189.669 132.166L187.141 133.642C186.895 133.785 186.509 133.785 186.262 133.642L183.723 132.166C183.477 132.03 183.477 131.801 183.723 131.658L186.248 130.188C186.487 130.045 186.883 130.045 187.127 130.188L189.666 131.658Z" fill="#4A4A4A"/>
<path d="M202.975 124.131C203.214 124.274 203.218 124.503 202.975 124.636L200.446 126.107C200.207 126.248 199.815 126.248 199.572 126.107L197.025 124.636C196.783 124.499 196.783 124.268 197.021 124.127L199.553 122.653C199.79 122.517 200.185 122.517 200.425 122.653L202.975 124.131Z" fill="#4A4A4A"/>
<path d="M198.1 126.466C198.339 126.614 198.339 126.839 198.1 126.975L195.572 128.45C195.332 128.594 194.936 128.594 194.693 128.45L192.154 126.981C191.908 126.84 191.908 126.614 192.154 126.466L194.675 124.997C194.921 124.854 195.311 124.854 195.55 124.997L198.1 126.466Z" fill="#4A4A4A"/>
<path d="M193.833 129.086C194.082 129.235 194.086 129.467 193.833 129.605L191.311 131.072C191.072 131.211 190.679 131.211 190.437 131.072L187.89 129.605C187.65 129.462 187.644 129.235 187.89 129.086L190.415 127.621C190.661 127.478 191.047 127.478 191.29 127.617L193.833 129.086Z" fill="#4A4A4A"/>
<path d="M158.778 113.674C159.029 113.813 159.029 114.035 158.778 114.182L156.258 115.656C156.018 115.796 155.622 115.796 155.378 115.656L152.836 114.186C152.59 114.035 152.59 113.814 152.826 113.674L155.358 112.204C155.601 112.057 155.993 112.057 156.237 112.204L158.778 113.674Z" fill="#4A4A4A"/>
<path d="M163.018 116.107C163.257 116.25 163.264 116.479 163.025 116.626L160.493 118.093C160.254 118.232 159.861 118.232 159.614 118.093L157.072 116.626C156.826 116.479 156.826 116.251 157.072 116.107L159.6 114.631C159.84 114.493 160.232 114.493 160.476 114.631L163.018 116.107Z" fill="#4A4A4A"/>
<path d="M167.46 118.679C167.703 118.818 167.703 119.055 167.46 119.195L164.935 120.667C164.693 120.801 164.299 120.801 164.061 120.667L161.51 119.191C161.267 119.055 161.271 118.816 161.507 118.675L164.035 117.207C164.274 117.069 164.671 117.069 164.917 117.207L167.46 118.679Z" fill="#4A4A4A"/>
<path d="M207.235 121.611C207.481 121.76 207.481 121.978 207.239 122.124L204.714 123.592C204.471 123.734 204.078 123.734 203.835 123.592L183.534 111.845C183.287 111.7 183.287 111.476 183.526 111.333L186.061 109.865C186.301 109.721 186.693 109.721 186.94 109.865L207.235 121.611Z" fill="#4A4A4A"/>
<path d="M211.763 124.256C212.006 124.395 212.006 124.621 211.763 124.766L209.238 126.231C208.985 126.374 208.603 126.374 208.353 126.231L205.817 124.766C205.568 124.621 205.564 124.395 205.811 124.256L208.339 122.782C208.582 122.643 208.975 122.643 209.218 122.782L211.763 124.256Z" fill="#4A4A4A"/>
<path d="M216.266 126.917C216.499 127.057 216.499 127.285 216.266 127.426L213.724 128.9C213.492 129.039 213.095 129.039 212.857 128.9L210.306 127.426C210.064 127.281 210.064 127.057 210.306 126.917L212.835 125.444C213.081 125.308 213.47 125.308 213.714 125.449L216.266 126.917Z" fill="#4A4A4A"/>
<path d="M207.321 126.793C207.565 126.936 207.565 127.163 207.328 127.301L204.793 128.773C204.553 128.918 204.157 128.918 203.918 128.773L201.376 127.301C201.132 127.163 201.121 126.936 201.376 126.793L203.904 125.322C204.14 125.181 204.536 125.181 204.775 125.322L207.321 126.793Z" fill="#4A4A4A"/>
<path d="M162.864 110.851C163.11 110.991 163.11 111.221 162.872 111.359L160.34 112.837C160.097 112.967 159.704 112.967 159.464 112.837L156.922 111.359C156.676 111.209 156.676 110.991 156.915 110.85L159.447 109.375C159.69 109.237 160.082 109.237 160.328 109.377L162.864 110.851Z" fill="#4A4A4A"/>
<path d="M167.303 113.418C167.546 113.56 167.546 113.783 167.307 113.928L164.785 115.404C164.532 115.545 164.146 115.545 163.904 115.404L161.357 113.928C161.114 113.783 161.111 113.56 161.357 113.418L163.883 111.948C164.126 111.801 164.518 111.81 164.761 111.948L167.303 113.418Z" fill="#4A4A4A"/>
<path d="M171.745 115.989C171.992 116.128 171.992 116.359 171.745 116.497L169.221 117.971C168.975 118.112 168.589 118.112 168.339 117.971L165.8 116.497C165.554 116.359 165.554 116.125 165.796 115.989L168.321 114.517C168.564 114.375 168.96 114.375 169.2 114.517L171.745 115.989Z" fill="#4A4A4A"/>
<path d="M202.617 129.358C202.864 129.497 202.864 129.733 202.625 129.873L200.089 131.339C199.853 131.479 199.454 131.479 199.214 131.339L196.675 129.873C196.425 129.734 196.425 129.498 196.665 129.358L199.193 127.887C199.439 127.751 199.829 127.751 200.071 127.887L202.617 129.358Z" fill="#4A4A4A"/>
<path d="M207.585 131.892C207.831 132.034 207.831 132.263 207.588 132.403L205.06 133.871C204.817 134.016 204.425 134.016 204.178 133.876L201.636 132.403C201.39 132.263 201.39 132.034 201.628 131.887L204.157 130.417C204.403 130.277 204.793 130.277 205.039 130.417L207.585 131.892Z" fill="#4A4A4A"/>
<path d="M216.155 136.957C216.406 137.101 216.406 137.325 216.163 137.466L213.631 138.938C213.391 139.075 212.999 139.075 212.752 138.938L205.775 134.9C205.528 134.753 205.528 134.527 205.775 134.391L208.295 132.916C208.541 132.773 208.935 132.773 209.174 132.916L216.155 136.957Z" fill="#4A4A4A"/>
<path d="M198.275 131.658C198.521 131.801 198.521 132.031 198.283 132.166L195.754 133.642C195.508 133.785 195.115 133.785 194.873 133.642L192.33 132.166C192.084 132.03 192.084 131.801 192.323 131.658L194.854 130.188C195.094 130.045 195.49 130.045 195.73 130.188L198.275 131.658Z" fill="#4A4A4A"/>
<path d="M202.803 134.391C203.043 134.527 203.043 134.752 202.803 134.899L200.275 136.37C200.029 136.513 199.636 136.513 199.397 136.37L196.854 134.899C196.608 134.752 196.604 134.524 196.851 134.384L199.375 132.915C199.621 132.772 200.011 132.772 200.254 132.915L202.803 134.391Z" fill="#4A4A4A"/>
<path d="M211.599 139.375C211.842 139.511 211.842 139.74 211.599 139.879L209.067 141.344C208.831 141.492 208.435 141.492 208.195 141.344L201.207 137.306C200.967 137.166 200.961 136.934 201.207 136.799L203.739 135.325C203.979 135.185 204.371 135.185 204.61 135.325L211.599 139.375Z" fill="#4A4A4A"/>
<path d="M194.094 134.094C194.34 134.239 194.34 134.462 194.094 134.604L191.568 136.073C191.33 136.212 190.93 136.212 190.69 136.073L188.151 134.6C187.901 134.461 187.901 134.236 188.144 134.094L190.676 132.624C190.919 132.479 191.311 132.479 191.554 132.624L194.094 134.094Z" fill="#4A4A4A"/>
<path d="M207.41 141.804C207.653 141.943 207.653 142.165 207.417 142.311L204.889 143.781C204.646 143.922 204.246 143.922 204.01 143.781L197.025 139.744C196.782 139.601 196.782 139.375 197.025 139.23L199.553 137.76C199.8 137.615 200.185 137.615 200.428 137.76L207.41 141.804Z" fill="#4A4A4A"/>
<path d="M220.673 129.472C220.913 129.611 220.913 129.837 220.673 129.975L218.148 131.451C217.905 131.591 217.513 131.591 217.27 131.451L214.724 129.975C214.482 129.837 214.482 129.611 214.724 129.472L217.253 127.999C217.492 127.859 217.885 127.859 218.127 127.999L220.673 129.472Z" fill="#4A4A4A"/>
<path d="M225.19 132.005C225.434 132.145 225.434 132.37 225.19 132.506L222.662 133.98C222.419 134.12 222.027 134.12 221.79 133.98L219.237 132.506C218.998 132.37 218.994 132.145 219.237 132.005L221.762 130.531C222.005 130.392 222.401 130.392 222.644 130.531L225.19 132.005Z" fill="#4A4A4A"/>
<path d="M217.27 131.451L214.724 129.975C214.599 129.912 214.545 129.815 214.545 129.73L214.538 130.224C214.538 130.321 214.599 130.414 214.724 130.488L217.27 131.955L217.27 131.451Z" fill="#636363"/>
<path d="M220.855 129.73C220.855 129.816 220.791 129.912 220.673 129.975L218.149 131.451C217.905 131.591 217.513 131.591 217.27 131.451V131.955C217.51 132.094 217.906 132.094 218.146 131.955L220.674 130.488C220.792 130.414 220.856 130.325 220.856 130.231V129.73H220.855Z" fill="#3D3D3D"/>
<path d="M221.78 133.971L219.238 132.496C219.116 132.427 219.056 132.334 219.056 132.244L219.052 132.753C219.052 132.849 219.113 132.939 219.238 133.008L221.78 134.48V133.971Z" fill="#636363"/>
<path d="M225.369 132.249C225.369 132.338 225.308 132.433 225.191 132.501L222.663 133.971C222.42 134.112 222.027 134.112 221.78 133.971V134.48C222.027 134.617 222.417 134.624 222.659 134.48L225.191 133.008C225.309 132.942 225.37 132.849 225.37 132.753V132.249H225.369Z" fill="#3D3D3D"/>
<path d="M180.973 110.143L178.427 108.672C178.309 108.605 178.249 108.512 178.249 108.417V108.922C178.249 109.014 178.309 109.112 178.427 109.176L180.969 110.647L180.973 110.143Z" fill="#636363"/>
<path d="M184.562 108.419C184.562 108.515 184.502 108.605 184.38 108.672L181.848 110.143C181.608 110.282 181.216 110.282 180.973 110.143L180.969 110.647C181.216 110.792 181.608 110.792 181.848 110.647L184.38 109.181C184.498 109.112 184.562 109.017 184.562 108.924V108.419Z" fill="#3D3D3D"/>
<path d="M168.507 123.362L165.961 121.891C165.846 121.823 165.782 121.727 165.782 121.641V122.151C165.775 122.239 165.838 122.328 165.961 122.403L168.507 123.869V123.362Z" fill="#636363"/>
<path d="M172.092 121.641C172.092 121.731 172.035 121.823 171.917 121.895L169.381 123.362C169.143 123.514 168.746 123.514 168.507 123.362V123.869C168.746 124.012 169.143 124.012 169.381 123.869L171.913 122.403C172.028 122.331 172.089 122.239 172.092 122.151V121.641Z" fill="#3D3D3D"/>
<path d="M172.942 125.934L170.399 124.459C170.274 124.392 170.218 124.298 170.218 124.206L170.21 124.714C170.21 124.807 170.274 124.898 170.399 125.008L172.942 126.477V125.934Z" fill="#636363"/>
<path d="M176.531 124.206C176.531 124.301 176.477 124.396 176.349 124.46L173.82 125.935C173.585 126.074 173.192 126.074 172.942 125.935V126.439C173.192 126.583 173.585 126.587 173.82 126.442L176.349 124.972C176.467 124.898 176.531 124.808 176.531 124.715V124.206Z" fill="#3D3D3D"/>
<path d="M177.381 128.503L174.842 127.025C174.721 126.957 174.656 126.864 174.656 126.776V127.279C174.656 127.375 174.721 127.466 174.838 127.538L177.381 129.014V128.503Z" fill="#636363"/>
<path d="M180.969 126.785C180.969 126.872 180.916 126.957 180.795 127.03L178.259 128.503C178.02 128.641 177.631 128.641 177.381 128.503V129.014C177.631 129.148 178.02 129.148 178.256 129.014L180.791 127.538C180.916 127.467 180.969 127.379 180.969 127.284V126.785Z" fill="#3D3D3D"/>
<path d="M172.195 110.4L165.214 106.358C165.088 106.283 165.035 106.197 165.035 106.104L165.028 106.612C165.035 106.706 165.088 106.794 165.21 106.864L172.195 110.906V110.4H172.195Z" fill="#636363"/>
<path d="M175.788 108.677C175.785 108.771 175.724 108.864 175.606 108.932L173.074 110.4C172.832 110.542 172.442 110.542 172.195 110.4V110.906C172.435 111.044 172.831 111.044 173.074 110.906L175.606 109.434C175.724 109.366 175.785 109.274 175.785 109.184L175.788 108.677Z" fill="#3D3D3D"/>
<path d="M176.423 112.759L173.887 111.284C173.755 111.209 173.699 111.12 173.702 111.027L173.699 111.534C173.699 111.62 173.755 111.716 173.881 111.792L176.423 113.261V112.759H176.423Z" fill="#636363"/>
<path d="M180.016 111.03C180.012 111.123 179.952 111.209 179.834 111.284L177.302 112.751C177.062 112.897 176.674 112.897 176.423 112.759V113.261C176.666 113.4 177.062 113.4 177.298 113.261L179.834 111.796C179.952 111.724 180.012 111.631 180.012 111.538L180.016 111.03Z" fill="#3D3D3D"/>
<path d="M181.198 115.502L178.652 114.026C178.531 113.957 178.467 113.867 178.467 113.774V114.282C178.467 114.368 178.527 114.468 178.652 114.54L181.198 116.01V115.502Z" fill="#636363"/>
<path d="M184.78 113.781C184.783 113.871 184.726 113.957 184.601 114.026L182.077 115.502C181.834 115.643 181.444 115.643 181.198 115.502V116.01C181.441 116.155 181.833 116.155 182.077 116.01L184.601 114.54C184.723 114.472 184.78 114.375 184.78 114.285V113.781Z" fill="#3D3D3D"/>
<path d="M185.634 118.067L183.088 116.601C182.966 116.528 182.912 116.432 182.912 116.344L182.908 116.851C182.908 116.94 182.965 117.037 183.088 117.108L185.634 118.571V118.067Z" fill="#636363"/>
<path d="M189.222 116.344C189.222 116.436 189.162 116.534 189.04 116.603L186.523 118.067C186.276 118.214 185.884 118.214 185.634 118.067V118.571C185.884 118.718 186.273 118.718 186.516 118.571L189.04 117.108C189.162 117.037 189.222 116.948 189.222 116.855V116.344Z" fill="#3D3D3D"/>
<path d="M190.075 120.636L187.534 119.169C187.412 119.091 187.348 119.001 187.351 118.911L187.348 119.415C187.348 119.507 187.412 119.601 187.534 119.675L190.072 121.149L190.075 120.636Z" fill="#636363"/>
<path d="M193.668 118.919C193.668 119.004 193.604 119.091 193.479 119.173L190.951 120.636C190.718 120.776 190.323 120.776 190.075 120.636L190.072 121.149C190.312 121.287 190.711 121.283 190.951 121.149L193.479 119.675C193.604 119.605 193.665 119.512 193.665 119.423L193.668 118.919Z" fill="#3D3D3D"/>
<path d="M167.917 112.894L160.932 108.855C160.807 108.782 160.75 108.691 160.75 108.594V109.106C160.747 109.195 160.807 109.286 160.932 109.359L167.917 113.4V112.894Z" fill="#636363"/>
<path d="M171.499 111.172C171.499 111.261 171.445 111.351 171.324 111.42L168.799 112.894C168.553 113.032 168.153 113.032 167.917 112.894V113.4C168.153 113.537 168.553 113.537 168.799 113.398L171.324 111.932C171.439 111.857 171.499 111.768 171.499 111.674V111.172Z" fill="#3D3D3D"/>
<path d="M172.356 115.463L169.81 113.992C169.688 113.919 169.627 113.824 169.627 113.735V114.236C169.627 114.332 169.684 114.421 169.81 114.493L172.356 115.965V115.463Z" fill="#636363"/>
<path d="M175.942 113.738C175.942 113.83 175.878 113.919 175.76 113.992L173.235 115.463C172.992 115.603 172.596 115.603 172.357 115.463V115.965C172.596 116.106 172.992 116.106 173.228 115.965L175.76 114.493C175.878 114.425 175.938 114.337 175.932 114.243L175.942 113.738Z" fill="#3D3D3D"/>
<path d="M176.938 118.178L174.396 116.702C174.27 116.632 174.214 116.541 174.214 116.446L174.21 116.954C174.21 117.048 174.27 117.136 174.392 117.214L176.938 118.682V118.178Z" fill="#636363"/>
<path d="M180.523 116.447C180.523 116.547 180.463 116.637 180.344 116.703L177.816 118.178C177.573 118.315 177.177 118.315 176.938 118.178V118.683C177.177 118.826 177.57 118.826 177.816 118.679L180.344 117.214C180.462 117.144 180.523 117.048 180.523 116.959V116.447Z" fill="#3D3D3D"/>
<path d="M181.381 120.747L178.834 119.271C178.709 119.206 178.649 119.112 178.652 119.014L178.649 119.523C178.649 119.617 178.705 119.705 178.83 119.777L181.377 121.25L181.381 120.747Z" fill="#636363"/>
<path d="M184.962 119.019C184.962 119.116 184.901 119.207 184.783 119.271L182.254 120.744C182.019 120.883 181.622 120.883 181.38 120.747L181.376 121.251C181.622 121.394 182.019 121.394 182.254 121.251L184.779 119.778C184.9 119.706 184.961 119.62 184.961 119.527V119.019H184.962Z" fill="#3D3D3D"/>
<path d="M181.82 131.072L179.284 129.605C179.152 129.528 179.099 129.44 179.099 129.34L179.091 129.844C179.091 129.952 179.152 130.038 179.281 130.109L181.819 131.58L181.82 131.072Z" fill="#636363"/>
<path d="M185.409 129.347C185.409 129.44 185.348 129.533 185.233 129.605L182.701 131.072C182.458 131.211 182.066 131.211 181.819 131.072V131.58C182.062 131.719 182.459 131.719 182.701 131.58L185.233 130.109C185.344 130.038 185.409 129.952 185.409 129.853V129.347Z" fill="#3D3D3D"/>
<path d="M194.518 123.211L191.973 121.731C191.855 121.662 191.79 121.578 191.787 121.473V121.983C191.787 122.078 191.847 122.172 191.973 122.246L194.518 123.716V123.211Z" fill="#636363"/>
<path d="M198.1 121.476C198.1 121.578 198.04 121.662 197.918 121.731L195.394 123.211C195.154 123.348 194.758 123.348 194.518 123.211V123.715C194.758 123.855 195.154 123.855 195.394 123.715L197.918 122.246C198.04 122.171 198.1 122.082 198.1 121.995V121.476Z" fill="#3D3D3D"/>
<path d="M185.819 123.31L183.27 121.84C183.144 121.763 183.084 121.677 183.084 121.584V122.094C183.084 122.181 183.144 122.274 183.27 122.348L185.812 123.822L185.819 123.31Z" fill="#636363"/>
<path d="M189.404 121.584C189.404 121.677 189.344 121.772 189.222 121.84L186.698 123.31C186.458 123.449 186.066 123.449 185.819 123.31L185.812 123.822C186.062 123.964 186.455 123.964 186.698 123.822L189.222 122.35C189.343 122.28 189.4 122.189 189.4 122.101L189.404 121.584Z" fill="#3D3D3D"/>
<path d="M190.254 125.88L187.712 124.414C187.583 124.34 187.534 124.25 187.534 124.149L187.53 124.664C187.534 124.753 187.582 124.846 187.711 124.918L190.254 126.392L190.254 125.88Z" fill="#636363"/>
<path d="M193.84 124.156C193.84 124.256 193.786 124.34 193.668 124.414L191.133 125.88C190.89 126.023 190.501 126.026 190.254 125.88V126.392C190.501 126.531 190.89 126.531 191.133 126.392L193.668 124.918C193.779 124.846 193.84 124.757 193.84 124.664V124.156Z" fill="#3D3D3D"/>
<path d="M172.674 120.793L170.131 119.327C170.014 119.259 169.95 119.158 169.95 119.067V119.577C169.946 119.67 170.006 119.763 170.131 119.832L172.674 121.305V120.793Z" fill="#636363"/>
<path d="M176.26 119.069C176.26 119.165 176.206 119.259 176.085 119.327L173.56 120.793C173.314 120.935 172.924 120.935 172.675 120.793V121.305C172.92 121.444 173.314 121.444 173.553 121.305L176.085 119.832C176.202 119.763 176.261 119.67 176.261 119.581V119.069H176.26Z" fill="#3D3D3D"/>
<path d="M177.116 123.362L174.57 121.891C174.449 121.82 174.388 121.727 174.388 121.641V122.143C174.388 122.238 174.449 122.328 174.57 122.403L177.116 123.869V123.362Z" fill="#636363"/>
<path d="M180.705 121.641C180.705 121.731 180.641 121.823 180.523 121.895L177.991 123.362C177.752 123.514 177.363 123.514 177.116 123.362V123.869C177.355 124.012 177.752 124.012 177.991 123.869L180.523 122.406C180.641 122.331 180.702 122.239 180.702 122.151L180.705 121.641Z" fill="#3D3D3D"/>
<path d="M181.552 125.934L179.013 124.459C178.888 124.392 178.823 124.298 178.823 124.206V124.714C178.823 124.807 178.888 124.898 179.009 124.972L181.552 126.439V125.934Z" fill="#636363"/>
<path d="M185.148 124.213C185.148 124.301 185.088 124.395 184.963 124.46L182.438 125.934C182.196 126.073 181.802 126.073 181.552 125.934V126.439C181.802 126.587 182.188 126.583 182.438 126.439L184.963 124.972C185.084 124.898 185.142 124.807 185.145 124.714L185.148 124.213Z" fill="#3D3D3D"/>
<path d="M185.998 128.503L183.452 127.029C183.331 126.957 183.266 126.871 183.27 126.776L183.266 127.279C183.266 127.375 183.326 127.466 183.448 127.538L185.994 129.014L185.998 128.503Z" fill="#636363"/>
<path d="M189.587 126.785C189.587 126.872 189.522 126.957 189.404 127.03L186.876 128.503C186.626 128.641 186.24 128.641 185.997 128.503L185.994 129.014C186.24 129.148 186.626 129.148 186.869 129.014L189.394 127.546C189.522 127.467 189.587 127.379 189.587 127.284V126.785Z" fill="#3D3D3D"/>
<path d="M186.262 133.642L183.723 132.166C183.598 132.095 183.538 132.008 183.534 131.909V132.418C183.534 132.507 183.598 132.602 183.723 132.677L186.262 134.147V133.642Z" fill="#636363"/>
<path d="M189.851 131.922C189.851 132.009 189.787 132.099 189.669 132.166L187.141 133.642C186.895 133.785 186.509 133.785 186.262 133.642V134.146C186.508 134.284 186.894 134.284 187.141 134.146L189.669 132.68C189.787 132.61 189.851 132.513 189.851 132.424V131.922Z" fill="#3D3D3D"/>
<path d="M198.954 125.78L196.415 124.302C196.29 124.23 196.23 124.143 196.23 124.049L196.222 124.554C196.222 124.646 196.29 124.743 196.415 124.811L198.954 126.289V125.78Z" fill="#636363"/>
<path d="M203.15 124.387C203.15 124.482 203.096 124.568 202.975 124.636L200.446 126.107C200.207 126.248 199.814 126.248 199.571 126.107V126.618C199.811 126.757 200.203 126.757 200.446 126.618L202.975 125.143C203.096 125.071 203.15 124.986 203.15 124.893V124.387Z" fill="#3D3D3D"/>
<path d="M194.694 128.45L192.155 126.981C192.03 126.907 191.969 126.814 191.973 126.721L191.969 127.231C191.969 127.323 192.026 127.415 192.155 127.486L194.694 128.957V128.45Z" fill="#636363"/>
<path d="M198.282 126.727C198.282 126.814 198.222 126.912 198.101 126.975L195.572 128.45C195.333 128.594 194.936 128.594 194.694 128.45V128.957C194.933 129.1 195.333 129.1 195.572 128.957L198.101 127.486C198.222 127.415 198.282 127.323 198.282 127.233V126.727Z" fill="#3D3D3D"/>
<path d="M190.437 131.072L187.89 129.605C187.772 129.528 187.708 129.44 187.708 129.34V129.844C187.708 129.952 187.769 130.038 187.89 130.109L190.433 131.58L190.437 131.072Z" fill="#636363"/>
<path d="M194.022 129.347C194.022 129.44 193.961 129.533 193.833 129.605L191.311 131.072C191.072 131.211 190.679 131.211 190.437 131.072L190.433 131.58C190.679 131.719 191.072 131.719 191.311 131.58L193.833 130.109C193.961 130.038 194.022 129.952 194.022 129.853V129.347Z" fill="#3D3D3D"/>
<path d="M155.379 115.656L152.837 114.186C152.715 114.111 152.648 114.018 152.648 113.928V114.436C152.648 114.523 152.712 114.622 152.826 114.69L155.379 116.164L155.379 115.656Z" fill="#636363"/>
<path d="M158.968 113.891C158.968 113.982 158.904 114.074 158.779 114.143L156.258 115.613C156.018 115.754 155.622 115.754 155.379 115.613V116.125C155.619 116.264 156.018 116.257 156.258 116.122L158.779 114.651C158.904 114.583 158.968 114.486 158.968 114.401V113.891Z" fill="#3D3D3D"/>
<path d="M159.614 118.092L157.072 116.626C156.95 116.549 156.89 116.459 156.89 116.364L156.882 116.872C156.882 116.958 156.943 117.049 157.072 117.13L159.614 118.593V118.092Z" fill="#636363"/>
<path d="M163.2 116.368C163.2 116.464 163.142 116.55 163.025 116.626L160.493 118.092C160.254 118.231 159.86 118.231 159.614 118.092V118.593C159.857 118.743 160.254 118.743 160.493 118.593L163.025 117.13C163.142 117.058 163.2 116.958 163.2 116.879V116.368Z" fill="#3D3D3D"/>
<path d="M164.061 120.666L161.511 119.19C161.386 119.118 161.329 119.022 161.329 118.929V119.439C161.329 119.534 161.383 119.623 161.508 119.698L164.058 121.167L164.061 120.666Z" fill="#636363"/>
<path d="M167.642 118.933C167.642 119.023 167.582 119.119 167.461 119.195L164.935 120.667C164.693 120.801 164.3 120.801 164.061 120.667L164.057 121.168C164.293 121.311 164.693 121.306 164.932 121.168L167.461 119.699C167.582 119.626 167.642 119.534 167.642 119.443V118.933Z" fill="#3D3D3D"/>
<path d="M203.835 123.591L183.448 111.745C183.33 111.67 183.266 111.576 183.266 111.485V111.992C183.266 112.082 183.323 112.173 183.527 112.354L203.836 124.102V123.591H203.835Z" fill="#636363"/>
<path d="M208.353 126.231L205.817 124.766C205.689 124.685 205.625 124.598 205.625 124.503V125.008C205.625 125.107 205.689 125.197 205.817 125.27L208.353 126.739V126.231Z" fill="#636363"/>
<path d="M211.946 124.51C211.946 124.598 211.885 124.689 211.764 124.766L209.239 126.231C208.986 126.374 208.604 126.374 208.354 126.231V126.739C208.596 126.878 208.986 126.878 209.239 126.739L211.764 125.27C211.885 125.197 211.946 125.108 211.946 125.011V124.51Z" fill="#3D3D3D"/>
<path d="M207.421 121.88C207.417 121.967 207.356 122.063 207.239 122.131L204.714 123.601C204.475 123.749 204.078 123.741 203.835 123.601V124.106C204.075 124.256 204.471 124.256 204.714 124.106L207.239 122.643C207.357 122.568 207.418 122.48 207.418 122.386L207.421 121.88Z" fill="#3D3D3D"/>
<path d="M212.857 128.9L210.306 127.426C210.188 127.354 210.128 127.265 210.131 127.167V127.68C210.128 127.77 210.182 127.859 210.306 127.932L212.849 129.408L212.857 128.9Z" fill="#636363"/>
<path d="M216.442 127.172C216.442 127.265 216.381 127.358 216.266 127.426L213.724 128.9C213.492 129.039 213.095 129.039 212.857 128.9L212.849 129.408C213.095 129.544 213.485 129.547 213.724 129.408L216.266 127.932C216.381 127.862 216.438 127.777 216.438 127.68L216.442 127.172Z" fill="#3D3D3D"/>
<path d="M180.035 105.603C180.278 105.742 180.284 105.975 180.042 106.118L177.513 107.584C177.267 107.728 176.874 107.728 176.635 107.584L169.649 103.543C169.41 103.4 169.407 103.174 169.646 103.031L172.178 101.561C172.414 101.418 172.81 101.418 173.05 101.561L180.035 105.603Z" fill="#4A4A4A"/>
<path d="M176.635 107.584L169.649 103.543C169.527 103.475 169.467 103.374 169.467 103.285V103.795C169.467 103.886 169.527 103.975 169.646 104.051L176.635 108.089L176.635 107.584Z" fill="#636363"/>
<path d="M180.22 105.857C180.22 105.951 180.163 106.043 180.041 106.118L177.513 107.584C177.266 107.728 176.873 107.728 176.634 107.584V108.089C176.873 108.232 177.266 108.232 177.513 108.089L180.034 106.616C180.162 106.548 180.22 106.451 180.22 106.365V105.857H180.22Z" fill="#3D3D3D"/>
<path d="M203.918 128.773L201.375 127.301C201.254 127.231 201.193 127.14 201.186 127.043V127.559C201.186 127.645 201.243 127.734 201.375 127.809L203.914 129.276L203.918 128.773Z" fill="#636363"/>
<path d="M207.503 127.054C207.499 127.144 207.442 127.236 207.328 127.301L204.792 128.773C204.553 128.918 204.156 128.918 203.917 128.773L203.914 129.276C204.156 129.424 204.553 129.424 204.792 129.276L207.321 127.809C207.442 127.737 207.499 127.648 207.499 127.56L207.503 127.054Z" fill="#3D3D3D"/>
<path d="M159.464 112.837L156.922 111.359C156.801 111.284 156.732 111.195 156.74 111.106L156.729 111.611C156.729 111.696 156.801 111.796 156.922 111.867L159.465 113.338V112.837H159.464Z" fill="#636363"/>
<path d="M163.05 111.107C163.05 111.2 162.989 111.284 162.871 111.359L160.339 112.837C160.096 112.967 159.703 112.967 159.464 112.837V113.337C159.703 113.479 160.096 113.479 160.335 113.337L162.864 111.871C162.988 111.796 163.049 111.703 163.049 111.611V111.107H163.05Z" fill="#3D3D3D"/>
<path d="M163.903 115.404L161.357 113.928C161.236 113.858 161.175 113.76 161.175 113.674V114.178C161.175 114.268 161.232 114.363 161.357 114.436L163.903 115.904V115.404Z" fill="#636363"/>
<path d="M167.489 113.676C167.489 113.771 167.428 113.858 167.307 113.928L164.786 115.404C164.532 115.545 164.146 115.545 163.904 115.404V115.904C164.147 116.05 164.532 116.043 164.779 115.904L167.307 114.436C167.425 114.363 167.489 114.282 167.489 114.186L167.489 113.676Z" fill="#3D3D3D"/>
<path d="M168.339 117.971L165.8 116.497C165.678 116.423 165.611 116.332 165.611 116.239V116.751C165.611 116.838 165.672 116.933 165.8 117.008L168.339 118.478V117.971Z" fill="#636363"/>
<path d="M171.928 116.246C171.928 116.343 171.871 116.432 171.746 116.497L169.222 117.971C168.975 118.112 168.589 118.112 168.339 117.971V118.478C168.585 118.617 168.975 118.617 169.222 118.475L171.746 117.008C171.868 116.934 171.925 116.844 171.925 116.753L171.928 116.246Z" fill="#3D3D3D"/>
<path d="M199.136 131.018L196.59 129.547C196.468 129.483 196.404 129.385 196.404 129.291V129.798C196.404 129.889 196.468 129.975 196.59 130.055L199.129 131.529L199.136 131.018Z" fill="#636363"/>
<path d="M202.803 129.622C202.803 129.712 202.739 129.804 202.625 129.873L200.089 131.339C199.853 131.479 199.454 131.479 199.214 131.339V131.851C199.454 131.986 199.849 131.986 200.089 131.851L202.618 130.377C202.739 130.313 202.803 130.216 202.803 130.123L202.803 129.622Z" fill="#3D3D3D"/>
<path d="M204.178 133.876L201.636 132.403C201.519 132.334 201.451 132.238 201.451 132.145V132.653C201.447 132.742 201.515 132.838 201.633 132.914L204.178 134.379V133.876Z" fill="#636363"/>
<path d="M207.764 132.145C207.764 132.24 207.711 132.334 207.588 132.403L205.06 133.871C204.817 134.016 204.425 134.016 204.178 133.876V134.379C204.425 134.524 204.817 134.524 205.057 134.379L207.585 132.914C207.707 132.839 207.764 132.744 207.764 132.656V132.145H207.764Z" fill="#3D3D3D"/>
<path d="M212.753 138.938L205.775 134.9C205.65 134.823 205.592 134.733 205.592 134.639L205.589 135.148C205.589 135.242 205.65 135.332 205.775 135.404L212.753 139.444V138.938Z" fill="#636363"/>
<path d="M216.338 137.214C216.338 137.302 216.285 137.402 216.163 137.466L213.631 138.938C213.391 139.075 212.999 139.075 212.752 138.938V139.444C212.998 139.586 213.391 139.586 213.631 139.444L216.163 137.975C216.284 137.906 216.338 137.815 216.338 137.726V137.214Z" fill="#3D3D3D"/>
<path d="M194.872 133.642L192.329 132.166C192.208 132.095 192.154 132.008 192.154 131.909V132.418C192.154 132.507 192.207 132.602 192.329 132.677L194.872 134.147V133.642Z" fill="#636363"/>
<path d="M198.458 131.922C198.458 132.013 198.4 132.103 198.282 132.166L195.754 133.642C195.508 133.785 195.114 133.785 194.872 133.642V134.146C195.114 134.284 195.508 134.284 195.75 134.146L198.282 132.676C198.4 132.61 198.458 132.513 198.458 132.426V131.922H198.458Z" fill="#3D3D3D"/>
<path d="M199.315 136.209L196.776 134.74C196.643 134.665 196.59 134.574 196.59 134.48L196.583 134.989C196.583 135.083 196.643 135.168 196.772 135.243L199.315 136.716V136.209Z" fill="#636363"/>
<path d="M202.985 134.642C202.985 134.74 202.921 134.828 202.803 134.9L200.275 136.37C200.029 136.513 199.636 136.513 199.396 136.37V136.869C199.636 137.018 200.028 137.018 200.271 136.869L202.803 135.405C202.921 135.336 202.975 135.244 202.978 135.156L202.985 134.642Z" fill="#3D3D3D"/>
<path d="M208.195 141.344L201.207 137.306C201.085 137.237 201.024 137.144 201.024 137.054V137.555C201.024 137.65 201.085 137.738 201.207 137.815L208.192 141.848L208.195 141.344Z" fill="#636363"/>
<path d="M211.778 139.629C211.778 139.713 211.717 139.808 211.599 139.879L209.067 141.344C208.831 141.492 208.435 141.492 208.195 141.344L208.192 141.848C208.431 141.995 208.828 141.995 209.067 141.848L211.599 140.383C211.713 140.312 211.774 140.223 211.774 140.13L211.778 139.629Z" fill="#3D3D3D"/>
<path d="M190.691 136.073L188.152 134.6C188.027 134.527 187.97 134.44 187.97 134.348V134.851C187.97 134.945 188.023 135.042 188.145 135.108L190.691 136.581V136.073H190.691Z" fill="#636363"/>
<path d="M194.279 134.35C194.283 134.443 194.225 134.534 194.094 134.604L191.568 136.073C191.33 136.212 190.93 136.212 190.69 136.073V136.581C190.93 136.723 191.33 136.723 191.568 136.581L194.094 135.108C194.218 135.044 194.279 134.949 194.279 134.86V134.35Z" fill="#3D3D3D"/>
<path d="M195.133 138.645L192.59 137.169C192.461 137.101 192.401 137.003 192.401 136.915V137.421C192.401 137.514 192.461 137.609 192.586 137.681L195.133 139.151V138.645Z" fill="#636363"/>
<path d="M198.718 136.916C198.718 137.004 198.654 137.101 198.54 137.169L196.011 138.646C195.775 138.781 195.371 138.781 195.132 138.646V139.152C195.371 139.293 195.768 139.293 196.011 139.152L198.54 137.681C198.654 137.613 198.714 137.519 198.714 137.429L198.718 136.916Z" fill="#3D3D3D"/>
<path d="M198.532 136.663C198.782 136.799 198.782 137.028 198.54 137.169L196.011 138.645C195.776 138.781 195.372 138.781 195.133 138.645L192.59 137.169C192.344 137.028 192.344 136.798 192.586 136.659L195.111 135.188C195.351 135.048 195.743 135.048 195.99 135.188L198.532 136.663Z" fill="#4A4A4A"/>
<path d="M204.011 143.781L197.025 139.744C196.904 139.669 196.847 139.57 196.847 139.486L196.839 139.997C196.839 140.083 196.903 140.18 197.024 140.242L204.002 144.287L204.011 143.781Z" fill="#636363"/>
<path d="M207.593 142.058C207.593 142.151 207.538 142.233 207.418 142.31L204.889 143.781C204.646 143.922 204.246 143.922 204.01 143.781L204.003 144.287C204.246 144.426 204.642 144.426 204.888 144.287L207.413 142.816C207.538 142.752 207.592 142.656 207.592 142.56L207.593 142.058Z" fill="#3D3D3D"/>
<path d="M220.602 134.452C220.845 134.585 220.845 134.815 220.602 134.963L218.077 136.43C217.831 136.567 217.442 136.573 217.198 136.43L205.985 129.926C205.745 129.776 205.742 129.558 205.985 129.413L208.51 127.944C208.753 127.802 209.153 127.802 209.392 127.944L220.602 134.452Z" fill="#4A4A4A"/>
<path d="M217.198 136.431L205.985 129.927C205.867 129.854 205.806 129.762 205.806 129.669L205.799 130.175C205.799 130.265 205.867 130.363 205.984 130.434L217.198 136.935V136.431H217.198Z" fill="#636363"/>
<path d="M220.791 134.709C220.791 134.801 220.727 134.894 220.602 134.963L218.077 136.434C217.838 136.575 217.441 136.575 217.198 136.434V136.942C217.441 137.081 217.838 137.081 218.077 136.942L220.602 135.47C220.727 135.404 220.791 135.307 220.783 135.218L220.791 134.709Z" fill="#3D3D3D"/>
<path d="M148.519 73.5867C147.744 73.1337 146.783 73.1373 146.019 73.5985L145.354 73.9887L202.289 107.584L203.453 149.27L204.817 148.472V108.891C204.817 107.098 203.853 105.422 202.3 104.534L148.519 73.5867Z" fill="#8E8D8D"/>
<path d="M200.942 105.328C202.493 106.218 203.453 107.893 203.453 109.684V149.27L144.294 115.15V75.5696C144.294 74.2785 145.701 73.4704 146.808 74.1178L200.942 105.328Z" fill="#D8D7D6"/>
<path opacity="0.12" d="M153.49 229.145C148.776 226.098 142.727 225.908 137.831 228.656L54.945 275.16C49.4601 278.331 49.4276 283.481 54.8808 286.652L98.884 312.458C104.337 315.636 113.204 315.636 118.692 312.458L196.903 266.931C200.52 264.827 200.642 259.638 197.128 257.365L153.49 229.145Z" fill="#020202"/>
<path d="M150.875 244.752C150.644 240.91 153.733 207.666 154.5 189.975C154.568 188.382 154.258 179.543 149.229 176.488C146.029 173.894 132.666 176.906 130.945 176.795C126.849 176.523 139.306 183.36 138.509 182.451C137.634 185.993 135.034 198.043 137.055 209.369C138.973 220.137 143.426 243.377 142.68 244.269C139.359 248.28 145.311 255.137 145.311 255.137C145.311 255.137 147.4 263.287 151.129 265.969C152.554 266.992 158.164 266.357 155.964 262.83C154.522 260.521 151.354 252.637 150.875 244.752Z" fill="#DDB19E"/>
<path opacity="0.35" d="M143.916 195.472C144.466 190.387 145.587 187.109 146.637 184.568C146.084 184.654 145.591 184.693 145.198 184.668C141.102 184.398 139.306 183.36 138.51 182.451C137.634 185.993 135.035 198.043 137.056 209.369C138.973 220.137 143.427 243.377 142.68 244.269C139.359 248.28 145.312 255.137 145.312 255.137C145.312 255.137 147.401 263.287 151.129 265.969C151.541 266.265 155.24 267.431 156.054 267.427C154.169 260.543 149.64 254.452 148.472 247.046C146.937 237.302 141.613 216.812 143.916 195.472Z" fill="#DDB19E"/>
<path d="M142.455 244.269C142.455 244.269 139.217 246.393 141.373 252.6C141.802 253.82 142.548 253.654 142.584 253.943C142.584 253.943 143.23 254.519 143.809 256.25C144.93 259.629 145.794 262.774 146.651 264.735C147.479 266.641 149.373 268.374 152.733 268.759C156.175 269.153 158.821 269.064 159.603 268.94C160.503 268.795 160.364 267.575 159.496 266.704C158.342 265.55 156.439 263.483 156.439 263.483C156.439 263.483 155.01 263.355 154.136 262.811C151.35 261.08 150.093 255.849 146.744 248.294C145.212 244.835 142.455 244.269 142.455 244.269Z" fill="#323B42"/>
<path d="M142.569 252.274C143.561 252.439 143.74 252.945 144.294 254.124C146.14 258.059 148.611 262.68 150.34 265.706C151.458 267.666 152.775 268.428 153.926 268.714C153.479 268.679 153.019 268.633 152.536 268.58C149.176 268.193 147.283 266.461 146.455 264.552C145.602 262.595 144.738 259.45 143.612 256.069C143.037 254.34 142.387 253.762 142.387 253.762C142.377 253.687 142.452 252.914 142.352 252.752C142.276 252.631 142.019 252.154 142.569 252.274Z" fill="#6E777C"/>
<path d="M142.191 268.94C142.191 268.94 142.213 269.246 142.716 269.204C143.148 269.167 143.184 268.987 143.184 268.987L143.291 248.151L141.852 248.653L142.191 268.94Z" fill="#323B42"/>
<path d="M164.456 250.469C164.224 246.628 165.217 210.805 165.989 193.112C166.056 191.518 166.303 190.333 166.396 187.737C166.575 182.643 161.475 180.498 159.757 180.384C155.661 180.115 138.927 182.137 136.888 182.137C136.649 183.104 146.591 182.851 146.723 185.19C147.144 192.695 149.087 206.395 150.634 215.085C152.554 225.855 157.008 249.093 156.262 249.985C152.94 253.996 158.89 260.854 158.89 260.854C158.89 260.854 160.982 269.004 164.711 271.685C166.132 272.708 171.746 272.073 169.543 268.546C168.103 266.24 164.935 258.356 164.456 250.469Z" fill="#F2C4AC"/>
<path opacity="0.35" d="M157.493 201.189C158.043 196.104 158.696 195.363 159.743 192.823C160.657 190.992 159.172 190.41 158.778 190.385C154.682 190.116 150.483 192.816 149.686 191.908C148.808 195.449 148.615 203.759 150.633 215.086C152.553 225.856 157.007 249.094 156.261 249.986C152.94 253.997 158.889 260.855 158.889 260.855C158.889 260.855 160.981 269.005 164.71 271.686C165.121 271.983 168.82 273.151 169.635 273.144C167.749 266.261 163.217 260.17 162.05 252.763C160.514 243.019 155.193 222.529 157.493 201.189Z" fill="#DDB19E"/>
<path d="M156.032 249.986C156.032 249.986 152.797 252.111 154.954 258.316C155.382 259.537 156.129 259.372 156.165 259.66C156.165 259.66 156.811 260.236 157.386 261.967C158.511 265.346 159.374 268.492 160.228 270.451C161.06 272.36 162.954 274.091 166.31 274.476C169.756 274.869 172.402 274.782 173.184 274.657C174.084 274.512 173.945 273.292 173.077 272.421C171.923 271.267 170.016 269.201 170.016 269.201C170.016 269.201 168.591 269.073 167.713 268.528C164.931 266.797 163.674 261.566 160.325 254.011C158.789 250.551 156.032 249.986 156.032 249.986Z" fill="#323B42"/>
<path d="M155.646 257.953C156.635 258.116 157.517 258.842 158.071 260.021C159.914 263.956 162.389 268.575 164.117 271.603C165.235 273.564 166.549 274.326 167.699 274.612C167.252 274.577 166.792 274.532 166.31 274.476C162.953 274.091 161.06 272.361 160.228 270.451C159.375 268.492 158.511 265.346 157.386 261.967C156.811 260.235 156.165 259.66 156.165 259.66C156.155 259.583 156.226 258.812 156.129 258.651C156.049 258.526 155.093 257.834 155.646 257.953Z" fill="#6E777C"/>
<path d="M155.772 274.656C155.772 274.656 155.793 274.964 156.297 274.922C156.725 274.884 156.761 274.703 156.761 274.703L156.871 253.867L155.432 254.372L155.772 274.656Z" fill="#323B42"/>
<path d="M63.2761 278.175L59.0618 275.721L59.0658 278L63.2792 280.454L63.2761 278.175Z" fill="#A1A1A1"/>
<path d="M91.7278 256.671C93.7132 255.011 95.3453 252.017 95.3417 249.376L95.2348 207.866C95.2129 200.597 92.6413 195.478 88.4988 193.065C89.9068 193.882 91.3097 194.7 92.7126 195.517C96.8552 197.928 99.4262 203.048 99.4481 210.321C99.5627 250.317 99.5907 252.052 99.4731 252.863C99.0514 255.655 97.1342 258.563 94.9481 259.823L63.2768 278.176L59.0625 275.722C85.3991 260.488 91.0128 257.262 91.7278 256.671Z" fill="#3D60AF"/>
<path d="M63.0725 202.522L63.0801 204.796L76.3144 197.116C89.0272 189.761 99.4052 195.681 99.448 210.321L99.5554 251.83C99.5626 254.764 97.4946 258.352 94.948 259.822L63.2767 278.175L63.2798 280.454L94.9556 262.101C98.5945 260.002 101.544 254.875 101.534 250.689L101.427 209.176C101.38 193.285 90.1134 186.848 76.3113 194.833L63.0725 202.522Z" fill="#5C90DD"/>
<path d="M63.0727 202.522L58.8594 200.067L58.866 202.346L63.0803 204.796L63.0727 202.522Z" fill="#5C90DD"/>
<path d="M72.0972 192.381C79.0395 188.363 85.3462 187.997 89.8992 190.648L94.1166 193.102C89.5601 190.451 83.2533 190.816 76.311 194.833L63.0727 202.521L58.8594 200.067L72.0972 192.381Z" fill="#B4B4B4"/>
<path d="M72.0972 192.381C79.0395 188.363 85.3462 187.997 89.8992 190.648L94.1166 193.102C89.5601 190.451 83.2533 190.816 76.311 194.833L63.0727 202.521L58.8594 200.067L72.0972 192.381Z" fill="#82A9FE"/>
<mask id="mask0_717_29360" style="mask-type:luminance" maskUnits="userSpaceOnUse" x="120" y="197" width="51" height="31">
<path d="M169.099 225.364C152.893 215.931 136.694 206.498 120.493 197.066C120.968 197.345 121.335 197.91 121.457 198.933C121.489 199.21 121.603 199.406 121.774 199.506C137.976 208.936 154.175 218.367 170.377 227.8C170.209 227.701 170.091 227.507 170.056 227.228C169.938 226.205 169.571 225.638 169.099 225.364Z" fill="white"/>
</mask>
<g mask="url(#mask0_717_29360)">
<path d="M169.099 225.364L120.493 197.066C120.968 197.345 121.335 197.91 121.457 198.933C121.489 199.21 121.603 199.406 121.774 199.506L170.377 227.8C170.209 227.701 170.091 227.507 170.056 227.228C169.938 226.205 169.571 225.638 169.099 225.364Z" fill="#4D5454"/>
</g>
<path d="M85.1456 214.031C88.3781 212.16 92.2523 209.831 96.8847 207.052C102.88 203.459 109.672 199.391 117.14 195.07C117.236 195.009 117.336 194.945 117.444 194.884C118.79 194.109 120.736 193.478 122.11 194.279C138.312 203.717 154.515 213.143 170.714 222.577C169.334 221.776 167.392 222.402 166.049 223.179C165.942 223.241 165.838 223.304 165.742 223.368C158.275 227.69 151.482 231.754 145.487 235.349C140.851 238.125 136.981 240.454 133.744 242.324C125.921 246.849 121.868 248.671 119.975 247.571L71.3726 219.275C73.2689 220.377 77.3183 218.555 85.1456 214.031Z" fill="#CBDBFF"/>
<path d="M130.631 240.529C133.866 238.658 137.741 236.328 142.373 233.553C148.368 229.957 155.161 225.893 162.632 221.572C162.725 221.508 162.828 221.45 162.935 221.385C165.057 220.055 167.153 220.506 167.599 220.781C168.056 221.061 168.978 221.568 170.714 222.577C169.334 221.776 167.392 222.402 166.049 223.179C165.942 223.241 165.838 223.304 165.742 223.368C158.275 227.69 151.482 231.754 145.487 235.349C140.851 238.125 136.981 240.454 133.744 242.324C125.921 246.849 121.868 248.671 119.975 247.571L116.986 245.829C118.925 246.794 122.967 244.96 130.631 240.529Z" fill="#6288DD"/>
<path d="M58.1414 275.077C84.1649 290.224 90.6458 293.999 116.668 309.157C116.44 309.018 116.122 309.039 115.768 309.243C114.64 309.894 114.086 311.795 114.872 312.253C88.8492 297.101 82.3714 293.323 56.3449 278.175C56.1198 278.043 55.9767 277.76 55.9731 277.356C55.9737 276.058 57.3481 274.615 58.1414 275.077Z" fill="#3D60AF"/>
<path d="M115.768 309.243C115.065 309.647 114.5 310.629 114.5 311.441C114.508 312.242 115.076 312.568 115.776 312.163C116.476 311.756 117.043 310.775 117.04 309.968C117.036 309.16 116.469 308.838 115.768 309.243Z" fill="#3D60AF"/>
<path d="M106.787 95.8186L95.3733 92.8098L96.7986 98.151L103.78 103.416H107.762L106.787 95.8186Z" fill="#DDA058"/>
<path d="M100.994 117.358C100.994 117.358 103.169 110.113 103.106 103.573C103.048 97.8408 103.106 95.8819 103.106 95.8819L116.672 101.781C116.672 101.781 115.712 113.405 115.712 116.969C115.712 117.739 117.339 119.096 116.033 122.307C115.068 124.662 109.183 130.431 100.994 117.358Z" fill="#F2C4AC"/>
<path opacity="0.29" d="M114.472 100.824C113.679 107.409 112.433 117.857 111.569 125.589C108.923 125.87 105.273 124.187 100.994 117.358C100.994 117.358 103.169 110.113 103.106 103.573C103.059 98.8723 103.091 96.7139 103.102 96.0875C103.12 96.0227 103.141 95.9625 103.162 95.9069L114.472 100.824Z" fill="#B79484"/>
<path d="M112.287 70.0826C122.236 68.8476 124.925 76.3145 126.361 83.3049C126.885 85.8699 125.15 88.417 125.286 89.4261C125.446 90.6392 126.436 91.6084 125.933 95.0871C125.55 97.7398 124.565 101.359 123.097 105.512C122.261 107.879 121.355 109.482 120.055 109.872C117.051 110.775 112.455 109.988 106.242 104.682C100.735 99.9599 98.7493 91.1901 98.5344 90.3637L100.835 77.1981C100.834 77.1975 106.987 70.7366 112.287 70.0826Z" fill="#FFD7C2"/>
<path opacity="0.29" d="M109.601 70.0826C119.554 68.8476 123.749 75.1391 125.824 81.9648C126.078 82.7927 123.925 88.6705 124.06 89.6796C124.224 90.8891 124.778 90.9697 124.528 94.4734C124.457 95.4829 123.703 98.6555 123.231 100.566C122.635 103.004 121.517 109.447 120.218 109.837C117.215 110.74 109.765 109.988 103.551 104.681C98.0477 99.9589 96.0627 91.1891 95.8442 90.3627L98.148 77.197C98.149 77.1975 104.302 70.7366 109.601 70.0826Z" fill="#B79484"/>
<path opacity="0.34" d="M108.341 71.7814C108.465 71.7258 108.555 71.6778 108.58 71.6493C108.716 71.4921 108.583 71.5411 108.341 71.7814Z" fill="#F2C4AC"/>
<path opacity="0.37" d="M106.337 104.394C110.544 107.988 114.158 109.569 117.072 109.871C117.697 109.9 118.3 109.891 118.862 109.847C116.897 109.133 115.194 109.233 111.79 105.522C108.943 102.417 106.319 98.151 105.587 95.7936C104.084 90.9815 105.119 88.9868 106.987 88.0732C108.312 87.4227 116.497 85.9658 120.264 81.9811C122.36 79.7554 123.353 76.6899 122.996 74.1678C122.425 73.1139 121.703 72.1967 120.785 71.4702C118.242 71.9712 110.561 73.0011 103.997 74.1301C102.711 75.1733 101.494 76.3175 100.93 76.9083L98.6265 90.076C98.8444 90.9029 100.831 99.6722 106.337 104.394Z" fill="#D8B09E"/>
<path d="M114.354 149.848C114.354 149.848 100.973 153.962 93.3778 154.393C92.1989 154.457 91.6887 154.531 91.3674 154.153C90.9422 153.661 90.0816 154.259 89.9028 154.386C89.8417 154.427 81.9355 157.124 81.9426 157.171C82.6535 163.549 87.0318 163.521 87.0318 163.521C99.4162 165.614 115.246 156.625 115.246 156.625C116.083 156.011 120.06 153.94 117.668 151.679C116.311 150.396 114.354 149.848 114.354 149.848Z" fill="white"/>
<path d="M92.2881 157.129C92.2922 156.942 91.8527 156.413 91.8629 156.216C92.1847 149.617 95.538 136.436 97.6125 130.451C100.155 123.11 99.9056 112.606 95.8445 112.433C91.181 112.231 87.9205 115.384 85.6738 122.431C82.9316 131.029 80.9741 151.329 82.0674 158.138C82.0924 158.3 82.128 158.465 82.1601 158.629L91.5986 158.057C91.4774 157.763 92.2774 157.461 92.2881 157.129Z" fill="white"/>
<path opacity="0.35" d="M114.311 156.115C114.261 156.046 114.2 155.987 114.147 155.919C108.304 157.462 88.8777 162.877 86.4242 160.316C86.3346 160.226 86.299 160.167 86.2924 160.126H89.6553C89.8198 160.008 89.7699 159.914 89.3589 159.914C86.7664 159.914 85.9883 159.302 85.6624 158.713C85.5061 158.429 87.4376 158.475 87.4376 157.656C87.4376 157.357 85.3594 156.796 85.3594 156.455C85.4058 148.968 87.8623 133.3 91.5588 124.362C92.7804 121.409 94.3371 121.974 97.5009 120.851C97.119 120.539 97.3043 115.223 96.815 115.203C92.152 115.001 87.9198 115.384 85.6731 122.43C85.0055 124.056 84.702 126.117 84.0416 129.329C82.2308 139.116 81.2062 152.788 82.0668 158.137C82.1529 158.665 82.3382 159.178 82.5658 159.711H82.5592C82.5592 159.711 82.6341 159.881 82.738 160.119C82.7415 160.119 82.7415 160.123 82.7415 160.127C82.9915 160.683 83.456 161.638 83.8017 161.91C84.4882 162.449 85.2128 163.21 86.0836 163.36C97.4148 165.332 111.046 160.553 111.046 160.553C111.983 160.098 116.264 158.767 114.311 156.115Z" fill="#ACC6CC"/>
<path d="M135.67 175.573C138.649 175.573 143.72 179.961 147.151 183.303C149.265 185.36 150.754 187.02 150.754 187.02C155.172 199.537 148.633 207.752 146.641 208.696C146.641 208.696 141.887 205.017 137.345 206.864C130.167 209.773 116.011 217.155 108.812 216.362C99.2877 215.312 95.8738 214.386 90.4603 210.089C86.4786 206.947 86.5535 200.147 87.3209 193.978C88.2243 186.735 96.5526 177.387 96.5526 177.387C96.5526 177.387 134.873 175.573 135.67 175.573Z" fill="#024063"/>
<path d="M125.967 159.579C124.886 172.959 125.31 174.963 129.424 177.1C125.41 179.867 125.614 189.768 118.603 192.973C100.506 201.252 92.2882 192.913 88.4028 190.027C90.3633 184.117 92.9023 165.716 92.9023 161.457C92.1309 152.42 88.7461 129.543 89.6102 117.287C89.9066 113.05 95.2453 112.002 95.2697 112.048C103.427 111.664 118.925 117.122 120.757 117.79C123.925 118.944 125.939 119.808 128.049 126.057C129.56 130.533 130.753 134.737 131.509 137.119C134.198 145.58 132.816 147.004 129.335 151.268C127.607 153.383 126.249 156.131 125.967 159.579Z" fill="white"/>
<path opacity="0.35" d="M92.9023 161.457C92.9023 165.716 90.3633 184.117 88.4028 190.027C92.2882 192.913 97.3698 203.749 116.015 196.791C123.786 193.889 126.071 186.105 126.225 182.441C120.889 178.778 120.932 162.352 120.932 161.454C120.932 157.992 121.793 149.773 122.225 144.869C122.71 139.382 124.521 132.408 123.01 127.932C120.901 121.684 119.036 120.131 116.015 118.639C110.618 115.971 100.17 109.631 92.2454 114.668C91.0208 115.449 89.6886 116.075 89.6102 117.287C88.7461 129.544 92.1314 152.42 92.9023 161.457Z" fill="#ACC6CC"/>
<path d="M131.966 137.371C128.953 123.235 123.885 119.143 119.721 119.41C115.665 119.669 114.804 127.163 117.889 137.379C119.125 141.47 121.788 153.711 125.399 165.346L137.659 164.675C135.424 155.195 132.731 140.962 131.966 137.371Z" fill="white"/>
<path d="M118.268 116.934C118.268 116.934 117.436 113.891 116.9 113.22C115.75 111.779 105.447 107.976 102.865 108.389C101.065 108.678 102.165 109.714 101.644 110.913C101.137 112.066 100.672 112.427 100.672 112.427C100.672 112.427 113.014 115.203 118.268 116.934Z" fill="#F0FCFF"/>
<path d="M92.2878 74.5989L92.352 74.629C92.4518 74.427 92.5557 74.2234 92.6703 74.0336C101.551 59.485 119.657 67.6727 121.578 68.8945C126.546 72.0518 132.013 77.5307 124.728 87.7263C121.939 91.6293 120.582 95.3518 120.5 100.843C120.25 117.18 124.989 122.162 124.528 122.183C120.596 122.376 109.883 121.922 103.612 118.82C96.0306 115.071 95.2632 112.379 94.6883 110.263C94.6236 110.031 92.9203 100.698 92.1957 95.0656C92.3209 101.994 93.8242 111.225 93.8242 111.225C93.8242 111.225 91.5209 105.841 90.5458 90.1484C89.8349 78.7234 92.2878 74.5989 92.2878 74.5989Z" fill="#C98F43"/>
<path d="M126.353 118.243C126.353 118.243 120.1 108.063 123.953 97.4286C129.857 81.1369 127.552 75.08 127.552 75.08L118.49 93.7827C118.49 93.7827 119.2 99.659 119.836 103.396C121.461 112.955 126.353 118.243 126.353 118.243Z" fill="#C98F43"/>
<path opacity="0.36" d="M117.765 71.3304C122.733 74.4897 125.835 80.4726 121.508 92.2369C121.108 93.32 120.547 94.6708 120.004 96.2349C119.947 95.8865 119.819 96.0885 119.587 97.1419C119.493 97.575 120.501 86.9029 120.501 86.9029C120.501 86.9029 117.286 96.997 117.286 107.955C117.286 115.4 118.965 118.913 120.043 120.405C120.236 121.067 120.429 121.643 120.618 122.179C115.647 121.997 108.359 121.168 103.613 118.82C96.0314 115.071 95.264 112.379 94.6891 110.263C94.6245 110.031 92.9211 100.698 92.1965 95.0656C92.3217 101.994 93.825 111.225 93.825 111.225C93.825 111.225 91.5217 105.841 90.5466 90.1484C90.0995 83.0402 90.8852 78.7575 91.5391 76.5379C100.602 64.0146 115.918 70.1571 117.765 71.3304Z" fill="#C98F43"/>
<path d="M154.151 142.156C154.151 142.156 159.629 134.77 161.261 134.34C162.893 133.91 164.268 133.263 166.554 132.989C168.325 132.78 169.242 133.22 169.306 133.614C169.372 134.011 168.757 134.337 167.289 134.534C165.85 134.727 165.746 135.131 165.746 135.131C165.746 135.131 169.061 134.94 170.417 135.463C171.671 135.95 171.26 136.664 171.321 136.777C171.607 137.32 172.749 137.458 173.138 138.612C173.409 139.413 172.988 139.681 172.938 140.004C172.881 140.36 173.753 141.148 171.834 141.442C169.835 141.746 167.588 142.74 165.974 143.882C163.682 145.49 162.171 147.522 158.936 148.436C155.286 149.467 153.387 150.784 153.387 150.784L151.176 144.937L154.151 142.156Z" fill="#EFCAB1"/>
<path d="M130.474 155.783C129.314 156.424 125.936 157.851 123.832 158.828C123.832 158.828 125.167 168.213 127.989 169.009C129.857 169.535 136.284 167.493 137.66 166.664C145.43 161.976 157.66 149.535 157.66 149.535C157.66 149.535 157.075 146.299 155.565 144.287C153.954 142.146 153.547 142.092 153.008 141.994C153.008 141.994 143.216 148.76 130.474 155.783Z" fill="white"/>
<path opacity="0.35" d="M155.997 144.865C150.919 150.311 145.441 155.232 133.656 161.592C133.003 161.943 131.699 163.064 130.946 162.577C130.135 162.057 130.024 161.198 129.817 160.236C127.374 148.822 125.197 136.059 123.214 128.567C121.918 123.657 118.139 120.278 116.947 121.527C116.572 122.253 116.289 123.355 116.132 124.634C115.758 127.621 116.236 131.911 117.889 137.379C118.964 140.943 122.271 154.241 125.496 165.302C125.464 165.315 125.995 166.557 126.282 167.317C126.642 168.283 128.071 169.029 128.071 169.029C130.485 169.497 136.195 167.548 137.659 166.664C145.43 161.975 157.66 149.534 157.66 149.534C157.66 149.534 157.29 146.798 155.997 144.865Z" fill="#ACC6CC"/>
<path d="M57.1735 166.414C57.1521 166.375 57.1343 166.336 57.117 166.296C57.1093 166.275 57.1063 166.248 57.0951 166.223C57.0874 166.181 57.0773 166.137 57.0701 166.092C57.0661 166.067 57.0661 166.038 57.0625 166.01C57.0589 165.958 57.0589 165.906 57.0625 165.852C57.0625 165.827 57.0625 165.802 57.0625 165.78C57.0701 165.698 57.0808 165.616 57.0981 165.53C57.1017 165.519 57.1058 165.509 57.1088 165.497C57.1226 165.424 57.1445 165.347 57.173 165.27C57.1801 165.243 57.1949 165.215 57.2051 165.186C57.2193 165.147 57.2346 165.108 57.2519 165.065C57.2555 165.053 57.2662 165.042 57.2728 165.024C57.3232 164.911 57.3874 164.793 57.4592 164.682C57.5269 164.584 57.5951 164.489 57.6659 164.408C57.6766 164.396 57.6802 164.387 57.6873 164.378C57.698 164.363 57.7163 164.353 57.7265 164.338C57.7836 164.282 57.8335 164.226 57.891 164.179C57.9119 164.161 57.9338 164.138 57.9546 164.122C58.03 164.061 58.1049 164.004 58.1797 163.961C58.4725 163.791 58.7689 163.756 58.9874 163.881C75.1884 173.315 91.3914 182.745 107.59 192.177C107.372 192.049 107.075 192.086 106.782 192.256C106.707 192.303 106.632 192.358 106.558 192.418C106.536 192.434 106.514 192.454 106.493 192.476C106.436 192.524 106.382 192.576 106.333 192.633C106.311 192.656 106.29 192.68 106.268 192.703C106.197 192.787 106.129 192.878 106.062 192.977C105.99 193.092 105.929 193.206 105.876 193.324C105.854 193.376 105.829 193.432 105.808 193.482C105.798 193.511 105.783 193.537 105.775 193.567C105.751 193.642 105.729 193.721 105.711 193.794C105.708 193.805 105.704 193.816 105.701 193.828C105.683 193.911 105.672 193.995 105.665 194.075C105.665 194.1 105.665 194.125 105.665 194.147C105.661 194.203 105.661 194.254 105.665 194.306C105.665 194.333 105.669 194.362 105.673 194.386C105.68 194.433 105.687 194.476 105.701 194.519C105.709 194.544 105.712 194.565 105.719 194.591C105.737 194.633 105.755 194.673 105.776 194.708C105.784 194.723 105.794 194.745 105.805 194.762C105.84 194.813 105.877 194.856 105.922 194.895C109.79 197.988 114.207 206.014 116.911 214.868C120.017 225.048 120.453 234.641 118.104 241.184C116.585 245.405 116.379 248.133 117.464 249.534C117.782 249.939 118.129 250.26 118.524 250.489L69.9219 222.195C69.5263 221.966 69.1795 221.648 68.8617 221.24C67.7761 219.84 67.9803 217.111 69.5013 212.886C71.8509 206.346 71.415 196.755 68.3082 186.573C65.6012 177.719 61.1877 169.695 57.3196 166.6C57.2728 166.561 57.2346 166.514 57.202 166.466C57.1913 166.446 57.1806 166.428 57.1735 166.414Z" fill="#CBDBFF"/>
<path d="M106.783 192.256C106.53 192.404 106.273 192.649 106.062 192.977C105.583 193.713 105.523 194.572 105.923 194.895C109.791 197.988 114.208 206.014 116.911 214.868C120.018 225.047 120.454 234.641 118.104 241.184C116.586 245.405 116.379 248.133 117.465 249.533C119.6 252.273 123.15 251.068 133.325 245.184C136.631 243.273 140.645 240.858 145.533 237.932C151.529 234.336 158.319 230.269 165.782 225.95C166.757 225.384 169.667 223.93 170.057 227.228C170.132 227.847 170.621 228.047 171.182 227.718C171.946 227.182 172.382 226.277 172.303 225.605C171.767 221.103 168.164 221.958 166.05 223.178C165.942 223.24 165.839 223.304 165.743 223.368C158.276 227.689 151.483 231.754 145.488 235.349C140.852 238.125 136.981 240.454 133.745 242.323C124.993 247.387 120.957 249.068 119.39 247.053C118.758 246.243 118.994 244.341 120.108 241.239C126.071 224.638 115.551 198.533 107.659 192.222C107.433 192.041 107.108 192.068 106.783 192.256Z" fill="#82A9FE"/>
<path d="M114.897 308.423L110.683 305.969L110.69 308.251L114.904 310.704L114.897 308.423Z" fill="#5C90DD"/>
<path d="M143.344 286.919C145.333 285.263 146.965 282.264 146.958 279.628L146.855 238.118C146.837 230.847 144.262 225.728 140.12 223.314C141.527 224.132 142.93 224.947 144.334 225.769C148.48 228.18 151.047 233.301 151.069 240.57C151.183 280.565 151.211 282.304 151.094 283.116C150.677 285.906 148.751 288.811 146.57 290.075L114.897 308.424L110.684 305.969C137.02 290.736 142.633 287.513 143.344 286.919Z" fill="#3D60AF"/>
<path d="M114.693 232.769L114.697 235.05L127.935 227.364C140.649 220.009 151.029 225.933 151.068 240.57L151.176 282.082C151.183 285.012 149.115 288.604 146.569 290.075L114.897 308.424L114.905 310.705L146.576 292.353C150.212 290.25 153.165 285.127 153.154 280.938L153.047 239.428C153 223.535 141.734 217.1 127.928 225.086L114.693 232.769Z" fill="#5C90DD"/>
<path d="M114.693 232.769L110.479 230.316L110.487 232.598L114.697 235.05L114.693 232.769Z" fill="#5C90DD"/>
<path d="M123.717 222.629C130.66 218.613 136.966 218.245 141.519 220.897L145.737 223.352C141.18 220.701 134.877 221.067 127.927 225.085L114.693 232.769L110.479 230.315L123.717 222.629Z" fill="#B4B4B4"/>
<path d="M123.717 222.629C130.66 218.613 136.966 218.245 141.519 220.897L145.737 223.352C141.18 220.701 134.877 221.067 127.927 225.085L114.693 232.769L110.479 230.315L123.717 222.629Z" fill="#82A9FE"/>
<path d="M237.407 112.568C237.026 113.394 242.096 111.957 248.549 110.05C257.666 107.356 269.43 103.284 271.465 99.5355C276.008 91.1825 283.925 80.843 289.774 66.1939C295.566 51.6835 281.761 38.9469 273.879 53.5399C271.076 58.7326 264.912 77.4888 263.091 81.1256C261.005 85.2934 255.349 90.8856 251.449 93.6847C252.156 95.3891 240.296 106.333 237.407 112.568Z" fill="#2493F8"/>
<path d="M227.422 108.819C228.383 108.19 230.133 106.604 231.179 105.562C232.322 104.419 232.02 103.026 233.641 101.991C242.925 96.0492 258.327 91.4686 262.212 86.1117C263.276 86.2887 264.59 86.7427 265.804 87.7089C268.219 89.626 274.039 96.2124 271.733 99.865C268.858 104.416 246.899 113.754 241.564 114.519C238.546 114.95 235.69 114.476 234.768 115.016C232.383 114.833 225.537 110.053 227.422 108.819Z" fill="#2493F8"/>
<path opacity="0.14" d="M305.998 108.694C299.755 96.0369 300.513 68.2829 297.759 55.8146C295.181 44.1309 287.777 41.2297 276.072 38.1475C277.061 38.8989 277.361 39.4172 277.696 40.339C277.989 40.7823 277.989 41.5266 277.96 42.0092C280.953 43.7044 283.318 45.2221 283.318 45.2221C283.318 45.2221 287.999 49.2037 286.157 55.7432C284.31 62.2862 276.607 85.0577 270.973 89.6362C268.669 91.5074 273.105 91.7737 267.773 96.5047C266.519 97.6163 247.445 109.515 243.546 107.953C242.786 107.649 236.176 111.169 235.444 111.484C235.208 111.584 230.265 115.72 235.054 114.863C237.572 113.742 238.379 114.65 242.632 114.06C248.117 113.294 253.146 110.854 256.191 109.174C258.281 108.023 269.604 102.471 270.519 101.17C271.823 99.3187 277.676 97.5745 288.496 73.3047C288.55 73.1827 290.325 71.0151 290.91 82.9748C291.978 94.8733 293.546 106.987 297.027 114.06C297.32 114.657 301.706 117.824 293.981 121.691C293.981 121.691 287.178 123.787 281.454 123.179C282.879 123.479 284.086 123.718 284.953 123.893C293.731 125.653 296.535 123.98 299.845 122.223C307.475 118.173 306.294 109.291 305.998 108.694Z" fill="#231F20"/>
<path d="M214.92 116.4C217.077 113.211 228.818 108.695 230.368 108.038C236.722 108.19 235.315 113.366 235.3 113.456C234.861 116.695 234.507 116.86 227.587 122.239L222.077 127.762C222.077 127.762 220.702 129.322 220.53 127.24C220.47 126.492 222.13 124.325 222.788 122.763C222.788 122.763 216.927 128.498 215.874 128.811C214.02 129.365 213.895 127.895 213.456 127.867C212.495 127.814 211.988 127.755 212.003 126.782C212.024 124.979 214.196 121.122 213.964 121.278C213.421 121.636 211.753 124.346 210.886 125.19C210.324 125.732 209.632 125.258 209.717 124.918C210.267 122.748 213.381 118.69 214.92 116.4Z" fill="#D3A07D"/>
<path d="M272.464 35.8457C273.186 34.6326 273.818 35.0693 274.917 35.9534C275.21 36.189 276.236 36.6436 276.236 36.6436C277.485 37.4812 278.296 37.5955 277.832 38.4821L267.468 57.1246C267.161 57.8867 266.557 58.806 265.604 57.9674L262.411 53.6934C261.287 52.7012 261.508 52.5522 262.275 51.2606L272.464 35.8457Z" fill="#FDFFFF"/>
<defs>
<filter id="filter0_di_717_29360" x="0.2" y="94.5782" width="436.6" height="258.222" filterUnits="userSpaceOnUse" color-interpolation-filters="sRGB">
<feFlood flood-opacity="0" result="BackgroundImageFix"/>
<feColorMatrix in="SourceAlpha" type="matrix" values="0 0 0 0 0 0 0 0 0 0 0 0 0 0 0 0 0 0 127 0" result="hardAlpha"/>
<feOffset/>
<feGaussianBlur stdDeviation="4.4"/>
<feComposite in2="hardAlpha" operator="out"/>
<feColorMatrix type="matrix" values="0 0 0 0 0.0745098 0 0 0 0 0.509804 0 0 0 0 0.85098 0 0 0 0.4 0"/>
<feBlend mode="normal" in2="BackgroundImageFix" result="effect1_dropShadow_717_29360"/>
<feBlend mode="normal" in="SourceGraphic" in2="effect1_dropShadow_717_29360" result="shape"/>
<feColorMatrix in="SourceAlpha" type="matrix" values="0 0 0 0 0 0 0 0 0 0 0 0 0 0 0 0 0 0 127 0" result="hardAlpha"/>
<feOffset dx="-2" dy="-2"/>
<feGaussianBlur stdDeviation="4.6"/>
<feComposite in2="hardAlpha" operator="arithmetic" k2="-1" k3="1"/>
<feColorMatrix type="matrix" values="0 0 0 0 0 0 0 0 0 0 0 0 0 0 0 0 0 0 0.3 0"/>
<feBlend mode="normal" in2="shape" result="effect2_innerShadow_717_29360"/>
</filter>
</defs>
</svg>
