<svg width="76" height="76" viewBox="0 0 76 76" fill="none" xmlns="http://www.w3.org/2000/svg">
<path d="M60.2617 56.4236C62.0908 55.755 63.6702 54.5403 64.7861 52.9442C65.9019 51.348 66.5002 49.4475 66.5 47.5V22.1666C66.5 19.6471 65.4991 17.2307 63.7175 15.4491C61.9359 13.6675 59.5196 12.6666 57 12.6666H19C16.4804 12.6666 14.0641 13.6675 12.2825 15.4491C10.5009 17.2307 9.5 19.6471 9.5 22.1666V47.5C9.5 51.6705 12.1917 55.214 15.9283 56.4933" stroke="#188EF8" stroke-width="5" stroke-linecap="round" stroke-linejoin="round"/>
<path d="M25.3333 66.5C25.3333 64.8203 26.0005 63.2094 27.1882 62.0217C28.376 60.8339 29.9869 60.1667 31.6666 60.1667H44.3333C46.013 60.1667 47.6239 60.8339 48.8116 62.0217C49.9993 63.2094 50.6666 64.8203 50.6666 66.5M31.6666 44.3333C31.6666 46.013 32.3338 47.6239 33.5216 48.8117C34.7093 49.9994 36.3202 50.6667 37.9999 50.6667C39.6796 50.6667 41.2905 49.9994 42.4783 48.8117C43.666 47.6239 44.3333 46.013 44.3333 44.3333C44.3333 42.6536 43.666 41.0427 42.4783 39.855C41.2905 38.6673 39.6796 38 37.9999 38C36.3202 38 34.7093 38.6673 33.5216 39.855C32.3338 41.0427 31.6666 42.6536 31.6666 44.3333Z" stroke="#188EF8" stroke-width="5" stroke-linecap="round" stroke-linejoin="round"/>
</svg>
