<svg width="76" height="76" viewBox="0 0 76 76" fill="none" xmlns="http://www.w3.org/2000/svg">
<path d="M43.454 34.8334C46.3935 34.8334 49.2126 33.6657 51.2911 31.5872C53.3696 29.5087 54.5374 26.6896 54.5374 23.7501C54.5374 20.8106 53.3696 17.9915 51.2911 15.913C49.2126 13.8345 46.3935 12.6667 43.454 12.6667M42.3235 63.3334H12.9179C9.66885 63.3334 7.03735 60.9046 7.03735 57.9057C7.03735 50.4102 13.6209 44.3334 21.7402 44.3334H33.5012C36.6492 44.3222 39.7261 45.2687 42.3235 47.0473M60.8707 44.3334V63.3334M70.3707 53.8334H51.3707M38.704 23.7501C38.704 26.6896 37.5363 29.5087 35.4578 31.5872C33.3793 33.6657 30.5602 34.8334 27.6207 34.8334C24.6812 34.8334 21.8621 33.6657 19.7836 31.5872C17.7051 29.5087 16.5374 26.6896 16.5374 23.7501C16.5374 20.8106 17.7051 17.9915 19.7836 15.913C21.8621 13.8345 24.6812 12.6667 27.6207 12.6667C30.5602 12.6667 33.3793 13.8345 35.4578 15.913C37.5363 17.9915 38.704 20.8106 38.704 23.7501Z" stroke="#188EF8" stroke-width="4.10811" stroke-linecap="round" stroke-linejoin="round"/>
</svg>
