<svg width="76" height="76" viewBox="0 0 76 76" fill="none" xmlns="http://www.w3.org/2000/svg">
<path d="M21.09 24.472V25.8305C21.2705 27.2057 21.9925 28.4098 23.0375 29.222V30.59C23.0389 31.78 23.3739 32.9458 24.0045 33.955C24.635 34.9642 25.5359 35.7765 26.6047 36.2995C26.771 36.5893 26.9531 36.8695 27.151 37.1403H26.2889L26.3221 37.183H13.3C11.9938 37.183 10.9108 38.266 10.9108 39.6269V61.8949C9.36619 62.1721 7.91406 62.8266 6.68346 63.8003C5.45286 64.774 4.48193 66.0367 3.857 67.4762L3.85225 67.4857C2.86188 69.8132 4.52438 72.4375 7.106 72.4375H68.9035C71.3854 72.4375 73.1619 69.9153 72.1857 67.564L72.181 67.5522C71.5611 66.0971 70.5894 64.8188 69.3532 63.8322C68.117 62.8456 66.6551 62.1815 65.0988 61.8997V39.6269C65.0988 38.266 64.0157 37.183 62.7095 37.183H48.8632C49.0257 36.9574 49.1802 36.7261 49.3264 36.4895C50.4872 36.0068 51.479 35.1912 52.1769 34.1455C52.8747 33.0998 53.2472 31.8709 53.2475 30.6138V28.6354C54.1154 27.6942 54.5999 26.4624 54.606 25.1822V25.1513C54.6083 23.8607 54.1241 22.6166 53.2499 21.6672V20.71C53.2499 20.2279 53.4066 19.7268 53.7011 19.2993C54.3638 18.3564 54.777 17.2639 54.91 16.1358V14.5612C54.7532 13.2872 54.241 12.083 53.4321 11.0864C52.6232 10.0898 51.5502 9.34086 50.3358 8.92529L50.3239 8.92054C49.23 8.56632 48.2958 7.83813 47.6852 6.86379C47.0737 5.85671 46.2133 5.024 45.1867 4.44582C44.1601 3.86764 43.002 3.56345 41.8238 3.56254C40.8738 3.56254 39.957 3.76204 39.1495 4.10879L39.1424 4.11354C38.8354 4.24828 38.5038 4.31786 38.1686 4.31786C37.8334 4.31786 37.5018 4.24828 37.1949 4.11354L37.1711 4.10404C36.3292 3.74886 35.4249 3.56479 34.5111 3.56254C33.3558 3.55871 32.2187 3.84962 31.2071 4.40775C30.1956 4.96587 29.3432 5.77278 28.7304 6.75216C28.0891 7.76391 27.1154 8.53816 25.9991 8.92291C24.3616 9.48398 22.9978 10.645 22.1825 12.1719C20.9428 14.4828 21.2087 17.2307 22.6005 19.2565C22.8855 19.6959 23.0399 20.2042 23.0399 20.6863V21.0805L22.9259 21.1755C21.9426 21.983 21.2658 23.1468 21.09 24.472ZM47.1746 35.454C46.8516 35.948 46.4819 36.4009 46.0655 36.8125H29.9844L29.735 36.556C28.587 35.3193 27.8488 33.7583 27.6213 32.0863L27.3481 27.9253L26.201 27.93C25.4942 27.9289 24.8145 27.6586 24.3 27.1739C23.7855 26.6893 23.4751 26.0269 23.4318 25.3214C23.3885 24.616 23.6157 23.9206 24.067 23.3767C24.5184 22.8328 25.16 22.4814 25.8614 22.3939L26.9776 22.2562L26.7734 19.1544C26.8039 17.3408 27.5452 15.6117 28.8377 14.3391C30.1303 13.0665 31.8708 12.3523 33.6846 12.35H36.7721C36.8609 12.3524 36.9471 12.3809 37.0198 12.4321C37.0924 12.4832 37.1484 12.5546 37.1806 12.6374L37.1854 12.6469C37.7464 13.8862 38.6539 14.9367 39.7984 15.672C40.9429 16.4074 42.2755 16.796 43.6359 16.7913H46.9989C47.6034 16.8286 48.1699 17.0989 48.5792 17.5454C48.9885 17.9919 49.2087 18.5798 49.1934 19.1853L49.1649 20.387L49.0509 22.2182L50.0484 22.4367C50.5091 22.5364 50.9271 22.7502 51.2715 23.0494L51.281 23.0589C51.3538 23.1207 51.4227 23.1872 51.4876 23.2584C51.742 23.5305 51.939 23.8511 52.0667 24.201C52.1945 24.5509 52.2504 24.9229 52.2311 25.2949C52.2118 25.6669 52.1177 26.0312 51.9545 26.366C51.7912 26.7009 51.5622 26.9993 51.281 27.2437L51.2715 27.2532C50.833 27.6343 50.2852 27.8671 49.7064 27.9182L48.6899 28.0108L48.4381 32.0863C48.2678 33.2876 47.8365 34.4371 47.1746 35.454ZM6.03963 68.419C6.46448 67.4402 7.10308 66.5689 7.90858 65.869C8.71408 65.1691 9.66604 64.6584 10.6946 64.3744V70.0625H7.10838C6.91347 70.0623 6.7217 70.0134 6.55047 69.9203C6.37924 69.8272 6.23397 69.6928 6.12782 69.5293C6.02167 69.3659 5.95801 69.1785 5.94261 68.9842C5.92721 68.7899 5.96056 68.5948 6.03963 68.4167M65.3196 64.3792C66.3565 64.6689 67.3151 65.1877 68.1248 65.8971C68.9345 66.6066 69.5748 67.4887 69.9984 68.4784C70.0664 68.6552 70.0903 68.8459 70.0679 69.034C70.0455 69.2221 69.9775 69.4019 69.8698 69.5578C69.7622 69.7137 69.6181 69.8409 69.4501 69.9284C69.2821 70.016 69.0953 70.0612 68.9059 70.0602H65.3196V64.3792ZM35.2759 50.5804H40.7289C41.0438 50.5804 41.3459 50.7055 41.5686 50.9282C41.7913 51.1509 41.9164 51.453 41.9164 51.7679V57.3492C41.9164 57.6641 41.7913 57.9661 41.5686 58.1888C41.3459 58.4115 41.0438 58.5367 40.7289 58.5367H35.2759C34.9609 58.5367 34.6589 58.4115 34.4362 58.1888C34.2135 57.9661 34.0884 57.6641 34.0884 57.3492V51.7679C34.0884 51.453 34.2135 51.1509 34.4362 50.9282C34.6589 50.7055 34.9609 50.5804 35.2759 50.5804Z" fill="#188EF8"/>
</svg>
