<svg width="34" height="33" viewBox="0 0 34 33" fill="none" xmlns="http://www.w3.org/2000/svg">
<path d="M16.9824 0.400269C7.78471 0.410269 0.333374 7.86894 0.333374 17.0669C0.338068 19.6776 0.955997 22.2507 2.13736 24.5788C3.31873 26.9069 5.0305 28.925 7.13471 30.4703C7.04638 29.7933 7.06371 29.0943 7.17371 28.403C6.0739 27.4484 5.11829 26.3394 4.33671 25.1106H8.48505C8.87905 24.4956 9.28505 23.8873 9.99338 23.4439C9.57838 21.7439 9.32471 19.8719 9.27805 17.9003H9.72671C9.86002 17.3167 10.0767 16.7554 10.37 16.2336H9.28905C9.35971 14.2553 9.63671 12.3823 10.0767 10.6903H16.1667V13.6529C16.756 13.7435 17.322 13.9477 17.8334 14.2543V10.6903H24.2317C24.3184 11.0226 24.3967 11.3636 24.4701 11.7093C25.0309 11.6235 25.6005 11.6104 26.1647 11.6703C26.1002 11.3422 26.0292 11.0155 25.9517 10.6903H30.5817C31.2746 12.1663 31.7211 13.7459 31.9034 15.3663C32.0967 17.0493 32.1004 19.0246 31.4881 20.9566C31.2894 21.6948 31.0347 22.4166 30.7261 23.1159C31.1021 23.5116 31.5574 23.8856 32.0151 24.2673C33.0973 22.0209 33.6617 19.5604 33.6667 17.0669C33.6667 7.86227 26.2047 0.400269 17.0001 0.400269H16.9824ZM17.8334 2.29427C19.5894 2.59294 21.2674 4.0396 22.5894 6.43994C23.0154 7.21361 23.3961 8.08227 23.7254 9.02327H17.8334V2.29427ZM16.1667 2.35994V9.02327H10.5834C10.9127 8.08227 11.2934 7.21361 11.7194 6.43994C12.9634 4.1806 14.5237 2.76727 16.1667 2.35994ZM12.3267 2.81094C11.552 3.59494 10.8567 4.55094 10.259 5.63594C9.69905 6.65261 9.21738 7.79161 8.82171 9.02327H4.33671C6.18171 6.12127 8.99505 3.89994 12.3267 2.81094ZM22.1301 2.96527C25.2627 4.10294 27.9034 6.25461 29.6634 9.02327H25.4851C25.0904 7.79161 24.6094 6.65261 24.0494 5.63594C23.4907 4.62094 22.8447 3.7196 22.1301 2.96527ZM3.41904 10.6903H8.35505C7.94005 12.4109 7.68571 14.2769 7.62071 16.2339H2.02404C2.12765 14.3136 2.60122 12.4313 3.41871 10.6906M2.02404 17.9003H7.61138C7.65438 19.8523 7.88471 21.7183 8.27605 23.4436H3.41871C2.60122 21.7029 2.12765 19.8206 2.02404 17.9003Z" fill="#188EF8"/>
<path d="M25.1636 13.7336C22.6784 13.7336 20.6642 15.7481 20.6642 18.2329C20.6642 20.7178 22.6784 22.7323 25.1636 22.7323C27.6481 22.7323 29.6629 20.7178 29.6629 18.2329C29.6629 15.7481 27.6481 13.7336 25.1636 13.7336ZM25.1636 23.3991C20.1933 23.3991 17.9646 25.6281 17.9646 30.598V31.1979C17.9871 32.3798 18.5096 32.4146 19.6144 32.3978H30.7128C32.1211 32.3966 32.3721 32.3993 32.3625 31.1979V30.598C32.3625 25.6281 30.1333 23.3991 25.1636 23.3991ZM15.565 15.4196C13.5292 15.4196 11.8782 17.0706 11.8782 19.1067C11.8782 21.1425 13.5292 22.7929 15.565 22.7929C17.6008 22.7929 19.2514 21.1425 19.2514 19.1064C19.2514 17.0703 17.6008 15.4196 15.565 15.4196ZM15.565 23.3391C11.4931 23.3391 9.66663 25.1658 9.66663 29.2374V29.7291C9.68522 30.6973 10.1133 30.7258 11.0182 30.712H16.7543C16.6079 28.286 17.3245 25.7093 19.1093 24.0713C18.2058 23.5775 17.0321 23.3391 15.565 23.3391Z" fill="#188EF8"/>
</svg>
