<svg width="34" height="25" viewBox="0 0 34 25" fill="none" xmlns="http://www.w3.org/2000/svg">
<path d="M22.3181 12.2803C20.9163 12.2803 19.5608 11.6544 18.4999 10.5184C17.4683 9.41049 16.8383 7.93299 16.7272 6.35936C16.6085 4.68072 17.1206 3.13709 18.1685 2.01209C19.2165 0.887091 20.6817 0.280273 22.3181 0.280273C23.9429 0.280273 25.4122 0.898 26.4567 2.02027C27.5115 3.15345 28.0249 4.69436 27.9063 6.35868C27.7924 7.93435 27.1631 9.41117 26.1335 10.5178C25.0753 11.6544 23.7206 12.2803 22.3181 12.2803ZM31.3065 24.2802H13.3304C13.0413 24.2818 12.7558 24.217 12.4958 24.0909C12.2357 23.9648 12.0081 23.7807 11.8304 23.5527C11.6418 23.3057 11.5117 23.0192 11.4495 22.7146C11.3874 22.4101 11.395 22.0955 11.4717 21.7943C12.0458 19.4891 13.4681 17.5773 15.5844 16.2662C17.4629 15.103 19.854 14.4621 22.3181 14.4621C24.8306 14.4621 27.159 15.0757 29.0483 16.2382C31.1694 17.5425 32.5938 19.4653 33.1651 21.7984C33.2409 22.0998 33.2476 22.4144 33.1848 22.7188C33.122 23.0231 32.9913 23.3094 32.8024 23.5562C32.6248 23.783 32.3977 23.9662 32.1384 24.0917C31.8791 24.2172 31.5945 24.2817 31.3065 24.2802ZM9.43173 12.553C7.03241 12.553 4.92287 10.3221 4.72719 7.58049C4.63037 6.17595 5.0681 4.87709 5.95446 3.92459C6.83128 2.98163 8.06809 2.46209 9.43173 2.46209C10.7954 2.46209 12.0226 2.98436 12.9042 3.93277C13.7974 4.89277 14.2338 6.1889 14.1315 7.58186C13.9358 10.3228 11.827 12.553 9.43173 12.553ZM13.9085 14.6973C12.7092 14.1109 11.1526 13.8178 9.43241 13.8178C7.42378 13.8178 5.4731 14.3414 3.93901 15.2918C2.19969 16.3712 1.02969 17.9428 0.557195 19.8403C0.488049 20.1132 0.481509 20.3982 0.538064 20.674C0.59462 20.9498 0.712807 21.2093 0.883786 21.433C1.04602 21.6412 1.25387 21.8095 1.49133 21.9249C1.7288 22.0403 1.98956 22.0996 2.25356 22.0984H9.82173C9.94947 22.0984 10.0731 22.0536 10.1712 21.9717C10.2693 21.8898 10.3355 21.7762 10.3583 21.6505C10.3658 21.6075 10.3754 21.5646 10.3863 21.5223C10.9645 19.2 12.3192 17.2378 14.321 15.8073C14.3947 15.7542 14.4539 15.6836 14.4933 15.6019C14.5328 15.5201 14.5512 15.4298 14.5469 15.3392C14.5427 15.2485 14.5159 15.1604 14.4689 15.0827C14.422 15.005 14.3564 14.9403 14.2781 14.8943C14.171 14.8316 14.0483 14.7655 13.9085 14.6973Z" fill="#188EF8"/>
</svg>
