<svg width="39" height="34" viewBox="0 0 39 34" fill="none" xmlns="http://www.w3.org/2000/svg">
<path d="M8.12417 21.5079L4.8755 18.2538L1.625 21.5079M30.8758 13.1131L34.1245 16.3691L37.375 13.1131" stroke="#188EF8" stroke-width="1.5" stroke-linecap="round" stroke-linejoin="round"/>
<path d="M34.1245 16.3691C34.1245 12.4824 32.5845 8.75894 29.8418 6.01077C28.4847 4.65091 26.8727 3.57204 25.0981 2.83591C23.3235 2.09978 21.4212 1.72084 19.5 1.72077C17.6338 1.71929 15.7849 2.07849 14.055 2.7786C12.1239 3.55288 10.3801 4.73014 8.94006 6.23183C7.50003 7.73351 6.39685 9.52507 5.70416 11.4869M4.87549 18.2519C4.8783 21.652 6.06231 24.9454 8.22499 27.5689C10.3853 30.1894 13.391 31.9754 16.7253 32.6202C20.0597 33.2649 23.5145 32.728 26.496 31.1018C29.4773 29.4722 31.8004 26.8582 33.0685 23.7061" stroke="#188EF8" stroke-width="2" stroke-linecap="round" stroke-linejoin="round"/>
<path d="M15.0634 20.9066C15.1588 21.995 15.6765 23.0027 16.5058 23.7141C17.335 24.4255 18.4098 24.7839 19.5 24.7126C23.0787 24.7126 23.9367 22.6538 23.9367 20.9066C23.9367 19.1594 22.4572 17.3078 19.5 17.3078C16.5429 17.3078 15.0634 16.1381 15.0634 13.7548C15.1044 12.9289 15.396 12.1351 15.8994 11.4791C16.4028 10.8231 17.0941 10.336 17.8812 10.0826C18.4037 9.91394 18.9537 9.85344 19.5 9.90477C20.5916 9.85734 21.6599 10.23 22.4852 10.9461C23.3104 11.6622 23.8299 12.6674 23.9367 13.7548M19.5 26.9309V25.0041M19.5 7.67911V9.89744" stroke="#188EF8" stroke-width="2" stroke-linecap="round" stroke-linejoin="round"/>
</svg>
