<svg width="24" height="35" viewBox="0 0 24 35" fill="none" xmlns="http://www.w3.org/2000/svg">
<path d="M11.8084 0.280273C10.5128 0.280273 9.20969 0.428555 8.20617 0.705648C7.20264 0.981992 6.55859 1.42759 6.42379 1.70543C4.25198 6.04679 4.10969 11.4838 4.1022 15.1085H19.5145C19.507 11.4838 19.3648 6.04679 17.193 1.70543C17.0581 1.42759 16.4141 0.981992 15.4106 0.705648C14.407 0.428555 13.104 0.280273 11.8084 0.280273ZM10.0859 16.4565V17.5049H13.5308V16.4565H10.0859ZM2.52952 18.853C2.0652 19.3697 1.63833 20.0812 1.54097 20.6878C1.42863 21.3393 1.52599 21.8186 2.39471 22.2979H21.222C22.0907 21.8186 22.1881 21.3393 22.0758 20.6878C21.9784 20.0812 21.5515 19.3697 21.0872 18.853H2.52952ZM11.1344 23.6459V26.0424L2.05771 28.3115L2.38722 29.6146L11.1344 27.4279V29.5622C11.3515 29.5173 11.5762 29.4873 11.8084 29.4873C12.0405 29.4873 12.2652 29.5173 12.4824 29.5622V27.4279L21.2295 29.6146L21.559 28.3115L12.4824 26.0424V23.6459H11.1344ZM2.22247 30.8353C1.26388 30.8353 0.5 31.5992 0.5 32.5578C0.5 33.5164 1.26388 34.2803 2.22247 34.2803C3.18106 34.2803 3.94493 33.5164 3.94493 32.5578C3.94493 31.5992 3.18106 30.8353 2.22247 30.8353ZM11.8084 30.8353C10.8498 30.8353 10.0859 31.5992 10.0859 32.5578C10.0859 33.5164 10.8498 34.2803 11.8084 34.2803C12.767 34.2803 13.5308 33.5164 13.5308 32.5578C13.5308 31.5992 12.767 30.8353 11.8084 30.8353ZM21.3943 30.8353C20.4357 30.8353 19.6718 31.5992 19.6718 32.5578C19.6718 33.5164 20.4357 34.2803 21.3943 34.2803C22.3529 34.2803 23.1167 33.5164 23.1167 32.5578C23.1167 31.5992 22.3529 30.8353 21.3943 30.8353Z" fill="#188EF8"/>
</svg>
